<svg xmlns="http://www.w3.org/2000/svg" width="180" height="180" viewBox="0 0 180 180" fill="none"><metadata><rdf:RDF xmlns:rdf="http://www.w3.org/1999/02/22-rdf-syntax-ns#" xmlns:dc="http://purl.org/dc/elements/1.1/"><rdf:Description><dc:creator>RealFaviconGenerator</dc:creator><dc:source>https://realfavicongenerator.net</dc:source></rdf:Description></rdf:RDF></metadata><path d="M0 24.4912C0 10.9651 10.9651 0 24.4911 0H155.509C169.035 0 180 10.9651 180 24.4911V155.509C180 169.035 169.035 180 155.509 180H24.4912C10.9651 180 0 169.035 0 155.509V24.4912Z" fill="black"></path><path fill-rule="evenodd" clip-rule="evenodd" d="M126.667 75.7167C126.667 76.3295 126.667 76.9422 126.617 77.555V77.6517C126.517 79.8447 126.185 82.0054 125.654 84.0856C124.924 87.0526 123.812 89.8744 122.351 92.5028C121.754 93.5993 120.11 93.4864 119.596 92.3415V92.3093C119.446 91.9545 119.28 91.5837 119.098 91.2128C118.974 90.9609 118.842 90.7179 118.707 90.4706L118.706 90.4701C118.66 90.3851 118.613 90.2996 118.567 90.213C118.567 90.1941 118.555 90.1808 118.546 90.1697C118.539 90.1619 118.533 90.1552 118.533 90.1485L118.533 90.1478L118.533 90.1477C118.334 89.7932 118.135 89.4388 117.919 89.1004C117.9 89.0525 117.868 89.0045 117.839 88.9599C117.819 88.9296 117.8 88.9008 117.786 88.8747L117.783 88.87L117.783 88.8691C117.668 88.6935 117.553 88.5179 117.421 88.3264C117.272 88.1007 117.122 87.891 116.957 87.6653C116.342 86.8107 115.678 86.0044 114.965 85.2466C114.732 84.9886 114.483 84.7467 114.234 84.5209C114.212 84.4994 114.19 84.4761 114.168 84.4528C114.124 84.4063 114.079 84.3597 114.035 84.3274C113.056 83.3761 112.01 82.5053 110.898 81.7313C110.383 81.3766 110.151 80.7638 110.284 80.1672C110.483 79.3448 110.632 78.4902 110.715 77.6356C110.749 77.3453 110.765 77.039 110.782 76.7326C110.782 76.5552 110.79 76.3819 110.798 76.2085L110.798 76.2083C110.807 76.035 110.815 75.8618 110.815 75.6845C110.815 73.8462 110.566 72.0564 110.085 70.3794L110.054 70.2749C109.998 70.0805 109.939 69.8797 109.869 69.7021C108.856 66.5578 107.08 63.7359 104.74 61.4623C104.043 60.7689 103.279 60.1239 102.482 59.5434L102.449 59.5112C101.652 58.9307 100.823 58.3985 99.9262 57.9471C98.6481 57.2698 97.3202 56.7216 95.9093 56.3184C95.4114 56.1572 94.93 56.0443 94.432 55.9476C93.0045 55.6412 91.5273 55.4799 90.0168 55.4799C88.5063 55.4799 87.0289 55.6412 85.6015 55.9476C85.1035 56.0443 84.6056 56.1733 84.1242 56.3184C82.6802 56.7377 81.2858 57.302 79.9911 57.9954C79.7259 58.1242 79.4773 58.2691 79.2287 58.414L79.2287 58.414L79.2276 58.4147C77.8001 59.2693 76.4722 60.2852 75.2937 61.43C74.6464 62.0589 74.0322 62.7362 73.4844 63.4618C72.0403 65.3 70.9116 67.3963 70.1813 69.6699C70.0983 69.8956 70.0319 70.1214 69.9655 70.3471C69.4841 72.0241 69.2351 73.814 69.2351 75.6522C69.2351 76.007 69.2352 76.3456 69.2684 76.7003V76.7013C69.2684 76.8623 69.2684 77.0232 69.3015 77.1841V77.2808V77.4743V77.6195V77.6517C69.3186 77.7099 69.3269 77.7724 69.3355 77.837C69.3436 77.8976 69.3519 77.9601 69.3679 78.0226C69.3679 78.1032 69.368 78.1838 69.4012 78.2806V78.2808C69.4012 78.313 69.4012 78.3451 69.4343 78.3773C69.4578 78.5026 69.4978 78.636 69.5368 78.766L69.5369 78.7662C69.5531 78.8202 69.5691 78.8736 69.5837 78.9256C69.6169 79.103 69.6833 79.2803 69.7663 79.4577C69.8991 79.7802 70.0651 80.0866 70.2311 80.3768C70.2311 80.4091 70.2643 80.4575 70.3141 80.4897C70.3395 80.5267 70.3638 80.5627 70.3876 80.5979L70.3879 80.5983C70.4572 80.7009 70.5221 80.7969 70.5962 80.8928C70.6958 81.0379 70.812 81.1831 70.9448 81.3121L70.9449 81.3121C71.0113 81.3927 71.0776 81.4733 71.144 81.5217C71.1661 81.5432 71.1864 81.5647 71.2067 81.5862C71.2473 81.6292 71.2879 81.6722 71.3432 81.7152C71.6088 81.9893 71.8909 82.2151 72.2063 82.4086C72.505 82.6021 72.8204 82.7794 73.1524 82.9407C73.169 82.9407 73.1856 82.9488 73.2022 82.9568C73.2188 82.9649 73.2354 82.9729 73.252 82.9729C73.4013 83.0535 73.5507 83.1019 73.7001 83.1503L73.7002 83.1503C74.3973 83.4083 75.1775 83.5534 75.9742 83.5534H96.0421C100.291 83.5534 104.093 84.8596 107.163 87.0364C111.944 90.4065 114.931 95.8729 115.014 101.71C115.064 104.355 114.517 107.08 113.238 109.724C111.695 112.981 109.221 115.642 106.234 117.496C103.246 119.351 99.7271 120.383 96.0421 120.383H73.2355C72.4221 120.383 71.6918 119.931 71.3266 119.222L65.6 107.918C64.9028 106.548 65.932 104.935 67.5089 104.935H96.3409C97.287 104.935 98.4323 104.29 98.9137 103.516C100.242 101.565 98.8141 98.9689 96.3906 98.9689H73.8994C72.7872 98.9689 71.6918 98.8721 70.6295 98.7109C63.243 97.5338 57.0184 92.4705 54.7776 85.5046C54.5618 84.8596 54.3959 84.1984 54.2465 83.5373C53.649 81.0057 53.3335 78.3612 53.3335 75.6361C53.3335 74.459 53.3834 73.3141 53.4995 72.1854C53.5327 71.7339 53.5991 71.2985 53.6655 70.8631C53.7153 70.4439 53.7817 70.0246 53.8647 69.6054C53.9311 69.2184 54.0141 68.8153 54.0971 68.4283C54.112 68.3629 54.1236 68.3008 54.1348 68.2406C54.1486 68.167 54.1618 68.096 54.18 68.0251C54.2796 67.574 54.3956 67.139 54.5117 66.7041L54.5117 66.704L54.512 66.7029C54.6282 66.2191 54.7776 65.7515 54.927 65.2839L54.927 65.2839C55.0331 64.9362 55.1497 64.5987 55.2685 64.2551L55.2685 64.2551C55.2985 64.1685 55.3285 64.0815 55.3586 63.9939C55.3586 63.9482 55.3752 63.9106 55.3909 63.8753C55.3973 63.8608 55.4035 63.8467 55.4083 63.8326C55.4636 63.6878 55.517 63.5429 55.5704 63.398C55.6775 63.1075 55.7846 62.817 55.9064 62.5265C56.0724 62.1073 56.2384 61.7203 56.4209 61.3333C56.4541 61.2365 56.5039 61.1237 56.5537 61.0269C56.7195 60.6403 56.9185 60.2698 57.1174 59.8993L57.1181 59.8982V59.8659C57.5496 59.0113 58.0309 58.1728 58.5289 57.3504C59.0269 56.5281 59.5747 55.7218 60.139 54.9639C60.139 54.9639 60.139 54.9639 60.147 54.9562C60.1518 54.9515 60.1596 54.9439 60.1722 54.9317C61.0187 53.7707 61.9483 52.6742 62.9442 51.6099C63.2762 51.2552 63.6082 50.9166 63.9567 50.578C64.5211 50.0297 65.102 49.4976 65.6996 48.9816C66.5959 48.2076 67.5254 47.482 68.5048 46.7886C68.7925 46.5844 69.0949 46.3801 69.3974 46.1759L69.3974 46.1758C69.5487 46.0737 69.6999 45.9716 69.8493 45.8695C70.314 45.5792 70.7789 45.289 71.2602 45.0149C71.725 44.7407 72.2063 44.4666 72.6877 44.2247C73.6504 43.7249 74.6629 43.2572 75.6754 42.838L75.6757 42.8379C76.1902 42.6283 76.7046 42.4187 77.2191 42.2414C78.2648 41.8705 79.3437 41.5319 80.4227 41.2577C80.6463 41.2034 80.8647 41.144 81.0808 41.0853L81.0809 41.0853C81.2497 41.0393 81.4171 40.9938 81.5846 40.9514C81.983 40.8546 82.3648 40.774 82.7631 40.6934H82.7963C83.9084 40.4837 85.0537 40.3064 86.2156 40.1935C86.7302 40.1451 87.2448 40.0967 87.7594 40.0806C88.5063 40.0323 89.2698 40 90.0168 40C90.6309 40 91.2451 40 91.8592 40.0484C92.0252 40.0484 92.1746 40.0484 92.3572 40.0806C92.5033 40.0911 92.6476 40.0999 92.7914 40.1087C93.0885 40.1268 93.383 40.1448 93.685 40.1774C93.7536 40.1774 93.8178 40.186 93.8799 40.1943C93.9379 40.2021 93.9941 40.2096 94.0503 40.2096C94.515 40.2419 94.9798 40.3064 95.428 40.3709C95.9757 40.4515 96.5069 40.5321 97.038 40.645C97.287 40.6772 97.5526 40.7417 97.8016 40.8062C98.3991 40.9191 98.9966 41.0642 99.5942 41.2255C100.042 41.3222 100.491 41.4512 100.939 41.5964C101.453 41.7576 101.968 41.9189 102.482 42.0962C103.545 42.4671 104.59 42.8864 105.603 43.354C105.852 43.4669 106.101 43.5797 106.35 43.7087C106.445 43.755 106.54 43.8 106.635 43.8447C106.871 43.956 107.104 44.066 107.329 44.1925C107.429 44.2462 107.53 44.2999 107.632 44.3536C107.834 44.4612 108.037 44.5687 108.226 44.6762C108.248 44.6762 108.27 44.6906 108.292 44.7049C108.303 44.7121 108.314 44.7192 108.325 44.7246L109.222 45.2567C109.72 45.547 110.234 45.8695 110.732 46.2081C110.964 46.3532 111.18 46.4983 111.413 46.6757C111.545 46.7723 111.678 46.8672 111.81 46.962L111.811 46.9621C112.076 47.1521 112.342 47.3421 112.608 47.5465L112.608 47.5469C112.724 47.6274 112.84 47.7079 112.973 47.8206L113.653 48.3688C113.936 48.5946 114.201 48.8203 114.467 49.0622C114.732 49.288 114.981 49.5137 115.23 49.7395C115.778 50.2393 116.309 50.7553 116.807 51.2875C116.902 51.3922 117.001 51.497 117.102 51.6028L117.102 51.6029C117.25 51.7577 117.4 51.9148 117.538 52.0776C117.787 52.3356 118.019 52.6097 118.235 52.8677C118.382 53.0249 118.503 53.1822 118.632 53.3506L118.683 53.4159C118.792 53.5342 118.902 53.6699 119.005 53.7974L119.005 53.7976C119.042 53.8439 119.079 53.889 119.114 53.9319C119.211 54.0535 119.301 54.1751 119.39 54.2935C119.454 54.3793 119.516 54.4634 119.579 54.5447C119.812 54.8349 120.011 55.1091 120.21 55.3993C120.509 55.8186 120.791 56.2217 121.056 56.6409C121.123 56.7216 121.173 56.8022 121.222 56.8989C121.521 57.3343 121.787 57.8019 122.052 58.2695V58.3018C122.351 58.8178 122.617 59.3177 122.882 59.8498C123.164 60.398 123.413 60.9302 123.646 61.4784C123.828 61.8977 124.011 62.3169 124.194 62.7523L124.343 63.1393C124.509 63.5424 124.642 63.9294 124.775 64.3486C124.941 64.7518 125.057 65.1388 125.173 65.558C125.289 65.9128 125.405 66.2836 125.488 66.6545C125.638 67.1866 125.77 67.7026 125.87 68.2509L125.9 68.3915C126.006 68.8904 126.11 69.3782 126.185 69.8795C126.501 71.75 126.667 73.6689 126.667 75.6361V75.7167ZM101.774 126.591C102.923 126.591 103.678 127.808 103.175 128.866C102.868 129.514 102.561 130.159 102.254 130.804C101.947 131.449 101.64 132.094 101.333 132.743C99.3183 137.036 94.9898 140 90.0002 140C85.0105 140 80.6977 137.036 78.6673 132.743L78.6608 132.729C78.0491 131.436 77.4374 130.143 76.8257 128.866C76.322 127.808 77.0776 126.591 78.2266 126.591H101.774ZM98.3335 70.7029C98.3335 75.3053 94.6026 79.0362 90.0002 79.0362C85.3978 79.0362 81.6668 75.3053 81.6668 70.7029C81.6668 66.1005 85.3978 62.3695 90.0002 62.3695C94.6026 62.3695 98.3335 66.1005 98.3335 70.7029Z" fill="url(#paint0_linear_327_3211)"></path><defs>
<linearGradient id="paint0_linear_327_3211" x1="99.5835" y1="42.9167" x2="90.2085" y2="139.583" gradientUnits="userSpaceOnUse">
<stop stop-color="#FFB74B"></stop>
<stop offset="0.486855" stop-color="#FF6550"></stop>
<stop offset="1" stop-color="#6769FF"></stop>
</linearGradient>
</defs><style>@media (prefers-color-scheme: light) { :root { filter: none; } }
@media (prefers-color-scheme: dark) { :root { filter: none; } }
</style></svg>