<svg width="1286" height="274" viewBox="0 0 1286 274" fill="none" xmlns="http://www.w3.org/2000/svg">
<path d="M102.942 8.31863C122.127 8.31863 139.258 11.93 154.369 19.1132L154.4 19.1268C169.775 26.0699 181.742 35.7104 190.364 48.0269L190.378 48.0472C198.902 59.886 203.438 73.1933 203.989 88.0146H151.724C150.164 76.9637 145.237 67.984 136.929 61.1873C128.23 53.8189 116.843 50.2132 102.942 50.2132C90.112 50.2133 79.6462 52.9057 71.7049 58.4641C63.6463 64.1048 59.6232 72.215 59.6232 82.5665C59.6233 90.0298 62.0434 96.0803 67.0114 100.496L67.0317 100.513L67.0537 100.531C71.832 104.513 78.4971 107.75 86.9399 110.308L86.9873 110.322C95.3744 112.609 108.285 115.392 125.683 118.669C143.246 121.931 157.994 126.061 169.946 131.04L169.962 131.047C181.767 135.72 191.213 142.961 198.319 152.762L199.02 153.697C205.838 163.043 209.331 175.568 209.331 191.435C209.331 207.221 205.022 221.364 196.412 233.914C187.79 246.229 175.697 255.998 160.06 263.195C145.174 270.157 128.381 273.771 109.673 273.99L107.857 274C86.8993 274 68.2513 270.257 51.8779 262.818C35.7517 255.124 23.1502 244.607 14.018 231.281C5.21971 218.441 0.546753 204.12 0 188.278L52.2113 188.99C53.5476 201.813 58.996 212.305 68.5584 220.357L68.577 220.374L68.5956 220.39C78.8096 228.507 92.2053 232.483 108.614 232.483L109.88 232.475C122.898 232.304 133.675 229.482 142.086 223.875C151.116 217.766 155.712 209.292 155.712 198.617C155.712 191.156 153.165 185.119 147.98 180.719C143.169 176.178 136.331 172.8 127.611 170.488C119.209 167.944 106.17 164.91 88.5377 161.383L88.5174 161.38L85.3066 160.759C69.4238 157.603 56.0136 153.686 45.0534 149.026C33.4784 143.854 24.0159 136.359 16.6399 126.534C9.60392 116.58 6.00531 103.36 6.00531 86.7241C6.00535 71.685 10.0667 58.2958 18.175 46.5027C26.5484 34.6906 38.0131 25.4326 52.626 18.7457C67.4897 11.81 84.259 8.31868 102.942 8.31863ZM1189.36 78.6409C1208.03 78.8746 1224.41 82.7285 1238.54 90.1501L1238.55 90.1569L1238.57 90.1654C1253.4 97.5813 1264.87 108.189 1273.01 122.004L1273.02 122.019L1273.03 122.036C1281.14 135.165 1285.48 150.65 1285.96 168.549L1286 170.29C1286 176.398 1285.58 181.858 1284.77 186.676H1143.48V190.001L1143.48 190.077C1144.77 204.479 1149.42 215.977 1157.57 224.395C1165.78 232.865 1176.98 237.018 1190.95 237.018C1202.03 237.018 1211.32 234.7 1218.73 229.939C1226.07 225.131 1231 218.252 1233.49 209.424H1282.65C1280.5 221.198 1275.81 231.856 1268.58 241.42C1260.96 251.5 1250.86 259.517 1238.25 265.456C1226.05 270.957 1212.07 273.816 1196.27 273.99L1194.73 273.998C1173.94 273.998 1155.94 270.251 1140.66 262.819L1139.19 262.089C1123.85 254.174 1112.01 242.939 1103.61 228.369C1095.47 213.549 1091.37 196.339 1091.37 176.691C1091.37 156.769 1095.35 139.552 1103.25 124.984C1111.42 110.141 1122.65 98.789 1136.97 90.8885C1151.55 82.7361 1168.4 78.629 1187.55 78.629L1189.36 78.6409ZM934.787 82.0499V191.757C934.557 203.801 938.459 214.598 946.107 222.197C953.688 229.798 964.43 233.61 976.721 233.027H978.031C988.994 232.931 998.439 229.342 1005.29 222.725L1005.32 222.759L1006.54 221.455C1013.45 214.104 1016.85 204.004 1017.03 193.019L1017.04 192.978V82.1211H1067.54V186.233H1067.4V192.981L1067.4 193.005C1067.78 218.979 1057.04 238.393 1040.52 251.64L1038.88 252.922C1021.16 266.411 1000.18 273.338 975.875 273.338C952.33 273.338 931.911 266.837 914.546 254.167L912.875 252.922C896.476 240.446 885.347 222.189 884.35 197.825L884.284 195.393V82.0499H934.787ZM276.825 10.5846V166.383L355.683 80.8967H410.731L343.312 154.941L415.33 271.729H357.773L307.936 191.996L276.825 225.529V271.729H226.987V10.5846H276.825ZM482.101 80.8967V271.729H432.262V80.8967H482.101ZM565.544 10.5846V271.729H515.705V10.5846H565.544ZM650.725 10.5846V271.729H600.887V10.5846H650.725ZM721.871 82.5004L770.085 224.771L817.518 82.5004H869.843L801.046 271.526H737.203L668.407 82.5004H721.871ZM1189.82 114.852C1177.86 114.852 1167.62 118.371 1159.22 125.464C1151.03 132.329 1146.19 141.69 1144.62 153.404L1144.36 155.366H1236.44L1236.14 153.376C1234.33 141.183 1229.23 131.685 1220.77 125.066C1212.6 118.219 1202.23 114.852 1189.82 114.852ZM457.37 0C465.77 0 472.627 2.74195 478.072 8.18654L478.099 8.21363C483.529 13.4067 486.259 19.999 486.259 28.1296C486.259 36.2607 483.528 42.9953 478.072 48.4503C472.627 53.8949 465.77 56.6368 457.37 56.6368C448.97 56.6368 441.971 53.8926 436.264 48.4232C430.996 43.1436 428.277 36.6675 428.112 28.8883L428.104 28.1296C428.104 19.9989 430.834 13.4067 436.264 8.21363L436.803 7.70727C442.411 2.57431 449.232 3.45166e-05 457.37 0Z" fill="url(#paint0_linear_225_702)"/>
<defs>
<linearGradient id="paint0_linear_225_702" x1="643" y1="0" x2="643" y2="274" gradientUnits="userSpaceOnUse">
<stop stop-color="white" stop-opacity="0.22"/>
<stop offset="1" stop-color="white" stop-opacity="0"/>
</linearGradient>
</defs>
</svg>
