<svg width="240" height="240" viewBox="0 0 240 240" fill="none" xmlns="http://www.w3.org/2000/svg">
<path fill-rule="evenodd" clip-rule="evenodd" d="M208 85.7201C208 87.1907 208 88.6613 207.88 90.1319V90.3641C207.641 95.6273 206.845 100.813 205.57 105.805C203.817 112.926 201.148 119.699 197.642 126.007C196.208 128.638 192.264 128.367 191.029 125.62V125.542C190.671 124.691 190.272 123.801 189.834 122.911C189.538 122.306 189.22 121.723 188.896 121.13L188.895 121.129C188.809 120.971 188.722 120.812 188.635 120.652C188.61 120.605 188.585 120.558 188.56 120.511C188.56 120.466 188.532 120.434 188.509 120.407C188.493 120.389 188.48 120.373 188.48 120.356L188.479 120.356C188.001 119.505 187.524 118.653 187.006 117.841C186.958 117.726 186.883 117.611 186.813 117.504L186.812 117.504C186.765 117.431 186.719 117.362 186.687 117.299L186.679 117.287C186.403 116.866 186.126 116.443 185.811 115.983C185.452 115.442 185.094 114.938 184.695 114.397C183.221 112.346 181.628 110.411 179.915 108.592C179.357 107.973 178.759 107.392 178.162 106.85C178.109 106.799 178.056 106.743 178.003 106.687L178.002 106.687C177.896 106.575 177.79 106.463 177.684 106.386C175.333 104.103 172.824 102.013 170.155 100.155C168.92 99.3038 168.362 97.8332 168.681 96.4013C169.159 94.4276 169.517 92.3765 169.716 90.3254C169.796 89.6288 169.836 88.8935 169.876 88.1582C169.876 87.7325 169.896 87.3165 169.916 86.9005L169.916 86.8995C169.936 86.4838 169.955 86.0681 169.955 85.6427C169.955 81.2309 169.358 76.9353 168.203 72.9105C168.178 72.8278 168.154 72.7441 168.13 72.66C167.994 72.1932 167.854 71.7114 167.685 71.2851C165.255 63.7386 160.992 56.9662 155.375 51.5095C153.702 49.8454 151.87 48.2974 149.957 46.9042L149.878 46.8268C147.966 45.4336 145.974 44.1565 143.822 43.0729C140.755 41.4475 137.568 40.1317 134.182 39.1642C132.987 38.7772 131.832 38.5063 130.636 38.2741C127.21 37.5388 123.665 37.1518 120.04 37.1518C116.415 37.1518 112.869 37.5388 109.443 38.2741C108.248 38.5063 107.053 38.8159 105.898 39.1642C102.432 40.1704 99.0855 41.5249 95.9782 43.189C95.3417 43.4982 94.7451 43.8459 94.1484 44.1937L94.1458 44.1952C90.7199 46.2463 87.5329 48.6844 84.7045 51.4321C83.1508 52.9414 81.6768 54.5668 80.3622 56.3083C76.8963 60.72 74.1875 65.751 72.4346 71.2077C72.2354 71.7495 72.0761 72.2913 71.9167 72.8331C70.7615 76.8579 70.1639 81.1535 70.1639 85.5653C70.1639 86.4167 70.164 87.2294 70.2436 88.0808V88.0832C70.2436 88.4694 70.2436 88.8556 70.3232 89.2418V89.474V89.9384V90.2867V90.3641C70.3642 90.5038 70.3842 90.6538 70.4048 90.8088L70.4048 90.8089C70.4241 90.9544 70.4441 91.1043 70.4827 91.2542C70.4827 91.4477 70.4827 91.6412 70.5624 91.8734V91.8739C70.5624 91.9511 70.5624 92.0284 70.6419 92.1056C70.6982 92.4063 70.7943 92.7263 70.888 93.0383L70.888 93.0384C70.927 93.1681 70.9655 93.2964 71.0006 93.4214C71.0802 93.8471 71.2395 94.2728 71.4387 94.6985C71.7574 95.4725 72.1559 96.2078 72.5543 96.9044C72.5543 96.9818 72.6339 97.0979 72.7534 97.1753C72.8146 97.2645 72.8732 97.3511 72.9305 97.4358C73.097 97.6821 73.2527 97.9124 73.4306 98.1428C73.6696 98.4911 73.9485 98.8394 74.2672 99.149L74.2674 99.1492C74.4267 99.3426 74.5859 99.536 74.7452 99.6521C74.7984 99.7037 74.8471 99.7553 74.8958 99.8069C74.9931 99.9101 75.0905 100.013 75.2233 100.116C75.8607 100.774 76.5377 101.316 77.2946 101.781C78.0117 102.245 78.7686 102.671 79.5654 103.058C79.6052 103.058 79.645 103.077 79.6849 103.096L79.6849 103.096C79.7247 103.116 79.7646 103.135 79.8044 103.135C80.1628 103.328 80.5212 103.445 80.8796 103.561L80.8801 103.561C82.5532 104.18 84.4255 104.528 86.3377 104.528H134.501C144.699 104.528 153.822 107.663 161.192 112.887C172.665 120.976 179.835 134.095 180.034 148.104C180.154 154.451 178.839 160.991 175.772 167.338C172.067 175.155 166.131 181.541 158.96 185.991C151.79 190.442 143.345 192.919 134.501 192.919H79.7647C77.8127 192.919 76.0598 191.835 75.1834 190.132L61.4396 163.004C59.7664 159.714 62.2364 155.844 66.0209 155.844H135.218C137.488 155.844 140.237 154.296 141.392 152.439C144.579 147.756 141.153 141.525 135.337 141.525H81.3581C78.689 141.525 76.0599 141.293 73.5103 140.906C55.7829 138.081 40.8438 125.929 35.4658 109.211C34.9479 107.663 34.5498 106.076 34.1912 104.49C32.7571 98.4137 32 92.0669 32 85.5266C32 82.7015 32.1197 79.9539 32.3985 77.2449C32.4782 76.1613 32.6374 75.1164 32.7968 74.0715C32.9163 73.0653 33.0756 72.0591 33.2748 71.0529C33.4342 70.1241 33.6334 69.1566 33.8326 68.2278C33.8685 68.071 33.8962 67.922 33.9232 67.7774C33.9562 67.6007 33.9879 67.4305 34.0317 67.2603C34.2705 66.1777 34.5492 65.1337 34.8278 64.0897L34.8285 64.0869C35.1074 62.9259 35.4659 61.8037 35.8244 60.6814L35.8244 60.6813C36.079 59.8467 36.359 59.0368 36.6441 58.2121C36.7159 58.0044 36.7881 57.7956 36.8602 57.5854C36.8602 57.4756 36.9002 57.3853 36.9377 57.3007C36.9531 57.266 36.968 57.2322 36.9796 57.1984C37.1122 56.8507 37.2403 56.5031 37.3684 56.1555L37.3686 56.1552C37.6256 55.458 37.8826 54.7608 38.1749 54.0637C38.5733 53.0575 38.9717 52.1287 39.4099 51.1999C39.4895 50.9677 39.6089 50.6968 39.7284 50.4646C40.1263 49.5368 40.6039 48.6476 41.0814 47.7585L41.0829 47.7556V47.6782C42.1187 45.6271 43.2739 43.6147 44.469 41.641C45.6641 39.6673 46.9789 37.7323 48.3333 35.9134C48.3333 35.9134 48.3331 35.9134 48.4128 35.836C50.4445 33.0497 52.6755 30.4181 55.0658 27.8639C55.8625 27.0125 56.6592 26.1998 57.4958 25.3871C58.8502 24.0713 60.2445 22.7942 61.6786 21.5558C63.8298 19.6982 66.0607 17.9567 68.4111 16.2926C69.1016 15.8024 69.8275 15.3122 70.5534 14.822C70.9164 14.5769 71.2793 14.3318 71.6378 14.0867C72.7533 13.3901 73.8689 12.6935 75.0241 12.0357C76.1396 11.3778 77.2948 10.7199 78.4501 10.1394C80.7606 8.93966 83.1906 7.81737 85.6207 6.81117L85.6212 6.81094C86.856 6.30792 88.0907 5.80491 89.3255 5.37928C91.8352 4.48918 94.4246 3.67648 97.014 3.01859C97.5507 2.88823 98.0749 2.74568 98.5936 2.60462C98.9989 2.49442 99.4008 2.38513 99.8026 2.28329C100.759 2.05109 101.675 1.85759 102.631 1.66409H102.711C105.38 1.161 108.128 0.735298 110.917 0.464399C112.152 0.3483 113.387 0.2322 114.622 0.1935C116.415 0.0774004 118.247 0 120.04 0C121.514 0 122.988 0 124.462 0.1161C124.86 0.1161 125.219 0.1161 125.657 0.1935C126.007 0.218734 126.354 0.239855 126.699 0.260885L126.699 0.260889C127.412 0.304363 128.119 0.347453 128.844 0.425699C129.008 0.425699 129.162 0.446362 129.311 0.466335C129.451 0.485018 129.585 0.503098 129.72 0.503098C130.836 0.580498 131.951 0.735297 133.027 0.890096C134.341 1.0836 135.616 1.27709 136.891 1.54799C137.488 1.62539 138.126 1.78019 138.723 1.93499C140.158 2.20589 141.592 2.55419 143.026 2.94119C144.101 3.17339 145.177 3.48299 146.253 3.83128C147.488 4.21828 148.723 4.60528 149.957 5.03098C152.507 5.92107 155.017 6.92727 157.447 8.04956C158.044 8.32046 158.642 8.59136 159.239 8.90096C159.468 9.01204 159.697 9.11993 159.924 9.22738L159.925 9.22746C160.49 9.49433 161.05 9.75848 161.59 10.062C161.829 10.1908 162.072 10.3197 162.315 10.4486C162.802 10.7067 163.289 10.9648 163.741 11.223C163.794 11.223 163.847 11.2574 163.9 11.2918C163.927 11.309 163.953 11.3262 163.98 11.3391L166.131 12.6161C167.326 13.3127 168.561 14.0867 169.756 14.8994C170.314 15.2477 170.832 15.596 171.39 16.0217C171.708 16.2538 172.027 16.4815 172.345 16.7093C172.983 17.1652 173.62 17.6212 174.258 18.1115L174.26 18.1126C174.538 18.3057 174.816 18.499 175.134 18.7694L176.768 20.0852C177.445 20.627 178.082 21.1688 178.72 21.7493C179.357 22.2911 179.955 22.8329 180.552 23.3747C181.867 24.5744 183.142 25.8128 184.337 27.0899C184.563 27.3411 184.802 27.5923 185.044 27.8461L185.045 27.8468L185.045 27.8472C185.399 28.2186 185.759 28.5956 186.09 28.9862C186.687 29.6054 187.245 30.2633 187.763 30.8825C188.116 31.2598 188.406 31.6371 188.717 32.0414L188.717 32.0415L188.838 32.1983C189.101 32.4823 189.364 32.808 189.612 33.1142C189.702 33.2252 189.789 33.3337 189.874 33.4367C190.105 33.7283 190.322 34.0199 190.534 34.304L190.535 34.3045C190.688 34.5103 190.839 34.7122 190.99 34.9072C191.547 35.6038 192.025 36.2617 192.503 36.9583C193.22 37.9645 193.898 38.932 194.535 39.9382C194.694 40.1317 194.814 40.3252 194.933 40.5574C195.65 41.6023 196.288 42.7246 196.925 43.8469V43.9243C197.642 45.1627 198.28 46.3624 198.917 47.6395C199.594 48.9553 200.192 50.2324 200.75 51.5482C201.188 52.5544 201.626 53.5606 202.064 54.6055L202.423 55.5343C202.821 56.5018 203.14 57.4306 203.459 58.4367C203.857 59.4042 204.136 60.333 204.415 61.3392C204.693 62.1906 204.972 63.0807 205.171 63.9708C205.53 65.2479 205.849 66.4863 206.088 67.8021L206.159 68.1395L206.159 68.1399C206.414 69.3373 206.662 70.5079 206.845 71.7108C207.601 76.2 208 80.8053 208 85.5266V85.7201ZM148.257 207.817C151.014 207.817 152.828 210.74 151.619 213.277C150.882 214.835 150.145 216.383 149.408 217.931C148.672 219.478 147.935 221.025 147.199 222.582C142.364 232.887 131.975 240 120 240C108.025 240 97.6742 232.887 92.801 222.582L92.7863 222.551C91.3179 219.447 89.8496 216.343 88.3813 213.277C87.1724 210.74 88.9857 207.817 91.7434 207.817H148.257ZM140 73.6869C140 84.7326 131.046 93.6869 120 93.6869C108.954 93.6869 100 84.7326 100 73.6869C100 62.6412 108.954 53.6869 120 53.6869C131.046 53.6869 140 62.6412 140 73.6869Z" fill="url(#paint0_linear_303_5533)"/>
<defs>
<linearGradient id="paint0_linear_303_5533" x1="143" y1="7" x2="120.5" y2="239" gradientUnits="userSpaceOnUse">
<stop stop-color="#FFB74B"/>
<stop offset="0.486855" stop-color="#FF6550"/>
<stop offset="1" stop-color="#4B4DF7"/>
</linearGradient>
</defs>
</svg>
