<?xml version="1.0" encoding="utf-8"?>
<!-- Generator: Adobe Illustrator 23.0.1, SVG Export Plug-In . SVG Version: 6.00 Build 0)  -->
<svg version="1.1"
	 id="svg4456" xmlns:cc="http://creativecommons.org/ns#" xmlns:dc="http://purl.org/dc/elements/1.1/" xmlns:rdf="http://www.w3.org/1999/02/22-rdf-syntax-ns#" xmlns:svg="http://www.w3.org/2000/svg"
	 xmlns="http://www.w3.org/2000/svg" xmlns:xlink="http://www.w3.org/1999/xlink" x="0px" y="0px" width="885.827px"
	 height="224.726px" viewBox="0 0 885.827 224.726" enable-background="new 0 0 885.827 224.726" xml:space="preserve">
<g>
	<path fill-rule="evenodd" clip-rule="evenodd" fill="#004995" enable-background="new    " d="M52.382,162.306h-1.04l-5.387,21.159
		l-0.312,1.289h1.325h9.795h1.33l-0.312-1.289L52.382,162.306z M166.646,158.293h-1.878h-1.042v1.042v11.345v1.042h1.042h1.702
		c2.629,0,5.565-0.244,7.396-2.064c1.097-1.095,1.655-2.629,1.655-4.56c0-2.087-0.568-3.714-1.687-4.827
		C172.08,158.531,169.335,158.293,166.646,158.293 M107.312,161.814h-1.509h-1.053v0.979v24.281v0.985h1.053h1.509
		c5.081,0,9.177-1.323,11.851-3.818c2.339-2.189,3.528-5.178,3.528-8.889c0-4.277-1.239-7.595-3.685-9.881
		C116.41,163.043,112.479,161.814,107.312,161.814 M180.613,207.902c-0.225-0.356-0.351-0.574-0.356-0.574l-16.117-24.438h-0.432
		l0.018,2.525v1.042v21.444h-22.659v-14.111c-5.788,8.881-16.198,14.111-28.772,14.111H89.066h-7.653H64.319l-2.305-8.643
		l-0.207-0.778h-0.804H42.585h-0.83l-0.196,0.801l-2.072,8.619H14.844l23.317-66.823h26.968l16.542,46.298v-46.298h24.579
		c15.164,0,28.961,3.02,34.817,12.432v-12.432h29.317c15.127,0,27.944,6.382,27.944,23.222c0,10.101-3.926,14.357-12.998,17.369
		v0.532c1.247,0.974,2.409,2.184,4.093,3.989l18.469,21.711H180.613z M196.767,37.129c-6.144,0-11.136-4.992-11.136-11.139
		c0-6.152,4.992-11.139,11.136-11.139c6.16,0,11.141,4.987,11.141,11.139C207.908,32.138,202.926,37.129,196.767,37.129
		L196.767,37.129z M178.193,44.551l-59.401,81.673H44.541L178.193,44.551z M0,222.749h222.736V0H0V222.749z"/>
	<g>
		<path id="Fill-3" fill-rule="evenodd" clip-rule="evenodd" fill="#004995" enable-background="new    " d="M403.924,55.489
			c0-6.142-5.505-11.644-11.78-11.644c-7.925,0-12.409,4.478-12.409,11.644H403.924z M379.735,69.053
			c0,7.933,6.139,13.181,13.184,13.181c4.222,0,8.056-1.922,9.978-5.89h25.462c-4.604,16.636-21.491,22.136-37.106,22.136
			c-21.497,0-38.132-12.28-38.132-34.804c0-22.007,16.515-36.082,38.007-36.082c24.823,0,39.795,17.146,39.41,41.458H379.735z"/>
		<path id="Fill-5" fill-rule="evenodd" clip-rule="evenodd" fill="#004995" enable-background="new    " d="M437.876,29.511h24.189
			v13.566h0.251c3.719-10.497,10.235-15.483,20.606-15.483c1.155,0,2.305,0.257,3.454,0.382v26.614
			c-1.799-0.254-3.714-0.767-5.497-0.767c-10.882,0-16.384,5.117-16.384,19.579v23.16h-26.619V29.511z"/>
		<path id="Fill-7" fill-rule="evenodd" clip-rule="evenodd" fill="#004995" enable-background="new    " d="M517.474,62.398
			c0,12.665,4.735,18.168,11.516,18.168c7.168,0,11.521-5.502,11.521-18.168c0-9.853-4.353-17.275-11.256-16.89
			C520.158,45.508,517.474,54.85,517.474,62.398 M528.856,27.592c23.681,0,38.268,13.951,38.268,34.806
			c0,24.569-16.638,36.082-38.135,36.082s-38.13-11.77-38.13-34.673C490.86,40.516,506.21,27.592,528.856,27.592"/>
		<path id="Fill-9" fill-rule="evenodd" clip-rule="evenodd" fill="#004995" enable-background="new    " d="M624.213,62.908
			c0-10.623-4.604-15.607-11.639-15.607c-6.409,0-10.748,6.139-10.748,15.096c0,9.339,3.96,15.735,10.874,15.735
			C619.734,78.133,624.213,72.122,624.213,62.908L624.213,62.908z M599.647,29.511v9.984h0.257
			c3.708-8.192,13.304-11.901,20.981-11.901c20.221,0,29.943,16.507,29.943,34.932c0,26.357-16.384,35.953-31.352,35.953
			c-7.289,0-12.665-2.941-17.141-8.569v36.412h-26.617V29.511H599.647z"/>
		<path id="Fill-11" fill-rule="evenodd" clip-rule="evenodd" fill="#004995" enable-background="new    " d="M684.47,62.398
			c0,12.665,4.733,18.168,11.513,18.168c7.168,0,11.521-5.502,11.521-18.168c0-9.853-4.353-17.275-11.259-16.89
			C687.151,45.508,684.47,54.85,684.47,62.398 M695.86,27.592c23.67,0,38.258,13.951,38.258,34.806
			c0,24.569-16.638,36.082-38.135,36.082S657.85,86.71,657.85,63.807C657.85,40.516,673.203,27.592,695.86,27.592"/>
		<path id="Fill-13" fill-rule="evenodd" clip-rule="evenodd" fill="#004995" enable-background="new    " d="M742.711,29.511H766.9
			v13.566h0.246c3.719-10.497,10.24-15.483,20.606-15.483c1.158,0,2.305,0.257,3.46,0.382v26.614
			c-1.794-0.254-3.714-0.767-5.508-0.767c-10.874,0-16.379,5.117-16.379,19.579v23.16h-26.614V29.511z"/>
		<path id="Fill-15" fill-rule="evenodd" clip-rule="evenodd" fill="#004995" enable-background="new    " d="M848.176,96.563
			c-34.932,1.917-39.156-0.513-39.156-23.676v-28.02h-9.465V29.511h9.845V8.659h26.237v20.852h12.799v15.355h-12.799v24.315
			c0,6.142,0.893,8.315,8.315,8.315h4.224V96.563z"/>
		<path id="Fill-19" fill-rule="evenodd" clip-rule="evenodd" fill="#004995" enable-background="new    " d="M302.917,189.922
			c0-7.422-2.559-15.483-11.385-15.483c-8.829,0-11.259,8.444-11.259,15.866c0,7.04,1.791,15.229,10.489,15.229
			C299.978,205.534,302.917,197.724,302.917,189.922L302.917,189.922z M304.708,222.806v-8.954
			c-6.27,8.187-12.021,10.874-20.604,10.874c-20.211,0-30.453-15.224-30.453-34.165c0-22.264,12.417-36.718,28.413-36.718
			c8.438,0,14.331,2.043,19.962,8.695v-36.213h26.609v96.481H304.708z"/>
		<path id="Fill-20" fill-rule="evenodd" clip-rule="evenodd" fill="#004995" enable-background="new    " d="M342.711,147.186
			h26.619v-20.865h-26.619V147.186z M342.711,222.807h26.619v-67.048h-26.619V222.807z"/>
		<path id="Fill-21" fill-rule="evenodd" clip-rule="evenodd" fill="#004995" enable-background="new    " d="M432.165,169.577
			h2.436c8.187,0,17.395-1.535,17.395-12.029c0-10.489-9.208-12.026-17.395-12.026h-2.436V169.577z M487.318,222.805h-31.221
			l-23.67-37.106h-0.262v37.106h-25.074v-96.478h37.488c19.069,0,33.528,9.083,33.528,29.686c0,13.307-7.422,24.825-21.109,27.258
			L487.318,222.805z"/>
		<path id="Fill-22" fill-rule="evenodd" clip-rule="evenodd" fill="#004995" enable-background="new    " d="M509.159,188.639
			c0,12.673,4.738,18.173,11.51,18.173c7.176,0,11.523-5.5,11.523-18.173c0-9.847-4.348-17.27-11.264-16.885
			C511.841,171.754,509.159,181.096,509.159,188.639 M520.544,153.843c23.676,0,38.263,13.943,38.263,34.796
			c0,24.571-16.638,36.087-38.138,36.087c-21.494,0-38.13-11.772-38.13-34.675C482.54,166.762,497.903,153.843,520.544,153.843"/>
		<path id="Fill-23" fill-rule="evenodd" clip-rule="evenodd" fill="#004995" enable-background="new    " d="M567.526,155.758
			h24.445v9.984c3.326-5.125,11.639-11.898,21.235-11.898c12.032,0,18.684,5.115,21.884,12.28c5.757-8.061,13.312-12.28,23.16-12.28
			c19.577,0,25.718,11.002,25.718,29.296v39.667h-26.614v-34.167c0-9.847-1.92-13.818-8.952-13.818
			c-7.812,0-9.347,6.783-9.347,14.844v33.141h-26.614v-34.167c0-9.847-1.917-13.818-8.957-13.818c-7.81,0-9.339,6.783-9.339,14.844
			v33.141h-26.619V155.758z"/>
		<path id="Fill-24" fill-rule="evenodd" clip-rule="evenodd" fill="#004995" enable-background="new    " d="M740.652,193.122
			c-8.703,4.222-20.224,2.176-20.224,10.877c0,3.326,3.2,5.631,8.444,5.631C738.222,209.629,741.292,202.33,740.652,193.122
			L740.652,193.122z M743.339,222.806l-1.273-7.163c-7.553,7.037-15.229,9.083-25.216,9.083c-12.665,0-23.927-6.267-23.927-20.216
			c0-30.454,47.728-16.636,47.728-29.175c0-4.858-5.887-5.502-8.703-5.502c-3.711,0-8.698,0.767-9.342,6.527H697.02
			c0-14.205,10.104-22.515,36.598-22.515c31.734,0,33.649,11.77,33.649,27.764v31.347c0,3.837,0.123,5.759,3.583,8.575v1.278
			H743.339z"/>
		<path fill-rule="evenodd" clip-rule="evenodd" fill="#004995" enable-background="new    " d="M859.218,96.561h26.609V29.51
			h-26.609V96.561z M859.218,20.87h26.609V0.005h-26.609V20.87z"/>
		<path id="Fill-2" fill-rule="evenodd" clip-rule="evenodd" fill="#004995" enable-background="new    " d="M304.452,29.899h-0.257
			L293.84,60.604h20.858L304.452,29.899z M286.92,79.801l-6.647,16.761h-26.619l37.108-96.481h27.384l36.338,96.481H327.74
			l-6.27-16.761H286.92z"/>
	</g>
</g>
</svg>
