<?xml version="1.0" encoding="utf-8"?>
<!-- Generator: Adobe Illustrator 16.0.0, SVG Export Plug-In . SVG Version: 6.00 Build 0)  -->
<!DOCTYPE svg PUBLIC "-//W3C//DTD SVG 1.1//EN" "http://www.w3.org/Graphics/SVG/1.1/DTD/svg11.dtd">
<svg version="1.1" id="Livello_1" xmlns="http://www.w3.org/2000/svg" xmlns:xlink="http://www.w3.org/1999/xlink" x="0px" y="0px"
	 width="826.293px" height="111.636px" viewBox="0 0 826.293 111.636" enable-background="new 0 0 826.293 111.636"
	 xml:space="preserve">
<path fill-rule="evenodd" clip-rule="evenodd" fill="#991938" d="M17.445,55.815c0-13.488,10.929-24.42,24.42-24.42
	c2.423,0,4.764,0.351,6.974,1.013c-10.085,3-17.44,12.342-17.44,23.407c0,11.064,7.355,20.404,17.44,23.408
	c-2.21,0.662-4.551,1.017-6.974,1.017C28.374,80.24,17.445,69.306,17.445,55.815 M48.839,82.846c7.335-1.884,13.5-6.678,17.2-13.075
	h13.958C75.168,78.112,66.149,83.72,55.819,83.72h-6.98V82.846z M55.819,27.907c15.412,0,27.911,12.49,27.911,27.908
	c7.704,0,13.95,6.249,13.95,13.956v6.975c0,2.588,1.408,4.836,3.486,6.05v0.925H90.705c-3.853,0-6.975-3.122-6.975-6.975v-6.975
	c0-7.707-6.249-13.956-13.958-13.956c0-13.004-8.893-23.932-20.933-27.03v-0.878H55.819z M3.487,3.487h104.659v104.662H3.487V3.487z
	 M6.974,6.975h97.688v97.688H6.974V6.975z M0,0h111.638v111.636H0V0z"/>
<path fill="#9A1A38" d="M160.317,19.328h-4.756v-4.755h25.476c15.97,0,25.472,8.29,25.472,21.701c0,9.508-6.703,16.94-13.525,17.67
	v0.246c7.921,0.365,19.864,7.072,19.864,22.063c0,15.477-9.873,23.647-25.837,23.647h-31.45v-4.76h4.756 M174.452,95.141h6.95
	c11.947,0,17.064-5.354,17.064-18.888c0-11.945-4.387-19.012-16.818-19.012h-1.706v-4.756c8.774,0,12.432-5.244,12.432-15.477
	c0-11.706-4.024-17.68-14.018-17.68h-3.904V95.141z"/>
<path fill="#9A1A38" d="M226.135,95.141v4.76h-14.383v-4.76h4.27l20.595-80.568h14.26l21.697,80.568h4.141v4.76h-24.014v-4.76h4.88
	l-6.584-25.962h-23.275l-6.585,25.962 M239.422,23.232l-10.487,41.195h20.843L239.422,23.232z"/>
<path fill="#9A1A38" d="M338.885,99.901h-14.629l-34.738-78.497v73.737h4.752v4.76h-14.506v-4.76h4.756V19.329h-4.756v-4.756h14.141
	c4.998,0,8.655,2.562,10.607,6.954l29.371,66.061V19.329h-4.752v-4.756h14.505v4.756h-4.751"/>
<path fill="#9A1A38" d="M383.856,13.479c9.384,0,14.869,3.902,19.99,10.971l2.316-10.361h4.021V39.93h-8.043
	c-2.558-10.601-7.556-21.7-18.285-21.7c-12.066,0-17.557,14.997-17.557,39.129c0,23.399,8.049,39.13,18.286,39.13
	c7.679,0,12.681-7.067,14.386-17.19h13.165c-5.243,14.501-16.334,21.942-27.551,21.942c-20.228,0-32.905-16.461-32.905-43.882
	C351.68,30.541,364.721,13.479,383.856,13.479"/>
<path fill="#9A1A38" d="M424.686,95.141v4.76h-14.383v-4.76h4.268l20.598-80.568h14.26l21.688,80.568h4.149v4.76h-24.013v-4.76
	h4.879l-6.584-25.962h-23.275l-6.584,25.962 M437.973,23.232L427.49,64.427h20.843L437.973,23.232z"/>
<path fill="#9A1A38" d="M503.902,14.573h25.107c22.919,0,36.325,17.557,36.325,42.421c0,24.867-12.797,42.907-36.325,42.907h-25.107
	v-4.76h4.751V19.328h-4.751 M522.798,19.328v75.813h6.211c15.477,0,21.695-13.891,21.695-38.147
	c0-24.255-6.575-37.666-21.695-37.666H522.798z"/>
<polyline fill="#9A1A38" points="592.266,95.141 597.026,95.141 597.026,99.901 573.37,99.901 573.37,95.141 578.129,95.141 
	578.129,19.328 573.37,19.328 573.37,14.573 597.026,14.573 597.026,19.328 592.266,19.328 "/>
<path fill="#9A1A38" d="M640.054,95.141v4.76h-14.382v-4.76h4.259l20.602-80.568h14.263l21.688,80.568h4.15v4.76H666.62v-4.76h4.879
	l-6.584-25.962h-23.282l-6.585,25.962 M653.333,23.232l-10.479,41.195h20.839L653.333,23.232z"/>
<path fill="#9A1A38" d="M733.78,14.089h4.021v25.96h-7.924c0-12.549-4.506-21.819-16.452-21.819c-6.339,0-11.821,4.632-11.821,11.34
	c0,4.998,1.459,10.237,11.821,16.695l13.159,8.29c9.995,6.096,14.391,13.41,14.391,23.522c0,13.532-10.853,23.53-25.6,23.53
	c-14.875,0-24.141-6.95-27.059-19.381h13.287c2.555,10.114,7.926,14.628,15.359,14.628c7.671,0,13.042-5.125,13.042-12.677
	c0-6.584-3.056-11.099-9.14-14.999l-16.707-10.722c-8.654-5.485-13.16-13.287-13.16-22.306c0-12.554,8.162-22.672,22.79-22.672
	c10.241,0,15.724,6.707,17.803,9.63"/>
<polyline fill="#9A1A38" points="744.258,19.328 744.258,28.836 739.506,28.836 739.506,14.573 798.75,14.573 798.75,28.836 
	793.989,28.836 793.989,19.328 776.195,19.328 776.195,95.141 783.51,95.141 783.51,99.901 754.746,99.901 754.746,95.141 
	762.061,95.141 762.061,19.328 "/>
<polyline fill="#9A1A38" points="821.532,95.141 826.293,95.141 826.293,99.901 802.645,99.901 802.645,95.141 807.396,95.141 
	807.396,19.328 802.645,19.328 802.645,14.573 826.293,14.573 826.293,19.328 821.532,19.328 "/>
</svg>
