<svg width="98" height="32" viewBox="0 0 98 32" fill="none" xmlns="http://www.w3.org/2000/svg">
<g clip-path="url(#clip0_13843_176)">
<path fill-rule="evenodd" clip-rule="evenodd" d="M16.1769 0C25.1129 0 32.3555 7.16233 32.3555 15.9988C32.3555 24.8357 25.1129 32 16.1769 32C7.24409 32 0 24.8357 0 15.9988C0 7.16233 7.24409 0 16.1769 0ZM4.16308 10.9323C4.16308 10.469 3.95163 10.5713 3.95163 10.5713C1.63481 11.2005 1.55434 15.4217 1.55434 15.4217C1.24102 21.1487 3.99101 24.4321 3.99101 24.4321C3.99101 24.4321 7.8596 30.5624 15.8416 30.7181C23.5011 30.8638 24.3472 28.0489 24.403 27.8212L24.4056 27.8103C24.4061 27.8079 24.4063 27.8066 24.4063 27.8066C24.9288 25.8445 23.4144 23.8346 23.4144 23.8346C20.4929 19.91 14.1806 18.5683 14.1806 18.5683C8.04336 16.2066 7.66976 12.5107 7.65742 11.781L7.65747 11.7003C7.6581 11.6695 7.65928 11.6535 7.65928 11.6535C7.7095 10.9846 7.13707 11.2422 7.13707 11.2422C6.61573 11.293 6.09324 12.0167 6.09324 12.0167C4.94582 13.565 6.30297 15.7839 6.56208 16.2466C6.82375 16.7105 6.66652 16.8683 6.66652 16.8683C6.66652 16.8683 6.36339 16.878 5.99729 16.88L5.7928 16.8803C5.3771 16.8789 4.93843 16.8646 4.78858 16.8151C4.4764 16.7105 4.37025 16.6608 4.11029 15.8847C3.85061 15.1119 4.16308 11.3977 4.16308 10.9323ZM88.1022 11.5844C89.5669 11.5844 90.9272 12.0023 92.0923 12.7065V11.8051H97.0667V26.4181H92.0923V25.6659C90.9272 26.3684 89.5669 26.7834 88.1022 26.7834C83.8666 26.7834 80.4175 23.3727 80.4175 19.1833C80.4175 14.9934 83.8666 11.5844 88.1022 11.5844ZM72.6432 5.34563V26.4179H67.6689V25.7554C66.5366 26.405 65.2245 26.7832 63.8254 26.7832C59.5918 26.7832 56.1439 23.3728 56.1439 19.1831C56.1439 14.9935 59.5918 11.5842 63.8254 11.5842C65.2245 11.5842 66.5366 11.9622 67.6689 12.6152V5.34563H72.6432ZM79.2506 11.805V26.418H74.2743V11.805H79.2506ZM54.602 11.805V26.418H49.6285V11.805H54.602ZM45.5275 5.5087C46.7514 5.53227 47.42 5.53227 48.5341 6.02662V10.2634C48.5341 10.2634 44.8221 8.83436 44.8221 11.8051H48.3691V16.7244H44.8798V26.418H39.7753V11.1992C39.7753 8.025 42.3201 5.45381 45.5275 5.5087ZM26.9634 17.2793C26.9634 17.2793 25.3965 15.9382 24.1469 16.6085C23.1756 17.1283 23.0517 18.6707 23.0451 19.3384L23.0451 19.4563C23.0463 19.5798 23.0512 19.6524 23.0512 19.6524C23.4144 24.0395 27.3786 25.4338 27.3786 25.4338C27.9034 25.5355 28.0595 25.2783 28.0595 25.2783C29.3091 24.1433 29.1025 22.0273 29.1025 22.0273C28.9972 18.9276 26.9634 17.2793 26.9634 17.2793ZM88.1022 15.9899C86.323 15.9899 84.8742 17.4238 84.8742 19.1833C84.8742 20.944 86.323 22.3799 88.1022 22.3799C89.8834 22.3799 91.3313 20.944 91.3313 19.1833C91.3313 17.4238 89.8834 15.9899 88.1022 15.9899ZM63.8254 15.99C62.0442 15.99 60.596 17.4236 60.596 19.1831C60.596 20.9441 62.0442 22.38 63.8254 22.38C65.6058 22.38 67.0554 20.9441 67.0554 19.1831C67.0554 17.4236 65.6058 15.99 63.8254 15.99ZM28.0053 6.54727C27.5886 6.03021 27.5373 6.64988 27.5373 6.64988C27.172 9.0745 26.6353 9.67116 25.8157 10.9323C24.8757 12.3777 23.0104 13.9456 22.7376 14.0818C22.4231 14.2347 23.3114 14.4925 23.3114 14.4925L23.3638 14.5103C24.0047 14.7282 30.31 16.8734 30.4579 16.9694C30.6151 17.0741 31.1362 17.2793 31.2406 17.2284C31.5209 17.0884 31.3982 16.6085 31.3982 16.6085C31.2495 9.35344 28.3591 6.83081 28.0348 6.57027L28.0161 6.55548C28.0089 6.54997 28.0053 6.54727 28.0053 6.54727ZM76.6699 5.21672C78.3384 5.21672 79.6927 6.55923 79.6927 8.21013C79.6927 9.86477 78.3384 11.2021 76.6699 11.2021C74.9989 11.2021 73.6437 9.86477 73.6437 8.21013C73.6437 6.55923 74.9989 5.21672 76.6699 5.21672ZM52.0222 5.21672C53.6947 5.21672 55.0481 6.55923 55.0481 8.21013C55.0481 9.86477 53.6947 11.2021 52.0222 11.2021C50.3511 11.2021 48.9977 9.86477 48.9977 8.21013C48.9977 6.55923 50.3511 5.21672 52.0222 5.21672ZM13.2379 1.62672C13.1371 1.62551 9.93978 1.60882 6.98041 4.32787L6.96336 4.3427C6.81943 4.46946 5.81512 5.38483 5.90547 6.17133C6.00991 7.08445 6.98698 8.29618 9.22589 8.35337C11.7273 8.4189 12.7192 7.83747 13.6076 6.75335L13.6139 6.74482C13.6707 6.66744 14.0672 6.09346 13.1909 6.28687C13.1909 6.28687 11.3455 6.35528 10.0577 6.59814C9.17424 6.76283 9.22589 5.77039 9.48414 5.25765C9.74581 4.74145 12.0678 2.87011 13.0851 2.41829C13.0851 2.41829 13.3039 2.31253 13.555 2.05759C13.9554 1.64659 13.2403 1.62676 13.2403 1.62676L13.2379 1.62672ZM17.5198 2.52176C17.5198 2.52176 17.7275 3.25208 18.0423 3.70792C18.3767 4.19422 18.615 5.56633 18.5106 6.39063C18.4058 7.21666 18.3545 7.88748 18.5631 7.6288C18.7722 7.37243 19.3452 6.64988 19.1903 5.04956C19.0331 3.45011 17.5198 2.52176 17.5198 2.52176ZM23.4701 2.98651H23.2601C23.2601 2.98651 23.3631 3.2972 23.4701 3.45011C23.5717 3.60589 23.8856 4.22497 23.9384 4.53567C23.9897 4.84349 24.1469 5.66836 24.1469 5.66836C24.1469 5.66836 24.5639 5.72067 24.6164 5.51402C24.6669 5.30708 25.1374 4.99754 24.8252 4.12093C24.5119 3.24259 23.4701 2.98651 23.4701 2.98651Z" fill="#8D8D8D"/>
</g>
<defs>
<clipPath id="clip0_13843_176">
<rect width="97.0667" height="32" fill="white"/>
</clipPath>
</defs>
</svg>
