<svg width="126" height="32" viewBox="0 0 126 32" fill="none" xmlns="http://www.w3.org/2000/svg">
<g clip-path="url(#clip0_13843_174)">
<path d="M24.7044 4.66759C22.5279 4.65636 20.3942 5.27071 18.5587 6.43712C19.118 6.86899 19.6255 7.3638 20.071 7.91173C21.4909 7.13835 23.0869 6.74329 24.7048 6.76473C30.1601 6.76473 34.0383 10.7625 34.0383 16.3331C34.0383 21.8713 30.1601 25.8362 24.7048 25.8362C19.3151 25.8362 15.437 21.8711 15.437 16.3331C15.4203 14.7464 15.7688 13.177 16.4557 11.7455C16.0584 11.1196 15.5454 10.5747 14.944 10.14C13.7967 12.0025 13.1934 14.1474 13.2021 16.3331C13.2021 23.0835 18.0331 27.9989 24.7036 27.9989C31.3094 27.9989 36.2719 22.9852 36.2719 16.3331C36.2719 9.68107 31.3101 4.66759 24.7044 4.66759ZM53.2963 18.8563C53.3022 19.7969 53.1807 20.7339 52.9349 21.6419C52.1461 24.3289 49.9114 25.8364 46.9206 25.8364C43.9628 25.8364 41.728 24.3289 40.9394 21.6419C40.6936 20.7339 40.572 19.7969 40.5779 18.8563V5.12632H38.3431V19.0857C38.3454 20.2607 38.5112 21.4298 38.8359 22.5594C39.9205 25.9673 42.7469 27.9991 46.9537 27.9991C51.1604 27.9991 53.9538 25.9019 55.0709 22.4938C55.3675 21.5762 55.531 20.1668 55.531 19.0203V5.12632H53.2963V18.8563ZM14.3522 24.5581C13.742 24.8279 13.1023 25.0258 12.446 25.1479C11.2655 25.3697 10.065 25.4687 8.86389 25.4436H2.06092V7.19095H8.86389C10.065 7.16564 11.2655 7.26466 12.446 7.48643C16.7513 8.40388 19.1175 11.5169 19.1175 16.3339C19.1473 17.9115 18.8333 19.4767 18.1972 20.9215C18.5997 21.5618 19.0985 22.1365 19.6761 22.6257C20.7607 20.8561 21.3523 18.6934 21.3523 16.3341C21.3523 10.5014 18.263 6.63454 13.0046 5.48772C11.751 5.22859 10.4726 5.1077 9.19245 5.12724H-0.173828V27.5405H9.19245C10.4714 27.5704 11.7497 27.4605 13.0046 27.2127C13.9886 27.0036 14.9394 26.6619 15.831 26.197C15.2549 25.7315 14.7559 25.1784 14.3522 24.5581ZM121.062 15.5139L118.696 14.3671C116.684 13.3917 115.541 12.1867 115.541 10.3043C115.541 8.2072 116.987 6.69972 119.255 6.69972C121.589 6.69972 122.903 8.33814 123.264 10.9269H125.368C124.973 6.60148 122.443 4.66815 119.256 4.66815C115.739 4.66815 113.307 7.19132 113.307 10.4026C113.307 13.3348 115.087 15.2026 117.875 16.4968L120.273 17.6115C121.982 18.3978 123.527 19.6757 123.527 21.9697C123.527 24.2637 121.884 25.8366 119.452 25.8366C116.823 25.8366 114.917 24.3291 114.523 20.7581H112.287C112.648 25.7062 115.475 28 119.418 28C123.263 28 125.826 25.444 125.826 21.8722C125.826 18.3005 123.494 16.6936 121.062 15.5139ZM101.508 5.12632L92.7991 27.5402H95.2968L97.9588 20.4303H107.226L109.921 27.5402H112.485L103.743 5.12632H101.508ZM106.438 18.3319H98.7475L101.344 11.4502C101.804 10.2379 102.198 9.02549 102.593 7.81219C102.991 9.03493 103.418 10.248 103.874 11.4502L106.438 18.3319ZM84.3859 5.12632H82.1513V27.5402H91.1559L92.0432 25.4428H84.3859V5.12632ZM66.902 17.251V19.3477H77.5172C76.6956 23.2471 73.4425 25.8358 69.1368 25.8358C63.6814 25.8358 59.902 21.8571 59.902 16.3003C59.902 10.7623 63.7473 6.76454 69.1368 6.76454C72.7521 6.76454 75.7097 8.63232 77.0243 11.843H79.4234C78.043 7.41921 74.0008 4.66667 69.1368 4.66667C62.564 4.66667 57.6672 9.68015 57.6672 16.2995C57.6672 23.1348 62.3997 27.998 69.1368 27.998C75.5125 27.998 80.0807 23.4103 80.0149 17.2502L66.902 17.251Z" fill="#8D8D8D"/>
</g>
<defs>
<clipPath id="clip0_13843_174">
<rect width="126" height="32" fill="white"/>
</clipPath>
</defs>
</svg>
