<svg width="151" height="32" viewBox="0 0 151 32" fill="none" xmlns="http://www.w3.org/2000/svg">
<path d="M140.868 7.32472C145.675 6.58478 150.171 9.87691 150.899 14.6702C151.628 19.4637 148.312 23.9352 143.501 24.6471C138.71 25.3571 134.246 22.0682 133.52 17.2943C132.795 12.5206 136.081 8.06165 140.868 7.32472ZM142.798 22.3625C145.63 21.4989 146.008 18.8953 146.145 16.3101C146.299 13.3821 145.618 8.90266 141.656 9.41606C137.91 10.106 137.943 15.5231 138.479 18.4475C138.939 20.9542 140.132 22.4767 142.798 22.3625Z" fill="#8D8D8D"/>
<path d="M74.8798 7.58182C77.3323 7.58639 83.6099 7.25037 85.671 8.00603C86.7666 8.40749 87.733 9.14213 88.2152 10.2242C88.7076 11.3302 88.6865 12.8846 88.24 14.0016C87.7632 15.1931 86.807 15.9448 85.6517 16.4396C86.2367 17.9286 88.8368 23.3961 89.8655 24.416C88.1354 24.3685 86.4045 24.3603 84.6744 24.3913C84.6405 24.2259 84.745 23.9161 84.6505 23.6776C83.8373 21.6443 82.8884 19.3359 81.8028 17.4424L79.5896 17.4452C79.5878 17.267 79.5841 25.1855 79.806 24.3657C79.3191 24.4672 75.6329 24.4151 74.8747 24.4206C75.2024 23.854 75.3191 22.8177 75.2506 22.1972C74.9751 19.6978 75.7781 9.2209 74.8798 7.58182ZM79.5584 15.4133C80.7696 15.414 82.022 15.5035 83.1323 14.9804C85.3299 13.4526 84.6955 10.0613 81.9835 9.65955C81.4948 9.58717 81.0171 9.57301 80.5239 9.61084C80.2442 9.63167 79.8106 9.62866 79.5859 9.75733C79.4502 10.9409 79.5511 14.087 79.5584 15.4133Z" fill="#8D8D8D"/>
<path d="M60.4753 7.58212L65.9284 7.57307C67.3254 7.57151 68.7294 7.50087 70.1183 7.74853C73.8622 8.416 74.711 13.5769 72.6494 16.2405C71.4161 17.8345 69.0574 18.0346 67.1745 18.2311C66.55 18.274 65.8195 18.2631 65.1863 18.2686C65.2387 19.4968 65.0754 23.4281 65.429 24.2296L65.4668 24.3137C65.305 24.4654 60.7837 24.4571 60.5799 24.2981L60.5985 24.2506C60.8631 23.5506 60.9329 19.8102 60.8463 19.0252C60.6151 16.9258 61.3032 9.10605 60.4753 7.58212ZM65.1532 9.71924C65.1542 11.8056 65.1957 13.9884 65.1509 16.066C66.3958 16.1448 67.5563 16.2612 68.7159 15.7067C70.8762 14.2341 70.4318 9.90311 67.535 9.66715C67.0769 9.62977 66.6533 9.6104 66.1933 9.61259C65.9262 9.63635 65.392 9.6709 65.1532 9.71924Z" fill="#8D8D8D"/>
<path d="M12.1474 6.52834C15.2547 10.2313 18.1543 14.1932 21.099 18.0382C25.4719 23.7488 29.8217 30.9883 37.9605 31.0559C39.0601 31.0651 40.0548 30.9061 41.1378 30.8549C38.1786 32.2704 34.6032 32.1918 31.4564 31.5924C29.1156 31.0002 26.9425 30.1256 25.0517 28.5904C20.6956 25.0519 17.7656 20.1336 14.1866 15.893L14.1633 20.7377C14.1588 22.0244 13.9864 23.3869 14.582 24.5448C13.7928 24.4936 12.0846 24.6983 11.5078 24.5338C11.5996 24.4278 11.6646 24.4132 11.7935 24.3592L11.8433 24.3382C11.9812 24.1098 12.1169 23.778 12.1237 23.5112C12.17 21.6936 12.1474 19.7955 12.1452 17.9778L12.1474 6.52834Z" fill="#8D8D8D"/>
<path d="M5.92479 0.01962C7.09587 -0.0831879 8.85024 0.239309 9.99721 0.492262C15.9339 1.80153 19.5465 6.56451 23.048 11.1068C24.1281 12.5077 25.5994 14.844 26.8787 16.0321L26.957 16.1037C26.929 14.3999 26.9928 12.6914 26.9739 10.9895C26.9612 9.83737 27.147 8.60897 26.5879 7.58016L29.3795 7.5745C28.7735 8.71763 28.9821 11.7068 28.9826 13.0694L28.9923 21.9302C28.9738 23.1246 29.0069 24.3629 29.023 25.56C26.7381 22.5471 24.3018 19.472 21.9146 16.453C17.391 10.7321 13.0814 2.56561 5.27668 1.15508C3.28659 0.79539 1.91152 1.02814 0 1.18185C2.09067 0.325761 3.68963 0.124621 5.92479 0.01962Z" fill="#8D8D8D"/>
<path d="M50.9029 7.41428C53.2102 7.16425 55.9403 7.75807 58.1726 8.28079V10.4269C56.2578 9.53906 54.7967 9.07857 52.6392 9.2607C51.5376 9.35364 49.7699 10.2461 50.0347 11.5432C50.3799 13.2341 53.646 14.0696 55.0081 14.8071C56.6084 15.6005 58.7216 16.8472 58.8809 18.8296C58.9804 20.0688 58.6788 21.3792 57.8489 22.3507C56.3667 24.0851 54.7341 24.4763 52.5987 24.6883C50.1248 24.8583 48.2183 24.5631 45.9073 23.7077L45.902 21.6296C48.3142 22.5663 52.1622 23.8759 54.1885 21.7082C56.2105 19.5451 52.9783 18.2246 51.5417 17.5548C49.3783 16.5462 45.7899 15.1681 45.5535 12.4596C45.2621 9.12134 48.0071 7.76245 50.9029 7.41428Z" fill="#8D8D8D"/>
<path d="M124.304 7.40411C126.672 7.19703 129.16 7.74369 131.446 8.27921L131.444 10.3865C129.377 9.49536 125.656 8.28012 123.804 10.2421C121.7 12.4729 126.656 14.0016 128.077 14.7238C128.861 15.1297 129.604 15.6075 130.299 16.1511C131.289 16.9378 131.948 17.8023 132.082 19.0909C132.201 20.2798 131.834 21.465 131.065 22.3816C129.691 24.0393 127.886 24.4972 125.863 24.6882C123.382 24.8353 121.503 24.5877 119.185 23.6829C119.174 23.0551 119.217 22.2692 119.236 21.6286C121.86 22.6594 126.343 24.1527 128.05 20.9204L128.047 19.6584C126.683 17.8133 122.294 16.7955 120.352 15.041C118.602 13.46 118.312 11.4253 119.68 9.47873C120.615 8.15027 122.837 7.5686 124.304 7.40411Z" fill="#8D8D8D"/>
<path d="M110.138 7.41949C112.441 7.2846 114.844 7.74683 117.058 8.33507L117.052 10.3777C115.318 9.44549 113.378 8.99697 111.394 9.23631C110.377 9.35885 108.563 10.3415 108.888 11.5643C109.312 13.1591 112.179 14.0365 113.607 14.6972C114.342 15.0353 115.047 15.4356 115.713 15.8937C116.729 16.6056 117.524 17.455 117.729 18.7152C117.919 19.9178 117.623 21.146 116.905 22.1312C115.566 23.9397 113.638 24.3655 111.574 24.6671C109.119 24.7256 107.146 24.6095 104.838 23.6436C104.838 22.9043 104.87 22.4611 104.953 21.7254C107.459 22.6904 111.217 23.9817 113.326 21.4641C113.644 21.0674 113.782 20.595 113.701 20.0905C113.466 18.6001 111.562 18.0435 110.382 17.4614C108.889 16.7967 107.709 16.1781 106.33 15.2881C104.322 13.9926 103.93 11.4325 105.317 9.51321C106.358 8.07143 108.388 7.61158 110.138 7.41949Z" fill="#8D8D8D"/>
<path d="M91.2263 7.58866C95.188 7.53438 99.2239 7.59981 103.197 7.58354L103.2 9.44432C100.791 9.4191 98.3163 9.06571 95.9417 9.29536L95.9306 14.861C97.9614 14.9535 99.7117 15.0134 101.753 14.7679C101.686 15.4527 101.676 15.9973 101.666 16.6835C99.7548 16.726 97.9541 16.5992 95.9398 16.6674L95.9435 22.7189C98.5088 22.8889 100.654 22.6174 103.202 22.5535L103.197 24.4058C99.1973 24.3821 95.199 24.3876 91.1998 24.4223C91.5317 23.8813 91.6298 22.8541 91.5601 22.2537C91.2676 19.7215 92.0992 9.29107 91.2263 7.58866Z" fill="#8D8D8D"/>
<path d="M32.2203 7.58148L44.2198 7.57801C44.178 8.15647 44.1902 8.86069 44.1846 9.4493C41.6433 9.41585 39.5024 9.11775 36.9128 9.25264C36.9083 11.1221 36.9138 12.9916 36.9294 14.8611C38.9061 14.9498 40.7763 15.0238 42.7531 14.7615L42.7544 16.7678C41.2653 16.5623 38.4205 16.6184 36.9228 16.6762L36.914 18.8231L36.913 22.7316C39.3888 22.8641 41.7404 22.653 44.2129 22.5415C44.1733 23.1511 44.1919 23.7862 44.1983 24.4003C40.2043 24.3766 36.2102 24.3839 32.2162 24.4213C32.3153 24.2495 32.4008 24.0732 32.4624 23.884C32.7386 23.0341 32.7063 10.0161 32.5531 8.51781C32.517 8.16497 32.3864 7.88972 32.2203 7.58148Z" fill="#8D8D8D"/>
</svg>
