<svg width="221" height="32" viewBox="0 0 221 32" fill="none" xmlns="http://www.w3.org/2000/svg">
<path d="M31.9717 5.88371C32.708 6.75088 32.746 7.59225 32.0879 8.455L31.7187 8.9384L32.167 9.88567C32.7436 11.1056 33.1931 12.8505 33.3799 14.5937C33.8515 18.9967 32.1615 23.6107 28.8945 26.8417C26.6343 29.077 23.6361 30.6262 20.5498 31.1523C18.9497 31.425 15.9774 31.3839 14.4326 31.0683C12.4929 30.6719 10.3665 29.7819 8.82225 28.7197C8.48323 28.4864 8.17319 28.2958 8.13377 28.2958C8.09183 28.2976 7.71728 28.5249 7.29881 28.8027C6.87862 29.0816 6.41655 29.3095 6.27244 29.3095C5.94226 29.3093 5.23464 28.7055 4.91307 28.1493C4.77811 27.9159 4.74604 27.7966 4.84178 27.8837C5.30911 28.309 5.79721 28.0343 9.82811 25.08C15.6961 20.7792 22.1586 15.4445 28.8945 9.33977C31.3572 7.10783 31.6181 6.78959 31.6181 6.02532V5.4677L31.9717 5.88371Z" fill="#8D8D8D"/>
<path fill-rule="evenodd" clip-rule="evenodd" d="M211.478 9.19719C215.982 9.19719 218.675 12.0865 218.675 17.0868C218.675 22.0869 216.012 25.3131 211.896 25.3134C211.097 25.3134 210.348 25.216 209.827 25.0663V27.6034C209.827 29.602 208.235 31.2264 206.284 31.2265H206.086V10.3945L206.182 10.3427C207.553 9.59419 209.329 9.21184 211.471 9.21184L211.478 9.19719ZM211.39 11.6669C210.773 11.6669 210.282 11.7575 209.827 11.9296V22.663C210.172 22.7978 210.605 22.873 211.141 22.873V22.8808C214.273 22.8806 214.933 19.804 214.933 17.2216C214.933 13.3441 213.84 11.6669 211.39 11.6669Z" fill="#8D8D8D"/>
<path fill-rule="evenodd" clip-rule="evenodd" d="M108.682 9.19817C109.64 8.95998 111.566 8.98444 112.62 9.24797C115.633 10.0013 117.354 12.5537 117.427 16.3798L117.448 17.54L112.563 18.2021C109.877 18.5662 107.604 18.8806 107.514 18.9013C107.372 18.9341 107.368 19.0262 107.488 19.5947C107.791 21.0295 108.579 22.1015 109.71 22.6132C110.225 22.8465 110.525 22.9007 111.497 22.9355C113.315 23.0004 114.686 22.6718 116.207 21.8075C116.548 21.614 116.857 21.4558 116.895 21.455C116.931 21.455 116.947 22.1899 116.931 23.0878L116.901 24.7206L116.378 24.9638C115.596 25.3288 113.978 25.7144 112.7 25.8398C111.419 25.9655 110.976 25.964 109.909 25.83C106.557 25.409 104.284 23.2662 103.533 19.8163C103.177 18.1779 103.226 16.0116 103.659 14.3359C103.75 13.9826 104.048 13.2411 104.321 12.6884C105.193 10.9224 106.746 9.67923 108.682 9.19817ZM110.604 11.6708C109.775 11.6608 109.599 11.6947 109.015 11.9804C107.909 12.5207 107.325 13.5717 107.146 15.3388C107.08 15.9935 107.094 16.1024 107.242 16.1025C107.337 16.1025 108.857 15.9068 110.621 15.6679C112.385 15.429 113.851 15.2118 113.878 15.1855C113.955 15.1075 113.686 13.8092 113.503 13.3818C113.26 12.8134 112.593 12.1423 112.027 11.8964C111.67 11.7409 111.278 11.679 110.604 11.6708Z" fill="#8D8D8D"/>
<path d="M89.1846 2.96282C90.8875 3.02581 92.0817 3.29786 93.3027 3.90032L93.9551 4.2216V8.20305L93.3066 7.61614C92.2501 6.66014 91.1579 6.25604 89.624 6.25383C86.4898 6.24944 84.0687 8.43695 83.1494 12.1025C82.8955 13.1152 82.8932 15.364 83.1455 16.3544C83.9246 19.4108 85.8729 21.6317 88.3203 22.2548C90.0151 22.6861 92.2812 22.1936 93.4043 21.1493C93.6666 20.9054 93.8976 20.706 93.918 20.706C93.9382 20.7117 93.9551 21.5741 93.9551 22.6279V24.5507L93.4609 24.8329C91.9829 25.6795 89.3789 26.1053 87.3281 25.8359C84.0844 25.4096 81.4556 23.4 79.8799 20.1415C78.1697 16.6049 78.1963 11.9098 79.9453 8.47258C81.4574 5.50097 83.7543 3.67534 86.7207 3.08879C87.4422 2.94614 87.9851 2.91846 89.1846 2.96282Z" fill="#8D8D8D"/>
<path d="M145.104 9.03606H147.732V12.248H145.104V16.9101C145.104 22.0162 145.117 22.1194 145.736 22.2782C146.142 22.3822 146.825 22.3832 147.322 22.2802L147.732 22.1943V25.5146L147.16 25.6806C146.4 25.9012 145.322 25.9622 144.447 25.8329C142.57 25.5555 141.336 24.422 141.058 22.7216C140.989 22.3022 140.942 20.0337 140.942 17.1318V12.248H139.189V9.03606H140.942V7.98039C140.942 6.12521 141.248 5.19489 142.143 4.32219C142.778 3.70279 143.551 3.34916 144.42 3.2802L145.104 3.22551V9.03606Z" fill="#8D8D8D"/>
<path d="M56.4971 11.8163C56.4971 19.2844 56.474 20.4924 56.3242 21.0575C55.7412 23.2559 53.8243 24.9975 51.291 25.6308C50.3225 25.8729 48.6915 25.9698 47.748 25.8417C45.1913 25.4944 43.0271 24.0387 42.0742 22.0253C41.5015 20.8151 41.4809 20.497 41.5146 13.0663L41.5459 6.19914L41.8916 5.48625C42.5155 4.19909 43.7251 3.35714 45.0703 3.27336L45.7578 3.23039L45.8174 20.4374L46.1094 20.9198C46.5092 21.5807 46.9077 21.9253 47.6797 22.2782C49.0336 22.8973 50.7755 22.5831 51.7334 21.5468C52.5376 20.6767 52.4928 21.1365 52.5537 13.1044L52.6084 5.87785L52.9844 5.2011C53.6088 4.07538 54.6276 3.39071 55.8408 3.28313L56.4971 3.22551V11.8163Z" fill="#8D8D8D"/>
<path fill-rule="evenodd" clip-rule="evenodd" d="M132.07 14.3739C132.07 20.5058 132.033 25.5232 131.988 25.5234C131.943 25.5235 131.216 25.5923 130.373 25.6767C128.327 25.8815 125.944 25.9566 125.025 25.8447C122.422 25.5273 120.454 24.2656 119.495 22.2978C118.88 21.0359 118.701 20.2469 118.633 18.5107C118.463 14.1807 120.131 11.2078 123.392 10.0263C123.985 9.81121 124.398 9.74838 125.499 9.70696C126.252 9.67865 127.123 9.7014 127.435 9.75774L128.001 9.86028L128.037 7.92278C128.078 5.68722 128.172 5.37038 129.064 4.43742C129.704 3.76937 130.532 3.36167 131.407 3.2841L132.07 3.22551V14.3739ZM126.594 12.1005C125.934 12.1034 125.638 12.163 125.087 12.4052C123.553 13.0793 122.806 14.5945 122.685 17.2792C122.53 20.679 123.532 22.762 125.515 23.165C125.96 23.2554 127.753 23.2047 127.936 23.0966C127.981 23.0698 128.018 20.6191 128.018 17.6503V12.2519L127.717 12.1747C127.551 12.132 127.046 12.0985 126.594 12.1005Z" fill="#8D8D8D"/>
<path d="M13.9043 1.07903C15.6402 0.640311 18.4013 0.53657 20.2627 0.840745C22.7281 1.24369 24.9393 2.13838 26.9482 3.54485L27.9863 4.27141L24.2246 4.34953C19.6126 4.44628 16.5845 4.71593 15.8642 5.0927C15.5165 5.27475 15.4132 5.69132 15.6347 6.0175C15.7375 6.16861 16.3986 6.6373 17.1045 7.05852C18.0556 7.62605 18.399 7.90066 18.4306 8.11809C18.4613 8.33268 18.0798 8.91412 17.0176 10.2714C14.032 14.0863 12.5633 16.0554 9.24998 20.6884C7.38038 23.3026 5.77908 25.5151 5.69041 25.6054C5.56081 25.737 5.49247 25.7248 5.33104 25.5419C4.91672 25.0725 4.07382 23.7611 3.6201 22.8798C2.65031 20.996 2.13139 19.0104 2.01951 16.7587C1.6533 9.38717 6.53978 2.94053 13.9043 1.07903Z" fill="#8D8D8D"/>
<path d="M64.8203 9.09172C66.517 9.09027 67.0979 9.1283 67.6455 9.27629C69.5846 9.80045 70.8131 10.856 71.3515 12.4618C71.5308 12.9965 71.5523 13.631 71.5859 19.3534L71.623 25.6562L70.9326 25.6083C69.631 25.5186 68.4782 24.731 67.8642 23.5126L67.5039 22.7988L67.3945 13.2646L67.1191 12.7851C66.938 12.4689 66.676 12.2121 66.3525 12.0351C65.9072 11.7914 65.7431 11.7665 64.6015 11.7665C63.8343 11.7665 63.1821 11.8216 62.9316 11.9081L62.5205 12.0507V25.6298H58.3574L58.4131 10.163L59.29 9.87688C61.0748 9.29321 62.4788 9.09377 64.8203 9.09172Z" fill="#8D8D8D"/>
<path d="M77.0332 23.0077L76.7637 23.5429C76.1786 24.7062 74.9607 25.5343 73.7197 25.6122L73.0351 25.6552V9.03606H77.0928L77.0332 23.0077Z" fill="#8D8D8D"/>
<path d="M98.542 9.19328C99.4689 9.03461 102.192 8.98069 102.964 9.10539L103.374 9.1718V10.7636C103.374 11.6366 103.356 12.3516 103.333 12.3554C103.31 12.3554 103.008 12.2281 102.662 12.0732C102.151 11.8443 101.875 11.7927 101.197 11.7978C100.738 11.8014 100.14 11.8697 99.8691 11.9501L99.3769 12.0966L99.2666 22.7978L98.9072 23.5116C98.2687 24.7785 96.9808 25.6298 95.7031 25.6298H95.1601V10.3251L95.623 10.0947C96.3483 9.73299 97.5391 9.36496 98.542 9.19328Z" fill="#8D8D8D"/>
<path d="M137.93 22.7929L137.612 23.4667C137.032 24.6942 135.651 25.6298 134.421 25.6298H133.933V9.03606H137.991L137.93 22.7929Z" fill="#8D8D8D"/>
<path d="M160.757 2.90324C162.952 2.90324 164.709 3.4654 166.162 4.29778V8.14348C165.193 7.07989 163.588 6.1552 161.249 6.1552C157.108 6.15522 154.731 8.9149 154.731 14.2714C154.732 19.6275 158.153 22.0321 161.552 22.0322H163.755V15.7968H160.159V15.6044C160.159 13.8549 161.552 12.4366 163.255 12.4364H167.691V25.5077C166.874 25.5617 162.336 25.5624 162.143 25.5624H160.658C154.512 25.5622 150.696 21.1686 150.696 14.0859C150.696 7.40382 154.739 2.90334 160.757 2.90324Z" fill="#8D8D8D"/>
<path d="M169.587 10.4423C171.425 9.5378 173.382 8.94541 177.133 9.30266V12.4872C175.824 11.537 174.11 11.8492 173.33 12.2597V21.8827C173.33 23.9122 171.742 25.5622 169.778 25.5624H169.579V10.4501L169.587 10.4423Z" fill="#8D8D8D"/>
<path fill-rule="evenodd" clip-rule="evenodd" d="M184.056 9.19719C188.387 9.19719 190.979 12.3604 190.979 17.3945C190.979 22.4287 188.328 25.5624 184.056 25.5624C179.783 25.5622 177.133 22.5273 177.133 17.3945C177.133 12.2617 179.724 9.19742 184.056 9.19719ZM184.056 11.7978C180.976 11.7982 180.738 16.1021 180.738 17.372C180.738 18.642 180.976 22.8012 184.056 22.8017C187.218 22.8017 187.463 18.6496 187.463 17.372C187.463 15.6762 187.136 11.7978 184.056 11.7978Z" fill="#8D8D8D"/>
<path d="M196 20.2538C196 21.828 196.856 22.7255 198.349 22.7255H200.422V12.954C200.422 10.8476 201.994 9.19719 204.002 9.19719H204.197V25.5087C203.413 25.5619 199.066 25.5624 198.885 25.5624H198.247C194.261 25.5624 192.238 23.7065 192.238 20.0488V12.954C192.238 10.8476 193.812 9.19719 195.819 9.19719H196V20.2538Z" fill="#8D8D8D"/>
<path d="M75.2392 3.27629C75.8186 3.30643 76.055 3.37556 76.4131 3.61809C76.9312 3.96922 77.3066 4.64238 77.3066 5.21965C77.3065 6.55117 75.8321 7.52078 74.4336 7.1093C73.0304 6.69633 72.4294 5.27798 73.2031 4.20403C73.6921 3.52538 74.3412 3.22959 75.2392 3.27629Z" fill="#8D8D8D"/>
<path d="M134.823 3.52532C135.846 2.98087 137.158 3.27057 137.808 4.18449C138.26 4.82049 138.26 5.65315 137.809 6.27727C137.241 7.0628 136.047 7.40885 135.096 7.06438C133.406 6.45228 133.245 4.36537 134.823 3.52532Z" fill="#8D8D8D"/>
</svg>
