<svg width="186" height="32" viewBox="0 0 186 32" fill="none" xmlns="http://www.w3.org/2000/svg">
<g clip-path="url(#clip0_272_4903)">
<path d="M74.4186 31.6267L80.5692 31.6042L74.9181 21.1029C74.9832 21.0717 75.047 21.0405 75.1101 21.008C76.7124 20.1841 77.9626 19.0231 78.86 17.5263C79.7575 16.0307 80.2025 14.2768 80.1952 12.2669C80.1879 10.257 79.7289 8.5068 78.8202 7.01747C77.9114 5.52819 76.6526 4.3697 75.0444 3.54328C73.4348 2.71685 71.5987 2.30739 69.5341 2.31488L58.7384 2.35483L58.8481 31.6866L64.4829 31.6654L64.4479 22.2763L69.3421 22.2577L74.4186 31.6279V31.6267ZM64.3931 7.7166L68.9954 7.69913C70.6587 7.69287 71.9787 8.07613 72.9572 8.8476C73.935 9.61913 74.4272 10.7663 74.4319 12.2881C74.4372 13.7525 73.9536 14.8823 72.9824 15.6749C72.0099 16.4689 70.6926 16.8684 69.0293 16.8747L64.4267 16.8921L64.3919 7.71787L64.3931 7.7166Z" fill="#8D8D8D"/>
<path d="M100.939 15.3105C100.073 13.6626 98.8563 12.368 97.29 11.4255C95.7236 10.4842 93.8795 10.0173 91.7578 10.0248C89.6646 10.0323 87.8312 10.5067 86.2575 11.4455C84.6845 12.3843 83.4702 13.6813 82.6166 15.3354C81.7623 16.9895 81.3398 18.9083 81.3471 21.0904C81.3557 23.3013 81.7922 25.2238 82.6584 26.8567C83.5253 28.4895 84.7483 29.7566 86.3286 30.6542C87.9083 31.553 89.7457 31.9987 91.8388 31.9899C94.1326 31.9812 96.0876 31.5081 97.7045 30.5681C99.32 29.6293 100.599 28.2823 101.539 26.5271L97.6168 24.3025C97.0183 25.1951 96.3042 25.9441 95.4751 26.5508C94.6448 27.1575 93.5002 27.4621 92.0381 27.4683C90.3754 27.4746 89.0615 26.9989 88.0976 26.0402C87.2586 25.2075 86.7836 24.0965 86.6694 22.7071L102.127 22.6496C102.183 22.4487 102.218 22.1965 102.232 21.8956C102.244 21.5935 102.251 21.2851 102.25 20.9693C102.242 18.8446 101.804 16.9583 100.938 15.3105H100.939ZM91.7737 14.4615C93.5514 14.4553 94.8653 15.0096 95.7156 16.1269C96.2171 16.7848 96.5699 17.56 96.7778 18.4489L86.7438 18.4863C86.9318 17.4664 87.3635 16.61 88.0378 15.9184C88.9804 14.9534 90.226 14.4678 91.7737 14.4615Z" fill="#8D8D8D"/>
<path d="M119.728 2.12495L119.764 11.7999C119.504 11.5889 119.231 11.3929 118.946 11.2156C117.565 10.3592 115.944 9.9348 114.08 9.94227C112.187 9.94973 110.512 10.4154 109.052 11.3392C107.594 12.2643 106.458 13.5525 105.647 15.2067C104.836 16.8607 104.434 18.7795 104.444 20.9617C104.451 23.1151 104.859 25.0239 105.669 26.6855C106.478 28.3483 107.615 29.6503 109.081 30.5916C110.547 31.5341 112.24 32.001 114.161 31.9935C115.996 31.9861 117.606 31.5204 118.994 30.5966C119.59 30.1996 120.127 29.7365 120.608 29.2047L121.255 31.4493L125.47 31.433L125.361 2.10124L119.726 2.12246L119.728 2.12495ZM118.696 25.1499C117.782 26.2298 116.594 26.7728 115.132 26.7791C113.698 26.7841 112.513 26.2435 111.578 25.1562C110.641 24.0689 110.17 22.6632 110.164 20.9404C110.158 19.2177 110.618 17.8157 111.547 16.7359C112.474 15.6561 113.655 15.113 115.089 15.1081C116.552 15.1031 117.743 15.6361 118.665 16.7097C119.586 17.7833 120.05 19.1965 120.057 20.9467C120.064 22.6694 119.61 24.0713 118.697 25.1512L118.696 25.1499Z" fill="#8D8D8D"/>
<path d="M46.8319 24.1686C46.3307 23.8191 45.771 23.4882 45.1453 23.1923C49.2167 21.2012 52.0141 17.0079 51.9954 12.1667C51.9705 5.42177 46.4891 -0.0248819 39.7548 8.54959e-05L0 0.0250526C0 0.0250526 2.32869 8.484 10.3433 9.67747L10.8219 10.7848C10.9204 11.0145 13.0422 15.7458 19.1955 16.9168L19.6929 18.0678C19.7964 18.3075 22.1051 23.4557 28.9092 24.3321L29.348 25.3471C29.4615 25.6092 32.2227 31.7712 40.6499 31.7387L50.4234 31.7025L51.8895 31.6975C51.8895 31.6975 51.1054 27.1173 46.8307 24.1698L46.8319 24.1686ZM30.9861 22.0489C24.0486 22.0751 21.9007 17.109 21.9007 17.109L40.6998 17.0391C42.2369 17.0329 43.6206 16.1053 44.2115 14.6835L22.1139 14.7659C15.1764 14.7921 13.0284 9.826 13.0284 9.826L43.936 9.70993C43.2566 8.28307 41.8155 7.37547 40.2372 7.38173L13.0197 7.48407C6.08227 7.51027 3.93435 2.54427 3.93435 2.54427L39.6414 2.41069C45.0392 2.39072 49.5296 6.6976 49.5895 12.1018C49.6505 17.5497 45.2687 21.9951 39.8371 22.0151L30.9848 22.0489H30.9861ZM40.6412 29.3293C33.7037 29.3556 31.5558 24.3895 31.5558 24.3895L39.1814 24.3608C46.1188 24.3346 48.2456 29.3007 48.2456 29.3007L40.6412 29.3293Z" fill="#8D8D8D"/>
<path d="M132.219 7.16113C133.252 7.15733 134.074 6.839 134.689 6.20485C135.304 5.57068 135.609 4.76548 135.605 3.78925C135.601 2.7556 135.29 1.91669 134.671 1.27253C134.052 0.628371 133.226 0.308787 132.194 0.312533C131.163 0.316277 130.338 0.642103 129.725 1.29125C129.111 1.93916 128.806 2.78057 128.81 3.81422C128.814 4.79045 129.124 5.59315 129.744 6.22233C130.362 6.85153 131.188 7.16487 132.221 7.16113H132.219Z" fill="#8D8D8D"/>
<path d="M135.135 27.5907L135.071 10.3369L129.435 10.3581L129.475 20.9019L129.514 31.4195L135.149 31.3982L135.135 27.5907Z" fill="#8D8D8D"/>
<path d="M186 31.3781L185.961 20.868C185.923 14.726 180.928 9.77 174.79 9.79373C168.654 9.8162 163.695 14.8097 163.703 20.9517V20.9804L163.742 31.4617L169.446 31.4405L169.407 20.9591H169.411C169.4 17.9605 171.818 15.5213 174.811 15.51C177.806 15.4987 180.242 17.9193 180.253 20.9179H180.257L180.296 31.3993L186 31.3781Z" fill="#8D8D8D"/>
<path d="M151.757 31.2307C150.059 31.2369 148.433 30.7013 146.917 29.6377L153.321 23.1774C154.891 21.5932 155.75 19.4922 155.742 17.2614C155.742 17.1378 155.738 17.0142 155.732 16.8906C155.6 14.0917 153.857 11.6212 151.332 10.4141C150.817 10.1681 150.319 9.93593 150.014 9.8086C152.401 9.87853 155.671 11.2442 157.406 12.9682C161.792 17.3275 161.905 24.266 157.663 28.7651L157.59 28.8425C157.549 28.8875 157.508 28.9312 157.465 28.9749C156.639 29.8075 154.508 31.2207 151.757 31.2307Z" fill="#8D8D8D"/>
<path d="M146.951 10.5779C148.649 10.5716 150.274 11.1071 151.79 12.1708L145.386 18.6311C143.817 20.2153 142.956 22.3163 142.966 24.5471C142.966 24.6707 142.969 24.7943 142.976 24.9179C143.108 27.7167 144.85 30.1873 147.376 31.3945C147.891 31.6404 148.388 31.8726 148.694 31.9999C146.306 31.93 143.037 30.5643 141.301 28.8403C136.915 24.481 136.802 17.5425 141.044 13.0434L141.117 12.966C141.157 12.9211 141.199 12.8773 141.242 12.8337C142.067 12.001 144.199 10.5879 146.951 10.5779Z" fill="#8D8D8D"/>
</g>
<defs>
<clipPath id="clip0_272_4903">
<rect width="186" height="32" fill="white"/>
</clipPath>
</defs>
</svg>
