<svg width="150" height="32" viewBox="0 0 150 32" fill="none" xmlns="http://www.w3.org/2000/svg">
<g clip-path="url(#clip0_13843_160)">
<path fill-rule="evenodd" clip-rule="evenodd" d="M20.0826 7.23484C20.3395 6.56137 20.564 5.92025 20.564 5.24764V5.21528H26.1228V5.31149C25.3521 5.53626 25.1267 6.46516 25.1267 7.20248L27.2477 22.9417C27.4406 24.4487 27.601 25.3129 28.8864 26.2112V26.3074H22.6841V26.2112C23.8081 25.8587 24.0018 24.8974 24.0018 23.8068L22.1703 8.357L14.9728 26.7237C13.3657 25.5062 12.9159 24.6403 12.1452 22.8455L6.04015 8.38936L4.20856 22.1721C3.95166 24.1278 3.72634 25.5377 5.23701 26.2112V26.3074H0V26.2112C1.35022 25.0251 1.54226 23.4543 1.79916 21.7234L3.63075 8.29314C3.75962 7.39575 4.11211 6.11267 2.63472 5.31234V5.21613H8.25752V5.24849C8.25752 5.76104 8.51527 6.24209 8.7073 6.69078L14.7483 20.8277L20.0826 7.23484ZM53.1443 15.5361C53.1443 22.075 47.7135 26.8191 41.32 26.8191C34.9572 26.8191 29.5913 22.2674 29.5913 15.6971C29.5913 9.60688 34.8932 4.50946 41.6409 4.67038C48.3895 4.63802 53.1443 9.76609 53.1443 15.5361ZM33.2545 15.4076C33.2545 19.8962 36.4355 24.5109 41.4805 24.5109C46.365 24.5109 49.4819 20.9537 49.4819 16.1781C49.4819 11.497 46.4939 6.97771 41.4165 6.97771C36.4355 6.97771 33.2545 10.5681 33.2545 15.4076ZM58.9864 22.1397C58.9864 23.9336 58.954 25.2159 60.6575 26.2103V26.3065H54.9699V26.2103C56.6726 25.2159 56.6726 23.9336 56.6726 22.1397V9.34975C56.6726 7.55497 56.6726 6.27274 55.0014 5.31064V5.21443H59.6931V5.24679C59.8211 5.63163 59.95 5.79169 60.1753 6.04797L60.6242 6.68908L72.3845 21.4977V9.34975C72.3845 7.55497 72.4169 6.27274 70.7133 5.31064V5.21443H76.3694V5.31064C74.6983 6.27189 74.6983 7.55412 74.6983 9.34975V27.3333C72.4169 26.5637 71.4209 25.5062 70.0067 23.6782L58.9864 9.73459V22.1397ZM94.8142 9.18883C93.0475 8.06752 90.9906 7.3617 88.8696 7.3617C84.4357 7.3617 81.3495 10.5996 81.3495 15.2466C81.3495 19.9584 84.5638 24.1576 89.5106 24.1576C91.9209 24.1576 94.3311 23.2925 96.3556 22.1388H96.452L94.8133 25.857C93.3027 26.562 91.6324 26.8182 89.9604 26.8182C82.3771 26.8182 77.6864 22.5875 77.6864 15.7277C77.6864 9.09262 82.3771 4.70103 88.9652 4.70103C90.9257 4.70103 92.9177 5.05351 94.8133 5.50221L94.8142 9.18883ZM106.795 23.9983C108.98 24.1261 110.875 23.3896 112.482 22.0426H112.579L110.908 26.3065H97.7007V26.2103C99.3394 25.6331 99.1474 23.2619 99.1474 21.8187V9.73459C99.1474 8.26079 99.3394 5.92025 97.7007 5.31149V5.21528H103.838V5.31149C102.199 5.92025 102.425 8.29229 102.425 9.73459V23.7097L106.795 23.9983ZM119.095 23.6144L123.176 23.9983C125.296 24.1916 127.513 23.5181 129.12 22.1073H129.217L127.77 26.3065H114.371V26.2103C116.01 25.6331 115.818 23.2619 115.818 21.8187V9.73459C115.818 8.26079 116.01 5.92025 114.371 5.31149V5.21528H124.655C125.2 5.21528 125.746 5.27914 126.164 5.05522H126.26V8.8057H126.164C125.169 7.65203 123.852 7.52346 122.373 7.52346C121.248 7.52346 120.124 7.55582 119.096 7.74739V13.7098H122.92C123.433 13.7098 123.946 13.7098 124.333 13.5174H124.429V16.9154H124.333C123.817 15.9857 122.469 16.0172 121.472 16.0172H119.095V23.6144ZM138.624 5.21443C142.93 5.21443 145.275 7.45791 145.275 10.3749C145.275 13.1956 142.802 15.4076 140.168 16.0163L144.794 21.8179C146.144 23.4858 148.168 25.152 150 26.3057H147.044C145.341 26.3057 144.281 25.8885 143.317 24.7025L139.396 19.8613L136.441 15.342C139.011 14.9572 141.999 13.7711 141.999 10.758C141.999 8.45066 140.006 7.10372 137.855 7.19993C137.121 7.23786 136.391 7.32347 135.669 7.45621V21.8162C135.669 23.2908 135.475 25.6305 137.116 26.2078V26.304H130.978V26.2078C132.617 25.6305 132.392 23.2593 132.392 21.8162V9.73459C132.392 8.26079 132.617 5.92025 130.978 5.31149V5.21528L138.624 5.21443Z" fill="#8D8D8D"/>
</g>
<defs>
<clipPath id="clip0_13843_160">
<rect width="150" height="32" fill="white"/>
</clipPath>
</defs>
</svg>
