<svg width="178" height="32" viewBox="0 0 178 32" fill="none" xmlns="http://www.w3.org/2000/svg">
<path d="M81.7426 7.47879C86.8231 7.47879 88.6948 7.21005 89.6307 13.5255H90.1655V6.53819H76.1274V7.47879H78.5339V25.619H75.86V26.5596H90.2991V19.1692H89.6307C88.9622 24.8128 87.4915 25.619 83.4807 25.619H81.6089V16.8848H82.6785C84.4165 16.8848 85.4861 17.9598 85.8872 21.0504H86.5557V11.9131H85.8872C85.8872 11.9131 85.7535 15.8099 82.6785 15.8099H81.7426V7.47879Z" fill="#8D8D8D"/>
<path d="M75.99 15.9435H68.102V16.8841H70.7759V23.334C70.3748 24.9465 67.8346 25.6183 67.1661 25.6183C62.0857 25.6183 62.4867 18.2279 62.4867 16.2123C62.4867 14.4654 62.353 6.80623 67.1661 6.80623C70.6422 6.80623 72.3802 10.1655 73.0487 13.2561H73.5835C73.5835 12.0467 73.5835 6 73.5835 6C73.5835 6 71.177 7.74684 71.177 7.61247C71.177 7.61247 70.1074 6 67.0324 6C61.1498 6 58.877 11.9124 58.877 16.0779C58.877 19.8403 60.615 26.4246 67.0324 26.4246C69.0378 26.4246 70.3748 25.3496 71.177 24.2746L73.7172 26.2902V16.7498H75.8563V15.9435H75.99Z" fill="#8D8D8D"/>
<path d="M168.106 19.0341C167.438 24.6777 165.967 25.4839 161.956 25.4839H161.689V7.47809H164.229V6.53749H155.94V7.47809H158.48V25.6183H156.475L149.121 6H148.052C148.052 6 141.902 23.7371 141.902 23.8715C141.902 23.8715 141.501 25.3496 140.431 25.6183C139.495 25.6183 139.629 25.2152 139.629 24.9465V21.4528C139.629 20.5122 139.495 18.4966 138.693 17.556C137.624 16.481 135.885 16.481 135.885 16.3467C135.885 16.3467 140.431 15.406 140.431 11.1061C140.431 8.01558 138.292 6.53749 134.816 6.40312H124.922V7.34372H127.463V25.4839H124.922V26.4246H133.078V25.4839H130.538V16.7498H133.88C139.763 17.2873 132.81 26.4246 140.565 26.4246H145.378V25.4839C145.11 25.4839 143.372 25.484 143.239 24.2746C143.105 23.334 144.442 20.1091 144.442 20.1091H151.127C151.127 20.1091 153.132 25.4839 153.266 25.4839H150.993V26.4246H169.042V19.0341H168.106ZM133.746 15.8092H130.538V7.47809H134.682C137.089 7.88121 137.222 10.703 137.222 11.5093C137.222 13.6592 136.287 15.8092 133.746 15.8092ZM144.977 19.3028L147.918 10.703L150.993 19.3028H144.977Z" fill="#8D8D8D"/>
<path d="M115.031 7.34425C120.112 7.34425 122.117 7.0755 122.919 13.391H123.454V6.40364H103.132V7.34425H103.667C104.336 7.34425 106.074 7.34425 106.207 8.95671V20.5127L96.7149 6.40364H91.5008V7.34425H92.303C93.3725 7.34425 94.7095 7.34425 94.8432 8.95671V23.7376C94.8432 25.2157 92.7041 25.7532 91.7682 25.7532V26.4251H98.8541V25.7532C97.9182 25.7532 95.7791 25.2157 95.7791 23.7376V10.7035C99.5225 16.0784 106.608 26.4251 106.742 26.4251H107.143V8.95671C107.277 7.47862 108.881 7.34425 109.683 7.34425H111.956V25.4845H109.282V26.4251H123.722V19.0346H123.053C122.385 24.6782 120.914 25.4845 116.903 25.4845H115.031V16.7503H116.101C117.839 16.7503 118.908 17.8253 119.31 20.9158H119.978V11.7785H119.31C119.31 11.7785 119.176 15.6753 116.101 15.6753H115.165V7.34425H115.031Z" fill="#8D8D8D"/>
<path d="M169.845 6.40364V7.47862H172.385V25.4845H169.845V26.4251H178V25.4845H175.326V7.47862H178V6.40364H169.845Z" fill="#8D8D8D"/>
<path d="M5.89344 25.0665L2.33197 25.9787V24.8229L5.89344 23.9107V25.0665Z" fill="#8D8D8D"/>
<path d="M10.6216 24.8229V25.9787L7.0601 25.0665V23.9107L10.6216 24.8229Z" fill="#8D8D8D"/>
<path d="M5.89344 22.7549L2.33197 23.6671V22.5112L5.89344 21.599V22.7549Z" fill="#8D8D8D"/>
<path d="M10.6216 22.5112V23.6671L7.0601 22.7549V21.599L10.6216 22.5112Z" fill="#8D8D8D"/>
<path d="M5.89344 20.4439L2.33197 21.3561V20.2003L5.89344 19.2881V20.4439Z" fill="#8D8D8D"/>
<path d="M10.6216 20.2003V21.3561L7.0601 20.4439V19.2881L10.6216 20.2003Z" fill="#8D8D8D"/>
<path fill-rule="evenodd" clip-rule="evenodd" d="M14.4906 0.189452C15.8414 -0.236279 17.5607 0.067527 19.0957 0.979847C20.2009 1.6489 20.9986 2.74434 21.4898 4.02163V3.96073C22.1038 2.13606 23.6391 0.979895 25.4197 0.979847H52.8043L52.4974 1.5273C51.5764 3.47365 50.0413 4.44728 47.8923 4.44728H47.5855C46.6645 6.21102 45.1908 7.18381 43.1034 7.18388C42.2438 9.00858 40.7082 9.92115 38.6206 9.92115H30.5162C30.5776 10.1036 30.5777 10.3471 30.5777 10.5904C30.5777 10.7728 30.5776 10.9554 30.5162 11.1379C31.1301 11.1987 31.8669 11.2591 32.665 11.3199C33.8316 11.4415 34.9986 11.5027 35.5512 11.5635C35.7967 11.6242 36.1034 11.6244 36.3488 11.6244C37.6382 11.6852 38.6211 11.7459 40.0333 11.9892C42.0594 12.3541 43.7174 13.2667 45.0068 14.7264C45.4979 15.2738 45.9276 15.882 46.3573 16.6117C46.7871 17.4024 47.2171 18.193 47.5855 19.0445V19.1054C47.7083 19.3487 47.7695 19.5923 47.8923 19.8356L48.0153 20.1394C48.6294 21.7208 49.1207 22.9984 49.6119 23.9716C50.717 23.4851 52.0679 23.7888 52.6205 24.7011C52.7432 24.8835 52.8046 25.0661 52.9273 25.2485C53.1729 25.6743 53.3573 26.0395 53.7871 26.4652L54.4624 27.1947L53.5411 27.3774C53.1727 27.4382 52.8044 27.4992 52.4974 27.4992C50.1028 27.4992 48.875 25.3093 47.647 22.1465V26.5261C47.7697 27.6208 47.5236 28.0463 45.8659 28.7153L44.6992 29.1416V29.2025H54.6462V32H0V17.8893L3.07007 17.0374C2.57891 16.2467 2.39492 15.2128 2.82471 14.6046C3.19311 14.0573 3.9296 13.5707 4.85047 13.5706C4.91187 13.449 4.97372 13.3884 5.09651 13.2668C5.46491 12.9018 5.95592 12.7802 6.50853 12.7802C7.36811 12.8411 8.35064 13.2665 9.21022 14.0572L10.4992 12.111L10.1923 11.8674L10.1308 11.8064C10.0081 11.6847 9.82401 11.4416 9.82397 11.077C9.82397 10.712 10.1924 10.2858 10.9906 10.225L12.0958 10.1039C12.6484 10.1039 13.3854 9.79922 13.3854 9.19098C13.3853 8.94787 13.201 8.76536 12.9555 8.76534C12.7713 8.76534 12.2185 9.13024 12.0343 9.25189C11.5431 9.61681 11.0518 9.86024 10.4992 9.86024C9.70122 9.86012 9.08732 9.31299 9.0872 8.5833C9.0872 8.40083 9.14893 8.15741 9.27173 7.97494C9.08753 7.79247 8.96474 7.5489 8.90334 7.24478C8.90334 7.00146 8.90342 6.57553 9.27173 6.14987C9.6401 5.66334 10.1309 5.05502 10.4992 4.20367V4.14277L10.8068 3.53441C10.8682 3.41289 10.9911 3.29118 11.1751 3.16966C11.4207 2.68315 11.7274 2.1357 12.0958 1.71001C12.4027 1.28431 12.8939 0.980181 13.2009 0.736906C13.5693 0.493613 14.0608 0.311099 14.4906 0.189452ZM31.9897 19.8356C31.6827 19.8356 31.3139 19.8356 31.0069 19.8965L33.0334 23.1805C33.8316 24.3362 33.0336 25.2489 32.788 25.553L31.253 27.1947H30.8846L28.7351 26.83C28.3054 26.83 27.8144 26.891 27.4461 27.3165C27.0777 27.7423 27.0159 28.3509 27.2001 29.1416V29.2025H31.6213L35.4897 25.1267C35.9803 24.5798 35.858 24.1544 35.7966 24.0325C35.6738 23.6067 35.1212 22.5115 34.6914 21.66C34.5073 21.1735 34.2613 20.748 34.1385 20.4439C33.0387 19.8386 31.9998 19.8356 31.9897 19.8356ZM1.84191 29.1416H11.1751L6.50853 27.9249L1.84191 29.1416ZM14.2452 19.7746C13.8154 19.9571 13.3853 20.0786 12.9555 20.1394V29.1416H14.1222C13.7538 27.986 13.8149 27.0125 14.3061 26.3434C14.7358 25.6744 15.5956 25.3096 16.5779 25.3703H16.7624C16.8852 25.3703 16.9462 25.3092 16.9462 25.1876V21.417C16.3324 21.6602 15.5957 21.8426 14.6136 21.8427H13.9377L14.0607 21.1734C14.0607 21.0519 14.1221 20.9911 14.1222 20.8696C14.1836 20.5046 14.2452 20.1396 14.2452 19.7746ZM29.7179 20.1394C29.1085 20.3205 28.62 20.4421 28.6128 20.4439C28.183 20.6264 27.7529 20.7479 27.3231 20.8696C25.7268 21.3561 24.1919 21.8426 21.8589 21.8427H21.7974C21.6132 22.9374 21.3059 24.8836 21.9197 25.796L22.2881 26.3434L21.6744 26.587C21.3061 26.7695 21.2445 26.891 21.2445 26.9518C21.2445 27.4384 21.1829 28.0467 20.7531 28.5332C20.3847 28.898 19.8323 29.0808 19.0957 29.1416H26.0341C25.7885 27.8645 26.1566 27.0736 26.5863 26.587C27.1389 25.9788 28.06 25.6135 28.8581 25.7351L30.7001 26.1005L31.8052 24.8838C32.235 24.4581 32.2352 24.2147 31.9897 23.9107V23.8498L29.7179 20.1394ZM35.7966 21.4779C36.2262 22.39 36.6558 23.2413 36.7787 23.6671C37.0857 24.3969 36.8404 25.1878 36.2265 25.8569L33.0949 29.1416H40.4632C40.0334 28.3509 39.91 27.499 40.1556 26.7691C40.4013 26.1001 40.9545 25.6747 41.6298 25.553L43.6556 25.1267L43.4717 23.485C43.4103 23.0593 43.287 22.9375 42.7958 22.8767C38.928 22.5726 37.0245 22.0253 35.7966 21.4779ZM25.3582 2.13566C24.0689 2.13575 22.9639 2.98745 22.5341 4.32547L21.6129 7.67043C21.3673 8.6436 21.0603 9.55644 20.8761 10.1039C21.5515 10.4688 22.2881 11.1377 22.2881 12.5366C22.2881 13.9355 21.3675 14.9694 20.2623 15.5168C20.5079 15.8818 20.6307 16.3079 20.6307 16.7944C20.6306 18.0108 19.7093 18.9838 18.5428 19.1663C18.3586 19.592 18.2361 20.018 17.9905 20.3221V25.1267C17.9905 25.7958 17.4377 26.4043 16.7009 26.4043H16.517C16.21 26.4043 15.5342 26.4652 15.1658 26.9518C14.8589 27.3775 14.8589 28.0466 15.1658 28.9589C15.8412 29.1414 16.8849 28.9587 17.3761 28.2896L17.5607 28.0467H17.8675C18.6657 28.0467 19.587 28.0463 19.894 27.7422C19.9554 27.6813 20.0778 27.5592 20.0778 26.9518C20.0778 26.8301 20.0782 26.3435 20.6922 25.8569C20.0168 24.1538 20.7532 21.4166 20.8146 21.1125L20.9376 20.6868H21.3675C23.8234 20.8085 25.2356 20.322 26.9547 19.7746C27.3845 19.653 27.8147 19.4706 28.3059 19.349C28.4913 19.2878 30.3938 18.6798 31.9282 18.6797C32.051 18.6797 33.4631 18.6797 34.8753 19.5919L34.9368 19.6528C36.2876 20.5044 37.5157 21.2951 42.9188 21.7209C44.331 21.8425 44.577 22.8764 44.6384 23.2414V23.3023L44.8838 25.9787L41.8752 26.6479C41.5683 26.7087 41.3843 26.8908 41.2615 27.1947C41.0773 27.7421 41.261 28.4116 41.7522 29.0807L45.4975 27.5601C45.6817 27.4993 46.3576 27.1952 46.5418 27.0127V19.349C46.2962 18.7408 45.989 18.1322 45.682 17.5848C41.2612 17.0374 40.0948 16.5508 37.823 12.9014C37.3932 12.9014 36.9015 12.8405 36.4103 12.8405C36.1035 12.7797 35.858 12.7802 35.5512 12.7802C34.9372 12.7194 33.8315 12.6583 32.6035 12.5366C31.5597 12.4758 30.5158 12.4147 29.9018 12.3539C29.4106 12.7797 28.7968 13.0841 28.1214 13.0841C27.5689 13.0841 27.1391 12.9016 26.4025 12.5975C26.2183 12.5367 26.0953 12.4756 25.9111 12.4148L26.7709 11.6244C26.9548 11.6852 27.0776 11.7457 27.2616 11.8064C27.63 11.9889 27.8758 12.0501 28.1214 12.0501C28.8582 12.0501 29.4726 11.5023 29.4726 10.7724C29.4725 10.3472 29.4109 10.1648 29.3495 10.1039H25.6042L26.1565 9.00895H29.7179C31.1914 9.00893 32.1736 8.52216 32.9103 7.42749H27.0777L27.63 6.33258H34.2C35.6736 6.33258 36.7178 5.78504 37.4546 4.69022H28.3667L28.9197 3.59531H38.9281C40.3402 3.59526 41.3223 3.10875 42.0591 2.13566H25.3582ZM1.10515 18.7406V28.1685L6.44702 26.7691L11.7889 28.1685V18.7406L6.44702 17.3419L1.10515 18.7406ZM51.7607 25.3094C51.5151 24.9445 50.8398 24.7624 50.3487 25.0056C50.9012 25.8569 51.5764 26.3435 52.4359 26.4043C52.3131 26.161 52.1903 25.9784 52.0675 25.796C51.9448 25.6743 51.8834 25.4918 51.7607 25.3094ZM18.9727 2.31836C19.034 3.3523 18.4201 4.50772 17.4991 5.17677L17.806 6.88003H17.1308C16.701 6.88003 16.394 7.1233 16.394 7.36659C16.394 7.48823 16.4556 7.73173 16.517 8.03584C16.5784 8.46156 16.7009 8.94818 16.7009 9.4955V9.5564C16.7008 11.5027 14.5517 12.7193 12.4641 12.7193H12.4026C12.2184 12.7193 11.9116 12.7192 11.5435 12.6584L10.07 14.9694C10.1314 15.0303 10.254 15.2132 10.3154 15.3348C10.3156 15.3953 10.3769 15.4559 10.3769 15.4559L10.4384 15.5168C10.4998 15.6384 10.6223 15.8208 10.6837 15.9425V16.0034C10.4996 16.3074 10.254 16.6724 10.0085 16.9765C10.0076 16.9148 9.64142 16.4309 9.64011 16.3688C9.64011 16.3688 9.57847 16.2469 9.51709 16.1861C9.45569 16.1253 9.45547 16.0642 9.39407 16.0034C9.20989 15.6993 8.96437 15.3344 8.71882 15.0912C8.04344 14.3613 7.18391 13.8745 6.50853 13.8745C6.26304 13.8745 6.01764 13.9356 5.89478 14.0572C5.83342 14.118 5.77162 14.2394 5.71025 14.361L5.52573 14.7873L5.035 14.7264C4.42099 14.6656 3.92942 14.9089 3.68382 15.2739C3.56131 15.4569 3.68425 16.3081 4.17522 16.7944L6.44702 16.1861L12.894 17.8893V18.9836C13.5079 18.862 14.0605 18.619 14.3676 18.315L15.2889 17.4028L15.3504 18.6797V20.6868C16.8238 20.5043 17.2539 19.8351 17.6837 18.497L17.806 18.1323H18.2359C18.9726 18.1323 19.5869 17.5851 19.5871 16.8553C19.5871 16.4296 19.3411 16.0037 18.9727 15.7604L17.806 14.9694L19.218 14.7264C20.2004 14.544 21.2445 13.6922 21.2445 12.5366C21.2445 11.5634 20.7531 11.2591 20.0163 10.8333L19.5871 10.5904L19.7709 10.1648C19.9551 9.67817 20.3236 8.6436 20.5692 7.67043L20.6307 7.42749C20.7535 6.81925 20.876 6.27179 20.8146 5.84603C20.6918 4.4471 20.0165 3.10907 18.9727 2.31836ZM39.235 13.145C40.8928 15.6386 41.9366 16.0641 44.8838 16.429C44.6382 16.125 44.454 15.821 44.2085 15.5777C43.1033 14.3613 41.6909 13.5709 39.9103 13.2668C39.6647 13.206 39.4806 13.145 39.235 13.145ZM14.859 3.53441H14.6744C14.3677 3.47368 14.1222 3.47417 13.8768 3.47417C12.5878 3.47417 11.9119 3.96018 11.7889 4.14277L11.6659 4.32547C11.2976 5.54178 12.6485 4.99445 12.9555 5.23767C13.2604 5.4793 12.7176 5.96125 12.7102 5.96783C12.5874 6.08947 12.4643 6.27164 12.2188 6.27168C11.9733 6.27168 11.789 6.15021 11.7889 5.96783C11.7889 5.66372 11.5431 5.48128 11.2975 5.48128C11.0521 5.48135 10.9908 5.60289 10.8068 5.84603C10.5612 6.27168 10.3155 6.57587 10.07 6.81913C10.07 6.87995 10.0085 6.94102 10.0085 7.00184C10.0088 7.06283 10.1927 7.24492 10.3154 7.30568L10.8676 7.67043L10.2539 8.5224V8.5833C10.2542 8.64415 10.3767 8.76516 10.4992 8.76534C10.6834 8.76534 10.9906 8.58297 11.359 8.33969C11.9116 7.97477 12.4642 7.67046 12.894 7.67043C13.6922 7.67043 14.306 8.46133 14.3061 9.31279C14.1833 10.5293 12.9555 11.0161 11.7889 11.077L10.8068 11.0161C10.7454 11.0161 10.6837 11.077 10.6837 11.1379C10.6837 11.1986 10.684 11.2594 10.7453 11.1988C10.9909 11.3809 11.9706 11.4415 12.0343 11.4417H12.0958C13.6308 11.5025 15.4727 10.6509 15.4727 9.31279C15.4727 8.88715 15.3503 8.46149 15.2889 8.03584C15.2275 7.73173 15.1658 7.42717 15.1658 7.18388C15.166 6.51494 15.6573 5.96749 16.394 5.72422L16.1486 4.44728L16.517 4.26457C17.3764 3.77799 17.8672 2.80501 17.7445 1.95362C17.7445 1.95362 17.6838 1.89259 17.6837 1.83181L14.859 3.53441ZM34.2 7.42749C33.893 8.0357 33.5245 8.5832 33.0334 9.00895H38.6206C40.0942 9.00895 41.1382 8.52223 41.7522 7.42749H34.2ZM38.6821 4.69022C38.3752 5.35918 37.9457 5.90684 37.4546 6.33258H43.0419C44.5768 6.33255 45.6203 5.78501 46.2343 4.69022H38.6821ZM43.4717 2.13566C43.1648 2.68301 42.7347 3.16958 42.2436 3.59531H47.8308C49.243 3.59531 50.2256 3.10883 50.9624 2.13566H43.4717ZM16.5779 1.22346C15.9639 1.10186 15.35 1.10183 14.7975 1.22346C14.4292 1.28427 14.0609 1.46669 13.8153 1.64911C13.5083 1.8924 13.2013 2.13597 13.0171 2.37927C12.9931 2.40296 12.9774 2.41595 12.9649 2.42478C13.1979 2.37951 13.4815 2.37927 13.8153 2.37927C14.0609 2.3793 14.3066 2.44017 14.5521 2.44017L16.5779 1.22346Z" fill="#8D8D8D"/>
</svg>
