<svg width="157" height="32" viewBox="0 0 157 32" fill="none" xmlns="http://www.w3.org/2000/svg">
<g clip-path="url(#clip0_13843_86)">
<path d="M26.4175 -0.00019455C29.5178 -0.00019455 32.1609 1.8168 32.1694 3.31133C32.1707 3.63818 32.0448 3.94807 31.771 4.22246C30.3016 5.64074 29.7264 7.06116 29.7222 8.31328C29.7127 10.7039 31.7862 12.4832 33.6978 12.4832C36.3256 12.4832 37.8755 10.4158 37.8755 7.74297C37.8755 5.21029 36.7951 3.09713 35.6206 1.40899C35.5742 1.33892 35.5532 1.26231 35.5532 1.19414C35.5543 1.06123 35.6317 0.951981 35.7495 0.951954C35.8209 0.951954 35.9043 0.989654 35.9946 1.07988L49.1919 13.8445C49.8504 14.4041 50.272 15.0621 50.272 16.0018C50.2719 16.9375 49.8508 17.5977 49.1919 18.1609L35.9946 30.9207C35.9038 31.012 35.8205 31.0496 35.7495 31.0496C35.6326 31.0496 35.5542 30.9409 35.5532 30.8084C35.5532 30.7408 35.5743 30.6636 35.6206 30.5945C36.7956 28.904 37.8754 26.7931 37.8755 24.2586C37.8755 21.5839 36.3256 19.5184 33.6978 19.5184C31.7862 19.5184 29.7127 21.2991 29.7222 23.6893C29.7265 24.9413 30.3017 26.3605 31.771 27.7801C32.0448 28.0531 32.1707 28.3658 32.1694 28.6922C32.1609 30.1843 29.5178 31.9998 26.4175 31.9998C21.2516 31.9994 19.233 24.7763 19.2329 16.0477C19.2329 7.32168 21.2516 0.00017924 26.4175 -0.00019455Z" fill="#8D8D8D"/>
<path d="M16.5103 0.96172C16.6352 0.961747 16.7215 1.07247 16.7173 1.20879C16.7134 1.28905 16.6798 1.37792 16.6021 1.45488C13.5051 5.30543 11.2516 9.80515 11.2515 16.0477C11.2515 22.2866 13.5051 26.6999 16.6021 30.5477C16.68 30.6256 16.7134 30.7163 16.7173 30.7947C16.7211 30.9282 16.6352 31.0418 16.5103 31.0418C16.4407 31.0418 16.3587 31.0073 16.2739 30.9207L3.07959 18.1609C2.42116 17.5972 1.99953 16.9376 1.99951 16.0018C1.99951 15.0616 2.42062 14.4041 3.07959 13.8445L16.2739 1.08086C16.3587 0.994702 16.4407 0.960373 16.5103 0.96172Z" fill="#8D8D8D"/>
<path d="M65.9146 7.69512C69.4124 7.69519 71.8597 10.163 71.8599 12.201C71.8599 13.2936 71.1825 14.0936 70.2974 14.0936C69.392 14.0935 68.6304 13.477 68.6304 12.4275C68.6304 11.7485 69.0002 11.3779 69.2681 11.0701C68.7942 10.164 67.7872 9.4022 66.2231 9.40215C63.6298 9.40215 61.8403 12.1193 61.8403 16.0066C61.8404 19.889 63.7126 22.5885 66.3042 22.5887C67.8681 22.5887 68.8761 21.8363 69.3501 20.9217C69.0822 20.6248 68.7134 20.2476 68.7134 19.574C68.7134 18.519 69.474 17.9051 70.3794 17.9051C71.2643 17.9053 71.9429 18.6977 71.9429 19.7879C71.9429 21.8354 69.4946 24.2947 65.9966 24.2947C62.1077 24.2947 58.5288 21.2194 58.5288 16.0271C58.5289 11.0692 62.0249 7.69448 65.9146 7.69512Z" fill="#8D8D8D"/>
<path fill-rule="evenodd" clip-rule="evenodd" d="M78.9507 12.4588C80.9463 12.4588 82.1617 12.9312 82.7993 13.7527C83.3742 14.4756 83.4155 15.5873 83.4155 17.1912V21.3689C83.4156 22.2563 83.9907 22.5391 84.9995 22.6785C84.9376 23.709 84.2171 24.1081 83.3745 24.1873C82.4275 24.2664 81.501 23.8281 81.1313 22.8396C80.6981 23.2329 79.423 24.2273 77.7563 24.2273C75.4733 24.2273 73.7653 22.6973 73.7651 20.6141C73.7651 18.4116 75.6784 17.1063 78.3735 17.1063C79.3008 17.1063 80.2658 17.2991 80.8423 17.5975V16.1229C80.8423 14.8015 80.2659 13.9627 78.7651 13.9627C78.4556 13.9627 77.7773 14.0433 77.2417 14.2469C77.3035 14.4559 77.3461 14.6795 77.3462 14.8846C77.3462 15.6913 76.8312 16.3455 75.9673 16.3455C75.2054 16.3454 74.6296 15.7318 74.6294 14.948C74.6294 13.5077 76.4405 12.4589 78.9507 12.4588ZM78.8677 18.5115C77.5723 18.5116 76.6265 19.1648 76.6265 20.4148C76.6265 21.5858 77.4487 22.4021 78.6831 22.4021C79.5062 22.4021 80.3294 21.9447 80.8433 21.2908V19.6229C80.8432 19.0667 80.1224 18.5115 78.8677 18.5115Z" fill="#8D8D8D"/>
<path fill-rule="evenodd" clip-rule="evenodd" d="M109.854 12.4598C112.978 12.4598 114.42 14.7609 114.42 16.7205C114.42 17.2984 114.297 17.8337 114.049 18.2801H106.87C106.931 20.4748 108.331 22.0623 110.738 22.0623C112.199 22.0622 113.311 21.2706 113.701 20.7732C113.886 20.9127 114.072 21.1214 114.072 21.6063C114.072 22.6981 112.754 24.2077 109.689 24.2078C106.604 24.2078 104.091 21.748 104.091 18.532C104.091 14.9909 106.417 12.4598 109.854 12.4598ZM109.442 13.9627C107.652 13.9627 106.952 15.4624 106.891 16.8621H111.233C111.726 16.862 111.748 16.573 111.748 16.1863C111.726 15.0318 110.819 13.9627 109.442 13.9627Z" fill="#8D8D8D"/>
<path d="M145.84 12.6033C147.032 12.6033 147.489 13.3464 147.489 14.4568C147.489 14.8649 147.449 15.6094 147.449 18.6873C147.449 19.9883 147.428 20.6756 147.428 20.8914C147.428 21.9049 147.897 22.4216 148.985 22.3035C149.43 23.4352 147.94 23.9713 147.089 24.1287C146.829 24.1678 146.592 24.2078 146.396 24.2078C145.265 24.2078 145.035 23.4744 144.807 22.4227C144.647 22.6199 144.5 22.781 144.193 23.077C143.452 23.7708 142.486 24.1882 141.394 24.1883C140.2 24.1883 139.192 23.7303 138.553 22.9783C137.567 21.8074 137.567 20.2975 137.567 18.0936V15.9764C137.567 14.9718 137.093 14.5816 136.003 14.699C135.551 13.5699 137.053 12.8508 137.896 12.6854C138.163 12.6446 138.409 12.6043 138.636 12.6043C139.828 12.6043 140.283 13.3473 140.283 14.4578L140.261 18.073C140.261 20.7548 140.633 22.1219 142.363 22.1219C144.252 22.1218 144.769 20.434 144.769 18.9012V15.9764C144.769 14.9714 144.292 14.5806 143.204 14.698C142.752 13.569 144.251 12.8498 145.098 12.6844C145.363 12.6436 145.612 12.6033 145.84 12.6033Z" fill="#8D8D8D"/>
<path fill-rule="evenodd" clip-rule="evenodd" d="M129.317 12.4588C132.65 12.4589 135.057 14.8244 135.057 18.3035C135.057 21.7871 132.546 24.1871 129.214 24.1873C126.066 24.1873 123.494 21.8264 123.494 18.3035C123.494 14.8242 126.232 12.4588 129.317 12.4588ZM129.214 13.9627C127.527 13.9627 126.499 15.5051 126.499 17.9754C126.499 21.1458 127.897 22.5982 129.337 22.5984C130.962 22.5984 132.115 21.1456 132.115 18.4725C132.115 15.6725 130.88 13.9624 129.214 13.9627Z" fill="#8D8D8D"/>
<path d="M121.416 7.06621C123.577 7.06621 125.325 8.0746 125.325 9.59649C125.325 10.2551 124.872 11.0573 123.926 11.0574C123.228 11.0574 122.569 10.4599 122.569 9.72051C122.569 9.41064 122.692 9.08212 122.856 8.87774C122.61 8.58949 122.095 8.44414 121.601 8.44414C120.181 8.4443 119.874 9.49378 119.874 10.8104V12.7459H122.816C123.166 13.5878 122.692 14.2672 122.034 14.3299C121.828 14.3518 121.601 14.3514 121.396 14.3514C120.86 14.3514 120.326 14.3094 119.956 14.3094V20.6746C119.956 21.6244 120.12 22.0227 120.449 22.3016C120.758 22.538 121.479 22.6358 121.685 22.6766C122.158 23.7073 121.046 24.0291 118.763 24.0291C116.48 24.0291 115.533 23.7081 116.005 22.6766C116.211 22.6351 116.541 22.5373 116.849 22.3016C117.178 22.0227 117.301 21.6247 117.301 20.6746V14.2664L115.574 14.2049C115.224 13.3644 115.697 12.7664 116.396 12.7664H117.261V11.9432C117.261 10.2764 117.569 9.34944 117.981 8.73223C118.618 7.74457 119.709 7.06627 121.416 7.06621Z" fill="#8D8D8D"/>
<path d="M92.6108 12.4383C93.4756 12.4383 94.3394 12.9926 94.3394 14.0633C94.3393 14.823 93.8045 15.6082 92.9194 15.6082C92.2209 15.6081 91.6239 15.1156 91.562 14.4139C90.9448 14.5378 89.9989 15.2152 89.9995 17.7879V20.6736C89.9995 21.6237 90.1434 22.0217 90.4731 22.3006C90.7816 22.5362 91.3568 22.634 91.563 22.6756C92.0361 23.7071 91.2542 24.0281 88.9702 24.0281C86.6864 24.0281 85.7608 23.7063 86.2339 22.6756C86.4399 22.6348 86.7683 22.5371 87.0776 22.3006C87.4072 22.0218 87.5298 21.6234 87.5298 20.6736V15.8895C87.5298 14.8845 87.1185 14.4969 85.9663 14.7186C85.5128 13.5875 86.7271 12.9506 87.5503 12.7039C87.8173 12.6225 88.0642 12.5809 88.2905 12.5809C89.2782 12.5809 89.7522 13.324 89.937 14.3094L89.979 14.2889C90.575 13.18 91.6241 12.4384 92.6108 12.4383Z" fill="#8D8D8D"/>
<path d="M101.973 12.4383C102.837 12.4383 103.702 12.9926 103.702 14.0633C103.702 14.823 103.167 15.6082 102.282 15.6082C101.582 15.608 100.986 15.1155 100.924 14.4139C100.307 14.5376 99.3602 15.2149 99.3608 17.7879V20.6736C99.3608 21.6236 99.5056 22.0218 99.8345 22.3006C100.144 22.5362 100.719 22.634 100.924 22.6756C101.398 23.7071 100.615 24.0281 98.3325 24.0281C96.0501 24.0281 95.1233 23.7064 95.5972 22.6756C95.8024 22.6348 96.1305 22.537 96.439 22.3006C96.7686 22.0218 96.8911 21.6236 96.8911 20.6736V15.8895C96.8911 14.8846 96.4806 14.497 95.3286 14.7186C94.8751 13.5876 96.0886 12.9507 96.9126 12.7039C97.1796 12.6225 97.4273 12.5809 97.6528 12.5809C98.6405 12.5809 99.1143 13.324 99.2983 14.3094L99.3413 14.2889C99.9365 13.18 100.986 12.4385 101.973 12.4383Z" fill="#8D8D8D"/>
<path d="M156.737 12.4383C157.613 12.4385 158.464 12.9927 158.464 14.0633C158.464 14.8229 157.929 15.6079 157.057 15.6082C156.355 15.6082 155.753 15.1157 155.684 14.4139C155.07 14.5376 154.14 15.2149 154.139 17.7879V20.6736C154.139 21.6237 154.278 22.0217 154.591 22.3006C154.912 22.5363 155.487 22.6341 155.683 22.6756C156.161 23.7071 155.388 24.0281 153.105 24.0281C150.823 24.0281 149.888 23.7063 150.366 22.6756C150.562 22.6349 150.902 22.5371 151.197 22.3006C151.537 22.0217 151.656 21.6237 151.656 20.6736V15.8895C151.656 14.8845 151.25 14.4959 150.094 14.7176C149.654 13.5868 150.864 12.9506 151.675 12.7039C151.957 12.6226 152.191 12.5809 152.432 12.5809C153.402 12.5809 153.88 13.324 154.06 14.3094L154.121 14.2889C154.715 13.1798 155.753 12.4383 156.737 12.4383Z" fill="#8D8D8D"/>
</g>
<defs>
<clipPath id="clip0_13843_86">
<rect width="156.667" height="32" fill="white"/>
</clipPath>
</defs>
</svg>
