<svg width="115" height="32" viewBox="0 0 115 32" fill="none" xmlns="http://www.w3.org/2000/svg">
<g clip-path="url(#clip0_13843_163)">
<path d="M81.0687 0.129463C81.0687 0.129463 83.8009 4.80857 87.619 6.0068L84.8355 0.129463H81.0687Z" fill="#8D8D8D"/>
<path fill-rule="evenodd" clip-rule="evenodd" d="M19.4108 7.53734C17.757 7.68718 16.3551 8.09709 15.3463 8.47956L14.9593 10.2959H21.1673C21.1673 10.2959 22.7591 10.298 22.4356 11.8457L22.0506 13.5798C16.8381 14.077 12.3017 15.3545 11.361 19.7751C10.6916 22.9304 12.4633 24.7874 16.7878 24.8803L23.197 24.8808L25.249 15.227C27.0146 7.29099 20.2987 7.47943 19.4108 7.53734ZM20.1549 22.4986H17.5787C15.5718 22.4143 14.528 21.7286 14.9694 19.6516C15.6175 16.6005 17.9942 15.8228 21.6666 15.3865L20.1549 22.4986Z" fill="#8D8D8D"/>
<path fill-rule="evenodd" clip-rule="evenodd" d="M64.8648 7.56519C64.8648 7.56519 57.0792 6.48633 54.9276 16.8173L53.2077 24.8813H56.7617L59.4543 11.7638C59.7438 10.5011 60.7003 10.3177 60.9862 10.2964H64.2822L64.8648 7.56519Z" fill="#8D8D8D"/>
<path fill-rule="evenodd" clip-rule="evenodd" d="M102.799 7.56519C102.799 7.56519 95.0137 6.48633 92.8621 16.8173L91.1432 24.8813H94.6968L97.3888 11.7638C97.6788 10.5011 98.6348 10.3177 98.9208 10.2964H102.217L102.799 7.56519Z" fill="#8D8D8D"/>
<path fill-rule="evenodd" clip-rule="evenodd" d="M89.1465 21.3089C88.1896 21.7609 86.5931 22.2674 84.8758 22.2674C81.8241 22.2674 81.0769 20.1188 81.3263 17.5659L91.8808 16.1025C92.1296 15.013 92.2546 14.0169 92.2546 13.1133C92.2546 9.47091 90.199 7.52703 86.7745 7.52703C83.9727 7.52703 81.6057 8.84868 79.9874 11.1827C78.5865 13.2068 77.6839 16.1655 77.6839 18.6559C77.6839 22.7341 80.1743 24.8802 84.0981 24.8802C85.8018 24.8802 87.3362 24.582 88.5395 24.167L89.1465 21.3089ZM82.4783 12.5531C83.4439 10.7473 84.8448 9.72132 86.3701 9.72132C87.958 9.72132 88.8611 10.7164 88.8611 12.678C88.8611 13.2388 88.7839 13.9595 88.6279 14.6447L81.4198 15.6357C81.6687 14.4218 82.042 13.3942 82.4783 12.5531Z" fill="#8D8D8D"/>
<path fill-rule="evenodd" clip-rule="evenodd" d="M111.643 21.3089C110.686 21.7609 109.09 22.2674 107.372 22.2674C104.32 22.2674 103.573 20.1188 103.823 17.5659L114.377 16.1025C114.626 15.013 114.75 14.0169 114.75 13.1133C114.75 9.47091 112.696 7.52703 109.27 7.52703C106.469 7.52703 104.103 8.84868 102.484 11.1827C101.083 13.2068 100.18 16.1655 100.18 18.6559C100.18 22.7341 102.671 24.8802 106.594 24.8802C108.298 24.8802 109.833 24.582 111.035 24.167L111.643 21.3089ZM104.975 12.5531C105.94 10.7473 107.341 9.72132 108.867 9.72132C110.454 9.72132 111.357 10.7164 111.357 12.678C111.357 13.2388 111.295 13.8925 111.139 14.5767L103.916 15.6357C104.166 14.4218 104.538 13.3942 104.975 12.5531Z" fill="#8D8D8D"/>
<path fill-rule="evenodd" clip-rule="evenodd" d="M76.3003 0.129463L74.7307 7.52705H71.9985L71.9975 7.52857C69.2206 7.54584 66.8349 8.80095 65.1653 11.0262C63.6399 13.0504 62.6439 16.133 62.6439 18.7164C62.6439 22.6407 65.1343 24.8807 69.1206 24.8807C69.214 24.8807 74.8379 24.8807 74.8379 24.8807L80.0671 0.129463H76.3003ZM71.5546 22.4985H69.3969C67.3027 22.4284 66.4112 20.964 66.4112 18.7484C66.4112 16.7552 67.0665 14.1089 68.0925 12.4281C69.0901 10.7773 70.522 9.72134 72.5161 9.72134C72.5517 9.72134 74.2629 9.72134 74.2629 9.72134L71.5546 22.4985Z" fill="#8D8D8D"/>
<path fill-rule="evenodd" clip-rule="evenodd" d="M4.34223 22.235C4.02324 22.2172 3.11149 22.0694 3.33245 20.7996L7.08356 3.1503H3.09727L0.4814 15.4799C0.445844 15.6247 -1.36292 24.8808 6.17791 24.8808H10.0072L10.5705 22.235H4.34223Z" fill="#8D8D8D"/>
<path fill-rule="evenodd" clip-rule="evenodd" d="M35.8465 7.52703C32.4865 7.52703 29.9331 8.85478 28.2213 11.1877C26.728 13.2103 25.7009 16.4632 25.7009 19.015C25.7009 22.6249 27.817 24.8802 31.1476 24.8802C32.4865 24.8802 33.544 24.642 34.2602 24.2986L34.0728 25.1616C33.6055 27.2461 32.1431 28.8649 29.4358 28.8649C27.9069 28.8649 26.4695 28.4875 25.6156 28.0426L25.0254 30.8205C26.2226 31.2756 27.8505 31.5672 29.5542 31.5712C31.4437 31.528 36.5373 30.7677 37.9925 24.0731L41.1691 8.66837C40.1421 8.04411 38.2114 7.52703 35.8465 7.52703ZM34.7265 22.1353C34.1347 22.4472 33.3256 22.6661 32.454 22.6661C30.3379 22.6661 29.4038 21.442 29.4038 19.2644C29.4038 17.3033 30.0885 14.4253 31.0231 12.7131C32.0806 10.7834 33.4815 9.72538 35.3487 9.72538C36.3128 9.72538 36.8735 9.88183 37.2159 10.0672L34.7265 22.1353Z" fill="#8D8D8D"/>
<path fill-rule="evenodd" clip-rule="evenodd" d="M47.943 7.53734C46.2897 7.68718 44.8878 8.09708 43.879 8.47956L43.4925 10.2959H49.7005C49.7005 10.2959 51.2919 10.298 50.9683 11.8457L50.5833 13.5798C45.3713 14.077 40.8345 15.355 39.8948 19.7756C39.2248 22.9309 40.996 24.7879 45.3211 24.8808L51.7307 24.8813L53.7828 15.2275C55.5473 7.29099 48.8309 7.47943 47.943 7.53734ZM48.6877 22.4986H46.4126C46.3115 22.4986 46.1109 22.4986 46.1109 22.4986C44.104 22.4143 43.0602 21.7286 43.5016 19.6516C44.1493 16.6004 46.5264 15.8228 50.1993 15.3865L48.6877 22.4986Z" fill="#8D8D8D"/>
</g>
<defs>
<clipPath id="clip0_13843_163">
<rect width="114.794" height="32" fill="white"/>
</clipPath>
</defs>
</svg>
