<svg width="150" height="32" viewBox="0 0 150 32" fill="none" xmlns="http://www.w3.org/2000/svg">
<path d="M93.5766 5L102.589 14.1552L111.602 5H93.5766Z" fill="#8D8D8D"/>
<path d="M102.589 24.6458L107.545 19.7171L108.688 26.6971H115.237L112.174 7.82225H112.105L103.964 16.0963L102.589 17.5006L101.214 16.0963L93.0728 7.82225H92.9912L89.9688 26.6971H96.5172L97.5383 19.7171L102.589 24.6458Z" fill="#8D8D8D"/>
<path d="M16.6428 7.69831H29.2767V12.8886H23.5179V14.7058H28.773V19.6483H23.5179V21.5068H29.4673V26.6971H16.6428V7.69831Z" fill="#8D8D8D"/>
<path d="M45.8044 15.408C44.7016 14.3755 43.3402 13.4944 41.7882 13.4944C39.7461 13.4944 38.0715 15.1326 38.0715 17.1977C38.0715 19.2903 39.8414 20.9011 41.8835 20.9011C43.4491 20.9011 44.7016 20.2265 45.7908 19.1389L45.5866 26.2428C44.4838 26.7659 41.9516 27 40.7263 27C35.3759 27 31.1827 22.7872 31.1827 17.3767C31.1827 11.8285 35.4984 7.39547 40.9986 7.39547C42.537 7.39547 44.1435 7.67082 45.5866 8.18021L45.8044 15.408Z" fill="#8D8D8D"/>
<path d="M47.7239 7.69831H54.2723L60.3987 18.2302H60.6029C60.3307 16.647 60.0311 15.0087 60.0311 13.3979V7.69831H66.5524V26.6971H60.0311L54.0273 16.7158H53.8231C54.0409 18.0237 54.2451 19.2628 54.2451 20.5156V26.6833H47.7239V7.69831Z" fill="#8D8D8D"/>
<path d="M89.2472 17.2528C89.2472 23.3517 84.5912 27 78.8596 27C73.128 27 68.4719 23.3517 68.4719 17.2528C68.4719 11.2778 73.1552 7.40925 78.8596 7.40925C84.5639 7.39548 89.2472 11.2778 89.2472 17.2528ZM75.3471 17.3492C75.3471 19.5106 76.7902 20.9975 78.8596 20.9975C80.9289 20.9975 82.3721 19.5106 82.3721 17.3492C82.3721 15.3392 81.0242 13.6458 78.8596 13.6458C76.6949 13.6458 75.3471 15.3392 75.3471 17.3492Z" fill="#8D8D8D"/>
<path d="M123.364 26.6971H116.149L122.67 7.69831H130.212L136.911 26.6971H129.681L129.055 24.3291H123.895L123.364 26.6971ZM127.871 19.8272L127.067 16.4818C126.863 15.6695 126.741 14.8435 126.618 14.0312H126.373L125.121 19.8272H127.871Z" fill="#8D8D8D"/>
<path d="M134.651 7.69831H149V13.8798L145.242 13.7008V26.6971H138.422V13.7008L134.664 13.8798L134.651 7.69831Z" fill="#8D8D8D"/>
<path d="M1 7.71205H15.3494V13.8798L11.5918 13.7008V26.697H4.75752V13.7008L1 13.8798V7.71205Z" fill="#8D8D8D"/>
</svg>
