<svg width="155" height="32" viewBox="0 0 155 32" fill="none" xmlns="http://www.w3.org/2000/svg">
<g clip-path="url(#clip0_13843_877)">
<path d="M23.0612 2.02016H16.9372C14.2012 5.62904 12.4981 10.7468 12.5011 15.8553C12.5011 20.9622 14.2043 26.0753 16.9387 29.6888H23.0612C21.2911 27.9824 20.1729 25.5122 19.4676 23.1275C18.067 18.3848 18.067 13.3257 19.4676 8.58304C20.1729 6.19838 21.2911 3.7266 23.0612 2.02016ZM36.5722 2.02016H30.4497C32.2199 3.7266 33.3395 6.19838 34.0449 8.58304C35.4449 13.315 35.4449 18.3955 34.0449 23.1275C33.3395 25.5122 32.2199 27.9824 30.4497 29.6888H36.5737C39.3112 26.0799 41.0129 20.9637 41.0098 15.8553C41.0098 10.7484 39.3082 5.63371 36.5722 2.02016ZM29.8266 2.02016H23.6919V29.6888H29.8266V2.02016Z" fill="#8D8D8D"/>
<path d="M7.09471 15.8553C7.09471 13.0911 8.37436 5.45333 16.2914 2.02022H8.70037C8.70037 2.02022 1.86035 6.65889 1.86035 15.8553C1.86035 25.0518 8.70037 29.6889 8.70037 29.6889H16.2914C8.37436 26.2558 7.09167 18.6196 7.09167 15.8553H7.09471ZM46.4195 15.8553C46.4195 13.0942 45.1368 5.45333 37.2182 2.02022H44.8123C44.8123 2.02022 51.6508 6.66044 51.6508 15.8553C51.6508 25.0487 44.8108 29.6889 44.8108 29.6889H37.2197C45.1368 26.2558 46.4195 18.6196 46.4195 15.8553ZM104.41 9.93956C98.8073 9.93956 94.7672 14.1753 94.7672 19.948C94.7672 25.7207 98.8073 29.9969 104.41 29.9969C110.015 29.9969 114.053 25.7596 114.053 19.948C114.053 14.1364 109.98 9.93956 104.41 9.93956ZM104.41 25.9089C101.392 25.9089 99.4593 23.4713 99.4593 19.948C99.4593 16.4262 101.389 14.0229 104.41 14.0229C107.433 14.0229 109.396 16.4231 109.396 19.9496C109.396 23.4744 107.358 25.9089 104.41 25.9089ZM120.785 2H116.2V29.6982H120.785V2ZM154.239 25.9089C153.474 25.9089 153.073 25.422 153.073 24.3347V17.4716C153.073 12.8578 149.906 9.93333 144.92 9.93333C139.936 9.93333 137.131 12.5591 136.694 16.7218L136.624 17.4124C138.009 17.1228 139.407 16.9032 140.813 16.7544L141.136 16.7218C141.281 14.7353 142.847 13.6076 144.92 13.6076C147.143 13.6076 148.488 14.81 148.488 16.2349C148.488 17.0982 147.978 17.6209 146.96 17.7733L143.174 18.2991C138.99 18.8607 136.586 20.9622 136.586 24.3736C136.586 27.7864 139.352 30 143.174 30C145.977 30 148.27 28.8738 149.11 27.1502C149.326 28.9858 150.747 29.9253 152.676 29.9253C153.77 29.9253 154.86 29.7013 154.86 29.7013V25.8373C154.86 25.8373 154.495 25.912 154.242 25.912L154.239 25.9089ZM148.598 21.2967C148.598 24.2211 146.887 26.3973 143.938 26.3973C142.265 26.3973 141.171 25.4578 141.171 24.1464C141.171 22.7216 142.082 21.8224 143.938 21.5207L148.599 20.732L148.598 21.2967ZM65.0657 2.03889C59.548 12.7473 56.1661 24.1107 54.7158 29.7153H59.8238C60.1513 28.1567 60.9054 25.2758 61.4538 23.4231H73.4779C74.0278 25.2758 74.7804 28.1567 75.1079 29.7153H80.2143C78.761 24.1107 75.3837 12.7489 69.8644 2.03889H65.0642H65.0657ZM62.7563 19.2822C64.0999 15.2627 65.8259 10.7749 67.4666 7.65911C69.1088 10.7749 70.8333 15.2627 72.1769 19.2822H62.7563ZM130.38 10.2382V4.50133H125.794V10.4856C123.741 10.3984 122.592 10.2351 122.592 10.2351V14.0198C122.592 14.0198 123.744 14.1847 125.794 14.2718V23.546C125.794 27.8969 128.561 29.9938 132.453 29.9938C133.47 29.9938 134.346 29.8444 134.782 29.7309V25.6444C134.42 25.758 133.691 25.9089 133 25.9089C131.47 25.9089 130.38 24.8947 130.38 23.0576V14.2889C131.849 14.2433 133.317 14.1535 134.782 14.0198V10.2351C133.183 10.3813 131.708 10.4622 130.38 10.5042V10.2351V10.2382ZM90.2992 10.1962C88.6775 14.5731 87.2632 19.0271 86.0611 23.5429C84.8614 19.0268 83.448 14.5726 81.8261 10.1962H77.0076C79.3978 16.0529 82.0957 23.4838 83.6831 29.6002L83.7044 29.6531H88.4223L88.4437 29.6002C90.0326 23.4838 92.729 16.0513 95.1192 10.1962H90.2992Z" fill="#8D8D8D"/>
</g>
<defs>
<clipPath id="clip0_13843_877">
<rect width="155" height="32" fill="white"/>
</clipPath>
</defs>
</svg>
