<svg width="112" height="32" viewBox="0 0 112 32" fill="none" xmlns="http://www.w3.org/2000/svg">
<path d="M62.3457 21.2988V30.966H59.6488V21.2988H62.3457ZM74.4818 17.8079V20.6508H76.0999V22.4696H74.4818V27.4733C74.4818 28.2681 74.6975 28.6101 75.3448 28.6101C75.5605 28.6101 75.8841 28.6101 76.0999 28.4964V30.2016C75.8841 30.3152 75.2369 30.4289 74.5896 30.4289C72.6479 30.4289 71.8927 29.0648 71.8927 27.5861V18.49H71.7849L74.4818 17.8079ZM99.7589 20.2247C100.954 20.2247 101.825 20.5684 102.26 20.913L101.607 22.518C101.39 22.2888 100.954 22.1743 100.411 22.1743C99.1062 22.1743 98.236 23.32 98.236 25.2695C98.236 27.2182 99.215 28.3648 100.411 28.3648C100.954 28.3648 101.39 28.2502 101.607 27.9065L102.26 29.626C101.825 30.0852 100.737 30.4289 99.7589 30.4289C97.3658 30.4289 95.5175 28.5939 95.5175 25.2695C95.5175 21.9442 97.4746 20.2247 99.7589 20.2247ZM81.3121 20.4932C83.324 20.4932 84.9997 21.3973 84.9997 23.9931V29.5249C84.2176 29.9769 82.8772 30.4289 81.313 30.4289C78.6314 30.4289 77.1787 29.413 77.1787 27.3802C77.1787 24.8963 79.525 24.1059 82.318 23.8803V23.542C82.318 22.5251 81.7598 22.2996 80.8653 22.2996C79.7488 22.2996 78.4075 22.8635 78.4075 22.8635L77.9608 21.1708C77.9608 21.1708 79.3002 20.4932 81.3121 20.4932ZM48.214 20.4932C49.8573 20.4932 50.9541 21.1708 50.9541 21.1708L50.4057 22.7516C50.0767 22.6388 49.5292 22.2996 48.8712 22.2996C48.1043 22.2996 47.6656 22.7516 47.7744 23.3155C47.885 24.5579 51.2822 24.4451 51.2822 27.493C51.3919 29.0737 49.967 30.4289 47.6656 30.4289C46.4601 30.4289 45.474 30.0906 44.8159 29.7513L45.474 28.0578C45.474 28.0578 46.2408 28.5098 47.227 28.5098C47.9947 28.5098 48.4325 28.0578 48.4325 27.493C48.4325 26.025 45.145 26.3651 45.0344 23.4292C44.9256 21.7348 46.3505 20.4932 48.214 20.4932ZM55.2286 20.4932C56.8737 20.4932 57.9705 21.1708 57.9705 21.1708L57.4221 22.7516C57.094 22.6388 56.5447 22.2996 55.8867 22.2996C55.119 22.2996 54.6803 22.7516 54.7899 23.3155C54.8996 24.5579 58.3004 24.4451 58.3004 27.493C58.3004 29.0737 56.9843 30.4289 54.6803 30.4289C53.4739 30.4289 52.4868 30.0906 51.8279 29.7513L52.4859 28.0578C52.4859 28.0578 53.2536 28.5098 54.2416 28.5098C55.0093 28.5098 55.448 28.0578 55.448 27.493C55.448 26.025 52.1578 26.3651 52.0472 23.4292C51.9375 21.7348 53.3624 20.4932 55.2286 20.4932ZM40.0514 20.4932C42.0624 20.4932 43.7381 21.3973 43.7381 23.9931V29.5249C43.0674 29.9769 41.7271 30.4289 40.0514 30.4289C37.3689 30.4289 35.9162 29.413 35.9162 27.3802C35.9162 24.8963 38.2625 24.1059 41.0556 23.8803V23.542C41.0556 22.5251 40.4973 22.2996 39.6028 22.2996C38.4863 22.2996 37.1451 22.8635 37.1451 22.8635L36.6983 21.1708C36.6983 21.1708 38.0395 20.4932 40.0514 20.4932ZM106.554 20.2247C109.265 20.2247 110.621 22.1743 110.621 25.4987L105.198 26.3016C105.423 27.7919 105.876 28.4794 107.232 28.4794C108.248 28.4794 109.152 28.1357 110.169 27.6774V29.7406C109.04 30.1998 108.135 30.4289 106.893 30.4289C104.068 30.4289 102.261 28.3648 102.261 25.2695C102.261 22.1743 103.843 20.2247 106.554 20.2247ZM67.3656 20.4932C69.1212 20.4932 70.1074 21.1708 70.1074 21.1708L69.559 22.7516C69.2309 22.6388 68.6816 22.2996 68.0236 22.2996C67.2559 22.2996 66.9269 22.7516 66.9269 23.3155C67.0365 24.5579 70.4373 24.4451 70.4373 27.493C70.4373 29.0737 69.1212 30.4289 66.8172 30.4289C65.6108 30.4289 64.6237 30.0906 63.9648 29.7513L64.6228 28.0578C64.6228 28.0578 65.3905 28.5098 66.3785 28.5098C67.1462 28.5098 67.5849 28.0578 67.5849 27.493C67.5849 26.025 64.2947 26.3651 64.1841 23.4292C64.0745 21.7348 65.4993 20.4932 67.3656 20.4932ZM89.766 20.2247C92.7829 20.2247 93.9003 21.5951 93.9003 23.3083V30.1604H91.1072V23.3083C91.1072 22.6227 90.7719 21.9379 89.766 21.9379C89.543 21.9379 89.0962 22.0516 88.8724 22.1662V30.1604H86.0784V21.024C87.1958 20.5675 88.5371 20.2247 89.766 20.2247ZM82.3189 25.1227H82.2075C80.6433 25.2355 79.8612 25.9131 79.8612 27.2674C79.8612 28.397 80.5318 28.8482 81.4254 28.8482C81.7607 28.8482 81.9836 28.7354 82.3189 28.6226V25.1227ZM41.1679 25.1227H41.0565C39.4923 25.2355 38.7102 25.9131 38.7102 27.2674C38.7102 28.397 39.3808 28.8482 40.2744 28.8482C40.6097 28.8482 40.8335 28.7354 41.1679 28.6226V25.1227ZM106.441 21.9451C105.311 21.9451 104.859 22.8617 104.972 24.9258L108.022 24.4666C108.022 22.7471 107.458 21.9451 106.441 21.9451ZM61.1321 16.4653C62.0446 16.4653 62.6154 17.0247 62.6154 17.8079C62.6154 18.5911 61.9304 19.1506 61.1321 19.1506C60.3339 19.1506 59.6488 18.5911 59.6488 17.8079C59.6488 17.1366 60.3339 16.4653 61.1321 16.4653ZM105.412 3.8443C108.234 3.8443 110.081 5.51725 110.081 8.86226C110.081 11.9844 108.344 13.8802 105.955 13.8802C105.412 13.8802 104.869 13.7683 104.543 13.7683V17.0023H101.72V4.51294C102.589 4.06718 103.675 3.8443 105.412 3.8443ZM79.5376 3.8443V10.7608C79.5376 11.4411 79.872 12.1213 80.8752 12.1213C81.4326 12.1213 81.767 12.0077 82.1014 11.894V3.8443H84.9997V13.1417C83.8849 13.5947 82.2129 14.0485 80.7637 14.0485C77.9769 14.0485 76.6393 13.0281 76.6393 10.5334V3.8443H79.5376ZM95.9221 3.57577C98.7089 3.57577 100.102 5.73834 100.102 8.81213C100.102 11.7722 98.7089 14.0485 95.9221 14.0485C93.1353 14.0485 91.7419 11.8859 91.7419 8.81213C91.7419 5.85202 93.1353 3.57577 95.9221 3.57577ZM71.5404 3.8443C74.2525 3.8443 75.663 5.86276 75.5551 9.22656L70.1299 10.0116C70.3465 11.3569 70.7807 12.1419 72.1912 12.1419C73.1675 12.1419 74.0359 11.8063 75.1209 11.3569V13.3754C74.0359 13.8238 73.1675 14.0485 71.8658 14.0485C68.936 14.0485 67.2001 12.2547 67.2001 8.89C67.2001 5.86276 68.8273 3.8443 71.5404 3.8443ZM91.7419 3.57577L91.4147 5.50293H90.7611C89.7795 5.6166 89.4522 6.18321 89.4522 6.86348V13.78H86.6178V6.97716C86.6178 4.59618 87.9258 3.57577 90.6514 3.57577C90.9787 3.57577 91.3059 3.68944 91.7419 3.57577ZM105.412 5.40536C104.977 5.40536 104.761 5.40536 104.543 5.51725V11.9844C104.761 12.0963 104.977 12.0963 105.304 12.0963C106.823 12.0963 107.475 10.87 107.475 8.75037C107.367 6.63165 106.824 5.40536 105.412 5.40536ZM95.9221 5.39641C94.7426 5.39641 94.4208 6.99059 94.4208 8.69845C94.4208 10.52 94.6366 11.9996 95.9221 11.9996C97.1015 11.9996 97.4234 10.52 97.4234 8.69845C97.4234 6.99059 97.2076 5.39641 95.9221 5.39641ZM71.4316 5.5262C70.3465 5.5262 69.8045 6.53588 69.9123 8.55434L72.9508 8.105C72.9508 6.31121 72.4079 5.5262 71.4316 5.5262Z" fill="#8D8D8D"/>
<path fill-rule="evenodd" clip-rule="evenodd" d="M11.8266 1.76419C13.0537 0.987235 15.7272 0.43227 18.7352 0.765249C25.419 1.32021 29.5407 6.09112 30.5431 12.1957C31.6578 18.2986 29.4293 24.6234 28.3154 26.1773C25.3075 27.2872 17.8434 28.7292 14.0561 26.9542C13.6102 26.8432 12.2734 26.0663 12.2734 24.1794C12.2734 23.2924 12.6078 22.2934 13.1652 21.2945C14.279 19.2975 17.8434 15.8567 17.8434 15.8567C17.8434 15.8567 20.5169 13.1938 21.6316 10.9748C21.6316 10.9748 23.5249 7.64503 20.9628 4.8711C18.0654 1.76419 11.1587 2.76312 11.1587 2.76312C11.1587 2.20816 11.8266 1.76419 11.8266 1.76419Z" fill="#8D8D8D"/>
<path d="M18.1244 4.72333C14.3371 2.94834 6.87297 4.39035 3.86503 5.50028C2.75121 7.05508 0.52268 13.3799 1.6374 19.4818C2.63974 25.5864 6.7615 30.3573 13.4453 30.9123C16.4532 31.2453 19.1268 30.6903 20.352 29.9134C20.352 29.9134 21.0209 29.4694 21.0209 28.9144C21.0209 28.9144 14.1141 29.9134 11.2177 26.8065C8.65561 24.0325 10.5488 20.7027 10.5488 20.7027C11.6635 18.4838 14.3371 15.8208 14.3371 15.8208C14.3371 15.8208 17.9015 12.3801 19.0153 10.3831C19.5726 9.38414 19.9071 8.3852 19.9071 7.49815C19.9071 5.61127 18.5703 4.83432 18.1244 4.72333Z" fill="#8D8D8D"/>
</svg>
