<svg width="86" height="32" viewBox="0 0 86 32" fill="none" xmlns="http://www.w3.org/2000/svg">
<path d="M57.3668 11.2429C59.151 9.25559 61.7526 8 64.6506 8C70.0274 8 74.3868 12.3176 74.3868 17.641C74.3868 22.9611 70.0274 27.278 64.6506 27.278C63.3302 27.278 62.0719 27.0168 60.925 26.5483L59.9907 18.8366C60.5267 20.8887 62.4094 22.4022 64.6506 22.4022C67.3089 22.4022 69.4623 20.271 69.4623 17.641C69.4623 15.007 67.3089 12.8759 64.6506 12.8759C61.9929 12.8759 59.8375 15.007 59.8375 17.641V32H54.6815V26.1649C53.3165 26.8892 51.7558 27.2963 50.1013 27.2963C47.1952 27.2963 44.5861 26.0373 42.802 24.0385C41.0178 26.0373 38.4094 27.2963 35.5027 27.2963C32.6047 27.2963 30.0024 26.0454 28.2189 24.0547C26.4354 26.0454 23.8331 27.2963 20.9351 27.2963C15.5577 27.2963 11.1982 22.9834 11.1982 17.6599C11.1982 12.3345 15.5577 8.02228 20.9351 8.02228C21.9707 8.02228 22.9691 8.18226 23.9054 8.47659L25.219 15.4856C24.4218 13.9492 22.8023 12.8941 20.9351 12.8941C18.2775 12.8941 16.1227 15.0266 16.1227 17.6599C16.1227 20.2886 18.2775 22.4231 20.9351 22.4231C23.5591 22.4231 25.6929 20.3426 25.7469 17.7578L25.7671 17.7585L25.7658 17.6599C25.7658 12.3345 30.1259 8.02228 35.5027 8.02228C38.4094 8.02228 41.0178 9.28259 42.802 11.2814C44.5861 9.28259 47.1952 8.02228 50.1013 8.02228C52.9891 8.02228 55.584 9.26437 57.3668 11.2429ZM45.2882 17.6599C45.2882 20.2886 47.4429 22.4231 50.1013 22.4231C52.7589 22.4231 54.9137 20.2886 54.9137 17.6599C54.9137 15.0266 52.7589 12.8941 50.1013 12.8941C47.4429 12.8941 45.2882 15.0266 45.2882 17.6599ZM30.6903 17.6599C30.6903 20.2886 32.845 22.4231 35.5027 22.4231C38.161 22.4231 40.3158 20.2886 40.3158 17.6599C40.3158 15.0266 38.161 12.8941 35.5027 12.8941C32.845 12.8941 30.6903 15.0266 30.6903 17.6599Z" fill="#8D8D8D"/>
</svg>
