<svg width="53" height="60" viewBox="0 0 53 60" fill="none" xmlns="http://www.w3.org/2000/svg">
<g clip-path="url(#clip0_540_3119)">
<mask id="mask0_540_3119" style="mask-type:luminance" maskUnits="userSpaceOnUse" x="0" y="0" width="53" height="60">
<path d="M52.3561 0H0.672913V60H52.3561V0Z" fill="white"/>
</mask>
<g mask="url(#mask0_540_3119)">
<mask id="mask1_540_3119" style="mask-type:luminance" maskUnits="userSpaceOnUse" x="0" y="0" width="53" height="60">
<path d="M52.1667 0H0.862427V60H52.1667V0Z" fill="white"/>
</mask>
<g mask="url(#mask1_540_3119)">
<path d="M52.4699 0.212402V38.0385L4.21823 50.9673V58.8747L0.809326 59.7884V14.055L52.4699 0.212402Z" fill="#0A0934"/>
<path d="M17.3666 21.1724V11.2749H19.3764V21.1724H17.3666Z" fill="white"/>
<path d="M21.439 21.1724V12.9992H20.0542V11.2749H24.8332V12.9992H23.4211V21.1724H21.439Z" fill="white"/>
<path d="M24.1273 21.1724L25.8243 11.2749H28.5264L30.2374 21.1724H28.3366L28.0378 19.2583H26.3136L26.0286 21.1724H24.1273ZM26.4764 17.7512H27.8613L27.4673 15.0765L27.2092 13.0811H27.1279L26.8971 15.0904L26.4764 17.7512Z" fill="white"/>
<path d="M30.7799 21.1724V11.2749H32.6807V19.7332L32.3819 19.4072H34.5678V21.172L30.7799 21.1724Z" fill="white"/>
<path d="M35.2331 21.1724V11.2749H37.2428V21.1724H35.2331Z" fill="white"/>
<path d="M37.8941 21.1724L39.591 11.2749H42.2932L44.0041 21.1724H42.1033L41.8045 19.2583H40.0804L39.7953 21.1724H37.8941ZM40.2431 17.7512H41.628L41.234 15.0765L40.9759 13.0811H40.8946L40.6638 15.0904L40.2431 17.7512Z" fill="white"/>
<path d="M44.5463 21.1724V11.2749H46.6373L48.2256 17.2622H48.3072L48.2123 14.2211V11.2749H49.9904V21.1724H47.9132L46.2979 15.2393H46.2299L46.3248 18.1582V21.1724H44.5463Z" fill="white"/>
<path d="M3.28857 32.4873V22.5898H7.44347V24.2868H5.09442L5.28461 24.0829V27.0971L5.10774 26.9209H7.17169V28.5229H5.10774L5.28461 28.346V32.4869L3.28857 32.4873Z" fill="white"/>
<path d="M10.755 32.6222C10.2209 32.6222 9.76828 32.5157 9.39778 32.3027C9.0265 32.0902 8.72531 31.7715 8.49452 31.3459C8.26402 30.9204 8.09906 30.3887 7.9989 29.7506C7.89945 29.1124 7.84973 28.3724 7.84973 27.5308C7.84973 26.6892 7.89945 25.9515 7.9989 25.3176C8.09869 24.684 8.26402 24.1568 8.49452 23.7359C8.72531 23.3149 9.0265 22.9982 9.39778 22.785C9.76828 22.5727 10.2209 22.4663 10.755 22.4663C11.2891 22.4663 11.7552 22.5727 12.1265 22.785C12.4971 22.9982 12.7983 23.317 13.0291 23.7422C13.2599 24.1677 13.4245 24.6974 13.5247 25.3306C13.6241 25.9641 13.6739 26.6979 13.6739 27.5304C13.6739 28.3629 13.6221 29.1209 13.518 29.7502C13.4137 30.3797 13.2483 30.9088 13.0224 31.3385C12.7958 31.769 12.4971 32.0898 12.1265 32.3024C11.7552 32.515 11.2978 32.6222 10.755 32.6222ZM10.755 30.9253C11.0268 30.9253 11.2306 30.7961 11.3658 30.5379C11.5016 30.2798 11.5945 29.8977 11.6442 29.3912C11.6939 28.8841 11.7188 28.2642 11.7188 27.5312C11.7188 26.9427 11.7055 26.4334 11.6785 26.0037C11.6509 25.5739 11.599 25.221 11.5223 24.9446C11.4457 24.6682 11.3454 24.4672 11.2236 24.3401C11.1014 24.2136 10.9451 24.1499 10.755 24.1499C10.5021 24.1499 10.3049 24.2792 10.1645 24.5372C10.024 24.7953 9.927 25.173 9.87272 25.671C9.81834 26.1686 9.79115 26.7889 9.79115 27.5312C9.79115 28.1195 9.80718 28.6288 9.83906 29.0585C9.87056 29.4883 9.9224 29.8392 9.99497 30.1103C10.0674 30.3821 10.1669 30.5852 10.2937 30.7211C10.4201 30.857 10.5739 30.9253 10.755 30.9253Z" fill="white"/>
<path d="M17.1639 32.6227C16.5397 32.6227 16.0281 32.4934 15.6299 32.2353C15.2316 31.9771 14.9326 31.6153 14.7339 31.1491C14.535 30.6833 14.4355 30.1425 14.4355 29.5265V22.5889H16.3629V29.5401C16.3629 29.8662 16.3948 30.1265 16.4579 30.3208C16.5213 30.5159 16.6165 30.6511 16.7433 30.7278C16.8697 30.8052 17.019 30.8434 17.1913 30.8434C17.3635 30.8434 17.5239 30.7957 17.6459 30.7009C17.7681 30.6059 17.8585 30.4634 17.9169 30.2732C17.9762 30.0831 18.0052 29.8388 18.0052 29.5401V22.5889H19.9059V29.5265C19.9059 30.2052 19.7949 30.7755 19.5732 31.2374C19.3512 31.6994 19.0346 32.0451 18.6223 32.2759C18.2108 32.5067 17.724 32.6223 17.1629 32.6223L17.1639 32.6227Z" fill="white"/>
<path d="M20.8702 32.4873V22.5898H22.9612L24.5496 28.5772H24.6312L24.5362 25.5361V22.5898H26.3145V32.4873H24.2372L22.6219 26.5542H22.5539L22.6488 29.4732V32.4873H20.8702Z" fill="white"/>
<path d="M27.3188 32.4873V22.5898H29.3285C30.1516 22.5898 30.8282 22.7622 31.3582 23.1058C31.8874 23.45 32.2814 23.9863 32.5391 24.7144C32.7972 25.4428 32.9258 26.3864 32.9258 27.5451C32.9258 28.2781 32.8739 28.9439 32.7699 29.541C32.6656 30.1382 32.482 30.6591 32.2197 31.1022C31.9574 31.5459 31.5932 31.8877 31.127 32.1272C30.6608 32.3672 30.0612 32.4869 29.3281 32.4869L27.3188 32.4873ZM29.2468 30.7903H29.6679C29.9033 30.7903 30.1063 30.7273 30.2787 30.6002C30.4507 30.4737 30.5887 30.2766 30.6923 30.0097C30.7967 29.7428 30.8713 29.401 30.9165 28.9845C30.9617 28.5685 30.9844 28.0753 30.9844 27.5051C30.9844 26.6901 30.9368 26.0477 30.8419 25.577C30.747 25.1064 30.6016 24.7715 30.4073 24.5722C30.2128 24.3733 29.9663 24.2738 29.6675 24.2738H29.2465L29.2468 30.7903Z" fill="white"/>
<path d="M33.6992 32.4873V22.5898H37.8811V24.2868H35.3422L35.6002 24.0157V26.8939L35.3422 26.6358H37.6366V28.2241H35.3422L35.6002 27.939V31.0618L35.3422 30.8037H37.8944V32.4869L33.6992 32.4873Z" fill="white"/>
<path d="M38.6417 32.4873V22.5898H41.1399C41.5837 22.5898 41.9841 22.6375 42.3416 22.7323C42.6992 22.8273 43.0046 22.9859 43.2581 23.2073C43.5117 23.4294 43.7062 23.7191 43.8421 24.0763C43.9779 24.4342 44.0459 24.8751 44.0459 25.3998C44.0459 26.0247 43.9436 26.536 43.7405 26.9338C43.5366 27.3328 43.2627 27.6039 42.9191 27.7489V27.8438C43.281 27.9163 43.5345 28.1338 43.6792 28.4956C43.8238 28.8574 43.8963 29.3053 43.8963 29.8398V31.4961C43.8963 31.6863 43.9037 31.8608 43.9166 32.0187C43.9303 32.1773 43.9552 32.3336 43.9913 32.4873H42.0499C42.0047 32.3427 41.9724 32.184 41.9549 32.0124C41.9367 31.8404 41.9279 31.6958 41.9279 31.5778V30.0304C41.9279 29.795 41.9119 29.5844 41.8804 29.3989C41.8485 29.2133 41.7854 29.0662 41.6902 28.9575C41.5952 28.8493 41.4614 28.7948 41.2895 28.7948H40.5698V32.4877L38.6417 32.4873ZM40.5698 27.274H41.072C41.4702 27.274 41.7392 27.1402 41.8804 26.8733C42.0208 26.6064 42.0908 26.2418 42.0908 25.7802C42.0908 25.4366 42.059 25.1561 41.9959 24.9388C41.9325 24.7217 41.8236 24.5589 41.6698 24.4499C41.5157 24.341 41.3073 24.2871 41.045 24.2871H40.5701L40.5698 27.274Z" fill="white"/>
<path d="M47.1816 32.6222C46.5298 32.6222 46.0072 32.4863 45.6133 32.2145C45.2199 31.9434 44.9348 31.5632 44.7579 31.0742C44.5818 30.5852 44.4883 30.015 44.4795 29.3639H46.1635C46.1722 29.8069 46.2132 30.16 46.2858 30.4223C46.3582 30.6854 46.464 30.8686 46.6051 30.9725C46.7449 31.0766 46.9102 31.1284 47.1007 31.1284C47.3991 31.1284 47.6051 31.029 47.7182 30.83C47.8311 30.6311 47.8878 30.3593 47.8878 30.015C47.8878 29.7709 47.8582 29.5625 47.7995 29.3909C47.7403 29.2189 47.6548 29.0672 47.5414 28.9356C47.4282 28.8046 47.2833 28.676 47.107 28.5489C46.9302 28.4225 46.7196 28.2908 46.4755 28.1549C46.2402 28.019 46.0115 27.8652 45.7901 27.6936C45.568 27.5217 45.3646 27.3203 45.1793 27.089C44.9937 26.8583 44.8466 26.5826 44.738 26.2611C44.6298 25.9403 44.5751 25.5529 44.5751 25.1004C44.5751 24.5026 44.6816 24.0098 44.8946 23.6203C45.1071 23.2316 45.4084 22.9415 45.7971 22.7514C46.1859 22.5612 46.6251 22.4663 47.1141 22.4663C47.6842 22.4663 48.1641 22.5727 48.5532 22.785C48.942 22.9982 49.2386 23.3265 49.4424 23.7695C49.6462 24.2132 49.7429 24.7832 49.7342 25.4804H48.024C48.024 25.0822 47.9942 24.7723 47.9357 24.5502C47.8765 24.3288 47.7837 24.1681 47.6572 24.0686C47.5309 23.9691 47.3767 23.9194 47.196 23.9194C47.0152 23.9194 46.8832 23.9617 46.7751 24.0483C46.666 24.1345 46.5893 24.2588 46.5442 24.4217C46.4991 24.5845 46.4763 24.7747 46.4763 24.9918C46.4763 25.2997 46.5239 25.5533 46.6188 25.7519C46.7137 25.9512 46.8608 26.1231 47.0601 26.2678C47.2591 26.4124 47.4986 26.5757 47.7795 26.7567C48.06 26.9108 48.3224 27.0827 48.5672 27.2726C48.8113 27.4628 49.0284 27.6775 49.2186 27.9174C49.4089 28.1573 49.5584 28.4358 49.6666 28.7527C49.7755 29.0694 49.8295 29.4361 49.8295 29.8521C49.8295 30.477 49.7212 30.9929 49.5035 31.4002C49.2862 31.8072 48.9808 32.113 48.5875 32.3168C48.1935 32.52 47.7248 32.6222 47.1816 32.6222Z" fill="white"/>
<path d="M3.28857 43.8003V33.9028H7.44347V35.5997H5.09442L5.28461 35.3959V38.4101L5.10774 38.2339H7.17169V39.8359H5.10774L5.28461 39.6591V43.7999L3.28857 43.8003Z" fill="white"/>
<path d="M10.796 43.9365C10.1719 43.9365 9.66009 43.8072 9.26193 43.5491C8.86372 43.291 8.56462 42.9293 8.36602 42.463C8.16707 41.9972 8.06763 41.4565 8.06763 40.8404V33.9028H9.99497V40.8541C9.99497 41.1802 10.0268 41.4403 10.0898 41.6348C10.1533 41.8299 10.2486 41.965 10.3754 42.0417C10.5018 42.1192 10.6509 42.1573 10.8232 42.1573C10.9957 42.1573 11.1561 42.1097 11.2779 42.0147C11.4001 41.9199 11.4906 41.7773 11.549 41.587C11.6081 41.3969 11.6373 41.1528 11.6373 40.8541V33.9028H13.5381V40.8404C13.5381 41.5192 13.427 42.0894 13.2052 42.5513C12.9832 43.0133 12.6666 43.359 12.2543 43.5898C11.8429 43.8205 11.356 43.9361 10.7949 43.9361L10.796 43.9365Z" fill="white"/>
<path d="M14.5023 43.8003V33.9028H16.5932L18.1816 39.8903H18.2632L18.1683 36.849V33.9028H19.9464V43.8003H17.8692L16.2539 37.8672H16.1859L16.2808 40.7861V43.8003H14.5023Z" fill="white"/>
<path d="M20.9508 43.8003V33.9028H22.9605C23.7835 33.9028 24.4602 34.0751 24.9901 34.4187C25.5194 34.763 25.9133 35.2992 26.1711 36.0274C26.4293 36.7559 26.5579 37.6994 26.5579 38.8581C26.5579 39.5911 26.506 40.2569 26.402 40.8541C26.2976 41.4512 26.1141 41.9721 25.8517 42.4151C25.5894 42.8589 25.2251 43.2007 24.759 43.4403C24.2928 43.6802 23.6932 43.7999 22.9602 43.7999L20.9508 43.8003ZM22.8789 42.1034H23.2999C23.5352 42.1034 23.7384 42.0403 23.9107 41.9132C24.0827 41.7867 24.2207 41.5896 24.3243 41.3227C24.4287 41.0559 24.5033 40.714 24.5485 40.2976C24.5936 39.8815 24.6164 39.3883 24.6164 38.8181C24.6164 38.0032 24.5688 37.3608 24.4739 36.8901C24.3789 36.4193 24.2336 36.0845 24.0392 35.8852C23.8448 35.6862 23.5983 35.5868 23.2996 35.5868H22.8786L22.8789 42.1034Z" fill="white"/>
<path d="M7.1727 55.7496V53.4516L7.71175 53.3073L8.33901 54.8792L8.35476 54.875L8.97888 52.9676L9.52106 52.8223V55.1202L9.17747 55.2123V54.15L9.18377 53.2876L9.16173 53.2936L8.49032 55.3965L8.2066 55.4725L7.53519 53.7297L7.51 53.7363L7.51945 54.5976V55.6567L7.1727 55.7496Z" fill="#0A0934"/>
<path d="M10.363 54.9232C10.199 54.967 10.0666 54.9585 9.96573 54.8973C9.86486 54.836 9.81451 54.734 9.81451 54.5911C9.81451 54.5029 9.83055 54.4209 9.86345 54.3449C9.89608 54.2689 9.9423 54.2013 10.0022 54.1422C10.0621 54.0829 10.1332 54.0318 10.2152 53.9891C10.297 53.946 10.3864 53.9117 10.483 53.8857L10.9149 53.7702V53.6442C10.9149 53.5768 10.9027 53.5222 10.8785 53.4805C10.8543 53.4388 10.8159 53.4112 10.7633 53.3979C10.7108 53.3846 10.6424 53.3892 10.5583 53.4119C10.4764 53.434 10.407 53.4641 10.3503 53.5022C10.2936 53.5407 10.2505 53.5849 10.2211 53.6347C10.1917 53.6847 10.177 53.738 10.177 53.7947L9.86176 53.8791C9.86589 53.7078 9.93217 53.5562 10.0603 53.4237C10.1885 53.2917 10.3608 53.1969 10.5773 53.1387C10.6824 53.1106 10.7759 53.0977 10.8579 53.0998C10.9398 53.1019 11.0102 53.1198 11.069 53.1534C11.1279 53.187 11.1728 53.2382 11.2031 53.3068C11.2336 53.3755 11.2491 53.4624 11.2491 53.5674V54.3176C11.2491 54.3617 11.2501 54.4076 11.2522 54.4556C11.2543 54.5033 11.2578 54.5449 11.263 54.5802C11.2683 54.6156 11.2729 54.6391 11.2774 54.6507L10.9622 54.7351C10.9539 54.712 10.9468 54.671 10.9419 54.6115C10.9366 54.5519 10.9339 54.4833 10.9339 54.4055L10.9748 54.442L10.918 54.4571C10.8865 54.5621 10.82 54.6573 10.7181 54.7424C10.6162 54.8276 10.4978 54.8881 10.3632 54.9242L10.363 54.9232ZM10.489 54.6311C10.6214 54.5957 10.7259 54.534 10.8028 54.4462C10.8795 54.3582 10.9177 54.2598 10.9177 54.1506V53.9457L10.9618 53.9715L10.5395 54.0847C10.4554 54.1071 10.385 54.1362 10.3283 54.1712C10.2715 54.2062 10.2278 54.2475 10.1977 54.2945C10.1672 54.3414 10.1517 54.3946 10.1517 54.4535C10.1517 54.5397 10.1804 54.5982 10.2386 54.6289C10.2964 54.6597 10.3797 54.6605 10.489 54.6311Z" fill="#0A0934"/>
<path d="M11.5979 54.5637V52.8962L11.9195 52.81L11.932 53.1344L11.951 53.1294C11.9993 52.9988 12.0742 52.8899 12.1765 52.8027C12.2784 52.7154 12.3901 52.6555 12.5124 52.623C12.5985 52.5999 12.6777 52.5918 12.7502 52.5984C12.8227 52.6055 12.8857 52.6293 12.9394 52.6706C12.9929 52.712 13.0342 52.7733 13.0641 52.8548C13.0934 52.9365 13.1082 53.0402 13.1082 53.1662V54.1592L12.774 54.2488V53.3253C12.774 53.2138 12.7603 53.1252 12.733 53.0587C12.7056 52.9925 12.664 52.9491 12.6087 52.9281C12.553 52.9073 12.4798 52.9091 12.3895 52.9333C12.297 52.9582 12.2161 53.0023 12.1467 53.0661C12.0773 53.1298 12.0241 53.2051 11.9877 53.2916C11.951 53.3782 11.9324 53.4688 11.9324 53.5634V54.4744L11.5979 54.5637Z" fill="#0A0934"/>
<path d="M13.8804 53.981C13.7165 54.0248 13.5841 54.0163 13.4832 53.955C13.3823 53.8938 13.3319 53.7918 13.3319 53.6489C13.3319 53.5607 13.348 53.4787 13.3809 53.4027C13.4136 53.3267 13.4598 53.2591 13.5196 53.1999C13.5795 53.1407 13.6507 53.0896 13.7326 53.0469C13.8145 53.0038 13.9039 52.9694 14.0005 52.9436L14.4323 52.828V52.7019C14.4323 52.6346 14.4201 52.58 14.396 52.5383C14.3718 52.4966 14.3333 52.469 14.2807 52.4557C14.2282 52.4424 14.1598 52.4469 14.0758 52.4696C13.9939 52.4918 13.9245 52.5219 13.8678 52.56C13.8111 52.5986 13.7679 52.6423 13.7385 52.6924C13.7092 52.7425 13.6944 52.7957 13.6944 52.8525L13.3792 52.9369C13.3834 52.7656 13.4496 52.614 13.5778 52.4819C13.706 52.3498 13.8783 52.255 14.0948 52.1968C14.1998 52.1688 14.2933 52.1559 14.3753 52.1579C14.4573 52.1601 14.5276 52.1783 14.5865 52.2116C14.6453 52.2451 14.6898 52.2963 14.7203 52.3649C14.7507 52.4336 14.7662 52.5205 14.7662 52.6256V53.3757C14.7662 53.4199 14.7672 53.4657 14.7693 53.5137C14.7713 53.5616 14.7749 53.603 14.7805 53.6384C14.7858 53.6738 14.7903 53.6972 14.7945 53.7088L14.4793 53.7932C14.4709 53.7701 14.4638 53.7292 14.459 53.6696C14.4537 53.61 14.4509 53.5414 14.4509 53.4637L14.4919 53.5001L14.4352 53.5151C14.4037 53.6202 14.3367 53.7155 14.2352 53.8005C14.1333 53.8856 14.0149 53.9463 13.8807 53.9823L13.8804 53.981ZM14.0064 53.6889C14.1389 53.6534 14.2433 53.5918 14.3203 53.504C14.397 53.4161 14.4355 53.3176 14.4355 53.2083V53.0035L14.4796 53.0293L14.0573 53.1425C13.9732 53.1649 13.9028 53.194 13.846 53.2289C13.7893 53.264 13.7455 53.3053 13.7151 53.3523C13.6846 53.3992 13.6695 53.4524 13.6695 53.5112C13.6695 53.5975 13.6983 53.6559 13.756 53.6867C13.8138 53.7176 13.8968 53.7183 14.0064 53.6889Z" fill="#0A0934"/>
<path d="M15.4752 54.051C15.3448 54.0861 15.238 54.0994 15.1554 54.091C15.0724 54.0829 15.0114 54.0556 14.9725 54.0094C14.9337 53.9631 14.9144 53.904 14.9144 53.8329C14.9144 53.772 14.9291 53.7138 14.9586 53.6588C14.988 53.6034 15.0272 53.5541 15.077 53.5103C15.1263 53.4665 15.1781 53.4343 15.2331 53.4133V53.3944C15.1722 53.3898 15.1238 53.3691 15.0881 53.3324C15.0524 53.2956 15.0346 53.248 15.0346 53.1891C15.0346 53.1408 15.0457 53.0953 15.0679 53.0526C15.0899 53.0098 15.1196 52.9698 15.1575 52.9324C15.1954 52.8949 15.2384 52.8634 15.2868 52.8378V52.8126C15.2174 52.7912 15.1627 52.7506 15.1228 52.6911C15.0829 52.6312 15.0629 52.5552 15.0629 52.4627C15.0629 52.3598 15.0903 52.2617 15.1449 52.1682C15.1995 52.0747 15.2766 51.992 15.3768 51.9202C15.4765 51.8484 15.5928 51.7945 15.7252 51.7591C15.7672 51.7479 15.8124 51.7398 15.8608 51.7353C15.9091 51.7307 15.9512 51.7321 15.9868 51.7395C16.01 51.6575 16.0471 51.5826 16.0989 51.514C16.1504 51.4456 16.2145 51.3868 16.2912 51.3377C16.3679 51.2887 16.4555 51.2534 16.5543 51.231V51.4957C16.4618 51.5164 16.3806 51.5496 16.3101 51.5958C16.2397 51.6421 16.1875 51.6991 16.1539 51.7667C16.2254 51.7895 16.2814 51.8333 16.3223 51.8982C16.3634 51.963 16.384 52.0404 16.384 52.1307C16.384 52.2336 16.357 52.3306 16.3039 52.4218C16.2502 52.5128 16.1746 52.5931 16.0768 52.6624C15.9791 52.7317 15.8608 52.785 15.7224 52.8221C15.6867 52.8316 15.6531 52.8392 15.6216 52.8445C15.5901 52.8497 15.5602 52.8536 15.5319 52.856C15.5035 52.8585 15.4755 52.8588 15.4485 52.8578C15.4065 52.8732 15.3732 52.898 15.3494 52.9317C15.3252 52.9656 15.313 52.9993 15.313 53.0329C15.313 53.0834 15.3379 53.1103 15.3873 53.1138C15.4366 53.1173 15.4916 53.111 15.5526 53.0945L16.0001 52.9748C16.1157 52.944 16.2135 52.9335 16.2934 52.9436C16.3731 52.9538 16.4334 52.9843 16.4744 53.0354C16.5154 53.0865 16.537 53.159 16.5388 53.2529C16.541 53.3699 16.5165 53.4732 16.4649 53.5629C16.4135 53.6521 16.3402 53.7282 16.246 53.7901C16.1514 53.8521 16.0412 53.9001 15.9151 53.9341L15.4769 54.0514L15.4752 54.051ZM15.5098 53.843L15.9228 53.7324C16.0174 53.7072 16.0884 53.6679 16.1357 53.6154C16.183 53.5629 16.2068 53.5029 16.2068 53.4357C16.2068 53.3811 16.1942 53.3425 16.169 53.3198C16.1437 53.297 16.1112 53.2865 16.0713 53.2875C16.0313 53.289 15.9872 53.296 15.9388 53.3089L15.3936 53.455C15.3368 53.4826 15.2913 53.5191 15.2563 53.5642C15.2216 53.6094 15.2041 53.6592 15.2041 53.7138C15.2041 53.7601 15.216 53.7958 15.2405 53.8206C15.2646 53.8455 15.3001 53.8598 15.3463 53.8634C15.3925 53.8668 15.4468 53.8598 15.5098 53.843ZM15.7273 52.5996C15.8366 52.5706 15.9214 52.5187 15.9813 52.4448C16.0412 52.371 16.0713 52.29 16.0713 52.2018C16.0713 52.1367 16.0566 52.0845 16.0271 52.0449C15.9977 52.0056 15.9571 51.9801 15.9059 51.9685C15.8545 51.957 15.7942 51.9609 15.7249 51.9794C15.6534 51.9987 15.5915 52.0288 15.539 52.0701C15.4864 52.1115 15.4457 52.1597 15.4174 52.2144C15.389 52.2694 15.375 52.3261 15.375 52.3849C15.375 52.4837 15.4069 52.5513 15.4714 52.5878C15.5354 52.6242 15.6201 52.6283 15.7273 52.5996Z" fill="#0A0934"/>
<path d="M17.3542 53.0496C17.1881 53.0941 17.0446 53.0972 16.9237 53.0594C16.8029 53.0216 16.7097 52.9466 16.6449 52.8346C16.5798 52.7228 16.5472 52.5816 16.5472 52.4115C16.5472 52.2412 16.5791 52.0731 16.6435 51.9253C16.7076 51.7778 16.7998 51.6525 16.9191 51.5488C17.039 51.4451 17.1798 51.372 17.3416 51.3285C17.5265 51.2788 17.6781 51.2792 17.7969 51.3296C17.9156 51.3797 18.0011 51.4676 18.0536 51.5933C18.1061 51.7191 18.124 51.8724 18.1071 52.0532L16.8778 52.3827C16.88 52.4938 16.9003 52.5838 16.9395 52.6532C16.9783 52.7225 17.0333 52.7683 17.1048 52.7901C17.1763 52.8118 17.2593 52.81 17.3539 52.7848C17.4652 52.755 17.5591 52.7046 17.6358 52.6335C17.7125 52.5624 17.7601 52.4826 17.7794 52.3933L18.1009 52.3071C18.0862 52.4181 18.0445 52.5239 17.9766 52.624C17.9083 52.7242 17.8211 52.8114 17.7149 52.885C17.6088 52.9585 17.4883 53.0136 17.3542 53.0496ZM16.8782 52.1967L16.8499 52.1541L17.8145 51.8956L17.7798 51.9583C17.784 51.8437 17.7671 51.7558 17.7293 51.6945C17.6915 51.6332 17.6382 51.5951 17.5702 51.5796C17.502 51.5643 17.4256 51.5677 17.3416 51.5905C17.2491 51.6154 17.1685 51.6563 17.1006 51.7134C17.0323 51.7705 16.9791 51.8406 16.9412 51.9232C16.9034 52.0058 16.8824 52.0966 16.8782 52.1967Z" fill="#0A0934"/>
<path d="M18.9741 52.6156C18.8732 52.6426 18.7815 52.6481 18.6982 52.6327C18.6151 52.6173 18.5437 52.5813 18.4838 52.5245C18.4239 52.4681 18.3776 52.3907 18.3451 52.2923C18.3125 52.1938 18.2964 52.0745 18.2964 51.9333C18.2964 51.7463 18.3248 51.581 18.3815 51.4377C18.4382 51.2945 18.5173 51.1757 18.6193 51.0822C18.7212 50.9887 18.8395 50.9239 18.9741 50.8878C19.0687 50.8626 19.1538 50.8546 19.2294 50.8636C19.3051 50.8727 19.3691 50.8973 19.4217 50.9365C19.4742 50.9761 19.5142 51.028 19.5415 51.092L19.5604 51.0868V50.1316L19.8945 50.042V52.34L19.573 52.4261L19.5604 52.1018L19.5415 52.1066C19.5015 52.2247 19.4322 52.3294 19.3334 52.4209C19.2347 52.5126 19.1149 52.5778 18.9741 52.6156ZM19.0939 52.306C19.1968 52.2783 19.282 52.2321 19.3493 52.1666C19.4165 52.1011 19.4679 52.0265 19.5037 51.9424C19.5394 51.8584 19.5573 51.7732 19.5573 51.6871V51.5011C19.5573 51.438 19.5474 51.3799 19.5275 51.3263C19.5075 51.2727 19.4788 51.2283 19.4409 51.1918C19.4032 51.1557 19.3548 51.1312 19.296 51.1186C19.2371 51.1061 19.1699 51.1099 19.0943 51.1302C19.0039 51.1544 18.9244 51.1978 18.8564 51.2602C18.7882 51.3225 18.7353 51.4024 18.6974 51.4997C18.6595 51.5971 18.6407 51.7109 18.6407 51.8412C18.6407 51.9715 18.6595 52.072 18.6974 52.149C18.7353 52.2262 18.7882 52.2776 18.8564 52.3035C18.9247 52.3295 19.0035 52.3302 19.0939 52.306Z" fill="#0A0934"/>
<path d="M21.8082 51.8559C21.7158 51.8808 21.6317 51.8885 21.556 51.8794C21.4804 51.8703 21.4163 51.8465 21.3638 51.8079C21.3112 51.7695 21.2702 51.7186 21.2408 51.6549L21.2219 51.6598L21.2093 51.988L20.8878 52.0741V49.7761L21.2219 49.6865V50.6416L21.2408 50.6368C21.2828 50.5184 21.3526 50.4133 21.4503 50.3221C21.548 50.2308 21.6674 50.1663 21.8078 50.1286C21.9087 50.1016 22.0005 50.0959 22.0839 50.1114C22.1669 50.1268 22.2386 50.1632 22.2999 50.2207C22.3609 50.2777 22.4071 50.3558 22.4387 50.4546C22.4702 50.5534 22.4859 50.6731 22.4859 50.814C22.4859 50.9988 22.4575 51.1632 22.4008 51.3063C22.3441 51.4497 22.2649 51.5684 22.1631 51.6616C22.0611 51.755 21.9427 51.8199 21.8082 51.8559ZM21.6884 51.6139C21.7808 51.589 21.8611 51.5456 21.9293 51.483C21.9977 51.4206 22.0506 51.3407 22.0884 51.2433C22.1262 51.1459 22.1452 51.0332 22.1452 50.905C22.1452 50.8062 22.1339 50.7232 22.1123 50.6552C22.0901 50.5876 22.059 50.5344 22.0191 50.496C21.9791 50.4574 21.9311 50.4332 21.8758 50.4241C21.8201 50.4151 21.7574 50.4196 21.688 50.4381C21.5872 50.4651 21.5024 50.5113 21.4342 50.5772C21.3658 50.6427 21.3137 50.7177 21.278 50.8017C21.2423 50.8858 21.2243 50.9708 21.2243 51.0571V51.243C21.2243 51.3271 21.2423 51.4021 21.278 51.4681C21.3137 51.5344 21.3655 51.5817 21.4342 51.6107C21.5024 51.6398 21.5875 51.6412 21.6884 51.6139Z" fill="#0A0934"/>
<path d="M22.593 52.1442V51.8668L22.7727 51.8185C22.821 51.8055 22.8624 51.7876 22.8971 51.7645C22.9317 51.7414 22.9618 51.713 22.9871 51.679C23.0122 51.6451 23.0322 51.6038 23.0469 51.5558L23.1478 51.2735V51.4216L22.4638 49.9846L22.8326 49.8858L23.2077 50.7909L23.277 50.9678L23.2897 50.9642L23.3527 50.752L23.7089 49.6511L24.062 49.5566L23.3716 51.5478C23.3359 51.6538 23.2928 51.7421 23.2424 51.8125C23.192 51.883 23.1327 51.9389 23.0645 51.9817C22.9962 52.024 22.9177 52.0573 22.8294 52.0809L22.593 52.1442Z" fill="#0A0934"/>
<path d="M24.8781 51.0053V48.7073L25.2311 48.6127V49.8106L26.3061 48.3249L26.7347 48.21L25.8552 49.4008L26.7536 50.503L26.3312 50.6161L25.6125 49.7213L25.2311 50.2302V50.9111L24.8781 51.0053Z" fill="#0A0934"/>
<path d="M27.504 50.33C27.38 50.3634 27.2679 50.3731 27.1685 50.3602C27.0686 50.3469 26.9826 50.3122 26.91 50.2561C26.8375 50.1998 26.7818 50.1245 26.7429 50.0299C26.7041 49.9353 26.6844 49.8215 26.6844 49.6894C26.6844 49.5192 26.7177 49.3602 26.7835 49.212C26.8497 49.0639 26.9443 48.9371 27.0672 48.8318C27.1902 48.7263 27.3355 48.6509 27.5036 48.6062C27.6255 48.5736 27.7362 48.5637 27.8364 48.577C27.9362 48.5904 28.0217 48.6247 28.0931 48.6801C28.1646 48.7354 28.2195 48.811 28.2584 48.9067C28.2973 49.0023 28.3169 49.1175 28.3169 49.2519C28.3169 49.42 28.2844 49.578 28.2191 49.7258C28.1541 49.8736 28.0606 50.0001 27.9386 50.1052C27.8168 50.2103 27.6721 50.2852 27.504 50.33ZM27.5008 50.0502C27.5954 50.0249 27.6788 49.9805 27.7517 49.9167C27.8242 49.8534 27.8798 49.7727 27.9187 49.675C27.9576 49.5774 27.9772 49.4666 27.9772 49.3427C27.9772 49.2482 27.9664 49.1678 27.9443 49.1024C27.9222 49.0369 27.8906 48.984 27.8497 48.9434C27.8088 48.9027 27.7593 48.878 27.7015 48.8681C27.6438 48.8583 27.5783 48.8635 27.5047 48.8831C27.408 48.9091 27.324 48.9543 27.2526 49.0184C27.181 49.0828 27.1254 49.1634 27.0855 49.26C27.0456 49.357 27.0256 49.4695 27.0256 49.5976C27.0256 49.6901 27.0365 49.7696 27.0585 49.8362C27.0805 49.9028 27.1124 49.9553 27.1548 49.9935C27.1969 50.0316 27.2473 50.0554 27.3061 50.0648C27.365 50.0744 27.4294 50.0694 27.5008 50.0502Z" fill="#0A0934"/>
<path d="M28.5759 48.0944V47.7161L28.9101 47.6265V48.0047L28.5759 48.0944ZM28.5759 50.014V48.3466L28.9101 48.2568V49.9244L28.5759 50.014Z" fill="#0A0934"/>
<path d="M29.2786 49.8268V48.1594L29.6002 48.0732L29.6127 48.3975L29.6317 48.3926C29.6799 48.2619 29.7548 48.153 29.8572 48.0658C29.9591 47.9786 30.0708 47.9187 30.193 47.8862C30.2792 47.863 30.3584 47.855 30.4309 47.8616C30.5034 47.8687 30.5664 47.8925 30.62 47.9338C30.6736 47.9751 30.7149 48.0364 30.7447 48.118C30.7741 48.1997 30.7888 48.3033 30.7888 48.4294V49.4224L30.4547 49.512V48.5884C30.4547 48.477 30.441 48.3884 30.4137 48.3218C30.3863 48.2557 30.3447 48.2123 30.2893 48.1913C30.2337 48.1705 30.1605 48.1723 30.0701 48.1965C29.9777 48.2213 29.8968 48.2655 29.8274 48.3293C29.7581 48.393 29.7048 48.4683 29.6684 48.5548C29.6317 48.6413 29.6131 48.732 29.6131 48.8266V49.7376L29.2786 49.8268Z" fill="#0A0934"/>
<path d="M31.8508 49.1654C31.7268 49.1987 31.6148 49.2085 31.5149 49.1956C31.4152 49.1823 31.329 49.1476 31.2564 49.0915C31.184 49.0352 31.1283 48.9598 31.0894 48.8652C31.0506 48.7707 31.0309 48.6572 31.0309 48.5249C31.0309 48.3547 31.0643 48.1957 31.1301 48.0475C31.1959 47.8993 31.2908 47.7726 31.4137 47.6671C31.5367 47.5616 31.6821 47.4865 31.8504 47.4416C31.9723 47.409 32.083 47.3992 32.1832 47.4125C32.283 47.4258 32.3685 47.4601 32.4399 47.5154C32.5114 47.5708 32.5663 47.6465 32.6052 47.7421C32.6441 47.8376 32.6637 47.953 32.6637 48.0874C32.6637 48.2556 32.6312 48.4135 32.566 48.5613C32.5009 48.7091 32.4074 48.8355 32.2854 48.9406C32.1636 49.0457 32.0189 49.1206 31.8508 49.1654ZM31.8476 48.8856C31.9422 48.8605 32.0256 48.8159 32.0985 48.7522C32.171 48.6888 32.2266 48.6079 32.2656 48.5105C32.3044 48.4128 32.324 48.3021 32.324 48.1781C32.324 48.0836 32.3132 48.0034 32.2911 47.9379C32.269 47.8723 32.2374 47.8195 32.1965 47.7789C32.1556 47.7383 32.1061 47.7133 32.0483 47.7036C31.9906 47.6937 31.9247 47.6987 31.8516 47.7187C31.7549 47.7446 31.6708 47.7897 31.5994 47.8538C31.5279 47.9183 31.4723 47.9988 31.4323 48.0955C31.3924 48.1925 31.3724 48.3049 31.3724 48.4331C31.3724 48.5256 31.3836 48.6051 31.4057 48.6716C31.4277 48.7381 31.4596 48.7907 31.502 48.8289C31.5441 48.867 31.5945 48.8909 31.6533 48.9003C31.7122 48.9098 31.7772 48.9049 31.8488 48.8856H31.8476Z" fill="#0A0934"/>
<path d="M33.55 48.7136C33.3189 48.7756 33.1413 48.7721 33.0173 48.7035C32.8933 48.6348 32.8324 48.5171 32.8345 48.3505L33.1624 48.2625C33.1644 48.3735 33.2022 48.4439 33.2758 48.4748C33.3494 48.5056 33.4439 48.5052 33.5595 48.4744C33.6772 48.4429 33.7665 48.3974 33.8274 48.3379C33.8884 48.2786 33.9188 48.2121 33.9188 48.1386C33.9188 48.0755 33.9052 48.031 33.8779 48.0044C33.8505 47.9782 33.8075 47.9637 33.7487 47.9617C33.6898 47.9595 33.6142 47.9645 33.5217 47.9768C33.4271 47.9893 33.341 47.9964 33.2632 47.997C33.1854 47.9981 33.1176 47.9883 33.0597 47.968C33.002 47.9477 32.9574 47.9133 32.9256 47.865C32.8941 47.8166 32.8783 47.7494 32.8783 47.6633C32.8783 47.5561 32.9066 47.4577 32.9633 47.3677C33.0202 47.278 33.0993 47.1999 33.2013 47.1337C33.3031 47.0675 33.4215 47.0164 33.5557 46.9803C33.6944 46.9432 33.8131 46.9323 33.9118 46.9477C34.0106 46.9635 34.0869 47.0023 34.1406 47.0648C34.1942 47.127 34.2218 47.2135 34.2239 47.3245L33.8962 47.4125C33.8962 47.3453 33.8813 47.2945 33.852 47.2604C33.8226 47.2265 33.782 47.2061 33.7304 47.1999C33.6789 47.194 33.6183 47.1999 33.5494 47.2185C33.4401 47.2479 33.3567 47.2916 33.2986 47.3501C33.2408 47.4086 33.2121 47.4728 33.2121 47.542C33.2121 47.5946 33.2268 47.6331 33.2562 47.658C33.2856 47.6829 33.3305 47.6959 33.3903 47.6976C33.4502 47.6994 33.5262 47.6941 33.6187 47.6822C33.707 47.6689 33.7893 47.6615 33.8663 47.6601C33.943 47.6584 34.0106 47.6678 34.0695 47.6877C34.1283 47.7077 34.1745 47.7438 34.2082 47.7956C34.2418 47.8475 34.2586 47.9207 34.2586 48.0153C34.2586 48.1875 34.1948 48.3322 34.0677 48.4492C33.9405 48.5662 33.7675 48.6541 33.5494 48.7126L33.55 48.7136Z" fill="#0A0934"/>
<path d="M36.1946 48.0015C36.0265 48.0466 35.8732 48.0603 35.7344 48.0427C35.5957 48.0253 35.4763 47.979 35.3768 47.9037C35.277 47.8288 35.2003 47.7258 35.1467 47.5952C35.0932 47.4646 35.0665 47.309 35.0665 47.1283C35.0665 46.9475 35.0935 46.7742 35.1467 46.6148C35.2003 46.4555 35.2777 46.3112 35.3786 46.1823C35.4795 46.0535 35.5989 45.9438 35.7366 45.853C35.8742 45.7626 36.0269 45.6947 36.195 45.65C36.3862 45.5988 36.5557 45.5858 36.7042 45.6113C36.8527 45.637 36.974 45.6968 37.0682 45.791C37.1627 45.8856 37.2205 46.0106 37.2415 46.1669L36.8822 46.2632C36.8612 46.1721 36.8202 46.0978 36.7593 46.0408C36.6982 45.9837 36.6199 45.9469 36.5242 45.9305C36.4286 45.914 36.3187 45.9224 36.1946 45.9557C36.0392 45.9973 35.904 46.067 35.7894 46.1651C35.6749 46.2632 35.5867 46.3854 35.5247 46.5325C35.4626 46.6792 35.4318 46.8453 35.4318 47.0302C35.4318 47.1689 35.4497 47.2869 35.4854 47.3846C35.5211 47.4824 35.5722 47.5595 35.6381 47.6165C35.7043 47.6733 35.7848 47.7086 35.8794 47.7223C35.974 47.736 36.0791 47.7272 36.1946 47.696C36.3166 47.6634 36.4258 47.613 36.5225 47.5451C36.6191 47.4771 36.6982 47.3975 36.7603 47.3062C36.8223 47.2151 36.8626 47.1164 36.8815 47.0106L37.2409 46.9175C37.2219 47.0841 37.1655 47.2407 37.072 47.3864C36.9785 47.5325 36.8566 47.6585 36.7064 47.765C36.5561 47.8715 36.3855 47.9503 36.1946 48.0015Z" fill="#0A0934"/>
<path d="M37.9281 47.5369C37.7642 47.5807 37.6317 47.5723 37.531 47.5111C37.4301 47.4498 37.3796 47.3478 37.3796 47.2049C37.3796 47.1167 37.3958 47.0347 37.4287 46.9587C37.4612 46.8827 37.5074 46.8151 37.5673 46.7558C37.6272 46.6967 37.6983 46.6456 37.7802 46.6028C37.8623 46.5598 37.9515 46.5254 38.0482 46.4995L38.4801 46.3839V46.2578C38.4801 46.1906 38.4678 46.136 38.4436 46.0942C38.4194 46.0526 38.3809 46.025 38.3284 46.0116C38.2759 45.9983 38.2075 46.0029 38.1235 46.0256C38.0415 46.0477 37.9722 46.0778 37.9154 46.116C37.8587 46.1542 37.8157 46.1983 37.7862 46.2485C37.7568 46.2985 37.7421 46.3518 37.7421 46.4085L37.4269 46.4929C37.4311 46.3216 37.4972 46.17 37.6255 46.0375C37.7536 45.9051 37.926 45.8106 38.1424 45.7524C38.2475 45.7245 38.341 45.7115 38.423 45.7136C38.5049 45.7157 38.5753 45.734 38.6342 45.7671C38.693 45.8008 38.7374 45.852 38.768 45.9205C38.7985 45.9892 38.8138 46.076 38.8138 46.1811V46.9313C38.8138 46.9755 38.8149 47.0213 38.817 47.0693C38.8191 47.117 38.8225 47.1587 38.8282 47.194C38.8334 47.2295 38.838 47.2529 38.8422 47.2644L38.527 47.3489C38.5185 47.3257 38.5116 47.2848 38.5067 47.2252C38.5014 47.1657 38.4985 47.0971 38.4985 47.0193L38.5396 47.0557L38.4829 47.0708C38.4513 47.1758 38.3844 47.2711 38.2829 47.3562C38.1809 47.4413 38.0625 47.5019 37.9285 47.538L37.9281 47.5369ZM38.0542 47.2448C38.1865 47.2094 38.2909 47.1478 38.368 47.06C38.4446 46.972 38.4832 46.8736 38.4832 46.7643V46.5594L38.5273 46.5853L38.105 46.6985C38.0209 46.7209 37.9505 46.7499 37.8938 46.785C37.8369 46.82 37.7932 46.8613 37.7631 46.9083C37.7326 46.9551 37.7176 47.0084 37.7176 47.0673C37.7176 47.1534 37.7463 47.2119 37.804 47.2428C37.8619 47.2735 37.9446 47.2743 38.0542 47.2448Z" fill="#0A0934"/>
<path d="M39.164 47.7037L39.1672 45.5088L39.4886 45.4225L39.4981 45.7447L39.5201 45.7388C39.5601 45.6208 39.6294 45.5165 39.7283 45.4247C39.827 45.3333 39.9457 45.2689 40.0844 45.2316C40.1853 45.2047 40.277 45.1991 40.3603 45.2145C40.4434 45.2303 40.5152 45.2664 40.5765 45.3238C40.6374 45.3809 40.684 45.4591 40.7166 45.5574C40.7492 45.6559 40.7652 45.7756 40.7652 45.9164C40.7652 46.1014 40.7369 46.2656 40.6801 46.4089C40.6234 46.5521 40.5439 46.6709 40.4423 46.764C40.3403 46.8575 40.221 46.9227 40.0844 46.9591C39.994 46.9833 39.911 46.991 39.8354 46.9819C39.7597 46.9728 39.6953 46.949 39.6413 46.9107C39.5874 46.8726 39.5471 46.8215 39.5201 46.7573L39.4981 46.7633V47.6144L39.164 47.7037ZM39.9678 46.716C40.0581 46.6919 40.1373 46.6484 40.2056 46.586C40.2739 46.5238 40.3268 46.4438 40.3645 46.3465C40.4024 46.2491 40.4213 46.1364 40.4213 46.0082C40.4213 45.88 40.4024 45.7717 40.3645 45.6954C40.3268 45.6194 40.2735 45.5687 40.2056 45.5427C40.1373 45.5167 40.0578 45.5161 39.9678 45.5403C39.8669 45.5672 39.7818 45.6138 39.7124 45.6797C39.6431 45.7455 39.5909 45.8205 39.5562 45.9042C39.5215 45.9882 39.504 46.073 39.504 46.1591V46.3451C39.504 46.4082 39.5138 46.4663 39.5341 46.5199C39.5542 46.5735 39.5828 46.6187 39.6207 46.6558C39.6585 46.6929 39.7068 46.7174 39.7657 46.7286C39.8245 46.7402 39.8921 46.7363 39.9678 46.716Z" fill="#0A0934"/>
<path d="M41.0239 44.7595V44.3812L41.358 44.2915V44.6698L41.0239 44.7595ZM41.0239 46.6791V45.0117L41.358 44.922V46.5895L41.0239 46.6791Z" fill="#0A0934"/>
<path d="M42.212 46.3608C42.1174 46.386 42.0431 46.3924 41.9896 46.3794C41.936 46.3664 41.8985 46.3366 41.8778 46.2897C41.8568 46.2428 41.8463 46.1815 41.8463 46.1058V45.0625L41.5311 45.1468V44.8758L41.8463 44.7913V44.3091L42.1773 44.1826V44.7028L42.5461 44.604V44.8751L42.1773 44.9739V45.9573C42.1773 46.012 42.1885 46.0452 42.2106 46.0571C42.2326 46.0691 42.2697 46.068 42.3223 46.054L42.5461 45.9941V46.2716L42.212 46.3608Z" fill="#0A0934"/>
<path d="M43.2051 46.123C43.0413 46.1668 42.9089 46.1583 42.808 46.0971C42.7071 46.0358 42.6567 45.9338 42.6567 45.7909C42.6567 45.7027 42.6728 45.6207 42.7054 45.5448C42.7379 45.4687 42.7842 45.4011 42.844 45.342C42.9039 45.2827 42.9751 45.2316 43.0569 45.1889C43.139 45.1458 43.2282 45.1115 43.325 45.0856L43.7568 44.97V44.844C43.7568 44.7767 43.7446 44.722 43.7207 44.6803C43.6966 44.6387 43.6581 44.611 43.6055 44.5977C43.553 44.5844 43.4846 44.589 43.4006 44.6118C43.3187 44.6338 43.2493 44.6639 43.1926 44.702C43.1358 44.7403 43.0927 44.7844 43.0633 44.8345C43.0339 44.8846 43.0191 44.9378 43.0191 44.9945L42.704 45.0789C42.7082 44.9076 42.7744 44.756 42.9025 44.6239C43.0307 44.4919 43.2031 44.397 43.4196 44.3388C43.5246 44.3108 43.618 44.2979 43.7001 44.3C43.782 44.3021 43.8524 44.3203 43.9113 44.3536C43.9701 44.3872 44.0146 44.4383 44.0453 44.5069C44.0758 44.5757 44.0913 44.6625 44.0913 44.7676V45.5178C44.0913 45.5619 44.0923 45.6078 44.0945 45.6558C44.0965 45.7038 44.1 45.7451 44.1052 45.7804C44.1106 45.8158 44.1151 45.8393 44.1196 45.8508L43.8044 45.9353C43.796 45.9122 43.789 45.8712 43.7841 45.8117C43.7789 45.752 43.776 45.6834 43.776 45.6057L43.8171 45.6421L43.7602 45.6572C43.7287 45.7623 43.6618 45.8575 43.5604 45.9426C43.4584 46.0278 43.34 46.0883 43.2055 46.1244L43.2051 46.123ZM43.3312 45.8309C43.4636 45.7955 43.568 45.7338 43.645 45.646C43.7218 45.5581 43.76 45.4596 43.76 45.3504V45.1455L43.804 45.1713L43.3817 45.2845C43.2976 45.3069 43.2273 45.336 43.1705 45.371C43.1137 45.406 43.07 45.4473 43.0399 45.4943C43.0094 45.5412 42.9939 45.5944 42.9939 45.6533C42.9939 45.7395 43.0227 45.798 43.0808 45.8288C43.1386 45.8596 43.2219 45.8603 43.3312 45.8309Z" fill="#0A0934"/>
<path d="M44.4406 45.7636V43.4657L44.7747 43.376V45.6739L44.4406 45.7636Z" fill="#0A0934"/>
<path d="M46.5903 45.2163C46.3864 45.2709 46.2172 45.285 46.0827 45.2576C45.9483 45.2303 45.8474 45.17 45.7801 45.0755C45.7129 44.9813 45.6782 44.8608 45.6761 44.714L46.0386 44.617C46.0407 44.713 46.0617 44.7911 46.1016 44.8506C46.1416 44.9105 46.2025 44.9479 46.2845 44.9642C46.3664 44.9799 46.4715 44.9708 46.5996 44.9364C46.7573 44.894 46.8837 44.831 46.9797 44.7463C47.0753 44.6619 47.123 44.5595 47.123 44.4398C47.123 44.3726 47.1127 44.319 47.0931 44.2794C47.0732 44.2395 47.0396 44.2114 46.9923 44.1947C46.945 44.1779 46.883 44.1694 46.8063 44.1687C46.7296 44.1684 46.6357 44.1737 46.5244 44.1845C46.3941 44.1963 46.2788 44.1989 46.179 44.1918C46.0792 44.1848 45.9955 44.1659 45.9287 44.1344C45.8614 44.1033 45.8109 44.0563 45.7774 43.9937C45.7437 43.9312 45.7269 43.8517 45.7269 43.7551C45.7269 43.6185 45.7609 43.4921 45.8291 43.3761C45.8975 43.2602 45.9952 43.1582 46.1223 43.0707C46.2494 42.9831 46.4011 42.9155 46.5776 42.8683C46.7541 42.821 46.9044 42.8088 47.0284 42.8312C47.1523 42.8536 47.248 42.9064 47.3152 42.9891C47.3825 43.0721 47.4172 43.1804 47.4192 43.3142L47.0599 43.4104C47.0578 43.3208 47.035 43.2521 46.9923 43.2048C46.9492 43.1575 46.8914 43.1288 46.8189 43.1191C46.7465 43.1092 46.661 43.1173 46.5622 43.1439C46.4634 43.1705 46.3793 43.207 46.3101 43.2539C46.2407 43.3008 46.1874 43.3544 46.151 43.4147C46.1142 43.4748 46.0957 43.5397 46.0957 43.609C46.0957 43.691 46.1156 43.7498 46.1556 43.7853C46.1955 43.8206 46.2607 43.8392 46.351 43.8398C46.4414 43.8408 46.5601 43.8342 46.7072 43.8198C46.8081 43.8097 46.9051 43.8052 46.9986 43.8062C47.0921 43.8077 47.1762 43.8227 47.2507 43.8521C47.3254 43.8815 47.3842 43.932 47.4273 44.0034C47.4704 44.0748 47.4918 44.1768 47.4918 44.3092C47.4918 44.4415 47.4577 44.5641 47.3895 44.6832C47.3212 44.8023 47.2203 44.9077 47.0869 44.9991C46.9534 45.0905 46.7875 45.1635 46.5903 45.2163Z" fill="#0A0934"/>
<path d="M48.772 44.6311C48.6144 44.6735 48.4697 44.6848 48.3384 44.6654C48.207 44.6462 48.0939 44.5979 47.9994 44.5215C47.9048 44.4449 47.8313 44.3422 47.7788 44.2133C47.7262 44.0844 47.6999 43.9306 47.6999 43.752C47.6999 43.5734 47.7276 43.3941 47.7833 43.2333C47.8389 43.0723 47.9174 42.9269 48.0183 42.7969C48.1192 42.667 48.2399 42.5563 48.3807 42.4649C48.5216 42.3735 48.6792 42.3044 48.8536 42.2579C49.0427 42.2071 49.2123 42.1918 49.3629 42.2113C49.5131 42.2309 49.6357 42.2842 49.7303 42.3714C49.8249 42.4586 49.8826 42.578 49.9036 42.7301L49.5443 42.8264C49.5212 42.7423 49.4785 42.6747 49.4168 42.6242C49.3548 42.5738 49.2767 42.5427 49.1818 42.5311C49.0872 42.5195 48.9779 42.5308 48.854 42.5637C48.6837 42.6092 48.5398 42.6841 48.4221 42.7882C48.3044 42.8922 48.2155 43.018 48.1556 43.1653C48.0956 43.3128 48.0659 43.4736 48.0659 43.648C48.0659 43.7888 48.0838 43.9086 48.1195 44.0073C48.1553 44.1061 48.2067 44.1836 48.2739 44.2403C48.3412 44.297 48.421 44.3317 48.5135 44.3446C48.6059 44.3576 48.711 44.3485 48.8288 44.317C48.9759 44.2778 49.104 44.2171 49.2133 44.1352C49.3225 44.0536 49.407 43.9566 49.4669 43.8448C49.5267 43.7331 49.5565 43.6123 49.5565 43.482V43.337L49.6196 43.4116L48.7685 43.6396V43.3749L49.9316 43.0631V44.2924L49.648 44.3684L49.629 43.9415L49.607 43.9475C49.5755 44.0484 49.5197 44.1436 49.4399 44.2333C49.36 44.3229 49.2634 44.4025 49.15 44.4718C49.0364 44.5411 48.9107 44.594 48.772 44.6311Z" fill="#0A0934"/>
<path d="M50.3635 44.1759V41.8779L51.4384 41.5901C51.5646 41.5565 51.6752 41.5403 51.7711 41.5421C51.8668 41.5439 51.9466 41.5635 52.0107 41.601C52.0748 41.6384 52.1224 41.6923 52.154 41.7627C52.1855 41.8331 52.2012 41.9197 52.2012 42.0226C52.2012 42.1592 52.1665 42.286 52.0972 42.4037C52.0279 42.5211 51.928 42.6142 51.7977 42.6825V42.7045C51.9217 42.6944 52.0117 42.7192 52.0674 42.7788C52.1231 42.8387 52.1508 42.9336 52.1508 43.0639V43.4453C52.1508 43.4853 52.1522 43.5259 52.1557 43.5668C52.1588 43.6082 52.1687 43.6484 52.1855 43.688L51.8293 43.7833C51.8166 43.7553 51.8076 43.7202 51.8023 43.6786C51.7971 43.6369 51.7942 43.5899 51.7942 43.5374V43.219C51.7942 43.1413 51.7827 43.0796 51.7596 43.0344C51.7364 42.9893 51.6962 42.9613 51.6384 42.9504C51.5806 42.9396 51.4983 42.9487 51.3907 42.9774L50.7162 43.1581V44.0817L50.3635 44.1759ZM50.7166 42.8709L51.3879 42.6908C51.5519 42.6471 51.6679 42.5782 51.7361 42.4839C51.8044 42.39 51.8388 42.2832 51.8388 42.1634C51.8388 42.073 51.8201 42.0044 51.7834 41.9574C51.7466 41.9106 51.6941 41.8833 51.6258 41.8752C51.5575 41.8671 51.4779 41.8752 51.3879 41.8997L50.7166 42.0797V42.8709Z" fill="#0A0934"/>
</g>
</g>
</g>
<defs>
<clipPath id="clip0_540_3119">
<rect width="52.5" height="60" fill="white"/>
</clipPath>
</defs>
</svg>
