<svg width="53" height="60" viewBox="0 0 53 60" fill="none" xmlns="http://www.w3.org/2000/svg">
<g clip-path="url(#clip0_155_1319)">
<path d="M23.2998 35.5859C23.5985 35.5859 23.8457 35.6858 24.04 35.8848C24.2343 36.0841 24.3797 36.419 24.4746 36.8896C24.5695 37.3603 24.6172 38.0026 24.6172 38.8174C24.6172 39.3875 24.5939 39.8808 24.5488 40.2969C24.5036 40.7133 24.4287 41.0555 24.3242 41.3223C24.2206 41.5891 24.083 41.7867 23.9111 41.9131C23.7389 42.0401 23.535 42.1025 23.2998 42.1025H22.8789V35.5859H23.2998Z" fill="#888888"/>
<path d="M10.7568 24.1484C10.947 24.1484 11.1034 24.2124 11.2256 24.3389C11.3474 24.466 11.4478 24.6671 11.5244 24.9434C11.601 25.2196 11.653 25.5725 11.6807 26.002C11.7077 26.4316 11.7207 26.941 11.7207 27.5293C11.7207 28.2622 11.6962 28.8825 11.6465 29.3896C11.5968 29.896 11.503 30.278 11.3672 30.5361C11.232 30.7943 11.0286 30.9238 10.7568 30.9238C10.5758 30.9238 10.4223 30.8555 10.2959 30.7197C10.1691 30.5839 10.0695 30.3802 9.99707 30.1084C9.92456 29.8373 9.87231 29.4862 9.84082 29.0566C9.80897 28.627 9.79297 28.1175 9.79297 27.5293C9.79298 26.7874 9.82066 26.1674 9.875 25.6699C9.92925 25.1722 10.0257 24.7942 10.166 24.5361C10.3065 24.278 10.5039 24.1484 10.7568 24.1484Z" fill="#888888"/>
<path d="M29.6689 24.2715C29.9677 24.2715 30.2147 24.3714 30.4092 24.5703C30.6034 24.7697 30.7489 25.1047 30.8438 25.5752C30.9386 26.0459 30.9863 26.6882 30.9863 27.5029C30.9863 28.0731 30.9631 28.5664 30.918 28.9824C30.8728 29.3988 30.7987 29.7409 30.6943 30.0078C30.5906 30.2747 30.4522 30.4722 30.2803 30.5986C30.1079 30.7257 29.9043 30.7881 29.6689 30.7881H29.248V24.2715H29.6689Z" fill="#888888"/>
<path d="M41.0459 24.2852C41.3082 24.2852 41.5168 24.3393 41.6709 24.4482C41.8245 24.5571 41.9337 24.7196 41.9971 24.9365C42.0602 25.1537 42.0918 25.4347 42.0918 25.7783C42.0918 26.2399 42.0213 26.6042 41.8809 26.8711C41.7397 27.1379 41.4713 27.2724 41.0732 27.2725H40.5703L40.5713 24.2852H41.0459Z" fill="#888888"/>
<path d="M27.4688 15.0752L27.8633 17.75H26.4775L26.8984 15.0889L27.1299 13.0801H27.2109L27.4688 15.0752Z" fill="#888888"/>
<path d="M41.2344 15.0752L41.6279 17.75H40.2432L40.6641 15.0889L40.8945 13.0801H40.9766L41.2344 15.0752Z" fill="#888888"/>
<path fill-rule="evenodd" clip-rule="evenodd" d="M52.4707 38.0371L4.21973 50.9658V58.873L0.810547 59.7871V14.0537L52.4707 0.210938V38.0371ZM8.06836 40.8398C8.06836 41.4559 8.16823 41.997 8.36719 42.4629C8.56578 42.9289 8.86462 43.2908 9.2627 43.5488C9.66068 43.8068 10.1722 43.9345 10.7959 43.9346C11.3569 43.9345 11.8435 43.8196 12.2549 43.5889C12.6671 43.3581 12.9841 43.0128 13.2061 42.5508C13.4278 42.0889 13.5391 41.5186 13.5391 40.8398V33.9023H11.6377V40.8535C11.6377 41.1522 11.609 41.3968 11.5498 41.5869C11.4914 41.777 11.4004 41.9198 11.2783 42.0146C11.1566 42.1094 10.9963 42.1572 10.8242 42.1572C10.6519 42.1572 10.5024 42.1185 10.376 42.041C10.2494 41.9644 10.1543 41.8295 10.0908 41.6348C10.0278 41.4403 9.99609 41.1796 9.99609 40.8535V33.9023H8.06836V40.8398ZM3.28906 43.7998H5.28516V39.835H7.17188V38.2334H5.28516V35.5996H7.44434V33.9023H3.28906V43.7998ZM14.5039 43.7998H16.2822V40.7861L16.1875 37.8672H16.2559L17.8711 43.7998H19.9482V33.9023H18.1699V36.8486L18.2646 39.8896H18.1836L16.5947 33.9023H14.5039V43.7998ZM20.9512 43.7998H22.9609C23.6937 43.7998 24.2936 43.6793 24.7598 43.4395C25.2256 43.1999 25.5903 42.8586 25.8525 42.415C26.1149 41.9721 26.298 41.4506 26.4023 40.8535C26.5064 40.2564 26.5586 39.5904 26.5586 38.8574C26.5586 37.6991 26.4299 36.7558 26.1719 36.0273C25.9141 35.2992 25.5195 34.7622 24.9902 34.418C24.4604 34.0745 23.7838 33.9024 22.9609 33.9023H20.9512V43.7998ZM14.4375 29.5254C14.4375 30.1414 14.5374 30.6827 14.7363 31.1484C14.935 31.6144 15.2337 31.9763 15.6318 32.2344C16.0301 32.4925 16.5418 32.6221 17.166 32.6221L17.165 32.6211C17.7261 32.6211 18.2126 32.5052 18.624 32.2744C19.0363 32.0436 19.3532 31.6983 19.5752 31.2363C19.7969 30.7744 19.9082 30.2041 19.9082 29.5254V22.5879H18.0068V29.5391C18.0068 29.8378 17.9782 30.0823 17.9189 30.2725C17.8605 30.4626 17.7697 30.6053 17.6475 30.7002C17.5256 30.7948 17.3654 30.8428 17.1934 30.8428C17.021 30.8428 16.8716 30.804 16.7451 30.7266C16.6186 30.6499 16.5233 30.5151 16.46 30.3203C16.3969 30.126 16.3652 29.8652 16.3652 29.5391V22.5879H14.4375V29.5254ZM10.7568 22.4648C10.2227 22.4648 9.76991 22.571 9.39941 22.7832C9.02814 22.9965 8.72688 23.3134 8.49609 23.7344C8.26562 24.1553 8.10077 24.6828 8.00098 25.3164C7.90155 25.9502 7.85156 26.6878 7.85156 27.5293C7.85156 28.3709 7.90153 29.1109 8.00098 29.749C8.10114 30.3872 8.2656 30.9192 8.49609 31.3447C8.72688 31.7702 9.02816 32.0892 9.39941 32.3018C9.7699 32.5147 10.2228 32.6211 10.7568 32.6211C11.2995 32.6211 11.7567 32.5133 12.1279 32.3008C12.4985 32.0883 12.7978 31.7674 13.0244 31.3369C13.2502 30.9073 13.4152 30.3782 13.5195 29.749C13.6236 29.1198 13.6758 28.3617 13.6758 27.5293C13.6758 26.6968 13.6258 25.9627 13.5264 25.3291C13.4262 24.6959 13.2621 24.1658 13.0312 23.7402C12.8005 23.3152 12.4985 22.9964 12.1279 22.7832C11.7567 22.5711 11.2907 22.4648 10.7568 22.4648ZM47.1152 22.4648C46.6263 22.4648 46.1866 22.5598 45.7979 22.75C45.4092 22.9401 45.108 23.2305 44.8955 23.6191C44.6826 24.0086 44.5762 24.5011 44.5762 25.0986C44.5762 25.5512 44.6311 25.939 44.7393 26.2598C44.8479 26.5812 44.9951 26.8572 45.1807 27.0879C45.3658 27.319 45.569 27.5205 45.791 27.6924C46.0123 27.8639 46.2413 28.0175 46.4766 28.1533C46.7207 28.2893 46.9316 28.4215 47.1084 28.5479C47.2844 28.6749 47.4289 28.8036 47.542 28.9346C47.6554 29.0662 47.7416 29.2177 47.8008 29.3896C47.8595 29.5612 47.8887 29.7698 47.8887 30.0137C47.8887 30.3578 47.8315 30.6292 47.7188 30.8281C47.6057 31.0271 47.4 31.127 47.1016 31.127C46.9112 31.1269 46.7462 31.0747 46.6064 30.9707C46.4654 30.8668 46.3596 30.6839 46.2871 30.4209C46.2145 30.1586 46.1728 29.8054 46.1641 29.3623H44.4805C44.4893 30.0132 44.5827 30.5835 44.7588 31.0723C44.9357 31.5612 45.2209 31.9418 45.6143 32.2129C46.0082 32.4847 46.5308 32.6211 47.1826 32.6211C47.7258 32.6211 48.1948 32.5186 48.5889 32.3154C48.982 32.1116 49.2877 31.8053 49.5049 31.3984C49.7225 30.9912 49.8301 30.4752 49.8301 29.8506C49.8301 29.4346 49.7769 29.0676 49.668 28.751C49.5598 28.4342 49.4099 28.1559 49.2197 27.916C49.0296 27.6762 48.8124 27.4616 48.5684 27.2715C48.3236 27.0816 48.0608 26.909 47.7803 26.7549C47.4997 26.574 47.2603 26.4111 47.0615 26.2666C46.8622 26.1219 46.7151 25.9493 46.6201 25.75C46.5253 25.5515 46.4775 25.298 46.4775 24.9902C46.4775 24.7732 46.4997 24.5827 46.5449 24.4199C46.59 24.2572 46.6674 24.133 46.7764 24.0469C46.8845 23.9604 47.0166 23.918 47.1973 23.918C47.3779 23.918 47.5319 23.968 47.6582 24.0674C47.7846 24.1669 47.8774 24.3276 47.9365 24.5488C47.995 24.7708 48.0254 25.0806 48.0254 25.4785H49.7354C49.744 24.7815 49.6471 24.2112 49.4434 23.7676C49.2396 23.3247 48.9424 22.9964 48.5537 22.7832C48.1647 22.5712 47.6851 22.4649 47.1152 22.4648ZM3.28906 32.4854H5.28516V28.5205H7.17188V26.9189H5.28516V24.2852H7.44434V22.5879H3.28906V32.4854ZM20.8711 32.4854H22.6494V29.4717L22.5547 26.5518H22.623L24.2383 32.4854H26.3154V22.5879H24.5371V25.5342L24.6318 28.5752H24.5508L22.9619 22.5879H20.8711V32.4854ZM27.3203 32.4854H29.3301C30.063 32.4853 30.6628 32.365 31.1289 32.125C31.5949 31.8855 31.9594 31.5441 32.2217 31.1006C32.484 30.6575 32.6671 30.1363 32.7715 29.5391C32.8755 28.942 32.9277 28.276 32.9277 27.543C32.9277 26.3847 32.799 25.4412 32.541 24.7129C32.2833 23.9847 31.8886 23.4478 31.3594 23.1035C30.8295 22.7601 30.153 22.5879 29.3301 22.5879H27.3203V32.4854ZM33.7012 32.4854H37.8965V30.8018H35.6025V28.2227H37.6387V26.6338H35.6025V24.2852H37.8828V22.5879H33.7012V32.4854ZM38.6426 32.4854H40.5703V28.793H41.29C41.462 28.793 41.5964 28.8479 41.6914 28.9561C41.7863 29.0646 41.849 29.2114 41.8809 29.3965C41.9124 29.582 41.9287 29.793 41.9287 30.0283V31.5762C41.9287 31.6941 41.9379 31.839 41.9561 32.0107C41.9736 32.1823 42.0056 32.3408 42.0508 32.4854H43.9922C43.9561 32.3316 43.9317 32.1752 43.918 32.0166C43.905 31.8587 43.8975 31.6843 43.8975 31.4941V29.8379C43.8975 29.3036 43.8243 28.8559 43.6797 28.4941C43.535 28.1323 43.2818 27.9144 42.9199 27.8418V27.7471C43.2635 27.602 43.5373 27.3306 43.7412 26.9316C43.9443 26.5338 44.0469 26.0222 44.0469 25.3975C44.0468 24.8729 43.9786 24.4321 43.8428 24.0742C43.7068 23.7171 43.5123 23.4271 43.2588 23.2051C43.0054 22.9839 42.7001 22.8254 42.3428 22.7305C41.9852 22.6356 41.5843 22.5879 41.1406 22.5879H38.6426V32.4854ZM17.3672 21.1709H19.377V11.2734H17.3672V21.1709ZM20.0547 12.998H21.4395V21.1709H23.4219V12.998H24.834V11.2734H20.0547V12.998ZM24.1289 21.1709H26.0303L26.3154 19.2568H28.0391L28.3379 21.1709H30.2393L28.5283 11.2734H25.8262L24.1289 21.1709ZM30.7812 21.1709H34.5693V19.4053H32.6816V11.2734H30.7812V21.1709ZM35.2344 21.1709H37.2441V11.2734H35.2344V21.1709ZM37.8945 21.1709H39.7959L40.0811 19.2568H41.8047L42.1035 21.1709H44.0049L42.2939 11.2734H39.5918L37.8945 21.1709ZM44.5469 21.1709H46.3252V18.1572L46.2305 15.2383H46.2988L47.9141 21.1709H49.9912V11.2734H48.2129V14.2197L48.3076 17.2607H48.2266L46.6377 11.2734H44.5469V21.1709Z" fill="#888888"/>
<path d="M9.52246 55.1182L9.17871 55.2109V54.1484L9.18457 53.2861L9.16309 53.292L8.49121 55.3945L8.20801 55.4707L7.53613 53.7275L7.51074 53.7344L7.52051 54.5957V55.6553L7.17383 55.748V53.4502L7.71289 53.3057L8.33984 54.877L8.35547 54.873L8.98047 52.9658L9.52246 52.8203V55.1182Z" fill="#888888"/>
<path fill-rule="evenodd" clip-rule="evenodd" d="M10.8594 53.0977C10.9413 53.0997 11.0125 53.1178 11.0713 53.1514C11.1299 53.185 11.1747 53.2363 11.2051 53.3047C11.2355 53.3733 11.251 53.4605 11.251 53.5654V54.3154C11.251 54.3595 11.2518 54.4061 11.2539 54.4541C11.2561 54.5015 11.2594 54.543 11.2646 54.5781C11.2698 54.613 11.2748 54.6368 11.2793 54.6484L10.9639 54.7334C10.9555 54.7102 10.9483 54.6688 10.9434 54.6094C10.9392 54.5621 10.9374 54.509 10.9365 54.4502L10.9199 54.4551C10.8884 54.56 10.8216 54.6551 10.7197 54.7402C10.6178 54.8254 10.4998 54.8868 10.3652 54.9229V54.9209C10.2013 54.9647 10.0686 54.9567 9.96777 54.8955C9.86694 54.8342 9.81641 54.7317 9.81641 54.5889C9.81647 54.5009 9.8324 54.4186 9.86523 54.3428C9.89781 54.267 9.94421 54.1996 10.0039 54.1406C10.0637 54.0815 10.1349 54.03 10.2168 53.9873C10.2986 53.9443 10.3887 53.9098 10.4854 53.8838L10.917 53.7686V53.6426C10.917 53.5754 10.905 53.5202 10.8809 53.4785C10.8568 53.4371 10.8179 53.4098 10.7656 53.3965C10.7132 53.3832 10.6445 53.3875 10.5605 53.4102C10.4788 53.4321 10.4092 53.462 10.3525 53.5C10.2959 53.5385 10.2521 53.5831 10.2227 53.6328C10.1933 53.6828 10.1787 53.7363 10.1787 53.793L9.86328 53.877C9.86751 53.7058 9.93445 53.5542 10.0625 53.4219C10.1906 53.29 10.3628 53.1949 10.5791 53.1367C10.684 53.1087 10.7775 53.0956 10.8594 53.0977ZM10.541 54.083C10.4572 54.1054 10.3867 54.134 10.3301 54.1689C10.2734 54.2039 10.2293 54.246 10.1992 54.293C10.1689 54.3397 10.1533 54.3935 10.1533 54.4521C10.1534 54.5379 10.1823 54.5962 10.2402 54.627C10.298 54.6578 10.3819 54.6583 10.4912 54.6289C10.6234 54.5935 10.7278 54.5321 10.8047 54.4443C10.8813 54.3564 10.9199 54.2576 10.9199 54.1484V53.9814L10.541 54.083Z" fill="#888888"/>
<path d="M12.752 52.5957C12.8245 52.6027 12.8878 52.6267 12.9414 52.668C12.9949 52.7093 13.0356 52.7711 13.0654 52.8525C13.0948 52.9342 13.1103 53.0381 13.1104 53.1641V54.1572L12.7754 54.2461V53.3232C12.7754 53.2119 12.7616 53.1232 12.7344 53.0566C12.707 52.9905 12.6656 52.9468 12.6104 52.9258C12.5548 52.9051 12.4816 52.9066 12.3916 52.9307C12.2992 52.9555 12.2178 52.9998 12.1484 53.0635C12.0791 53.1272 12.0256 53.2026 11.9893 53.2891C11.9525 53.3756 11.9346 53.467 11.9346 53.5615V54.4717L11.5996 54.5615V52.8936L11.9209 52.8076L11.9336 53.1318L11.9531 53.127C12.0015 52.9965 12.0765 52.8879 12.1787 52.8008C12.2804 52.7137 12.3916 52.6536 12.5137 52.6211C12.5997 52.598 12.6795 52.589 12.752 52.5957Z" fill="#888888"/>
<path fill-rule="evenodd" clip-rule="evenodd" d="M16.5557 51.4951C16.4633 51.5158 16.3819 51.5495 16.3115 51.5957C16.2413 51.6419 16.1889 51.6991 16.1553 51.7666C16.2267 51.7894 16.2833 51.8327 16.3242 51.8975C16.3652 51.9621 16.3857 52.0398 16.3857 52.1299C16.3857 52.2328 16.3588 52.3308 16.3057 52.4219C16.2521 52.5128 16.1758 52.5928 16.0781 52.6621C15.9805 52.7313 15.8619 52.7842 15.7236 52.8213C15.688 52.8307 15.6546 52.8385 15.623 52.8438C15.5916 52.849 15.5615 52.853 15.5332 52.8555C15.5049 52.8579 15.4771 52.8584 15.4502 52.8574C15.4082 52.8728 15.3744 52.898 15.3506 52.9316C15.3267 52.9653 15.3146 52.9989 15.3145 53.0322C15.3145 53.0826 15.3394 53.1096 15.3887 53.1133C15.4379 53.1167 15.4929 53.1102 15.5537 53.0938L16.002 52.9746C16.1174 52.9438 16.2151 52.9333 16.2949 52.9434C16.3746 52.9536 16.4346 52.9842 16.4756 53.0352C16.5165 53.0862 16.5382 53.1591 16.54 53.2529C16.5421 53.3697 16.5182 53.4729 16.4668 53.5625C16.4154 53.6517 16.3422 53.7281 16.248 53.79C16.1535 53.852 16.043 53.8997 15.917 53.9336L15.4785 54.0508H15.4766C15.3464 54.0858 15.2397 54.0992 15.1572 54.0908C15.0742 54.0828 15.0135 54.055 14.9746 54.0088C14.9359 53.9626 14.9161 53.9038 14.916 53.833C14.916 53.7721 14.9305 53.7132 14.96 53.6582C14.9894 53.6029 15.0285 53.5535 15.0781 53.5098C15.1273 53.4661 15.1795 53.4341 15.2344 53.4131V53.3945C15.1736 53.3899 15.1255 53.3687 15.0898 53.332C15.0542 53.2953 15.0361 53.2473 15.0361 53.1885C15.0362 53.1405 15.0474 53.0951 15.0693 53.0527C15.0914 53.0099 15.1213 52.969 15.1592 52.9316C15.1969 52.8944 15.24 52.8634 15.2881 52.8379V52.8125C15.2188 52.7911 15.1639 52.7499 15.124 52.6904C15.0843 52.6306 15.0645 52.5541 15.0645 52.4619C15.0646 52.3592 15.092 52.2613 15.1465 52.168C15.201 52.0746 15.2779 51.9917 15.3779 51.9199C15.4776 51.8482 15.5942 51.7941 15.7266 51.7588C15.7685 51.7476 15.814 51.7399 15.8623 51.7354C15.9105 51.7308 15.9527 51.732 15.9883 51.7393C16.0114 51.6574 16.0488 51.5823 16.1006 51.5137C16.152 51.4454 16.2163 51.3859 16.293 51.3369C16.3695 51.288 16.4571 51.2528 16.5557 51.2305V51.4951ZM16.0732 53.2871C16.0333 53.2885 15.9888 53.2957 15.9404 53.3086L15.3955 53.4551C15.3389 53.4827 15.2928 53.5185 15.2578 53.5635C15.2232 53.6086 15.2061 53.6593 15.2061 53.7139C15.2061 53.7599 15.2178 53.7955 15.2422 53.8203C15.2663 53.8451 15.3016 53.8597 15.3477 53.8633C15.3939 53.8668 15.4487 53.8596 15.5117 53.8428L15.9248 53.7324C16.0192 53.7072 16.0905 53.6677 16.1377 53.6152C16.1849 53.5628 16.208 53.5026 16.208 53.4355C16.208 53.3811 16.196 53.342 16.1709 53.3193C16.1458 53.2967 16.113 53.2862 16.0732 53.2871ZM15.7266 51.9785C15.6554 51.9978 15.5934 52.0282 15.541 52.0693C15.4885 52.1106 15.4473 52.1593 15.4189 52.2139C15.3906 52.2689 15.377 52.326 15.377 52.3848C15.377 52.4834 15.4083 52.5514 15.4727 52.5879C15.5366 52.6242 15.6215 52.6282 15.7285 52.5996C15.8377 52.5707 15.9225 52.5181 15.9824 52.4443C16.0423 52.3705 16.0732 52.2894 16.0732 52.2012C16.0732 52.1362 16.0577 52.0844 16.0283 52.0449C15.9989 52.0057 15.9584 51.9794 15.9072 51.9678C15.856 51.9564 15.7957 51.9601 15.7266 51.9785Z" fill="#888888"/>
<path fill-rule="evenodd" clip-rule="evenodd" d="M14.377 52.1562C14.459 52.1584 14.53 52.1767 14.5889 52.21C14.6476 52.2435 14.6922 52.2948 14.7227 52.3633C14.7531 52.4318 14.7685 52.5191 14.7686 52.624V53.374C14.7686 53.4181 14.7694 53.4647 14.7715 53.5127C14.7735 53.5602 14.7767 53.6015 14.7822 53.6367C14.7874 53.6716 14.7927 53.6953 14.7969 53.707L14.4814 53.792C14.473 53.7688 14.4658 53.7275 14.4609 53.668C14.4568 53.6207 14.455 53.5675 14.4541 53.5088L14.4375 53.5137C14.406 53.6187 14.3387 53.7139 14.2373 53.7988C14.1354 53.8839 14.017 53.9454 13.8828 53.9814V53.9795C13.719 54.0232 13.5862 54.0153 13.4854 53.9541C13.3845 53.8929 13.334 53.7903 13.334 53.6475C13.334 53.5594 13.35 53.4772 13.3828 53.4014C13.4154 53.3254 13.4617 53.2575 13.5215 53.1982C13.5813 53.1392 13.6527 53.0886 13.7344 53.0459C13.8163 53.0029 13.9063 52.9683 14.0029 52.9424L14.4346 52.8262V52.7002C14.4345 52.6333 14.4224 52.5787 14.3984 52.5371C14.3743 52.4956 14.3356 52.4674 14.2832 52.4541C14.2307 52.4408 14.162 52.446 14.0781 52.4688C13.9963 52.4908 13.9268 52.5205 13.8701 52.5586C13.8134 52.5971 13.7697 52.6414 13.7402 52.6914C13.7111 52.7413 13.6963 52.795 13.6963 52.8516L13.3809 52.9355C13.3851 52.7643 13.4519 52.6125 13.5801 52.4805C13.7082 52.3485 13.8804 52.2534 14.0967 52.1953C14.2015 52.1673 14.2951 52.1542 14.377 52.1562ZM14.0596 53.1416C13.9755 53.164 13.9045 53.1926 13.8477 53.2275C13.7912 53.2625 13.7472 53.3038 13.7168 53.3506C13.6864 53.3974 13.6719 53.4511 13.6719 53.5098C13.6719 53.5959 13.7002 53.6547 13.7578 53.6855C13.8156 53.7164 13.8992 53.7169 14.0088 53.6875C14.141 53.6521 14.2453 53.5906 14.3223 53.5029C14.3989 53.415 14.4375 53.3163 14.4375 53.207V53.04L14.0596 53.1416Z" fill="#888888"/>
<path fill-rule="evenodd" clip-rule="evenodd" d="M17.3428 51.3281C17.5276 51.2785 17.6801 51.2787 17.7988 51.3291C17.9174 51.3792 18.0032 51.4672 18.0557 51.5928C18.1081 51.7185 18.1252 51.8721 18.1084 52.0527L16.8789 52.3828C16.8811 52.4935 16.9024 52.5831 16.9414 52.6523C16.9802 52.7216 17.035 52.7683 17.1064 52.79C17.1779 52.8117 17.261 52.8094 17.3555 52.7842C17.4668 52.7544 17.561 52.7039 17.6377 52.6328C17.7141 52.5618 17.762 52.4817 17.7812 52.3926L18.1025 52.3066C18.0879 52.4176 18.0464 52.5239 17.9785 52.624C17.9103 52.7241 17.8229 52.8112 17.7168 52.8848C17.6107 52.9583 17.4895 53.0127 17.3555 53.0488C17.1896 53.0932 17.0465 53.0963 16.9258 53.0586C16.805 53.0208 16.7113 52.946 16.6465 52.834C16.5814 52.7223 16.5488 52.5811 16.5488 52.4111C16.5488 52.2409 16.5811 52.0726 16.6455 51.9248C16.7096 51.7775 16.8017 51.6524 16.9209 51.5488C17.0406 51.4452 17.1811 51.3716 17.3428 51.3281ZM17.3428 51.5898C17.2506 51.6146 17.1704 51.656 17.1025 51.7129C17.0343 51.77 16.9803 51.8402 16.9424 51.9229C16.9114 51.9906 16.8941 52.0642 16.8857 52.1436L17.7803 51.9043C17.7781 51.8156 17.7621 51.7457 17.7305 51.6943C17.6927 51.6332 17.64 51.5946 17.5723 51.5791C17.504 51.5637 17.4267 51.5671 17.3428 51.5898Z" fill="#888888"/>
<path fill-rule="evenodd" clip-rule="evenodd" d="M19.8955 52.3389L19.5732 52.4248L19.5605 52.1006L19.542 52.1055C19.5021 52.2234 19.4327 52.3285 19.334 52.4199C19.2353 52.5116 19.1154 52.5775 18.9746 52.6152C18.8738 52.6422 18.7816 52.6473 18.6982 52.6318C18.6154 52.6164 18.5442 52.5801 18.4844 52.5234C18.4245 52.467 18.3782 52.3894 18.3457 52.291C18.3132 52.1927 18.2969 52.0735 18.2969 51.9326C18.2969 51.7456 18.3251 51.5797 18.3818 51.4365C18.4385 51.2934 18.5182 51.1744 18.6201 51.0811C18.7219 50.9877 18.8402 50.9228 18.9746 50.8867C19.069 50.8616 19.1541 50.8534 19.2295 50.8623C19.3051 50.8714 19.3693 50.8965 19.4219 50.9355C19.4743 50.9751 19.5147 51.027 19.542 51.0908L19.5605 51.0859V50.1309L19.8955 50.041V52.3389ZM19.0947 51.1289C19.0044 51.1531 18.9254 51.1975 18.8574 51.2598C18.7892 51.3221 18.7361 51.4018 18.6982 51.499C18.6604 51.5963 18.6417 51.7099 18.6416 51.8398C18.6416 51.9701 18.6604 52.0714 18.6982 52.1484C18.7361 52.2254 18.7893 52.2768 18.8574 52.3027C18.9256 52.3285 19.0045 52.3288 19.0947 52.3047C19.1973 52.2771 19.2824 52.2313 19.3496 52.166C19.4168 52.1006 19.4682 52.0255 19.5039 51.9414C19.5396 51.8575 19.5576 51.7725 19.5576 51.6865V51.5C19.5576 51.4371 19.5482 51.3787 19.5283 51.3252C19.5084 51.2718 19.4791 51.2278 19.4414 51.1914C19.4037 51.1554 19.3554 51.1307 19.2969 51.1182C19.238 51.1056 19.1703 51.1086 19.0947 51.1289Z" fill="#888888"/>
<path d="M23.373 51.5459C23.3373 51.6519 23.2936 51.7402 23.2432 51.8105C23.1928 51.8809 23.1336 51.9368 23.0654 51.9795C22.9972 52.0219 22.9183 52.0556 22.8301 52.0791L22.5938 52.1426V51.8652L22.7734 51.8164C22.8217 51.8035 22.8638 51.7858 22.8984 51.7627C22.9329 51.7396 22.963 51.7106 22.9883 51.6768C23.0133 51.6429 23.0332 51.6015 23.0479 51.5537L23.1182 51.3555L22.4648 49.9824L22.834 49.8838L23.209 50.7891L23.2783 50.9658L23.291 50.9619L23.3535 50.75L23.71 49.6494L24.0635 49.5547L23.373 51.5459Z" fill="#888888"/>
<path fill-rule="evenodd" clip-rule="evenodd" d="M21.2227 50.6406L21.2422 50.6357C21.2842 50.5175 21.3536 50.4123 21.4512 50.3213C21.5488 50.2301 21.6683 50.1657 21.8086 50.1279C21.9094 50.1009 22.0016 50.0949 22.085 50.1104C22.1679 50.1257 22.2395 50.1624 22.3008 50.2197C22.3617 50.2767 22.4079 50.3553 22.4395 50.4541C22.4709 50.5528 22.4873 50.6728 22.4873 50.8135C22.4873 50.9982 22.458 51.1626 22.4014 51.3057C22.3447 51.4489 22.2658 51.568 22.1641 51.6611C22.0622 51.7544 21.9438 51.8195 21.8096 51.8555C21.7171 51.8804 21.6323 51.888 21.5566 51.8789C21.4811 51.8698 21.4167 51.8452 21.3643 51.8066C21.312 51.7683 21.2714 51.7177 21.2422 51.6543L21.2227 51.6592L21.21 51.9873L20.8887 52.0732V49.7754L21.2227 49.6855V50.6406ZM21.6885 50.4375C21.5878 50.4645 21.5027 50.5104 21.4346 50.5762C21.3664 50.6415 21.315 50.717 21.2793 50.8008C21.2436 50.8848 21.2256 50.9704 21.2256 51.0566V51.2422C21.2256 51.3262 21.2436 51.4017 21.2793 51.4678C21.315 51.5337 21.3663 51.5814 21.4346 51.6104C21.5028 51.6394 21.5886 51.6406 21.6895 51.6133C21.7818 51.5883 21.8624 51.545 21.9307 51.4824C21.9989 51.4201 22.051 51.3395 22.0889 51.2422C22.1266 51.1449 22.1465 51.0324 22.1465 50.9043C22.1465 50.8055 22.1349 50.7222 22.1133 50.6543C22.0912 50.5868 22.0594 50.5335 22.0195 50.4951C21.9797 50.4568 21.9321 50.4319 21.877 50.4229C21.8213 50.4138 21.7578 50.419 21.6885 50.4375Z" fill="#888888"/>
<path d="M25.8564 49.4004L26.7549 50.502L26.332 50.6152L25.6133 49.7207L25.2324 50.2295V50.9102L24.8789 51.0049V48.7061L25.2324 48.6123V49.8096L26.3066 48.3242L26.7354 48.209L25.8564 49.4004Z" fill="#888888"/>
<path fill-rule="evenodd" clip-rule="evenodd" d="M27.8379 48.5762C27.9375 48.5895 28.0224 48.6244 28.0938 48.6797C28.1652 48.735 28.2209 48.8107 28.2598 48.9062C28.2985 49.0017 28.3183 49.1169 28.3184 49.251C28.3184 49.4188 28.2858 49.5769 28.2207 49.7246C28.1557 49.8723 28.0614 49.9994 27.9395 50.1045C27.8176 50.2095 27.6728 50.2843 27.5049 50.3291C27.3811 50.3624 27.2692 50.3722 27.1699 50.3594C27.0701 50.3461 26.9837 50.3109 26.9111 50.2549C26.8388 50.1986 26.7829 50.1237 26.7441 50.0293C26.7054 49.9347 26.6855 49.8205 26.6855 49.6885C26.6856 49.5184 26.7184 49.3591 26.7842 49.2109C26.8504 49.0629 26.9455 48.9364 27.0684 48.8311C27.1913 48.7256 27.3368 48.6502 27.5049 48.6055C27.6267 48.5729 27.7378 48.5629 27.8379 48.5762ZM27.5059 48.8818C27.4093 48.9078 27.3253 48.9535 27.2539 49.0176C27.1825 49.0819 27.1267 49.1624 27.0869 49.2588C27.047 49.3558 27.0264 49.4687 27.0264 49.5967C27.0264 49.689 27.0376 49.7685 27.0596 49.835C27.0816 49.9015 27.1139 49.9539 27.1562 49.9922C27.1983 50.0302 27.2488 50.055 27.3076 50.0645C27.3663 50.0739 27.4307 50.069 27.502 50.0498C27.5965 50.0245 27.68 49.9798 27.7529 49.916C27.8254 49.8526 27.881 49.7715 27.9199 49.6738C27.9587 49.5763 27.9785 49.4655 27.9785 49.3418C27.9785 49.2474 27.9674 49.167 27.9453 49.1016C27.9233 49.0361 27.8915 48.983 27.8506 48.9424C27.8099 48.9019 27.7606 48.8771 27.7031 48.8672C27.6454 48.8574 27.5794 48.8623 27.5059 48.8818Z" fill="#888888"/>
<path d="M28.9121 49.9229L28.5781 50.0127V48.3457L28.9121 48.2559V49.9229Z" fill="#888888"/>
<path d="M30.4316 47.8594C30.5042 47.8664 30.5676 47.8903 30.6211 47.9316C30.6746 47.9729 30.7154 48.0347 30.7451 48.1162C30.7745 48.1978 30.7891 48.3017 30.7891 48.4277V49.4209L30.4551 49.5098V48.5869C30.4551 48.4757 30.4413 48.3868 30.4141 48.3203C30.3867 48.2542 30.3454 48.2104 30.29 48.1895C30.2346 48.1688 30.1614 48.1703 30.0713 48.1943C29.9789 48.2192 29.8975 48.2635 29.8281 48.3271C29.7589 48.3908 29.7053 48.4663 29.6689 48.5527C29.6322 48.6391 29.6143 48.7306 29.6143 48.8252V49.7354L29.2793 49.8252V48.1572L29.6006 48.0713L29.6133 48.3955L29.6328 48.3906C29.6811 48.2601 29.7561 48.1515 29.8584 48.0645C29.9602 47.9774 30.0713 47.9173 30.1934 47.8848C30.2795 47.8616 30.3592 47.8527 30.4316 47.8594Z" fill="#888888"/>
<path fill-rule="evenodd" clip-rule="evenodd" d="M32.1836 47.4121C32.2833 47.4254 32.369 47.4594 32.4404 47.5146C32.5118 47.57 32.5666 47.6466 32.6055 47.7422C32.6443 47.8376 32.664 47.9527 32.6641 48.0869C32.6641 48.2549 32.6314 48.4128 32.5664 48.5605C32.5013 48.7083 32.408 48.8354 32.2861 48.9404C32.1644 49.0454 32.0195 49.1202 31.8516 49.165C31.7277 49.1983 31.6154 49.2082 31.5156 49.1953C31.4159 49.182 31.3294 49.1469 31.2568 49.0908C31.1846 49.0346 31.1287 48.9596 31.0898 48.8652C31.0511 48.7708 31.0312 48.6566 31.0312 48.5244C31.0313 48.3543 31.0651 48.195 31.1309 48.0469C31.1966 47.899 31.2913 47.7723 31.4141 47.667C31.537 47.5616 31.6824 47.4863 31.8506 47.4414C31.9724 47.4089 32.0835 47.3988 32.1836 47.4121ZM31.8516 47.7188C31.7551 47.7446 31.6709 47.7896 31.5996 47.8535C31.5282 47.9179 31.4725 47.9983 31.4326 48.0947C31.3927 48.1917 31.3731 48.3045 31.373 48.4326C31.373 48.5249 31.3842 48.6044 31.4062 48.6709C31.4282 48.7371 31.4598 48.79 31.502 48.8281C31.544 48.8662 31.5947 48.891 31.6533 48.9004C31.7122 48.9099 31.7781 48.9041 31.8496 48.8848H31.8477C31.9421 48.8597 32.0258 48.8156 32.0986 48.752C32.1711 48.6886 32.2266 48.6071 32.2656 48.5098C32.3044 48.4122 32.3242 48.3015 32.3242 48.1777C32.3242 48.0832 32.3131 48.003 32.291 47.9375C32.269 47.8721 32.2381 47.8188 32.1973 47.7783C32.1564 47.7378 32.1065 47.7129 32.0488 47.7031C31.9911 47.6933 31.9247 47.6988 31.8516 47.7188Z" fill="#888888"/>
<path d="M33.9131 46.9463C34.0118 46.9621 34.088 47.0012 34.1416 47.0635C34.1952 47.1257 34.2235 47.2123 34.2256 47.3232L33.8975 47.4111C33.8974 47.344 33.8828 47.2928 33.8535 47.2588C33.8241 47.225 33.7829 47.2045 33.7314 47.1982C33.6801 47.1924 33.6194 47.1982 33.5508 47.2168C33.4415 47.2461 33.3579 47.2902 33.2998 47.3486C33.2421 47.4071 33.2139 47.4718 33.2139 47.541C33.2139 47.5933 33.2286 47.6314 33.2578 47.6562C33.2871 47.6811 33.3319 47.6946 33.3916 47.6963C33.4515 47.6981 33.5277 47.6926 33.6201 47.6807C33.7084 47.6674 33.7911 47.6606 33.8682 47.6592C33.9447 47.6575 34.0125 47.6666 34.0713 47.6865C34.1298 47.7065 34.1764 47.7423 34.21 47.7939C34.2436 47.8457 34.2597 47.9193 34.2598 48.0137C34.2598 48.1859 34.1964 48.3313 34.0693 48.4482C33.9421 48.5652 33.7688 48.6525 33.5508 48.7109L33.5518 48.7119C33.3207 48.7739 33.1425 48.7708 33.0186 48.7021C32.8947 48.6334 32.8338 48.5152 32.8359 48.3486L33.1641 48.2607C33.1661 48.3717 33.2038 48.4428 33.2773 48.4736C33.3509 48.5044 33.4452 48.5034 33.5605 48.4727C33.6781 48.4412 33.7682 48.3964 33.8291 48.3369C33.8899 48.2778 33.9198 48.211 33.9199 48.1377C33.9199 48.0747 33.9062 48.0295 33.8789 48.0029C33.8515 47.9769 33.8085 47.962 33.75 47.96C33.6912 47.9578 33.6157 47.9633 33.5234 47.9756C33.4289 47.9881 33.3425 47.9954 33.2646 47.9961C33.1871 47.9972 33.1193 47.9871 33.0615 47.9668C33.0038 47.9465 32.9586 47.9116 32.9268 47.8633C32.8955 47.815 32.8799 47.7479 32.8799 47.6621C32.8799 47.555 32.9081 47.4562 32.9648 47.3662C33.0216 47.2766 33.1012 47.199 33.2031 47.1328C33.3048 47.0667 33.4227 47.0146 33.5566 46.9785C33.6953 46.9414 33.8144 46.931 33.9131 46.9463Z" fill="#888888"/>
<path d="M28.9121 48.0029L28.5781 48.0928V47.7148L28.9121 47.625V48.0029Z" fill="#888888"/>
<path d="M36.7061 45.6104C36.8545 45.636 36.9761 45.6959 37.0703 45.79C37.1647 45.8846 37.2221 46.0099 37.2432 46.166L36.8838 46.2627C36.8628 46.1717 36.8217 46.097 36.7607 46.04C36.6998 45.9831 36.6217 45.9461 36.5264 45.9297C36.4308 45.9132 36.3203 45.9218 36.1963 45.9551C36.041 45.9967 35.9055 46.0661 35.791 46.1641C35.6766 46.262 35.5883 46.3844 35.5264 46.5312C35.4643 46.6779 35.4336 46.8444 35.4336 47.0293C35.4336 47.1679 35.4516 47.2861 35.4873 47.3838C35.5229 47.4813 35.574 47.5583 35.6396 47.6152C35.7057 47.672 35.7864 47.708 35.8809 47.7217C35.9754 47.7354 36.0809 47.7264 36.1963 47.6953C36.3182 47.6627 36.4278 47.6118 36.5244 47.5439C36.6208 47.4761 36.6998 47.3967 36.7617 47.3057C36.8237 47.2146 36.8649 47.1155 36.8838 47.0098L37.2432 46.917C37.2242 47.0835 37.1676 47.2402 37.0742 47.3857C36.9807 47.5318 36.8582 47.6582 36.708 47.7646C36.5578 47.8709 36.387 47.9498 36.1963 48.001C36.0283 48.046 35.875 48.0595 35.7363 48.042C35.5979 48.0246 35.4783 47.9784 35.3789 47.9033C35.2792 47.8285 35.202 47.7251 35.1484 47.5947C35.095 47.4643 35.0684 47.3084 35.0684 47.1279C35.0684 46.9473 35.0954 46.7735 35.1484 46.6143C35.2021 46.4549 35.28 46.3105 35.3809 46.1816C35.4817 46.053 35.6008 45.9432 35.7383 45.8525C35.8759 45.7622 36.0292 45.6941 36.1973 45.6494C36.3883 45.5983 36.5577 45.5849 36.7061 45.6104Z" fill="#888888"/>
<path fill-rule="evenodd" clip-rule="evenodd" d="M40.3623 45.2139C40.4453 45.2297 40.5168 45.2659 40.5781 45.3232C40.639 45.3803 40.6862 45.4584 40.7188 45.5566C40.7513 45.655 40.7676 45.7753 40.7676 45.916C40.7675 46.1007 40.7394 46.2651 40.6826 46.4082C40.6259 46.5513 40.5457 46.6696 40.4443 46.7627C40.3425 46.8561 40.2233 46.9216 40.0869 46.958C39.9967 46.9821 39.9133 46.9904 39.8379 46.9814C39.7623 46.9724 39.6975 46.9483 39.6436 46.9102C39.5898 46.8722 39.5495 46.8207 39.5225 46.7568L39.5 46.7627V47.6133L39.166 47.7031L39.1689 45.5078L39.4902 45.4219L39.5 45.7441L39.5225 45.7383C39.5624 45.6203 39.6317 45.5156 39.7305 45.4238C39.8292 45.3325 39.9482 45.2677 40.0869 45.2305C40.1876 45.2037 40.2791 45.1985 40.3623 45.2139ZM40.208 45.542C40.1397 45.516 40.0597 45.5149 39.9697 45.5391C39.869 45.5659 39.7842 45.613 39.7148 45.6787C39.6456 45.7445 39.5933 45.8197 39.5586 45.9033C39.5239 45.9873 39.5059 46.0721 39.5059 46.1582V46.3447C39.5059 46.4074 39.5161 46.4653 39.5361 46.5186C39.5562 46.5721 39.5852 46.6182 39.623 46.6553C39.6607 46.6922 39.7089 46.7163 39.7676 46.7275C39.8264 46.7391 39.8941 46.7352 39.9697 46.7148C40.06 46.6907 40.1397 46.6473 40.208 46.585C40.276 46.5228 40.3285 46.4428 40.3662 46.3457C40.4041 46.2483 40.4238 46.135 40.4238 46.0068C40.4238 45.8789 40.404 45.7705 40.3662 45.6943C40.3285 45.6187 40.2756 45.5679 40.208 45.542Z" fill="#888888"/>
<path fill-rule="evenodd" clip-rule="evenodd" d="M38.4238 45.7109C38.5057 45.713 38.5769 45.7315 38.6357 45.7646C38.6944 45.7983 38.739 45.8496 38.7695 45.918C38.8 45.9866 38.8154 46.0737 38.8154 46.1787V46.9287C38.8154 46.9728 38.8162 47.0194 38.8184 47.0674C38.8204 47.1146 38.8235 47.1563 38.8291 47.1914C38.8343 47.2265 38.8396 47.2501 38.8438 47.2617L38.5283 47.3467C38.5199 47.3235 38.5127 47.2821 38.5078 47.2227C38.5037 47.1754 38.5019 47.1222 38.501 47.0635L38.4844 47.0684C38.4528 47.1733 38.3856 47.2684 38.2842 47.3535C38.1822 47.4386 38.0637 47.5 37.9297 47.5361V47.5342C37.7658 47.578 37.633 47.57 37.5322 47.5088C37.4314 47.4475 37.3809 47.345 37.3809 47.2021C37.3809 47.1141 37.3968 47.0319 37.4297 46.9561C37.4622 46.8803 37.5087 46.813 37.5684 46.7539C37.6282 46.6948 37.6994 46.6433 37.7812 46.6006C37.8633 46.5576 37.9532 46.5229 38.0498 46.4971L38.4814 46.3818V46.2559C38.4814 46.1888 38.4694 46.1335 38.4453 46.0918C38.4212 46.0504 38.3823 46.0231 38.3301 46.0098C38.2776 45.9965 38.2089 46.0008 38.125 46.0234C38.0432 46.0455 37.9737 46.0753 37.917 46.1133C37.8603 46.1515 37.8165 46.196 37.7871 46.2461C37.7577 46.2961 37.7432 46.3496 37.7432 46.4062L37.4277 46.4902C37.4321 46.3191 37.4988 46.1675 37.627 46.0352C37.7551 45.9029 37.9273 45.8082 38.1436 45.75C38.2485 45.7221 38.3419 45.7088 38.4238 45.7109ZM38.1064 46.6963C38.0224 46.7187 37.9512 46.7472 37.8945 46.7822C37.8378 46.8172 37.7947 46.8594 37.7646 46.9062C37.7342 46.9531 37.7188 47.0066 37.7188 47.0654C37.7189 47.1513 37.7481 47.2094 37.8057 47.2402C37.8635 47.2709 37.9462 47.2716 38.0557 47.2422C38.1879 47.2067 38.2922 47.1454 38.3691 47.0576C38.4458 46.9697 38.4844 46.871 38.4844 46.7617V46.5947L38.1064 46.6963Z" fill="#888888"/>
<path d="M41.3594 46.5869L41.0254 46.6768V45.0098L41.3594 44.9199V46.5869Z" fill="#888888"/>
<path d="M42.1797 44.7021L42.5479 44.6035V44.874L42.1797 44.9727V45.9561C42.1797 46.0107 42.1909 46.0447 42.2129 46.0566C42.2349 46.0684 42.2719 46.0667 42.3242 46.0527L42.5479 45.9932V46.2705L42.2139 46.3604C42.1197 46.3854 42.0456 46.3918 41.9922 46.3789C41.9386 46.366 41.9005 46.3359 41.8799 46.2891C41.8588 46.2421 41.8486 46.1801 41.8486 46.1045V45.0615L41.5332 45.1455V44.875L41.8486 44.79V44.3086L42.1797 44.1816V44.7021Z" fill="#888888"/>
<path fill-rule="evenodd" clip-rule="evenodd" d="M43.7012 44.2988C43.7831 44.3009 43.8542 44.3193 43.9131 44.3525C43.9718 44.3862 44.0162 44.4374 44.0469 44.5059C44.0773 44.5745 44.0927 44.6616 44.0928 44.7666V45.5166C44.0928 45.5607 44.0936 45.6073 44.0957 45.6553C44.0978 45.7029 44.1012 45.7441 44.1064 45.7793C44.1117 45.8142 44.1166 45.8379 44.1211 45.8496L43.8057 45.9346C43.7972 45.9114 43.79 45.87 43.7852 45.8105C43.781 45.7632 43.7792 45.7101 43.7783 45.6514L43.7617 45.6562C43.7302 45.7613 43.6629 45.8563 43.5615 45.9414C43.4595 46.0265 43.3414 46.0879 43.207 46.124V46.1221C43.0433 46.1658 42.9104 46.1578 42.8096 46.0967C42.7087 46.0354 42.6582 45.9329 42.6582 45.79C42.6582 45.7019 42.6745 45.6198 42.707 45.5439C42.7396 45.468 42.7859 45.3999 42.8457 45.3408C42.9055 45.2817 42.9769 45.2311 43.0586 45.1885C43.1405 45.1455 43.2296 45.1109 43.3262 45.085L43.7578 44.9688V44.8428C43.7578 44.7759 43.7464 44.7213 43.7227 44.6797C43.6986 44.6382 43.6598 44.61 43.6074 44.5967C43.555 44.5834 43.4863 44.5886 43.4023 44.6113C43.3205 44.6333 43.251 44.6631 43.1943 44.7012C43.1376 44.7394 43.0939 44.784 43.0645 44.834C43.0352 44.8839 43.0205 44.9376 43.0205 44.9941L42.7051 45.0781C42.7093 44.9069 42.7762 44.7551 42.9043 44.623C43.0324 44.4912 43.2046 44.396 43.4209 44.3379C43.5257 44.3099 43.6192 44.2967 43.7012 44.2988ZM43.3828 45.2832C43.2988 45.3056 43.2286 45.3351 43.1719 45.3701C43.1152 45.405 43.0711 45.4463 43.041 45.4932C43.0106 45.54 42.9952 45.5936 42.9951 45.6523C42.9951 45.7384 43.0241 45.7973 43.082 45.8281C43.1398 45.8589 43.2237 45.8595 43.333 45.8301C43.4651 45.7948 43.5695 45.7332 43.6465 45.6455C43.7232 45.5576 43.7617 45.4588 43.7617 45.3496V45.1816L43.3828 45.2832Z" fill="#888888"/>
<path d="M44.7754 45.6729L44.4414 45.7627V43.4648L44.7754 43.375V45.6729Z" fill="#888888"/>
<path d="M47.0303 42.8291C47.1539 42.8515 47.2492 42.9048 47.3164 42.9873C47.3836 43.0702 47.4188 43.1788 47.4209 43.3125L47.0615 43.4082C47.0594 43.319 47.0367 43.2503 46.9941 43.2031C46.9511 43.1558 46.8927 43.1269 46.8203 43.1172C46.7479 43.1074 46.6621 43.115 46.5635 43.1416C46.4648 43.1682 46.3807 43.2051 46.3115 43.252C46.2422 43.2989 46.1888 43.3529 46.1523 43.4131C46.1157 43.4732 46.0977 43.5383 46.0977 43.6074C46.0977 43.6892 46.1174 43.7478 46.1572 43.7832C46.1971 43.8185 46.2622 43.8372 46.3525 43.8379C46.4429 43.8389 46.5619 43.8327 46.709 43.8184C46.8097 43.8083 46.9066 43.8038 47 43.8047C47.0933 43.8062 47.1775 43.8212 47.252 43.8506C47.3265 43.88 47.3857 43.9306 47.4287 44.002C47.4717 44.0734 47.4932 44.1753 47.4932 44.3076C47.4931 44.4398 47.4588 44.5627 47.3906 44.6816C47.3224 44.8005 47.2219 44.9058 47.0889 44.9971C46.9554 45.0885 46.789 45.162 46.5918 45.2148C46.388 45.2694 46.2185 45.2832 46.084 45.2559C45.9497 45.2285 45.8485 45.1677 45.7812 45.0732C45.7143 44.9791 45.6798 44.8583 45.6777 44.7119L46.04 44.6152C46.0421 44.7112 46.0636 44.7891 46.1035 44.8486C46.1434 44.9085 46.2042 44.9457 46.2861 44.9619C46.3681 44.9777 46.4734 44.969 46.6016 44.9346C46.7591 44.8922 46.8855 44.8288 46.9814 44.7441C47.0769 44.6598 47.125 44.5571 47.125 44.4375C47.1249 44.3706 47.1143 44.3168 47.0947 44.2773C47.0748 44.2376 47.0413 44.2091 46.9941 44.1924C46.9469 44.1756 46.8843 44.1677 46.8076 44.167C46.7311 44.1667 46.6374 44.1718 46.5264 44.1826C46.3961 44.1944 46.2805 44.1975 46.1807 44.1904C46.0811 44.1834 45.9974 44.1642 45.9307 44.1328C45.8635 44.1018 45.8129 44.0546 45.7793 43.9922C45.7457 43.9298 45.7285 43.8495 45.7285 43.7529C45.7286 43.6165 45.7629 43.4899 45.8311 43.374C45.8994 43.2583 45.9971 43.1568 46.124 43.0693C46.2511 42.9818 46.4026 42.9135 46.5791 42.8662C46.7556 42.819 46.9063 42.8067 47.0303 42.8291Z" fill="#888888"/>
<path d="M41.3594 44.667L41.0254 44.7568V44.3789L41.3594 44.2891V44.667Z" fill="#888888"/>
<path d="M49.3643 42.21C49.5143 42.2296 49.6369 42.2822 49.7314 42.3691C49.826 42.4563 49.8843 42.5765 49.9053 42.7285L49.5459 42.8242C49.5228 42.7403 49.4796 42.6724 49.418 42.6221C49.356 42.5718 49.2774 42.5408 49.1826 42.5293C49.0882 42.5178 48.9791 42.5287 48.8555 42.5615C48.6852 42.6071 48.5406 42.6821 48.4229 42.7861C48.3054 42.8899 48.217 43.016 48.1572 43.1631C48.0972 43.3105 48.0674 43.4722 48.0674 43.6465C48.0674 43.7871 48.0855 43.9072 48.1211 44.0059C48.1569 44.1044 48.2083 44.1817 48.2754 44.2383C48.3426 44.295 48.4223 44.3298 48.5146 44.3428C48.6071 44.3557 48.7123 44.3469 48.8301 44.3154C48.9771 44.2762 49.1055 44.2157 49.2148 44.1338C49.324 44.0522 49.4079 43.9545 49.4678 43.8428C49.5275 43.7311 49.5576 43.6105 49.5576 43.4805V43.4268L48.7695 43.6377V43.373L49.9326 43.0615V44.291L49.6494 44.3662L49.6299 43.9395L49.6084 43.9453C49.5769 44.0461 49.5211 44.1419 49.4414 44.2314C49.3616 44.321 49.2647 44.4005 49.1514 44.4697C49.0379 44.5391 48.912 44.5918 48.7734 44.6289C48.6159 44.6712 48.4711 44.6833 48.3398 44.6641C48.2086 44.6449 48.0955 44.5959 48.001 44.5195C47.9065 44.4429 47.8327 44.3406 47.7803 44.2119C47.7277 44.083 47.7012 43.9285 47.7012 43.75C47.7012 43.5715 47.7285 43.3921 47.7842 43.2314C47.8399 43.0704 47.9187 42.9248 48.0195 42.7949C48.1204 42.6651 48.2411 42.5542 48.3818 42.4629C48.5227 42.3716 48.6803 42.3024 48.8545 42.2559C49.0436 42.2051 49.2137 42.1904 49.3643 42.21Z" fill="#888888"/>
<path fill-rule="evenodd" clip-rule="evenodd" d="M51.7725 41.541C51.8682 41.5428 51.9486 41.5631 52.0127 41.6006C52.0765 41.6379 52.1237 41.6916 52.1553 41.7617C52.1867 41.832 52.2031 41.9187 52.2031 42.0215C52.2031 42.158 52.1679 42.2857 52.0986 42.4033C52.0293 42.5204 51.9298 42.6134 51.7998 42.6816V42.7041C51.9236 42.6941 52.0137 42.7189 52.0693 42.7783C52.1248 42.8382 52.1523 42.9335 52.1523 43.0635V43.4443C52.1523 43.4842 52.1537 43.5255 52.1572 43.5664C52.1604 43.6076 52.1708 43.6481 52.1875 43.6875L51.8311 43.7822C51.8185 43.7542 51.8089 43.7192 51.8037 43.6777C51.7985 43.6361 51.7959 43.5886 51.7959 43.5361V43.2178C51.7958 43.1403 51.7848 43.0783 51.7617 43.0332C51.7386 42.9882 51.6981 42.9601 51.6406 42.9492C51.5828 42.9384 51.5 42.9478 51.3926 42.9766L50.7178 43.1572V44.0811L50.3652 44.1748V41.877L51.4404 41.5889C51.5663 41.5553 51.6768 41.5393 51.7725 41.541ZM51.3896 41.8984L50.7188 42.0791V42.8701L51.3896 42.6904C51.5536 42.6466 51.67 42.5776 51.7383 42.4834C51.8065 42.3895 51.8408 42.2819 51.8408 42.1621C51.8407 42.0722 51.8217 42.0039 51.7852 41.957C51.7485 41.9103 51.696 41.8821 51.6279 41.874C51.5597 41.8659 51.4796 41.874 51.3896 41.8984Z" fill="#888888"/>
</g>
<defs>
<clipPath id="clip0_155_1319">
<rect width="52.5" height="60" fill="white"/>
</clipPath>
</defs>
</svg>
