<svg width="94" height="60" viewBox="0 0 94 60" fill="none" xmlns="http://www.w3.org/2000/svg">
<path d="M53.5626 9.09282L52.4964 10.1151C55.2167 12.6381 55.4654 16.8749 53.0591 19.7019L52.0906 20.8419H40.2143L40.3742 20.5171C42.0253 17.164 41.9662 13.2134 40.2143 9.91244H50.823L52.0921 8.43115H40.047L38.6772 9.91244C40.5638 13.1403 40.6126 17.1327 38.8061 20.4068L38.6772 20.6392L40.1995 22.3754H52.3972L53.998 20.608C56.9981 17.2937 56.8056 12.1716 53.5655 9.0958L53.5626 9.09282Z" fill="black"/>
<path d="M60.939 16.4683H58.7015V18.3803L60.1112 19.5829L60.1423 17.8244C61.3803 18.4979 61.9401 19.5486 62.017 20.7214C62.017 20.7259 61.5491 23.0685 58.7947 23.0685L57.5686 24.5186C57.5686 24.5186 60.825 25.0372 61.6187 23.0685C60.9582 24.8151 59.5722 26.4797 58.0292 27.3262H54.6573L53.2476 28.7762H58.0587L59.279 28.0758C63.2373 25.4753 65.0142 19.6768 60.939 16.4698V16.4683Z" fill="black"/>
<path d="M37.5789 24.5785H41.5342L42.9632 23.0942H36.0166L37.5789 24.5785Z" fill="black"/>
<path d="M33.8897 23.0942H30.2676L31.3634 24.5785H33.259L36.6811 28.7735H37.3135L38.9083 27.2073H37.4453L33.8897 23.0942Z" fill="black"/>
<path d="M44.3243 23.4375H46.2021L37.8951 31.875H35.8896L44.3243 23.4375Z" fill="#65C9D4"/>
<path d="M48.0743 23.4375H49.9521L41.6437 31.875H39.6396L48.0743 23.4375Z" fill="#E669A0"/>
<path d="M51.6538 23.4375H53.702L45.4687 31.875H43.2812L51.6538 23.4375Z" fill="#A2C755"/>
<path d="M55.4023 23.4375H57.452L49.2187 31.875H47.0312L55.4023 23.4375Z" fill="#F4D849"/>
<path d="M49.5028 41.1538L53.3411 48.1013H47.9775L49.2199 49.5647H54.1497L55.2588 51.5721H57.2046L51.3153 41.1538H49.5028Z" fill="black"/>
<path d="M9.73863 41.1538H8.03125V51.5721H9.73863V41.1538Z" fill="black"/>
<path d="M38.0538 46.7392H32.2563V41.1538H30.5488V51.5721H32.2563V48.1013H38.0538V51.5721H39.7612V48.1013V46.7392V41.1538H38.0538V46.7392Z" fill="black"/>
<path d="M19.3866 41.1538H15.7793V42.8721H19.3866V51.5721H21.094V42.8721H24.7028V41.1538H21.094H19.3866Z" fill="black"/>
<path d="M85.5767 51.5721L79.6874 41.1538H77.8749L81.7147 48.1013H76.3511L77.592 49.5647H82.5217L83.6324 51.5721H85.5767Z" fill="black"/>
<path d="M66.2834 49.985C64.2947 49.985 62.6835 48.3636 62.6835 46.3637C62.6835 44.3638 64.2947 42.7409 66.2834 42.7409C67.4904 42.7409 68.558 43.3385 69.2095 44.2565L70.4919 43.3325C69.5546 42.0137 68.019 41.1538 66.2834 41.1538C63.4239 41.1538 61.1064 43.486 61.1064 46.3637C61.1064 49.2413 63.4239 51.5721 66.2834 51.5721C68.0264 51.5721 69.5664 50.7048 70.5039 49.377L69.2169 48.459C68.5654 49.3829 67.4948 49.985 66.2834 49.985Z" fill="black"/>
</svg>
