<svg width="131" height="60" viewBox="0 0 131 60" fill="none" xmlns="http://www.w3.org/2000/svg">
<path fill-rule="evenodd" clip-rule="evenodd" d="M17.5249 18.0546L7.24214 35.5042H15.1306L23.1977 21.8142L32.9937 38.4375H20.3157L22.0442 35.5042H27.8075L23.1973 27.6805L16.8585 38.4375H2.05615L17.5249 12.1875L21.4689 18.8805L19.7405 21.8142L17.5249 18.0546Z" fill="#4A85C8"/>
<path fill-rule="evenodd" clip-rule="evenodd" d="M103.306 36.0503V36.2004C103.306 36.5019 103.396 36.5625 103.575 36.5625C104.038 36.5625 104.493 36.5249 104.948 36.4873C105.403 36.4497 105.859 36.412 106.322 36.412C106.785 36.412 107.255 36.4497 107.725 36.4873C108.195 36.5249 108.665 36.5625 109.128 36.5625C109.308 36.5625 109.397 36.5019 109.397 36.2004V36.0503C109.397 35.7788 109.308 35.6882 109.158 35.6579C108.441 35.5078 107.695 34.9048 107.695 34.1211V31.3481L109.009 29.6904L111.546 34.0305C112.025 34.8443 111.725 35.4473 110.979 35.6276C110.74 35.6882 110.621 35.7788 110.621 36.0503V36.2004C110.621 36.5019 110.711 36.5625 110.89 36.5625C111.431 36.5625 111.927 36.5244 112.419 36.4865C112.904 36.4492 113.387 36.412 113.905 36.412C114.56 36.412 115.163 36.4551 115.725 36.4952C116.213 36.53 116.67 36.5625 117.1 36.5625C117.279 36.5625 117.368 36.5019 117.368 36.2004V36.0503C117.368 35.7788 117.279 35.6882 117.13 35.6579C116.413 35.5078 115.368 34.7541 114.771 33.8195L110.77 27.4297L113.457 24.0241C114.084 23.2098 115.398 22.5472 116.353 22.3961C116.503 22.3665 116.592 22.2757 116.592 22.0044V21.8536C116.592 21.5518 116.503 21.4922 116.324 21.4922C115.947 21.4922 115.547 21.5306 115.151 21.5686C114.763 21.6058 114.38 21.6427 114.024 21.6427C113.658 21.6427 113.235 21.6138 112.759 21.5813C112.148 21.5397 111.452 21.4922 110.681 21.4922C110.501 21.4922 110.412 21.5518 110.412 21.8536V22.0044C110.412 22.2757 110.531 22.3665 110.77 22.3961C112.472 22.6074 112.622 23.3609 111.905 24.2651L107.695 29.6904V13.5353C107.695 13.3841 107.635 13.2637 107.486 13.2035L107.337 13.1429C107.247 13.1129 107.098 13.1129 106.979 13.2035C106.113 13.7762 105.067 14.1676 103.635 14.4691C103.485 14.4994 103.396 14.6202 103.396 14.7706V15.0115C103.396 15.1627 103.456 15.2829 103.605 15.3131C104.56 15.5844 105.008 16.1268 105.008 16.8803V34.1211C105.008 34.8745 104.321 35.4473 103.664 35.6276C103.426 35.6882 103.306 35.7788 103.306 36.0503ZM38.7164 17.0441C38.8079 17.2905 38.8996 17.3208 39.1745 17.2905C40.9157 17.0441 41.3435 18.1512 41.3435 19.657V34.0728C41.3435 34.8412 40.6409 35.4252 39.0524 35.64C38.8079 35.6709 38.6858 35.7633 38.6858 36.0401V36.1932C38.6858 36.5007 38.7776 36.5625 38.9607 36.5625C39.5382 36.5625 40.0443 36.5299 40.5899 36.4947C41.2274 36.4537 41.9189 36.4091 42.8408 36.4091C43.7625 36.4091 44.4715 36.4537 45.1252 36.4947C45.6847 36.5299 46.2037 36.5625 46.7813 36.5625C46.9647 36.5625 47.0562 36.5007 47.0562 36.1932V36.0401C47.0562 35.7633 46.9647 35.6709 46.8119 35.64C45.1621 35.487 44.3984 34.872 44.3984 34.0728V14.678C44.3984 14.0939 44.0014 13.9398 43.5127 14.1553C43.1068 14.343 42.5945 14.606 42.0409 14.8901C41.0531 15.3973 39.9336 15.9719 39.0524 16.3067C38.6248 16.4909 38.5637 16.5833 38.6555 16.8599L38.7164 17.0441ZM47.0562 29.2066V29.3917C47.0562 29.6086 47.2036 29.7628 47.4105 29.7628H54.6532V34.059C54.6532 34.8316 53.9733 35.4189 51.8448 35.6349C51.6082 35.666 51.49 35.7589 51.49 36.0372V36.1912C51.49 36.5004 51.5789 36.5625 51.7559 36.5625C52.6769 36.5625 53.3589 36.5223 54.0262 36.4829C54.6656 36.4451 55.2917 36.4083 56.1017 36.4083C56.9939 36.4083 57.68 36.453 58.3127 36.4944C58.854 36.5297 59.3564 36.5625 59.9151 36.5625C60.0923 36.5625 60.1812 36.5004 60.1812 36.1912V36.0372C60.1812 35.7589 60.0923 35.666 59.9444 35.6349C58.3484 35.481 57.6093 34.8627 57.6093 34.059V29.7628H59.6194C59.8263 29.7628 59.9742 29.6086 59.9742 29.3917V28.681C59.9742 28.4651 59.8263 28.3102 59.6194 28.3102L57.6093 28.3722V20.3359C57.6093 19.9656 57.4319 19.8728 57.0774 20.0277L54.9485 20.9235C54.7123 21.0163 54.6532 21.2324 54.6532 21.4798V28.434L48.5638 28.5883L58.2299 14.6187C58.4666 14.2785 58.2893 14.0625 57.9344 14.0625H57.1659C56.9294 14.0625 56.7816 14.1547 56.6338 14.3717L47.1743 28.7432C47.0855 28.8974 47.0562 29.0524 47.0562 29.2066ZM70.2467 25.6527C72.3489 25.6527 73.7996 24.014 73.7996 20.8C73.7996 17.153 72.3489 15.2364 70.2467 15.2364H69.5363C68.6779 15.2364 67.9375 15.7623 67.9375 16.5656V25.1887C68.7076 25.5288 69.4176 25.6527 70.2467 25.6527ZM67.9375 26.4249V34.059C67.9375 34.8627 68.6779 35.481 69.6845 35.6349C69.8322 35.666 69.9215 35.7589 69.9215 36.0372V36.1912C69.9215 36.5004 69.8322 36.5625 69.655 36.5625C69.0285 36.5625 68.4729 36.5214 67.9353 36.4816C67.4316 36.4444 66.9433 36.4083 66.4276 36.4083C65.9121 36.4083 65.4382 36.4444 64.9489 36.4816C64.4266 36.5214 63.8866 36.5625 63.2601 36.5625C63.0823 36.5625 62.9937 36.5004 62.9937 36.1912V36.0372C62.9937 35.7589 63.112 35.666 63.3486 35.6039C64.2963 35.4189 64.9772 34.8316 64.9772 34.059V16.5656C64.9772 15.7934 64.2963 15.2061 63.3486 15.0201C63.112 14.9583 62.9937 14.8659 62.9937 14.5877V14.4328C62.9937 14.1236 63.0823 14.0625 63.2601 14.0625C63.542 14.0625 63.9056 14.0714 64.3558 14.0824C65.0872 14.1002 66.0471 14.1236 67.2566 14.1236C68.8355 14.104 69.7005 14.0841 70.2021 14.0725C70.4717 14.0664 70.6363 14.0625 70.7501 14.0625C74.3622 14.0625 77.0562 16.2879 77.0562 20.5219C77.0562 24.663 74.1547 26.8574 70.5428 26.8574C69.5069 26.8574 68.6482 26.7032 67.9375 26.4249ZM86.2759 24.1463C86.2759 25.3 85.7492 25.7552 83.9639 25.7552H80.9497C81.2712 22.841 82.3249 21.6571 83.9639 21.6571C85.2513 21.6571 86.2759 22.7499 86.2759 24.1463ZM84.1103 20.625C80.715 20.625 77.9937 23.2961 77.9937 28.5176C77.9937 33.3449 80.9203 36.5625 84.1979 36.5625C86.2759 36.5625 88.1489 35.4392 89.2023 33.3754C89.2903 33.1927 89.2317 33.0412 89.0853 32.9196L88.9683 32.829C88.822 32.7074 88.6462 32.7379 88.4999 32.9196C87.6512 34.0133 86.6857 34.6196 85.3395 34.6196C82.8226 34.6196 80.8614 32.3131 80.8614 27.6981C80.8614 27.3943 80.8614 27.091 80.8909 26.8175H88.1783C88.7925 26.8175 89.1437 26.727 89.1437 25.5733C89.1437 23.0536 86.9781 20.625 84.1103 20.625ZM94.4961 34.7111C95.1702 34.7111 96.4555 34.1343 97.4352 32.8595L97.4342 32.8536C97.4042 32.3997 97.3733 31.9461 97.3733 31.402V28.6699C94.2514 29.8236 93.1193 31.1289 93.1193 32.8899C93.1193 34.1343 93.6702 34.7111 94.4961 34.7111ZM97.618 34.1038C96.3027 35.6829 94.6799 36.5625 92.9051 36.5625C91.2522 36.5625 90.1812 35.3792 90.1812 33.4364C90.1812 31.402 91.8338 29.6108 97.4042 27.4859L97.4352 25.4516C97.5261 22.2641 97.0367 21.6571 95.6286 21.6571C94.527 21.6571 94.0377 22.1729 93.609 23.7521C93.1498 25.4211 92.5069 25.8162 91.8949 25.8162C91.3137 25.8162 90.7624 25.2089 90.7624 24.3588C90.7624 22.3854 93.4251 20.625 95.9652 20.625C99.0261 20.625 100.281 21.6873 100.19 25.0269C100.159 26.6358 100.129 28.7308 100.129 30.8557C100.159 34.0733 100.373 34.5292 100.924 34.5292C101.169 34.5292 101.383 34.438 101.567 34.1949C101.659 34.0733 101.842 33.9828 102.087 34.1343L102.179 34.1949C102.424 34.3465 102.393 34.4986 102.302 34.7719C101.903 35.9257 101.23 36.4113 100.006 36.4113C98.8423 36.4113 97.9855 35.8646 97.618 34.1038ZM118.689 35.4698C118.365 35.1661 118.306 34.9844 118.306 34.4681V31.0377C118.306 30.8862 118.424 30.7642 118.571 30.7642H118.806C118.955 30.7642 119.102 30.8862 119.161 31.1289C119.78 33.527 121.667 35.5307 123.525 35.5307C124.791 35.5307 125.559 34.5292 125.559 33.2537C125.559 31.6512 123.965 30.5155 122.294 29.3244C120.45 28.0108 118.512 26.6298 118.512 24.4805C118.512 22.1123 120.076 20.625 122.817 20.625C124.439 20.625 125.972 21.0497 126.502 21.5056C126.827 21.8093 126.886 21.9912 126.886 22.5071V25.1784C126.886 25.3306 126.768 25.4516 126.62 25.4516H126.385C126.237 25.4516 126.09 25.3306 126.03 25.0879C125.441 22.8715 123.937 21.6571 122.582 21.6571C121.549 21.6571 120.812 22.2946 120.812 23.4179C120.812 24.6312 122.108 25.5581 123.575 26.6065C125.483 27.9717 127.681 29.5431 127.681 32.2216C127.681 34.8328 126.296 36.5625 122.964 36.5625C121.018 36.5625 119.25 35.956 118.689 35.4698ZM85.5448 47.8125C87.2023 47.8125 87.3405 46.2254 87.3687 45.8879H86.396C86.369 46.1597 86.2852 46.9767 85.5631 46.9767C84.7576 46.9767 84.6276 45.7751 84.6276 44.5266C84.6276 43.1461 84.7947 42.0949 85.5999 42.0949C86.3428 42.0949 86.3775 42.9326 86.3867 43.1589L86.387 43.1653H87.3596C87.3405 42.6958 87.2203 41.25 85.6093 41.25C84.1742 41.25 83.6187 42.5169 83.6187 44.5075C83.6187 46.1502 83.7944 47.8125 85.5448 47.8125ZM93.1349 45.5062C93.0638 45.2338 92.997 44.9806 92.9353 44.7459C92.7296 43.9651 92.578 43.3895 92.4993 43.0007H92.4683C92.3992 43.4337 92.2139 44.1367 91.9859 45.0012L91.9849 45.0049L91.9833 45.0111C91.9411 45.1708 91.8976 45.3361 91.8531 45.5062H93.1349ZM91.6576 46.2692L91.2579 47.8125H90.1812L91.812 42.1875H93.207L94.8683 47.8125H93.7405L93.3303 46.2692H91.6576ZM99.8783 44.7679H99.387V42.9091H99.9289C100.391 42.9091 100.655 43.233 100.655 43.8137C100.655 44.4604 100.406 44.7679 99.8783 44.7679ZM100.04 42.1875H98.6183V47.8125H99.387V45.4729H99.9664C100.896 45.4729 101.431 44.8838 101.431 43.8299C101.431 42.7434 100.845 42.1875 100.04 42.1875ZM106.118 42.1875V47.8125H105.181V42.1875H106.118ZM109.868 42.959H111.25V47.8125H112.237V42.959H113.618V42.1875H109.868V42.959ZM119.384 45.5062C119.311 45.2252 119.242 44.9645 119.179 44.7235C118.976 43.9541 118.827 43.3857 118.749 43.0007H118.717C118.65 43.4317 118.465 44.1299 118.238 44.9887C118.216 45.0765 118.192 45.1659 118.168 45.2571C118.146 45.3388 118.125 45.4219 118.102 45.5062H119.384ZM117.907 46.2692L117.507 47.8125H116.431L118.061 42.1875H119.456L121.118 47.8125H119.99L119.58 46.2692H117.907ZM125.736 42.1875H124.868V47.8125H127.591L127.681 47.0659H125.736V42.1875Z" fill="#111111"/>
</svg>
