<svg width="94" height="60" viewBox="0 0 94 60" fill="none" xmlns="http://www.w3.org/2000/svg">
<g clip-path="url(#clip0_155_1447)">
<path d="M2.00674 56H-0.0625V43.4426H2.00674V56Z" fill="#777777"/>
<path d="M20.1469 45.5131H15.7717V56H13.7024V45.5131H9.32957V43.4426H20.1469V45.5131Z" fill="#777777"/>
<path d="M29.3022 50.1745H36.3303V43.4426H38.3995V56H36.3303V51.8166H29.3022V56H27.233V43.4426H29.3022V50.1745Z" fill="#777777"/>
<path d="M59.5441 56H57.1848L55.8401 53.581H49.8644L48.3586 51.8166H54.8599L50.2077 43.4426H52.4048L59.5441 56Z" fill="#777777"/>
<path d="M70.5485 43.4426C72.6523 43.4426 74.5144 44.4791 75.6506 46.0687L74.0963 47.1823C73.3064 46.0758 72.0115 45.3554 70.5485 45.3554C68.1379 45.3555 66.1851 47.312 66.1851 49.7225C66.1851 52.1329 68.1379 54.0871 70.5485 54.0872C72.0167 54.0872 73.3147 53.3619 74.1045 52.2486L75.6648 53.355C74.5284 54.9553 72.6612 56 70.5485 56C67.0824 55.9999 64.2733 53.191 64.2733 49.7225C64.2733 46.2539 67.0824 43.4427 70.5485 43.4426Z" fill="#777777"/>
<path d="M93.9375 56H91.5806L90.2347 53.581H84.259L82.7544 51.8166H89.2557L84.6011 43.4426H86.7982L93.9375 56Z" fill="#777777"/>
<path d="M36.1373 32.2577H33.7059L43.9301 22.0875H46.2065L36.1373 32.2577Z" fill="#777777"/>
<path d="M40.6807 32.2577H38.2516L48.4758 22.0875H50.7522L40.6807 32.2577Z" fill="#777777"/>
<path d="M45.3187 32.2577H42.667L52.8155 22.0875H55.2991L45.3187 32.2577Z" fill="#777777"/>
<path d="M49.8644 32.2577H47.2127L57.36 22.0875H59.8448L49.8644 32.2577Z" fill="#777777"/>
<path d="M64.0721 13.69C69.0117 17.5556 66.8578 24.5442 62.0596 27.6787L60.5811 28.5227H54.7486L56.458 26.7759H60.5444C62.4147 25.7557 64.0953 23.7488 64.896 21.6437C63.9392 24.0026 60.0318 23.3987 59.9868 23.3917L61.4725 21.6437C64.8113 21.6437 65.3789 18.8194 65.3789 18.8139C65.2856 17.4004 64.6066 16.1345 63.1061 15.3226L63.0682 17.4414L61.36 15.9924V13.6876H64.0721V13.69Z" fill="#777777"/>
<path d="M35.5928 26.6311H37.3661L35.433 28.5192H34.6659L30.518 23.4623H28.2202L26.8921 21.6731H31.2827L35.5928 26.6311Z" fill="#777777"/>
<path d="M40.5481 23.4623H35.7538L33.8598 21.6731H42.2799L40.5481 23.4623Z" fill="#777777"/>
<path d="M51.8093 5.78568H38.95C41.0735 9.76442 41.1455 14.5264 39.1441 18.5679L38.95 18.9599H53.3459L54.5202 17.585C57.437 14.1774 57.1358 9.07041 53.8383 6.02934L55.131 4.79808L55.4909 5.15592C59.0721 8.89247 59.181 14.8072 55.6578 18.6774L53.7176 20.808H38.9322L37.0867 18.715L37.243 18.4349C39.4328 14.4885 39.3734 9.6764 37.0867 5.78568L38.7476 4H53.3482L51.8093 5.78568Z" fill="#777777"/>
</g>
<defs>
<clipPath id="clip0_155_1447">
<rect width="93.75" height="60" fill="white"/>
</clipPath>
</defs>
</svg>
