<svg width="151" height="60" viewBox="0 0 151 60" fill="none" xmlns="http://www.w3.org/2000/svg">
<path d="M31.0466 21.0214C34.1419 21.7369 36.932 23.4482 39.0063 25.9045C41.0805 28.3608 42.3295 31.433 42.571 34.6691C42.8125 37.9052 42.0336 41.135 40.348 43.8849C38.6623 46.6347 36.159 48.7599 33.2057 49.9475C30.2525 51.1351 27.0047 51.3231 23.9393 50.484C20.8738 49.6447 18.1522 47.8218 16.1739 45.2841C14.1956 42.7464 13.0647 39.6268 12.9476 36.3834C12.8306 33.1403 13.7329 29.944 15.5227 27.264L17.0042 28.7795C15.5074 31.171 14.8119 33.9957 15.0232 36.8269C15.2346 39.6583 16.3416 42.3432 18.1762 44.4747C20.0108 46.6061 22.4739 48.0686 25.1932 48.6422C27.9125 49.2158 30.7406 48.869 33.25 47.6537C35.7595 46.4384 37.814 44.421 39.1034 41.9062C40.393 39.3913 40.8469 36.5156 40.3974 33.7133C39.9478 30.9112 38.6195 28.3344 36.6119 26.3729C34.6043 24.4113 32.0261 23.1713 29.2685 22.84L31.0466 21.0214Z" fill="#777777"/>
<path fill-rule="evenodd" clip-rule="evenodd" d="M25.8972 28.219C27.3355 27.9296 28.8265 28.078 30.1814 28.6452C31.5362 29.2124 32.6944 30.1733 33.5092 31.4057C34.3239 32.6382 34.7588 34.0874 34.7588 35.5697C34.7588 37.0521 34.3239 38.5013 33.5092 39.7338C32.6944 40.9662 31.5362 41.9271 30.1814 42.4943C28.8265 43.0615 27.3355 43.2098 25.8972 42.9205C24.4589 42.6312 23.1376 41.9169 22.1007 40.8686C21.4097 40.1744 20.8613 39.3489 20.4871 38.4396C20.1128 37.5302 19.9202 36.5547 19.9202 35.5697C19.9202 34.5848 20.1128 33.6093 20.4871 32.6999C20.8613 31.7906 21.4097 30.9651 22.1007 30.2708C23.1376 29.2226 24.4589 28.5082 25.8972 28.219ZM29.4296 30.4663C28.4315 30.0479 27.333 29.938 26.2731 30.1503C25.2133 30.3625 24.2394 30.8875 23.4747 31.6588C22.9646 32.1713 22.5601 32.7813 22.2839 33.4524C22.0077 34.1235 21.8654 34.843 21.8654 35.5697C21.8654 36.2966 22.0077 37.016 22.2839 37.6871C22.5601 38.3582 22.9646 38.9681 23.4747 39.4806C24.2394 40.252 25.2133 40.777 26.2731 40.9892C27.333 41.2015 28.4315 41.0916 29.4296 40.6732C30.4276 40.2547 31.281 39.546 31.8811 38.6377C32.4811 37.7294 32.8017 36.6619 32.8017 35.5697C32.8017 34.4777 32.4811 33.41 31.8811 32.5018C31.281 31.5934 30.4276 30.8847 29.4296 30.4663Z" fill="#777777"/>
<path fill-rule="evenodd" clip-rule="evenodd" d="M25.6824 24.5061C28.3169 24.0354 31.0309 24.5358 33.3327 25.9174C35.6345 27.2991 37.3725 29.4707 38.2314 32.0386C39.0905 34.6064 39.0139 37.4015 38.0158 39.9172C37.0176 42.4329 35.1636 44.5032 32.7897 45.7534C30.4159 47.0036 27.6787 47.3514 25.0738 46.7332C22.4692 46.1151 20.1692 44.5722 18.5896 42.3841C17.01 40.1957 16.2555 37.5059 16.4629 34.8025C16.6704 32.0994 17.8256 29.5608 19.7199 27.6464L37.1242 10.006L39.9959 10L25.6824 24.5061ZM27.625 26.3849C26.4236 26.3822 25.2331 26.6202 24.1225 27.085C23.0121 27.5496 22.0024 28.232 21.1528 29.0929C19.6544 30.6081 18.7203 32.6033 18.5104 34.738C18.3004 36.8727 18.8273 39.0155 20.0012 40.8006C21.1751 42.5858 22.9237 43.903 24.9485 44.5281C26.9734 45.1532 29.1497 45.048 31.1062 44.2293C33.0626 43.4106 34.6785 41.9294 35.6785 40.0386C36.6784 38.1477 37.0003 35.9634 36.5897 33.8588C36.1791 31.7544 35.0611 29.8589 33.4265 28.4962C31.7919 27.1335 29.7415 26.3875 27.625 26.3849Z" fill="#777777"/>
<path fill-rule="evenodd" clip-rule="evenodd" d="M78.7511 44.9767H75.5205L74.3425 42.1309H68.166L66.9871 44.9767H63.8307L69.7608 31.7002H72.8047L78.7511 44.9767ZM69.1539 39.7992H73.3733L71.2636 34.7164L69.1539 39.7992Z" fill="#777777"/>
<path fill-rule="evenodd" clip-rule="evenodd" d="M86.2002 31.7002C87.4189 31.7002 88.4776 31.8968 89.3762 32.2891C90.2214 32.6394 90.9418 33.2203 91.4492 33.9604C91.9344 34.6813 92.1771 35.5345 92.1772 36.5203C92.1982 37.4207 91.9451 38.3076 91.4492 39.0708C90.9457 39.814 90.224 40.396 89.3762 40.7421C88.4776 41.1248 87.4189 41.3164 86.2002 41.3164H83.4248V44.9767H80.2428V31.7002H86.2002ZM83.4248 38.809H86.0246C86.9809 38.809 87.7084 38.6102 88.2067 38.2123C88.7017 37.8143 88.9491 37.2489 88.9492 36.516C88.9492 35.7703 88.7018 35.1979 88.2067 34.7991C87.7116 34.4004 86.9834 34.2016 86.0229 34.2024H83.4248V38.809Z" fill="#777777"/>
<path d="M97.4007 44.9767H94.4164V31.7002H97.4007V44.9767Z" fill="#777777"/>
<path d="M111.576 34.2067H107.192V44.9767H104.023V34.2067H99.6399V31.7002H111.576V34.2067Z" fill="#777777"/>
<path fill-rule="evenodd" clip-rule="evenodd" d="M125.748 44.9767H122.354L121.122 42.1309H114.633L113.396 44.9767H110.082L116.31 31.7002H119.499L125.748 44.9767ZM115.671 39.7992H120.103L117.887 34.7164L115.671 39.7992Z" fill="#777777"/>
<path d="M130.302 42.4693H136.938V44.9767H127.24V31.7002H130.302V42.4693Z" fill="#777777"/>
<path d="M57.3013 30.97C58.4764 30.9217 59.6485 31.1301 60.7382 31.5814C61.6463 31.9778 62.4498 32.5883 63.0823 33.362L61.1098 35.2202C60.2124 34.164 59.0985 33.6358 57.7684 33.6358C57.0003 33.622 56.2418 33.8113 55.5667 34.1852C54.9312 34.5421 54.4077 35.0755 54.0571 35.723C53.7014 36.4159 53.515 37.1867 53.515 37.9686C53.515 38.7506 53.7014 39.5213 54.0571 40.2142C54.4072 40.8619 54.9298 41.3955 55.565 41.7529C56.24 42.1286 56.9995 42.3187 57.7684 42.3049C59.0977 42.3049 60.2116 41.7688 61.1098 40.6973L63.084 42.5563C62.4541 43.3416 61.6464 43.9592 60.7305 44.3559C59.7391 44.7801 58.6722 44.991 57.5971 44.9758C56.3182 44.9938 55.0552 44.6847 53.9241 44.076C52.8547 43.5016 51.9613 42.6374 51.3422 41.579C50.7264 40.4794 50.402 39.2348 50.402 37.9686C50.402 36.7025 50.7264 35.4579 51.3422 34.3582C51.9622 33.3006 52.8554 32.4367 53.9241 31.8612C54.9746 31.322 56.1261 31.0184 57.3013 30.97Z" fill="#777777"/>
<path d="M60.872 17.5738L58.4358 20.1569C59.4497 20.4179 60.2288 20.8909 60.7731 21.576C61.3219 22.2723 61.6126 23.1516 61.5914 24.0523C61.5935 24.868 61.3684 25.6672 60.9436 26.3522C60.5124 27.0635 59.8455 27.6412 58.9439 28.0846C58.0422 28.528 56.9212 28.7494 55.5812 28.7494C54.6498 28.7488 53.7208 28.6439 52.8109 28.4368C51.9686 28.2568 51.1564 27.9472 50.402 27.5172L51.9056 24.1109C52.4492 24.44 53.0334 24.6903 53.642 24.8548C54.2269 25.0182 54.8298 25.1022 55.4354 25.1054C55.9493 25.1054 56.3634 25.0139 56.6765 24.8307C56.8179 24.7605 56.9371 24.6497 57.02 24.5113C57.103 24.3727 57.1461 24.2122 57.1445 24.0489C57.1444 23.4222 56.6251 23.1087 55.5863 23.1086H53.8372V20.2749L55.7644 18.223H51.0669V14.7358H60.872V17.5738Z" fill="#777777"/>
<path fill-rule="evenodd" clip-rule="evenodd" d="M70.5501 14.7358C71.33 14.7329 72.108 14.8269 72.8644 15.0156C73.5251 15.1705 74.1559 15.4317 74.732 15.7888L73.0945 18.9437C72.4283 18.4717 71.6138 18.2359 70.6516 18.2359C69.8677 18.236 69.2225 18.4301 68.7166 18.8189C68.2109 19.2076 67.8817 19.7729 67.7296 20.5143C68.4353 20.0158 69.3276 19.7669 70.4052 19.7669C71.1996 19.7629 71.9835 19.9479 72.6914 20.3068C73.3813 20.6512 73.966 21.1733 74.3842 21.8188C74.8128 22.4871 75.0334 23.2666 75.0193 24.0592C75.0355 24.9357 74.7842 25.7967 74.2981 26.5279C73.8085 27.2503 73.1243 27.8219 72.324 28.1759C71.4527 28.5663 70.5057 28.7621 69.5503 28.7494C68.2546 28.7494 67.1216 28.5004 66.1526 28.0028C65.1891 27.5097 64.4007 26.7345 63.8929 25.7822C63.3533 24.8 63.0832 23.5937 63.084 22.1641C63.084 20.632 63.3955 19.3045 64.0174 18.1817C64.6122 17.0854 65.5236 16.1914 66.6342 15.6158C67.7569 15.029 69.0623 14.7358 70.5501 14.7358ZM69.246 22.8908C68.8781 22.8909 68.5229 23.0243 68.2461 23.2653C68.1155 23.3971 68.0132 23.5541 67.9469 23.7269C67.8973 23.8564 67.8683 23.9928 67.8608 24.1307V24.4071C67.868 24.5441 67.8963 24.6797 67.9461 24.8083C68.0124 24.9799 68.1151 25.1351 68.2461 25.2647C68.526 25.4993 68.8799 25.628 69.246 25.6281C69.6121 25.6281 69.9666 25.4994 70.2467 25.2647C70.3776 25.1351 70.4804 24.9799 70.5467 24.8083C70.5965 24.6797 70.6248 24.5441 70.632 24.4071V24.1307C70.6244 23.9928 70.5955 23.8564 70.5459 23.7269C70.4796 23.5541 70.3772 23.3971 70.2467 23.2653C69.9697 23.0242 69.614 22.8908 69.246 22.8908Z" fill="#777777"/>
<path fill-rule="evenodd" clip-rule="evenodd" d="M81.7379 14.7358C82.8233 14.7358 83.8901 15.0229 84.8338 15.5684C85.7513 16.1477 86.4836 16.9855 86.9418 17.9802C87.4502 19.0318 87.7046 20.2863 87.7038 21.743C87.703 23.1998 87.4486 24.4541 86.9418 25.5049C86.4842 26.5002 85.7519 27.3388 84.8338 27.9176C83.8902 28.463 82.8232 28.7494 81.7379 28.7494C80.6524 28.7493 79.5856 28.4631 78.642 27.9176C77.7224 27.3395 76.989 26.5008 76.5306 25.5049C76.023 24.4516 75.7685 23.1973 75.7677 21.743C75.7669 20.2887 76.0214 19.0343 76.5306 17.9802C76.9896 16.985 77.7231 16.147 78.642 15.5684C79.5856 15.0229 80.6524 14.7358 81.7379 14.7358ZM81.7387 18.3539C80.7356 18.3531 80.2334 19.4826 80.2325 21.743C80.2325 24.0019 80.7347 25.1321 81.7387 25.1321C82.7427 25.132 83.244 24.0018 83.2432 21.743C83.2432 19.4844 82.7418 18.3548 81.7387 18.3539Z" fill="#777777"/>
<path d="M20.2484 24.3236L18.8164 22.9381L29.8455 12.2697H13.1027L15.1255 10.3134L16.7399 10.31H34.7375L20.2484 24.3236Z" fill="#777777"/>
</svg>
