<svg width="142" height="60" viewBox="0 0 142 60" fill="none" xmlns="http://www.w3.org/2000/svg">
<path d="M10.752 43.21V47.0244H7.05078V43.21H10.752Z" fill="#777777"/>
<path d="M14.832 43.21V47.0244H11.252V43.21H14.832Z" fill="#777777"/>
<path d="M18.9131 43.21V47.0244H15.333V43.21H18.9131Z" fill="#777777"/>
<path d="M23.1133 43.21V47.0244H19.4141V43.21H23.1133Z" fill="#777777"/>
<path d="M27.1943 43.21V47.0244H23.6152V43.21H27.1943Z" fill="#777777"/>
<path d="M31.3965 43.21V47.0244H27.6953V43.21H31.3965Z" fill="#777777"/>
<path d="M35.4766 43.21V47.0244H31.8965V43.21H35.4766Z" fill="#777777"/>
<path d="M39.6777 43.21V47.0244H35.9775V43.21H39.6777Z" fill="#777777"/>
<path d="M10.752 38.8955V42.709H7.05078V38.8955H10.752Z" fill="#777777"/>
<path d="M14.832 38.8955V42.709H11.252V38.8955H14.832Z" fill="#777777"/>
<path d="M18.9131 38.8955V42.709H15.333V38.8955H18.9131Z" fill="#777777"/>
<path d="M23.1133 38.8955V42.709H19.4141V38.8955H23.1133Z" fill="#777777"/>
<path d="M27.1943 38.8955V42.709H23.6152V38.8955H27.1943Z" fill="#777777"/>
<path d="M31.3965 38.8955V42.709H27.6953V38.8955H31.3965Z" fill="#777777"/>
<path d="M35.4766 38.8955V42.709H31.8965V38.8955H35.4766Z" fill="#777777"/>
<path d="M39.6777 38.8945V42.709H35.9775V38.8945H39.6777Z" fill="#777777"/>
<path d="M10.752 34.7041V38.3945H7.05078V34.7041H10.752Z" fill="#777777"/>
<path d="M14.832 34.7041V38.3945H11.252V34.7041H14.832Z" fill="#777777"/>
<path d="M18.9131 34.7041V38.3945H15.333V34.7041H18.9131Z" fill="#777777"/>
<path d="M23.1133 34.7041V38.3945H19.4141V34.7041H23.1133Z" fill="#777777"/>
<path d="M27.1943 34.7041V38.3945H23.6152V34.7041H27.1943Z" fill="#777777"/>
<path d="M31.3965 34.7041V38.3945H27.6953V34.7041H31.3965Z" fill="#777777"/>
<path d="M35.4775 34.7031V38.3945H31.8965V34.7031H35.4775Z" fill="#777777"/>
<path d="M10.752 30.3887V34.2031H7.05078V30.3887H10.752Z" fill="#777777"/>
<path d="M14.832 30.3887V34.2031H11.252V30.3887H14.832Z" fill="#777777"/>
<path d="M18.9131 30.3887V34.2031H15.333V30.3887H18.9131Z" fill="#777777"/>
<path d="M23.1133 30.3887V34.2031H19.4141V30.3887H23.1133Z" fill="#777777"/>
<path d="M27.1943 30.3887V34.2031H23.6152V30.3887H27.1943Z" fill="#777777"/>
<path d="M31.3965 30.3887V34.2031H27.6953V30.3887H31.3965Z" fill="#777777"/>
<path d="M10.752 26.0723V29.8877H7.05078V26.0723H10.752Z" fill="#777777"/>
<path d="M14.832 26.0723V29.8877H11.252V26.0723H14.832Z" fill="#777777"/>
<path d="M18.9131 26.0723V29.8877H15.333V26.0723H18.9131Z" fill="#777777"/>
<path d="M23.1133 26.0723V29.8877H19.4141V26.0723H23.1133Z" fill="#777777"/>
<path d="M27.1943 26.0723V29.8877H23.6152V26.0723H27.1943Z" fill="#777777"/>
<path d="M10.752 21.8809V25.5723H7.05078V21.8809H10.752Z" fill="#777777"/>
<path d="M14.832 21.8809V25.5723H11.252V21.8809H14.832Z" fill="#777777"/>
<path d="M18.9131 21.8809V25.5723H15.333V21.8809H18.9131Z" fill="#777777"/>
<path d="M23.1133 21.8809V25.5723H19.4141V21.8809H23.1133Z" fill="#777777"/>
<path d="M27.1943 21.8809V25.5723H23.6152V21.8809H27.1943Z" fill="#777777"/>
<path d="M31.3965 21.8809V25.5723H27.6953V21.8809H31.3965Z" fill="#777777"/>
<path d="M10.752 17.5654V21.3799H7.05078V17.5654H10.752Z" fill="#777777"/>
<path d="M14.832 17.5654V21.3799H11.252V17.5654H14.832Z" fill="#777777"/>
<path d="M18.9131 17.5654V21.3799H15.333V17.5654H18.9131Z" fill="#777777"/>
<path d="M23.1133 17.5654V21.3799H19.4141V17.5654H23.1133Z" fill="#777777"/>
<path d="M27.1943 17.5654V21.3799H23.6152V17.5654H27.1943Z" fill="#777777"/>
<path d="M31.3965 17.5654V21.3799H27.6953V17.5654H31.3965Z" fill="#777777"/>
<path d="M35.4775 17.5654V21.3799H31.8965V17.5654H35.4775Z" fill="#777777"/>
<path d="M39.6777 13.25V17.0654H35.9775V13.25H39.6777Z" fill="#777777"/>
<path d="M10.752 13.25V17.0645H7.05078V13.25H10.752Z" fill="#777777"/>
<path d="M14.832 13.25V17.0645H11.252V13.25H14.832Z" fill="#777777"/>
<path d="M18.9131 13.25V17.0645H15.333V13.25H18.9131Z" fill="#777777"/>
<path d="M23.1133 13.25V17.0645H19.4141V13.25H23.1133Z" fill="#777777"/>
<path d="M27.1943 13.25V17.0645H23.6152V13.25H27.1943Z" fill="#777777"/>
<path d="M31.3965 13.25V17.0645H27.6953V13.25H31.3965Z" fill="#777777"/>
<path d="M35.4766 13.25V17.0645H31.8965V13.25H35.4766Z" fill="#777777"/>
<path fill-rule="evenodd" clip-rule="evenodd" d="M54.9212 18.1151H51.75V41.9803H54.9212V36.0551L57.1166 33.8167L63.4938 41.9803H67.3621L59.2424 31.6112L66.3863 24.2706H62.4833L54.9212 32.2367V18.1151ZM69.7972 22.9868V24.2706H67.1835V26.6736H69.7972V41.9803H72.9682V26.6736H76.488V24.2706H72.9682V22.8223C72.9682 20.9789 73.2471 20.6168 74.9198 20.6168H76.488V18.1151H74.8502C70.5985 18.1151 69.7972 19.3001 69.7972 22.9868ZM91.176 41.9807V39.446C90.0957 41.1248 88.3881 42.4085 85.2866 42.4085C80.9305 42.4085 79.2927 39.6435 79.2927 35.5946V24.2711H82.4639V34.7059C82.4639 37.4381 82.9518 39.8081 86.4018 39.8081C89.3987 39.8081 91.176 37.8002 91.176 34.0146V24.2711H94.3476V41.9807H91.176ZM102.2 26.9371V24.2707H99.0294V41.9804H102.2V32.3684C102.2 28.5828 104.083 26.5749 107.149 26.5749C110.773 26.5749 111.261 28.9449 111.261 31.6772V41.9804H114.433V30.7884C114.433 26.7395 112.795 23.9745 108.264 23.9745C105.093 23.9745 103.281 25.2582 102.2 26.9371ZM131.686 27.0686V18.1151H134.858V41.9803H131.686V39.3139C130.537 41.1902 128.55 42.4082 125.553 42.4082C121.267 42.4082 117.538 39.0506 117.538 33.1912C117.538 27.3648 121.267 23.9744 125.553 23.9744C128.55 23.9744 130.537 25.1923 131.686 27.0686ZM131.826 33.1912C131.826 28.517 129.178 26.5419 126.355 26.5419C123.114 26.5419 120.988 28.9779 120.988 33.1912C120.988 37.4047 123.114 39.8405 126.355 39.8405C129.178 39.8405 131.826 37.8655 131.826 33.1912Z" fill="#777777"/>
</svg>
