<svg width="131" height="60" viewBox="0 0 131 60" fill="none" xmlns="http://www.w3.org/2000/svg">
<path d="M85.6094 45.0625C87.2201 45.0625 87.3413 46.5078 87.3604 46.9775H86.3877V46.9717C86.3784 46.7454 86.3433 45.9074 85.6006 45.9072C84.7954 45.9072 84.6279 46.9585 84.6279 48.3389C84.6279 49.5874 84.7581 50.7889 85.5635 50.7891C86.2855 50.7891 86.3695 49.972 86.3965 49.7002H87.3691C87.341 50.0377 87.2024 51.625 85.5449 51.625C83.7949 51.6248 83.6192 49.9628 83.6191 48.3203C83.6191 46.3299 84.1746 45.0627 85.6094 45.0625Z" fill="#777777"/>
<path fill-rule="evenodd" clip-rule="evenodd" d="M94.8691 51.625H93.7412L93.3311 50.082H91.6582L91.2588 51.625H90.1816L91.8125 46H93.208L94.8691 51.625ZM92.4688 46.8135C92.3996 47.2465 92.2142 47.9492 91.9863 48.8135L91.9854 48.8174L91.9834 48.8232C91.9412 48.9829 91.898 49.1484 91.8535 49.3184H93.1357C93.0647 49.0462 92.9973 48.7932 92.9355 48.5586C92.7299 47.778 92.5787 47.2023 92.5 46.8135H92.4688Z" fill="#777777"/>
<path fill-rule="evenodd" clip-rule="evenodd" d="M100.04 46C100.845 46 101.432 46.5561 101.432 47.6426C101.432 48.6963 100.897 49.2852 99.9668 49.2852H99.3877V51.625H98.6191V46H100.04ZM99.3877 46.7217V48.5801H99.8789C100.407 48.58 100.655 48.2726 100.655 47.626C100.655 47.0455 100.392 46.7218 99.9297 46.7217H99.3877Z" fill="#777777"/>
<path d="M106.119 51.625H105.182V46H106.119V51.625Z" fill="#777777"/>
<path d="M113.619 46V46.7715H112.238V51.625H111.251V46.7715H109.869V46H113.619Z" fill="#777777"/>
<path fill-rule="evenodd" clip-rule="evenodd" d="M121.119 51.625H119.99L119.58 50.082H117.908L117.508 51.625H116.432L118.062 46H119.457L121.119 51.625ZM118.718 46.8135C118.65 47.2444 118.466 47.9424 118.239 48.8008C118.217 48.8885 118.193 48.9783 118.169 49.0693C118.147 49.151 118.125 49.2342 118.103 49.3184H119.385C119.312 49.0375 119.242 48.777 119.179 48.5361C118.976 47.7669 118.828 47.1985 118.75 46.8135H118.718Z" fill="#777777"/>
<path d="M125.737 46V50.8779H127.682L127.591 51.625H124.869V46H125.737Z" fill="#777777"/>
<path d="M21.4697 22.6934L19.7412 25.627L17.5254 21.8672L7.24219 39.3164H15.1309L23.1982 25.627L32.9941 42.25H20.3164L22.0449 39.3164H27.8076L23.1982 31.4932L16.8594 42.25H2.05664L17.5254 16L21.4697 22.6934Z" fill="#777777"/>
<path d="M43.5137 17.9678C44.0021 17.7525 44.3993 17.9065 44.3994 18.4902V37.8857C44.3997 38.6847 45.163 39.2992 46.8125 39.4521C46.9652 39.4831 47.0566 39.5758 47.0566 39.8525V40.0059C47.0566 40.313 46.9653 40.3749 46.7822 40.375C46.2047 40.375 45.6854 40.3428 45.126 40.3076C44.4723 40.2666 43.7626 40.2217 42.8408 40.2217C41.9193 40.2217 41.2281 40.2666 40.5908 40.3076C40.0453 40.3428 39.5384 40.375 38.9609 40.375C38.778 40.375 38.6865 40.3131 38.6865 40.0059V39.8525C38.6866 39.5758 38.8083 39.4831 39.0527 39.4521C40.6408 39.2374 41.3435 38.6539 41.3438 37.8857V23.4697C41.3438 21.9639 40.916 20.8562 39.1748 21.1025C38.9 21.1328 38.8082 21.1028 38.7168 20.8564L38.6562 20.6729C38.5645 20.3962 38.6252 20.3033 39.0527 20.1191C39.9339 19.7844 41.0532 19.2093 42.041 18.7021C42.5946 18.418 43.1077 18.1555 43.5137 17.9678Z" fill="#777777"/>
<path d="M57.9346 17.875C58.2894 17.875 58.4672 18.0914 58.2305 18.4316L48.5645 32.4004L54.6533 32.2461V25.292C54.6534 25.0447 54.7131 24.8291 54.9492 24.7363L57.0781 23.8398C57.4324 23.6851 57.6094 23.7782 57.6094 24.1484V32.1846L59.6201 32.123C59.8268 32.1232 59.9744 32.2775 59.9746 32.4932V33.2041C59.9746 33.421 59.8269 33.5751 59.6201 33.5752H57.6094V37.8711C57.6094 38.6748 58.3492 39.2933 59.9453 39.4473C60.0929 39.4784 60.1816 39.5716 60.1816 39.8496V40.0039C60.1816 40.3126 60.0929 40.3749 59.916 40.375C59.3573 40.375 58.8547 40.342 58.3135 40.3066C57.6808 40.2653 56.9946 40.2207 56.1025 40.2207C55.2925 40.2207 54.6657 40.2581 54.0264 40.2959C53.3593 40.3353 52.6775 40.375 51.7568 40.375C51.5798 40.375 51.4903 40.3129 51.4902 40.0039V39.8496C51.4903 39.5714 51.6091 39.4783 51.8457 39.4473C53.9739 39.2311 54.6533 38.6436 54.6533 37.8711V33.5752H47.4111C47.2042 33.5752 47.0566 33.421 47.0566 33.2041V33.0195C47.0566 32.8653 47.086 32.7099 47.1748 32.5557L56.6338 18.1846C56.7816 17.9676 56.9298 17.8751 57.166 17.875H57.9346Z" fill="#777777"/>
<path fill-rule="evenodd" clip-rule="evenodd" d="M70.751 17.875C74.3627 17.8752 77.0565 20.1004 77.0566 24.334C77.0566 28.4751 74.1549 30.6699 70.543 30.6699C69.5073 30.6699 68.6481 30.5155 67.9375 30.2373V37.8711C67.9375 38.6747 68.6782 39.2932 69.6846 39.4473C69.8322 39.4783 69.9218 39.5714 69.9219 39.8496V40.0039C69.9218 40.3129 69.8324 40.375 69.6553 40.375C69.0289 40.375 68.4731 40.3338 67.9355 40.2939C67.4319 40.2567 66.9433 40.2207 66.4277 40.2207C65.9124 40.2207 65.4384 40.2567 64.9492 40.2939C64.427 40.3337 63.8871 40.375 63.2607 40.375C63.0829 40.375 62.9942 40.3129 62.9941 40.0039V39.8496C62.9942 39.5715 63.1123 39.4781 63.3486 39.416C64.2964 39.231 64.9775 38.6437 64.9775 37.8711V20.3779C64.9774 19.6058 64.2963 19.019 63.3486 18.833C63.1123 18.7712 62.9942 18.6783 62.9941 18.4004V18.2451C62.9942 17.9361 63.0829 17.875 63.2607 17.875C63.5426 17.875 63.9063 17.8836 64.3564 17.8945C65.0878 17.9123 66.0476 17.9365 67.2568 17.9365C68.8353 17.9169 69.7005 17.8963 70.2021 17.8848C70.4718 17.8786 70.6372 17.875 70.751 17.875ZM69.5371 19.0488C68.6788 19.0488 67.9376 19.5747 67.9375 20.3779V29.001C68.7076 29.3411 69.418 29.4648 70.2471 29.4648C72.3492 29.4648 73.7998 27.8262 73.7998 24.6123C73.7997 20.9654 72.3492 19.0488 70.2471 19.0488H69.5371Z" fill="#777777"/>
<path fill-rule="evenodd" clip-rule="evenodd" d="M84.1104 24.4375C86.9781 24.4375 89.1445 26.8661 89.1445 29.3857C89.1445 30.5394 88.793 30.6299 88.1787 30.6299H80.8916C80.8621 30.9034 80.8623 31.207 80.8623 31.5107C80.8624 36.1255 82.8231 38.4325 85.3398 38.4326C86.6858 38.4326 87.6514 37.8259 88.5 36.7324C88.6463 36.5507 88.8224 36.52 88.9688 36.6416L89.0859 36.7324C89.232 36.8539 89.2907 37.0051 89.2031 37.1875C88.1497 39.2513 86.2763 40.375 84.1982 40.375C80.9207 40.3749 77.9941 37.1573 77.9941 32.3301C77.9942 27.1088 80.7153 24.4377 84.1104 24.4375ZM83.9648 25.4697C82.3259 25.4697 81.2717 26.6534 80.9502 29.5674H83.9648C85.7497 29.5673 86.2763 29.1125 86.2764 27.959C86.2764 26.5627 85.252 25.47 83.9648 25.4697Z" fill="#777777"/>
<path fill-rule="evenodd" clip-rule="evenodd" d="M95.9658 24.4375C99.0265 24.4375 100.282 25.4998 100.19 28.8389C100.159 30.4478 100.129 32.5432 100.129 34.668C100.159 37.8851 100.374 38.3417 100.924 38.3418C101.169 38.3418 101.384 38.2508 101.567 38.0078C101.659 37.8861 101.843 37.7958 102.088 37.9473L102.18 38.0078C102.424 38.1593 102.393 38.311 102.302 38.584C101.903 39.7378 101.23 40.2236 100.006 40.2236C98.8426 40.2235 97.9856 39.6766 97.6182 37.916C96.3029 39.4951 94.6801 40.375 92.9053 40.375C91.2526 40.3749 90.1817 39.1916 90.1816 37.249C90.1816 35.2147 91.8343 33.4236 97.4043 31.2988L97.4355 29.2637C97.5264 26.0766 97.037 25.4697 95.6289 25.4697C94.5275 25.4698 94.038 25.9854 93.6094 27.5645C93.1501 29.2333 92.5075 29.6289 91.8955 29.6289C91.3143 29.6289 90.7627 29.021 90.7627 28.1709C90.763 26.1977 93.4259 24.4375 95.9658 24.4375ZM97.374 32.4824C94.2523 33.636 93.1202 34.9413 93.1201 36.7021C93.1201 37.9465 93.6711 38.5234 94.4971 38.5234C95.1713 38.5232 96.4561 37.9464 97.4355 36.6719L97.4346 36.666C97.4046 36.2123 97.374 35.7587 97.374 35.2148V32.4824Z" fill="#777777"/>
<path d="M107.338 16.9551L107.486 17.0156C107.635 17.0758 107.695 17.1966 107.695 17.3477V33.5029L111.905 28.0771C112.622 27.1731 112.472 26.4203 110.771 26.209C110.532 26.1793 110.412 26.0877 110.412 25.8164V25.666C110.412 25.3643 110.502 25.3047 110.682 25.3047C111.452 25.3047 112.149 25.352 112.759 25.3936C113.235 25.4261 113.658 25.4551 114.024 25.4551C114.38 25.4551 114.763 25.4181 115.151 25.3809C115.547 25.3429 115.947 25.3047 116.324 25.3047C116.503 25.3047 116.593 25.3643 116.593 25.666V25.8164C116.593 26.0877 116.504 26.1794 116.354 26.209C115.398 26.36 114.085 27.0226 113.458 27.8369L110.771 31.2422L114.771 37.6318C115.368 38.5664 116.414 39.3206 117.131 39.4707C117.28 39.501 117.369 39.5913 117.369 39.8623V40.0127C117.369 40.3143 117.28 40.375 117.101 40.375C116.67 40.375 116.214 40.3424 115.726 40.3076C115.164 40.2675 114.56 40.2246 113.905 40.2246C113.387 40.2246 112.904 40.2615 112.42 40.2988C111.928 40.3367 111.432 40.375 110.891 40.375C110.712 40.375 110.622 40.3143 110.622 40.0127V39.8623C110.622 39.5913 110.741 39.501 110.979 39.4404C111.726 39.2601 112.025 38.6565 111.547 37.8428L109.009 33.5029L107.695 35.1602V37.9336C107.695 38.7173 108.442 39.3206 109.158 39.4707C109.308 39.501 109.397 39.5912 109.397 39.8623V40.0127C109.397 40.3143 109.308 40.375 109.128 40.375C108.897 40.375 108.664 40.3657 108.43 40.3516L107.021 40.248C106.787 40.2339 106.554 40.2246 106.322 40.2246C105.859 40.2246 105.404 40.2622 104.949 40.2998C104.494 40.3374 104.038 40.375 103.575 40.375C103.396 40.375 103.307 40.3142 103.307 40.0127V39.8623C103.307 39.5913 103.426 39.501 103.664 39.4404C104.321 39.2601 105.009 38.6871 105.009 37.9336V20.6924C105.009 19.9392 104.56 19.3972 103.605 19.126C103.456 19.0957 103.397 18.9753 103.396 18.8242V18.583C103.397 18.4327 103.486 18.3115 103.636 18.2812C105.068 17.9798 106.113 17.5883 106.979 17.0156C107.099 16.9252 107.248 16.9251 107.338 16.9551Z" fill="#777777"/>
<path d="M122.817 24.4375C124.439 24.4375 125.972 24.8625 126.503 25.3184C126.827 25.6219 126.887 25.8038 126.887 26.3193V28.9912C126.887 29.1433 126.768 29.2636 126.62 29.2637H126.386C126.238 29.2637 126.09 29.1431 126.03 28.9004C125.442 26.6841 123.938 25.4697 122.582 25.4697C121.549 25.4698 120.812 26.1072 120.812 27.2305C120.813 28.4438 122.109 29.3706 123.575 30.4189C125.484 31.7841 127.682 33.3557 127.682 36.0342C127.682 38.6453 126.297 40.375 122.965 40.375C121.019 40.375 119.25 39.7685 118.689 39.2822C118.365 38.9787 118.307 38.7965 118.307 38.2803V34.8506C118.307 34.6992 118.424 34.5773 118.571 34.5771H118.807C118.955 34.5771 119.102 34.6987 119.161 34.9414C119.781 37.3394 121.667 39.3428 123.525 39.3428C124.792 39.3427 125.559 38.3418 125.56 37.0664C125.56 35.4639 123.966 34.3278 122.294 33.1367C120.45 31.8232 118.513 30.4421 118.513 28.293C118.513 25.9248 120.076 24.4376 122.817 24.4375Z" fill="#777777"/>
</svg>
