<svg width="145" height="60" viewBox="0 0 145 60" fill="none" xmlns="http://www.w3.org/2000/svg">
<path fill-rule="evenodd" clip-rule="evenodd" d="M11.1689 18.8925C12.0817 18.2429 13.384 18.3571 14.1836 19.1366C14.5163 19.4613 14.7121 19.8537 14.8525 20.287C15.295 21.6509 15.7466 23.0119 16.1943 24.3739C16.6242 25.6822 17.0531 26.9913 17.4834 28.2997C17.877 29.4973 18.2726 30.6952 18.667 31.8925C18.8571 32.4703 19.0466 33.0479 19.2363 33.6259C19.249 33.6649 19.2571 33.7055 19.2676 33.745C19.4064 34.17 19.5442 34.5952 19.6846 35.0194C19.9198 35.7309 20.157 36.4423 20.3926 37.1542C20.6017 37.7875 20.8172 38.4195 21.0166 39.0555C21.0965 39.3108 21.1992 39.5576 21.2861 39.8173C21.3455 39.6456 21.4045 39.4739 21.4639 39.3026C22.0566 37.5892 22.6501 35.8753 23.2432 34.162C23.249 34.1446 23.2573 34.1282 23.2646 34.1112C23.3057 33.9237 23.3814 33.7461 23.4434 33.5653C23.8538 32.3695 24.2684 31.1753 24.6807 29.9803C25.3331 28.0895 25.9849 26.1983 26.6377 24.3075C27.103 22.9608 27.5757 21.6161 28.0312 20.2665C28.1668 19.8657 28.3388 19.494 28.6396 19.1903C29.0295 18.7972 29.4983 18.5576 30.0547 18.4911C30.6985 18.4139 31.277 18.5709 31.7998 18.9491C32.6748 19.5821 33.4826 20.2904 34.2266 21.0692C34.5122 21.3685 34.7852 21.6787 35.0459 22.0009C35.2875 22.2994 35.5234 22.6019 35.752 22.91C35.7639 22.9262 35.7708 22.9419 35.7686 22.9618C35.9839 23.191 36.146 23.4576 36.3145 23.7196C36.7602 24.4134 37.1545 25.1357 37.4883 25.8885C37.6575 26.2697 37.8143 26.6575 37.96 27.0487C38.0574 27.3099 38.1515 27.573 38.2314 27.8397C38.4039 28.4149 38.5603 28.9935 38.6689 29.5848C38.7264 29.8981 38.7914 30.2117 38.8311 30.5272C38.88 30.9169 38.9474 31.3045 38.9541 31.7001C38.9571 31.8831 38.9856 32.068 38.9912 32.2528C38.9912 32.2595 39.0012 32.2667 39.0068 32.2733L39.0078 33.5419C38.9759 33.614 38.9957 33.6912 38.9854 33.7655C38.9965 34.0058 38.9658 34.2443 38.9453 34.4823C38.9083 34.9119 38.8521 35.3395 38.7822 35.7655C38.6512 36.5648 38.4638 37.3508 38.2207 38.1239C37.8872 39.1853 37.453 40.2054 36.9189 41.1835C36.3402 42.2431 35.657 43.2321 34.8721 44.1532C33.9511 45.2339 32.9078 46.1844 31.7549 47.0175C31.4069 47.269 31.0118 47.4006 30.5791 47.4384C29.358 47.545 28.291 46.7131 28.0635 45.6151C27.8757 44.7098 28.1294 43.9289 28.8379 43.3163C29.1634 43.0348 29.5236 42.7935 29.8506 42.5116C30.4388 42.0044 30.9774 41.451 31.4629 40.8475C32.4656 39.6019 33.2094 38.2198 33.6846 36.6981C33.9146 35.9611 34.0755 35.2092 34.1621 34.4423C34.186 34.2302 34.2093 34.0185 34.2324 33.8065C34.2959 32.7613 34.24 31.7227 34.0488 30.6923C33.8696 29.7252 33.5828 28.7908 33.1836 27.8905C32.7463 26.9051 32.1901 25.9892 31.5156 25.1444C31.5003 25.1253 31.4803 25.1093 31.4629 25.0917C31.458 25.0737 31.46 25.0566 31.4639 25.0399C31.4678 25.0234 31.4741 25.0072 31.4795 24.9911C31.4686 25.0235 31.4533 25.056 31.4629 25.0917C31.3845 25.329 31.3055 25.5663 31.2275 25.8036C31.0696 26.284 30.9132 26.7649 30.7549 27.245C30.6321 27.618 30.5064 27.9907 30.3848 28.3641C30.2626 28.7384 30.145 29.1149 30.0225 29.4891C29.9165 29.8125 29.8042 30.1344 29.6982 30.4579C29.3726 31.4511 29.0498 32.4464 28.7227 33.4393C28.6555 33.6438 28.5967 33.8521 28.5107 34.0507C28.4585 34.2775 28.3731 34.4944 28.3008 34.7147C28.1152 35.2799 27.9268 35.8438 27.7412 36.4091C27.4286 37.3605 27.1179 38.3131 26.8057 39.2645C26.5379 40.0798 26.2685 40.8949 26 41.7098C25.7312 42.5251 25.4657 43.3414 25.1924 44.1551C24.9444 44.8936 24.7082 45.6352 24.458 46.3729C24.2899 46.8686 24.1334 47.3692 23.9717 47.8671C23.8705 48.1781 23.7821 48.4946 23.6582 48.7967C23.3598 49.5254 22.8267 50.0088 22.0527 50.2176C21.9284 50.2512 21.7995 50.2697 21.6729 50.2948H21.2324C21.0879 50.2594 20.9386 50.2476 20.7959 50.203C19.956 49.9405 19.4123 49.3935 19.1572 48.5594C19.0262 48.131 18.8783 47.707 18.7383 47.2811C18.4893 46.5236 18.2412 45.7659 17.9922 45.0087C17.6553 43.9844 17.3166 42.9606 16.9805 41.9364C16.6196 40.8369 16.2611 39.7361 15.9004 38.6366C15.6091 37.7487 15.3154 36.8615 15.0234 35.9735C14.799 35.29 14.5752 34.6062 14.3516 33.9227C14.3437 33.8987 14.3378 33.8739 14.3311 33.8495C14.2311 33.6216 14.1695 33.3807 14.0908 33.1454C13.7939 32.2563 13.5006 31.3651 13.207 30.4745C12.9576 29.7167 12.709 28.9588 12.46 28.201C12.2049 27.4246 11.9483 26.6477 11.6943 25.871C11.6511 25.7387 11.6098 25.6056 11.5664 25.4735L11.4287 25.08C10.6313 26.0643 9.99848 27.1432 9.52832 28.3153C9.28815 28.914 9.10055 29.5284 8.95117 30.1551C8.81411 30.7309 8.74071 31.3151 8.67871 31.9022C8.63466 32.3189 8.63229 32.7363 8.63379 33.1532C8.6349 33.5463 8.66555 33.9393 8.70215 34.3309C8.70807 34.3953 8.70439 34.4605 8.72363 34.5233C8.76546 34.6746 8.7768 34.832 8.79883 34.9862C8.8612 35.4258 8.95294 35.8605 9.07617 36.286C9.2233 36.7938 9.37901 37.3014 9.59375 37.787C9.8017 38.2562 10.0229 38.7189 10.2764 39.1669C10.59 39.7215 10.9495 40.2466 11.3408 40.7489C11.5963 41.077 11.881 41.3827 12.1641 41.6884C12.3354 41.8735 12.5171 42.0495 12.6992 42.2225C12.9067 42.4194 13.1384 42.592 13.3574 42.7772C13.5722 42.9588 13.8132 43.1071 14.0283 43.288C14.4506 43.6431 14.7286 44.0854 14.834 44.6268L14.8359 44.6278C15.0008 45.4754 14.759 46.2013 14.1406 46.8016C13.7884 47.1437 13.3581 47.3427 12.8682 47.4188C12.6042 47.4597 12.3417 47.455 12.0811 47.41C11.6546 47.3366 11.2865 47.1382 10.9463 46.8788C10.4721 46.5171 10.0064 46.146 9.56543 45.745C9.35185 45.5505 9.14603 45.3487 8.94141 45.1454C7.85318 44.0648 6.93425 42.8572 6.1709 41.5341C5.41429 40.2224 4.84372 38.8343 4.45605 37.3739C4.28986 36.7483 4.15836 36.1155 4.06836 35.4745C4.02765 35.1851 3.98294 34.8957 3.96875 34.6034C3.93032 34.2186 3.90278 33.8331 3.89941 33.4462C3.89904 33.1247 3.89844 32.8022 3.89844 32.4803C3.91041 31.7247 3.99025 30.9753 4.10449 30.2284C4.22659 29.431 4.41059 28.6476 4.64844 27.8778C4.90575 27.0455 5.22657 26.2361 5.60938 25.451C5.97724 24.6963 6.39985 23.9718 6.87305 23.2772C6.92972 23.194 6.99394 23.1157 7.05469 23.035C7.06103 23.0276 7.06786 23.02 7.07422 23.0126C7.08601 23.0104 7.09243 23.0039 7.08984 22.9911L7.09082 22.9891C7.1543 22.8619 7.24826 22.7552 7.33301 22.6425C7.93643 21.8376 8.60552 21.0895 9.33887 20.3983C9.91433 19.8558 10.5239 19.3515 11.1689 18.8925ZM32.001 23.4618C31.9866 23.4848 31.9747 23.5088 31.9639 23.5331L32.001 23.4618ZM10.7275 23.2157C10.7861 23.2934 10.8412 23.3759 10.8936 23.4628L10.8135 23.3358C10.7857 23.2946 10.7569 23.2546 10.7275 23.2157ZM13.9092 22.7186C13.8896 22.7186 13.8792 22.7295 13.8721 22.744C13.8605 22.7522 13.849 22.7612 13.8379 22.7694C13.8323 22.7727 13.8198 22.7726 13.8311 22.7831C13.834 22.7794 13.8379 22.7759 13.8408 22.7723C13.8568 22.773 13.8712 22.7684 13.8809 22.7548C13.8976 22.7485 13.9177 22.7443 13.9092 22.7186ZM13.9707 22.6727C13.955 22.6779 13.936 22.6795 13.9404 22.705C13.9643 22.7124 13.9695 22.695 13.9766 22.6796C13.9841 22.6748 13.9915 22.6703 13.999 22.6659C13.9968 22.664 13.9933 22.6606 13.9922 22.661C13.9849 22.6646 13.9777 22.6687 13.9707 22.6727Z" fill="#777777"/>
<path d="M104.195 35.2938C105.452 35.2938 106.759 35.8491 107.605 36.7176L106.36 38.1893C105.804 37.5137 104.982 37.0918 104.232 37.0917C102.89 37.0917 101.874 38.1529 101.874 39.5399C101.874 40.9269 102.89 42.0253 104.232 42.0253C104.946 42.0252 105.768 41.6391 106.36 41.036L107.617 42.3632C106.71 43.2921 105.368 43.9071 104.123 43.9071C101.571 43.9069 99.6729 42.0374 99.6729 39.5643C99.673 37.0913 101.62 35.2939 104.195 35.2938Z" fill="#777777"/>
<path fill-rule="evenodd" clip-rule="evenodd" d="M74.6328 35.3661C76.8699 35.3661 78.1514 36.4283 78.1514 38.3104C78.1513 39.6009 77.6072 40.5292 76.6162 41.0243L78.3936 43.8114H75.9512L74.6934 41.4335H73.001V43.8104H70.8486V35.3661H74.6328ZM73.001 39.745H74.6328C75.5639 39.745 76.1084 39.2742 76.1084 38.3817C76.1083 37.4895 75.5638 37.0555 74.6328 37.0555H73.001V39.745Z" fill="#777777"/>
<path d="M51.2256 41.579L53.3896 35.3661H55.6025L52.2764 43.8104H50.0527L46.7637 35.3661H49.0605L51.2256 41.579Z" fill="#777777"/>
<path d="M66.1943 37.0555H61.7207V38.7323H65.7588V40.4208H61.7207V42.1219H66.3271V43.8104H59.5684V35.3661H66.1943V37.0555Z" fill="#777777"/>
<path d="M89.2021 37.0907H86.6514V43.8104H84.499V37.0907H81.9717V35.3544H89.2021V37.0907Z" fill="#777777"/>
<path d="M95.4053 43.8104H93.2529V35.3661H95.4053V43.8104Z" fill="#777777"/>
<path fill-rule="evenodd" clip-rule="evenodd" d="M120.168 43.8104H117.871L117.267 42.2548H113.565L112.949 43.8104H110.736L114.388 35.3661H116.601L120.168 43.8104ZM114.195 40.6259H116.637L115.428 37.5009L114.195 40.6259Z" fill="#777777"/>
<path d="M126.237 42.0135H129.828V43.8104H124.085V35.3661H126.237V42.0135Z" fill="#777777"/>
<path d="M140.612 37.0555H136.139V38.7323H140.178V40.4208H136.139V42.1219H140.746V43.8104H133.987V35.3661H140.612V37.0555Z" fill="#777777"/>
<path fill-rule="evenodd" clip-rule="evenodd" d="M51.6367 19.2714C54.2478 19.2715 56.2186 21.1046 56.2188 23.5536C56.2188 26.0141 54.2604 27.8845 51.6367 27.8846C49.0128 27.8846 47.0664 26.0262 47.0664 23.5536C47.0666 21.081 49.0255 19.2714 51.6367 19.2714ZM51.6611 21.0682C50.3557 21.0682 49.2666 22.1427 49.2666 23.5663C49.2668 24.9897 50.3673 26.0868 51.6611 26.0868C52.9548 26.0868 54.0067 24.9897 54.0068 23.5663C54.0068 22.1427 52.9665 21.0683 51.6611 21.0682Z" fill="#777777"/>
<path fill-rule="evenodd" clip-rule="evenodd" d="M64.2715 19.3436C66.5084 19.3437 67.7899 20.4052 67.79 22.287C67.79 23.5779 67.2453 24.5067 66.2539 25.0018L68.0312 27.788H65.5889L64.332 25.411H62.6396V27.788H60.4873V19.3436H64.2715ZM62.6396 23.7225H64.2715C65.2026 23.7225 65.7471 23.2517 65.7471 22.3592C65.747 21.4669 65.2021 21.0321 64.2715 21.0321H62.6396V23.7225Z" fill="#777777"/>
<path fill-rule="evenodd" clip-rule="evenodd" d="M76.374 19.3436C78.2725 19.3436 79.4824 20.1641 79.4824 21.455C79.4824 22.3474 78.9256 23.059 78.0312 23.3124C79.0952 23.5176 79.7715 24.3504 79.7715 25.4481C79.7713 26.8835 78.5146 27.7879 76.5195 27.788H72.3721V19.3436H76.374ZM74.5117 26.1356H76.2529C77.0509 26.1356 77.5466 25.7853 77.5469 25.1825C77.5469 24.6153 77.0511 24.2645 76.2529 24.2645H74.5117V26.1356ZM74.5117 22.7216H76.2529C76.8815 22.7216 77.2803 22.3832 77.2803 21.8407C77.2802 21.2982 76.8814 20.9842 76.2529 20.9842H74.5117V22.7216Z" fill="#777777"/>
<path d="M86.3008 27.788H84.1484V19.3436H86.3008V27.788Z" fill="#777777"/>
<path d="M97.5938 21.0682L95.043 21.0692V27.788H92.8906V21.0692H90.3633V19.3319H97.5938V21.0682Z" fill="#777777"/>
<path fill-rule="evenodd" clip-rule="evenodd" d="M109.262 27.788H106.965L106.36 26.2313H102.66L102.044 27.788H99.8311L103.482 19.3436H105.694L109.262 27.788ZM103.289 24.6024H105.731L104.521 21.4784L103.289 24.6024Z" fill="#777777"/>
<path d="M21.376 21.8094C21.7837 21.6601 22.1783 21.6957 22.502 21.9891C22.8208 22.2784 22.8869 22.6582 22.7734 23.0663C22.7166 23.2708 22.6161 23.458 22.5078 23.6395C22.257 24.0592 22.0412 24.4965 21.8252 24.9335C21.7424 25.101 21.6599 25.2688 21.5752 25.4354C21.5569 25.4715 21.5378 25.5073 21.5176 25.5467C21.4341 25.3855 21.4247 25.1272 21.4902 24.8934C21.5578 24.6539 21.6838 24.442 21.8164 24.2342C21.8513 24.1795 21.8864 24.1246 21.9219 24.0702C22.0587 23.8599 22.1952 23.6499 22.2979 23.4198C22.3946 23.2028 22.4672 22.9794 22.4639 22.7382L22.4717 22.7264C22.4718 22.7256 22.47 22.7241 22.4688 22.7225L22.4678 22.7206L22.458 22.7323C22.4087 22.7723 22.3711 22.8224 22.333 22.8729C22.3023 22.9135 22.2711 22.9545 22.2334 22.9911C22.2035 22.9711 22.1934 22.9402 22.1836 22.91C22.1802 22.8998 22.1769 22.8894 22.1729 22.8798C22.1393 22.8004 22.1075 22.7197 22.0762 22.6395C22.063 22.6056 22.0495 22.5717 22.0361 22.538C21.9368 22.2862 21.7409 22.1698 21.4775 22.1473C21.3609 22.1373 21.244 22.1275 21.1201 22.1171C21.0703 22.1128 21.0194 22.1088 20.9668 22.1044C21.0885 21.9626 21.2209 21.8664 21.376 21.8094Z" fill="#777777"/>
<path d="M21.0137 21.703C20.9687 21.7422 20.927 21.7783 20.8867 21.8153C20.404 22.2578 20.2686 22.7869 20.4844 23.4032C20.553 23.5996 20.6442 23.7857 20.7412 23.9696C20.7451 23.977 20.7503 23.9849 20.7559 23.9921C20.7705 24.0111 20.7864 24.0306 20.7734 24.0585C20.4203 23.7548 20.1816 23.3874 20.1299 22.9178C20.0731 22.3994 20.3862 21.9069 20.9121 21.6884C20.9205 21.6848 20.929 21.6804 20.9375 21.6766C20.9812 21.6577 21.0279 21.6382 21.0938 21.6327C21.0657 21.6576 21.039 21.6808 21.0137 21.703Z" fill="#777777"/>
<path d="M22.8135 12.8778C23.1388 12.8563 23.3215 13.0018 23.3633 13.3221C23.3932 13.5489 23.4169 13.7776 23.4141 14.0077C23.4282 14.1454 23.4391 14.2838 23.4492 14.4217C23.4578 14.538 23.4656 14.6546 23.4766 14.7704L23.4795 14.7938C23.5041 15.058 23.5289 15.3226 23.5547 15.5868L23.5557 15.6024C23.6055 16.1179 23.6556 16.6334 23.7021 17.1493C23.7215 17.3658 23.744 17.584 23.8066 17.7909C23.8497 17.9321 23.92 18.0687 24.0088 18.1932C24.2784 18.5726 24.5663 18.9383 24.8584 19.3007C25.1459 19.6579 25.1703 20.1427 24.9062 20.5155C24.6686 20.8511 24.427 21.1837 24.1855 21.5165C24.0813 21.6601 23.9769 21.8042 23.873 21.9481C23.8675 21.9555 23.8615 21.9627 23.8516 21.9735C23.8455 21.9802 23.8375 21.9884 23.8281 21.9989C23.8205 21.9426 23.8134 21.8893 23.8066 21.8378C23.7971 21.7645 23.7879 21.6943 23.7783 21.6249C23.739 21.3434 23.6856 21.0653 23.543 20.8134C23.4337 20.6202 23.2824 20.4662 23.0859 20.3339C23.0799 20.3526 23.0735 20.3694 23.0684 20.3856C23.0619 20.4061 23.056 20.4253 23.0498 20.4442C22.9045 20.8911 22.6091 21.1827 22.1396 21.2831C21.6909 21.379 21.2371 21.4068 20.7812 21.3368C20.2908 21.2615 19.962 20.9826 19.7764 20.5331C19.7594 20.4916 19.7434 20.4499 19.7266 20.4042C19.7187 20.3828 19.711 20.3601 19.7021 20.3368C19.0465 20.7439 18.9768 21.3951 18.9473 22.0712C18.9131 22.0557 18.8975 22.032 18.8828 22.0096C18.8794 22.0043 18.8757 21.999 18.8721 21.994C18.5289 21.5198 18.1858 21.0451 17.8438 20.5702C17.5775 20.2001 17.5835 19.724 17.8643 19.3641C17.9271 19.2838 17.9896 19.2031 18.0527 19.1229C18.2637 18.8546 18.4751 18.5867 18.6758 18.3104C18.8572 18.0602 18.947 17.784 18.9746 17.4774C19.0217 16.9571 19.0527 16.4353 19.0811 15.9139C19.0905 15.7398 19.102 15.5655 19.1133 15.3915C19.1369 15.0283 19.1602 14.6646 19.167 14.3007C19.168 14.2426 19.1741 14.1846 19.1807 14.1268C19.1836 14.1008 19.187 14.0746 19.1895 14.0487C19.1904 14.0153 19.1915 13.9816 19.1924 13.9481C19.1977 13.7301 19.203 13.5112 19.2432 13.2967C19.2895 13.0506 19.4703 12.9121 19.7246 12.8866C19.8995 12.8692 20.0695 12.8966 20.2393 12.9237C20.3104 12.935 20.3816 12.9459 20.4531 12.954C20.9039 13.0049 21.3548 13.0037 21.8066 12.9735C21.9737 12.9623 22.1402 12.9437 22.3066 12.9257C22.4753 12.9073 22.6442 12.889 22.8135 12.8778Z" fill="#777777"/>
<path d="M20.7676 9.87194C21.1193 9.60916 21.6256 9.66016 21.9023 10.0009C22.2361 10.4116 22.4805 10.8753 22.6943 11.3553C22.8549 11.7159 22.9907 12.0861 23.1191 12.4589C23.1222 12.4681 23.124 12.4784 23.127 12.4921C23.1285 12.4995 23.1305 12.5081 23.1328 12.5184H19.4727C19.4727 12.513 19.473 12.5075 19.4727 12.5028C19.4721 12.4937 19.4715 12.4856 19.4736 12.4784C19.7123 11.7288 19.9799 10.9909 20.4082 10.3221C20.4206 10.3027 20.433 10.2831 20.4453 10.2635C20.5354 10.1206 20.6263 9.97741 20.7676 9.87194Z" fill="#777777"/>
</svg>
