<svg width="665" height="108" viewBox="0 0 665 108" fill="none" xmlns="http://www.w3.org/2000/svg">
<g clip-path="url(#clip0_396_469)">
<path d="M0 105.867L37.3517 3.36387H63.2472L99.9959 105.867H74.3543L70.1336 93.173H30.5288L26.308 105.867H0ZM63.6597 73.5927L50.3312 33.0993L37.0026 73.5927H63.6597Z" fill="black"/>
<path d="M106.628 3.49081H131.794V105.867H106.628V3.49081Z" fill="black"/>
<path d="M171.272 3.36387H197.675L216.24 67.1188L235.059 3.36387H256.099L275.266 67.1188L293.45 3.36387H319.6L289.071 105.867H263.779L245.595 43.8256L227.791 105.867H202.245L171.272 3.36387Z" fill="black"/>
<path d="M437.082 3.23694H462.723C496.616 3.23694 509.183 23.0394 509.183 44.3333C509.183 56.4242 505.057 68.0074 496.108 75.7189L511.69 105.867H482.684L474.084 85.0806C471.704 85.4615 469.102 85.5884 466.373 85.5884H462.152V106.026H437.113V3.23694H437.082ZM467.103 61.1527C478.686 61.1527 484.652 53.9172 484.652 44.3333C484.652 34.7495 478.559 27.6409 467.103 27.6409H462.12V61.1527H467.103Z" fill="black"/>
<path d="M520.639 3.11H545.678V82.0659H575.826V105.867H520.639V3.11Z" fill="black"/>
<path d="M585.06 3.11H609.083C648.307 3.11 665 26.2763 665 54.1711C665 82.0659 648.307 105.867 609.083 105.867H585.06V3.11ZM612.193 80.5743C631.488 80.5743 639.834 68.6104 639.834 54.1711C639.834 39.7318 631.488 28.2756 612.193 28.2756H610.067V80.5743H612.193Z" fill="black"/>
<path d="M335.118 38.1451C338.482 38.1451 341.211 35.4159 341.211 32.052C341.211 28.6881 338.482 25.959 335.118 25.959C331.754 25.959 329.025 28.6881 329.025 32.052C329.025 35.4159 331.754 38.1451 335.118 38.1451Z" fill="black"/>
<path d="M335.118 68.293C331.754 68.293 329.025 71.0222 329.025 74.3861C329.025 77.7499 331.754 80.4791 335.118 80.4791C338.482 80.4791 341.211 77.7499 341.211 74.3861C341.211 71.0222 338.482 68.293 335.118 68.293Z" fill="black"/>
<path d="M417.121 42.9687C416.01 42.9687 414.931 43.1591 413.915 43.4765C407.188 45.6979 399.92 42.0167 397.699 35.289C397.477 34.5591 397.128 33.8926 396.747 33.2579C394.779 30.1797 396.525 26.0542 400.111 25.2925C404.236 24.404 407.346 20.7227 407.346 16.3434C407.346 11.2975 403.252 7.17204 398.175 7.17204C393.097 7.17204 389.004 11.2658 389.004 16.3434C389.004 18.1522 389.543 19.8024 390.432 21.2305C392.399 24.3088 390.654 28.4343 387.068 29.1959C382.942 30.0845 379.832 33.7657 379.832 38.1451C379.832 43.1909 383.926 47.3164 389.004 47.3164C389.86 47.3164 390.654 47.1895 391.447 46.9673C397.318 45.3488 403.316 48.078 406.109 53.1873C403.284 58.2331 397.286 60.8988 391.511 59.2486C390.717 59.0265 389.892 58.8995 389.004 58.8995C383.958 58.8995 379.832 62.9933 379.832 68.0709C379.832 72.4502 382.942 76.1315 387.068 77.02C390.654 77.7817 392.367 81.9072 390.432 84.9854C389.543 86.3818 389.004 88.0637 389.004 89.8726C389.004 94.9184 393.097 99.0439 398.175 99.0439C403.252 99.0439 407.346 94.9501 407.346 89.8726C407.346 85.4932 404.236 81.812 400.111 80.9234C396.525 80.1618 394.811 76.0363 396.747 72.958C397.128 72.355 397.445 71.6886 397.699 70.9905C399.952 64.3262 407.188 60.7084 413.884 62.9616C414.899 63.3107 416.01 63.5011 417.152 63.5011C422.833 63.5011 427.403 58.8995 427.403 53.2508C427.403 47.602 422.801 43.0005 417.152 43.0005L417.121 42.9687Z" fill="black"/>
<path d="M368.725 68.0709C368.725 63.0251 364.631 58.8995 359.554 58.8995C358.57 58.8995 357.618 59.0582 356.698 59.3438C350.351 61.4066 343.591 58.6774 340.291 53.1556C343.559 47.5703 350.319 44.7776 356.729 46.8404C357.618 47.126 358.538 47.2847 359.522 47.2847C364.568 47.2847 368.693 43.1909 368.693 38.1133C368.693 33.734 365.583 30.0527 361.458 29.1642C357.872 28.4025 356.158 24.277 358.094 21.1988C358.982 19.8024 359.522 18.1205 359.522 16.3116C359.522 11.2658 355.428 7.1403 350.351 7.1403C345.273 7.1403 341.179 11.2341 341.179 16.3116C341.179 20.691 344.289 24.3722 348.415 25.2608C352.001 26.0224 353.715 30.1479 351.779 33.2262C351.366 33.8609 351.017 34.5591 350.795 35.3207C348.415 42.7466 340.513 46.8404 333.087 44.4603C332.198 44.1747 331.278 44.016 330.294 44.016C325.249 44.016 321.123 48.1098 321.123 53.1873C321.123 58.2649 325.217 62.3586 330.294 62.3586C331.278 62.3586 332.23 62.2 333.15 61.9143C340.513 59.5025 348.415 63.5328 350.827 70.8953C351.049 71.6252 351.398 72.2916 351.81 72.958C353.778 76.0363 352.033 80.1618 348.447 80.9234C344.321 81.812 341.211 85.4932 341.211 89.8726C341.211 94.9184 345.305 99.0439 350.382 99.0439C355.46 99.0439 359.554 94.9501 359.554 89.8726C359.554 88.0637 359.014 86.4135 358.126 84.9855C356.158 81.9072 357.904 77.7817 361.49 77.02C365.615 76.1315 368.725 72.4503 368.725 68.0709Z" fill="black"/>
<path d="M412.995 68.293C409.631 68.293 406.902 71.0222 406.902 74.3861C406.902 77.7499 409.631 80.4791 412.995 80.4791C416.359 80.4791 419.088 77.7499 419.088 74.3861C419.088 71.0222 416.359 68.293 412.995 68.293Z" fill="black"/>
<path d="M412.995 38.1451C416.359 38.1451 419.088 35.4159 419.088 32.052C419.088 28.6881 416.359 25.959 412.995 25.959C409.631 25.959 406.902 28.6881 406.902 32.052C406.902 35.4159 409.631 38.1451 412.995 38.1451Z" fill="black"/>
<path d="M374.279 12.2178C377.642 12.2178 380.372 9.48867 380.372 6.12479C380.372 2.76092 377.642 0.0317345 374.279 0.0317345C370.915 0.0317345 368.186 2.76092 368.186 6.12479C368.186 9.48867 370.915 12.2178 374.279 12.2178Z" fill="black"/>
<path d="M374.279 94.8232C370.915 94.8232 368.186 97.5524 368.186 100.916C368.186 104.28 370.915 107.009 374.279 107.009C377.642 107.009 380.372 104.28 380.372 100.916C380.372 97.5524 377.642 94.8232 374.279 94.8232Z" fill="black"/>
</g>
<defs>
<clipPath id="clip0_396_469">
<rect width="665" height="107.041" fill="white"/>
</clipPath>
</defs>
</svg>
