<?xml version="1.0" encoding="UTF-8"?>
<svg width="250px" height="187px" viewBox="0 0 250 187" version="1.1" xmlns="http://www.w3.org/2000/svg" xmlns:xlink="http://www.w3.org/1999/xlink">
    <title>techeu-color</title>
    <g id="techeu-color" stroke="none" stroke-width="1" fill="none" fill-rule="evenodd">
        <g id="Group" transform="translate(0.000000, 0.030000)" fill-rule="nonzero">
            <path d="M249.89,79.69 L249.89,72.5 C246.33,71.33 242.53,70.68 238.58,70.68 C234.58,70.68 230.73,71.35 227.13,72.55 L227.13,79.78 C230.65,78.28 234.51,77.42 238.58,77.42 C242.58,77.42 246.4,78.23 249.89,79.69 M249.89,89.91 L249.89,85.62 C246.51,83.82 242.66,82.79 238.58,82.79 C234.43,82.79 230.54,83.85 227.13,85.7 L227.13,89.99 C230.4,87.77 234.34,86.47 238.58,86.47 C242.76,86.48 246.65,87.75 249.89,89.91 M238.58,67.6 C234.6,67.6 230.76,68.2 227.13,69.31 L227.13,58 C227.13,54.14 226.34,51.3 224.77,49.48 C223.2,47.66 220.53,46.75 216.76,46.75 C212.09,46.75 208.79,48.23 206.86,51.19 L206.86,103.45 L184.16,103.45 L184.16,0 L206.86,0 L206.86,38.39 C211.71,32.28 217.9,29.23 225.45,29.23 C233.48,29.23 239.55,31.61 243.63,36.37 C247.72,41.13 249.8,48.16 249.89,57.45 L249.89,69.26 C246.3,68.19 242.51,67.6 238.58,67.6 M149.94,87.3 C153.13,87.3 155.59,86.44 157.35,84.71 C159.1,82.98 159.95,80.57 159.91,77.47 L181.19,77.47 C181.19,85.46 178.33,92.02 172.6,97.13 C166.88,102.25 159.5,104.81 150.48,104.81 C139.88,104.81 131.53,101.49 125.42,94.84 C119.31,88.19 116.26,78.99 116.26,67.23 L116.26,66.29 C116.26,58.93 117.62,52.43 120.34,46.79 C123.06,41.16 126.97,36.82 132.09,33.79 C137.21,30.76 143.27,29.24 150.27,29.24 C159.74,29.24 167.26,31.87 172.83,37.12 C178.4,42.37 181.18,49.49 181.18,58.47 L159.9,58.47 C159.9,54.7 158.98,51.8 157.14,49.78 C155.3,47.76 152.83,46.75 149.73,46.75 C143.85,46.75 140.41,50.5 139.43,58 C139.11,60.38 138.96,63.66 138.96,67.83 C138.96,75.15 139.83,80.22 141.59,83.05 C143.34,85.88 146.12,87.3 149.94,87.3 M80.08,46.75 C73.43,46.75 69.48,51.15 68.23,59.95 L91.13,59.95 L91.13,58.2 C91.22,54.56 90.3,51.75 88.37,49.75 C86.43,47.75 83.67,46.75 80.08,46.75 M82.64,104.81 C71.46,104.81 62.41,101.48 55.5,94.81 C48.58,88.14 45.13,79.47 45.13,68.78 L45.13,66.9 C45.13,59.45 46.51,52.87 49.27,47.17 C52.03,41.47 56.06,37.06 61.36,33.94 C66.66,30.82 72.95,29.26 80.22,29.26 C90.46,29.26 98.54,32.44 104.46,38.79 C110.39,45.14 113.35,54 113.35,65.36 L113.35,74.18 L68.23,74.18 C69.04,78.27 70.81,81.48 73.55,83.81 C76.29,86.15 79.83,87.31 84.19,87.31 C91.37,87.31 96.99,84.8 101.03,79.77 L111.4,92.03 C108.57,95.93 104.56,99.04 99.38,101.36 C94.19,103.65 88.61,104.81 82.64,104.81 M31.99,12.48 L31.99,30.6 L43.98,30.6 L43.98,46.35 L31.99,46.35 L31.99,79.69 C31.99,82.43 32.49,84.34 33.47,85.41 C34.46,86.49 36.41,87.03 39.33,87.03 C41.58,87.03 43.46,86.9 44.99,86.63 L44.99,102.86 C40.9,104.16 36.64,104.81 32.19,104.81 C24.38,104.81 18.61,102.97 14.88,99.29 C11.15,95.61 9.29,90.02 9.29,82.52 L9.29,46.35 L-2.27373675e-13,46.35 L-2.27373675e-13,30.59 L9.29,30.59 L9.29,12.47 L31.99,12.47 L31.99,12.48 Z" id="Shape" fill="#001C48"></path>
            <path d="M249.77,106.91 C249.77,100.73 244.75,95.71 238.57,95.71 C232.39,95.71 227.37,100.73 227.37,106.91 C227.37,113.08 232.39,118.11 238.57,118.11 C244.75,118.1 249.77,113.08 249.77,106.91 M250,128.14 L250,123.84 C246.74,126.05 242.81,127.34 238.58,127.34 C234.33,127.34 230.39,126.04 227.11,123.81 L227.11,128.11 C230.52,129.97 234.42,131.03 238.58,131.03 C242.71,131.02 246.6,129.97 250,128.14 M250,141.28 L250,134.09 C246.48,135.57 242.63,136.4 238.58,136.4 C234.51,136.4 230.64,135.54 227.11,134.03 L227.11,141.27 C230.72,142.48 234.57,143.14 238.58,143.14 C242.57,143.13 246.4,142.48 250,141.28 M227.11,144.5 L227.11,161.85 C224.9,165.58 221.19,167.45 215.97,167.45 C209.89,167.45 206.85,164.32 206.85,158.07 L206.85,110.61 L184.1,110.61 L184.1,157.5 C184.1,166.23 186.16,173.37 190.28,178.02 C194.4,182.68 200.46,185.01 208.48,185.01 C216.67,185.01 223.18,181.93 227.99,175.76 L228.66,183.66 L250,183.66 L250,144.52 C246.38,145.62 242.55,146.22 238.58,146.22 C234.59,146.21 230.74,145.61 227.11,144.5 M147.27,126.81 C140.61,126.81 136.65,131.22 135.39,140.04 L158.35,140.04 L158.35,138.28 C158.44,134.63 157.52,131.81 155.58,129.81 C153.64,127.81 150.87,126.81 147.27,126.81 M149.84,185.01 C138.63,185.01 129.56,181.67 122.63,174.98 C115.7,168.3 112.23,159.6 112.23,148.89 L112.23,147 C112.23,139.53 113.61,132.94 116.38,127.22 C119.15,121.51 123.19,117.08 128.5,113.95 C133.81,110.82 140.11,109.01 147.41,109.01 C157.67,109.01 165.77,112.44 171.72,118.81 C177.66,125.18 180.63,134.06 180.63,145.44 L180.63,154.28 L135.39,154.28 C136.2,158.38 137.98,161.6 140.72,163.93 C143.47,166.27 147.02,167.44 151.39,167.44 C158.59,167.44 164.22,164.92 168.27,159.88 L178.67,172.17 C175.83,176.09 171.82,179.21 166.62,181.52 C161.42,183.85 155.83,185.01 149.84,185.01" id="Shape" fill="#ED1C24"></path>
        </g>
    </g>
</svg>