<svg width="961" height="240" viewBox="0 0 961 240" fill="none" xmlns="http://www.w3.org/2000/svg">
<path fill-rule="evenodd" clip-rule="evenodd" d="M176 85.7201C176 87.1907 176 88.6613 175.88 90.1319V90.3641C175.641 95.6273 174.845 100.813 173.57 105.805C171.817 112.926 169.148 119.699 165.642 126.007C164.208 128.638 160.264 128.367 159.029 125.62V125.542C158.671 124.691 158.272 123.801 157.834 122.911C157.538 122.306 157.22 121.723 156.896 121.13L156.895 121.129C156.809 120.971 156.722 120.812 156.635 120.652C156.61 120.605 156.585 120.558 156.56 120.511C156.56 120.466 156.532 120.434 156.509 120.407C156.493 120.389 156.48 120.373 156.48 120.356L156.479 120.356C156.001 119.505 155.524 118.653 155.006 117.841C154.958 117.726 154.883 117.611 154.813 117.504L154.812 117.504C154.765 117.431 154.719 117.362 154.687 117.299L154.679 117.287C154.403 116.866 154.126 116.443 153.811 115.983C153.452 115.442 153.094 114.938 152.695 114.397C151.221 112.346 149.628 110.411 147.915 108.592C147.357 107.973 146.759 107.392 146.162 106.85C146.109 106.799 146.056 106.743 146.003 106.687L146.002 106.687C145.896 106.575 145.79 106.463 145.684 106.386C143.333 104.103 140.824 102.013 138.155 100.155C136.92 99.3038 136.362 97.8332 136.681 96.4013C137.159 94.4276 137.517 92.3765 137.716 90.3254C137.796 89.6288 137.836 88.8935 137.876 88.1582C137.876 87.7325 137.896 87.3165 137.916 86.9005L137.916 86.8995C137.936 86.4838 137.955 86.0681 137.955 85.6427C137.955 81.2309 137.358 76.9353 136.203 72.9105C136.178 72.8278 136.154 72.7441 136.13 72.66C135.994 72.1932 135.854 71.7114 135.685 71.2851C133.255 63.7386 128.992 56.9662 123.375 51.5095C121.702 49.8454 119.87 48.2974 117.957 46.9042L117.878 46.8268C115.966 45.4336 113.974 44.1565 111.822 43.0729C108.755 41.4475 105.568 40.1317 102.182 39.1642C100.987 38.7772 99.8315 38.5063 98.6364 38.2741C95.2104 37.5388 91.665 37.1518 88.0399 37.1518C84.4147 37.1518 80.8691 37.5388 77.4431 38.2741C76.248 38.5063 75.0531 38.8159 73.8978 39.1642C70.432 40.1704 67.0855 41.5249 63.9782 43.189C63.3417 43.4982 62.7451 43.8459 62.1484 44.1937L62.1458 44.1952C58.7199 46.2463 55.5329 48.6844 52.7045 51.4321C51.1508 52.9414 49.6768 54.5668 48.3622 56.3083C44.8963 60.72 42.1875 65.751 40.4346 71.2077C40.2354 71.7495 40.0761 72.2913 39.9167 72.8331C38.7615 76.8579 38.1639 81.1535 38.1639 85.5653C38.1639 86.4167 38.164 87.2294 38.2436 88.0808V88.0832C38.2436 88.4694 38.2436 88.8556 38.3232 89.2418V89.474V89.9384V90.2867V90.3641C38.3642 90.5038 38.3842 90.6538 38.4048 90.8088L38.4048 90.8089C38.4241 90.9544 38.4441 91.1043 38.4827 91.2542C38.4827 91.4477 38.4827 91.6412 38.5624 91.8734V91.8739C38.5624 91.9511 38.5624 92.0284 38.6419 92.1056C38.6982 92.4063 38.7943 92.7263 38.888 93.0383L38.888 93.0384C38.927 93.1681 38.9655 93.2964 39.0006 93.4214C39.0802 93.8471 39.2395 94.2728 39.4387 94.6985C39.7574 95.4725 40.1559 96.2078 40.5543 96.9044C40.5543 96.9818 40.6339 97.0979 40.7534 97.1753C40.8146 97.2645 40.8732 97.3511 40.9305 97.4358C41.097 97.6821 41.2527 97.9124 41.4306 98.1428C41.6696 98.4911 41.9485 98.8394 42.2672 99.149L42.2674 99.1492C42.4267 99.3426 42.5859 99.536 42.7452 99.6521C42.7984 99.7037 42.8471 99.7553 42.8958 99.8069C42.9931 99.9101 43.0905 100.013 43.2233 100.116C43.8607 100.774 44.5377 101.316 45.2946 101.781C46.0117 102.245 46.7686 102.671 47.5654 103.058C47.6052 103.058 47.645 103.077 47.6849 103.096L47.6849 103.096C47.7247 103.116 47.7646 103.135 47.8044 103.135C48.1628 103.328 48.5212 103.445 48.8796 103.561L48.8801 103.561C50.5532 104.18 52.4255 104.528 54.3377 104.528H102.501C112.699 104.528 121.822 107.663 129.192 112.887C140.665 120.976 147.835 134.095 148.034 148.104C148.154 154.451 146.839 160.991 143.772 167.338C140.067 175.155 134.131 181.541 126.96 185.991C119.79 190.442 111.345 192.919 102.501 192.919H47.7647C45.8127 192.919 44.0598 191.835 43.1834 190.132L29.4396 163.004C27.7664 159.714 30.2364 155.844 34.0209 155.844H103.218C105.488 155.844 108.237 154.296 109.392 152.439C112.579 147.756 109.153 141.525 103.337 141.525H49.3581C46.689 141.525 44.0599 141.293 41.5103 140.906C23.7829 138.081 8.84379 125.929 3.4658 109.211C2.94792 107.663 2.54976 106.076 2.19123 104.49C0.757097 98.4137 0 92.0669 0 85.5266C0 82.7015 0.119657 79.9539 0.398516 77.2449C0.47819 76.1613 0.63744 75.1164 0.796788 74.0715C0.916299 73.0653 1.07563 72.0591 1.27481 71.0529C1.43416 70.1241 1.6334 69.1566 1.83259 68.2278C1.86846 68.071 1.89625 67.922 1.92323 67.7774C1.95618 67.6007 1.98792 67.4305 2.03172 67.2603C2.27054 66.1777 2.54916 65.1337 2.82778 64.0897L2.82851 64.0869C3.10737 62.9259 3.46589 61.8037 3.82442 60.6814L3.82444 60.6813C4.079 59.8467 4.359 59.0368 4.6441 58.2121C4.71593 58.0044 4.78808 57.7956 4.86024 57.5854C4.86024 57.4756 4.90021 57.3853 4.93767 57.3007C4.95306 57.266 4.96802 57.2322 4.97962 57.1984C5.11215 56.8507 5.2403 56.5031 5.36844 56.1555L5.36857 56.1552C5.62556 55.458 5.88255 54.7608 6.17493 54.0637C6.5733 53.0575 6.97166 52.1287 7.40986 51.1999C7.48954 50.9677 7.60887 50.6968 7.72838 50.4646C8.12633 49.5368 8.60388 48.6476 9.08141 47.7585L9.08295 47.7556V47.6782C10.1187 45.6271 11.2739 43.6147 12.469 41.641C13.6641 39.6673 14.9789 37.7323 16.3333 35.9134C16.3333 35.9134 16.3331 35.9134 16.4128 35.836C18.4445 33.0497 20.6755 30.4181 23.0658 27.8639C23.8625 27.0125 24.6592 26.1998 25.4958 25.3871C26.8502 24.0713 28.2445 22.7942 29.6786 21.5558C31.8298 19.6982 34.0607 17.9567 36.4111 16.2926C37.1016 15.8024 37.8275 15.3122 38.5534 14.822C38.9164 14.5769 39.2793 14.3318 39.6378 14.0867C40.7533 13.3901 41.8689 12.6935 43.0241 12.0357C44.1396 11.3778 45.2948 10.7199 46.4501 10.1394C48.7606 8.93966 51.1906 7.81737 53.6207 6.81117L53.6212 6.81094C54.856 6.30792 56.0907 5.80491 57.3255 5.37928C59.8352 4.48918 62.4246 3.67648 65.014 3.01859C65.5507 2.88823 66.0749 2.74568 66.5936 2.60462C66.9989 2.49442 67.4008 2.38513 67.8026 2.28329C68.7587 2.05109 69.675 1.85759 70.6311 1.66409H70.7106C73.3797 1.161 76.1285 0.735298 78.9171 0.464399C80.152 0.3483 81.3872 0.2322 82.6221 0.1935C84.4148 0.0774004 86.2472 0 88.0399 0C89.5138 0 90.9878 0 92.4617 0.1161C92.8601 0.1161 93.2186 0.1161 93.6568 0.1935C94.0075 0.218734 94.3539 0.239855 94.6988 0.260885L94.6989 0.260889C95.412 0.304363 96.1188 0.347453 96.8437 0.425699C97.0084 0.425699 97.1624 0.446362 97.3113 0.466335C97.4507 0.485018 97.5855 0.503098 97.7202 0.503098C98.8357 0.580498 99.9512 0.735297 101.027 0.890096C102.341 1.0836 103.616 1.27709 104.891 1.54799C105.488 1.62539 106.126 1.78019 106.723 1.93499C108.158 2.20589 109.592 2.55419 111.026 2.94119C112.101 3.17339 113.177 3.48299 114.253 3.83128C115.488 4.21828 116.723 4.60528 117.957 5.03098C120.507 5.92107 123.017 6.92727 125.447 8.04956C126.044 8.32046 126.642 8.59136 127.239 8.90096C127.468 9.01204 127.697 9.11993 127.924 9.22738L127.925 9.22746C128.49 9.49433 129.05 9.75848 129.59 10.062C129.829 10.1908 130.072 10.3197 130.315 10.4486C130.802 10.7067 131.289 10.9648 131.741 11.223C131.794 11.223 131.847 11.2574 131.9 11.2918C131.927 11.309 131.953 11.3262 131.98 11.3391L134.131 12.6161C135.326 13.3127 136.561 14.0867 137.756 14.8994C138.314 15.2477 138.832 15.596 139.39 16.0217C139.708 16.2538 140.027 16.4815 140.345 16.7093C140.983 17.1652 141.62 17.6212 142.258 18.1115L142.26 18.1126C142.538 18.3057 142.816 18.499 143.134 18.7694L144.768 20.0852C145.445 20.627 146.082 21.1688 146.72 21.7493C147.357 22.2911 147.955 22.8329 148.552 23.3747C149.867 24.5744 151.142 25.8128 152.337 27.0899C152.563 27.3411 152.802 27.5923 153.044 27.8461L153.045 27.8468L153.045 27.8472C153.399 28.2186 153.759 28.5956 154.09 28.9862C154.687 29.6054 155.245 30.2633 155.763 30.8825C156.116 31.2598 156.406 31.6371 156.717 32.0414L156.717 32.0415L156.838 32.1983C157.101 32.4823 157.364 32.808 157.612 33.1142C157.702 33.2252 157.789 33.3337 157.874 33.4367C158.105 33.7283 158.322 34.0199 158.534 34.304L158.535 34.3045C158.688 34.5103 158.839 34.7122 158.99 34.9072C159.547 35.6038 160.025 36.2617 160.503 36.9583C161.22 37.9645 161.898 38.932 162.535 39.9382C162.694 40.1317 162.814 40.3252 162.933 40.5574C163.65 41.6023 164.288 42.7246 164.925 43.8469V43.9243C165.642 45.1627 166.28 46.3624 166.917 47.6395C167.594 48.9553 168.192 50.2324 168.75 51.5482C169.188 52.5544 169.626 53.5606 170.064 54.6055L170.423 55.5343C170.821 56.5018 171.14 57.4306 171.459 58.4367C171.857 59.4042 172.136 60.333 172.415 61.3392C172.693 62.1906 172.972 63.0807 173.171 63.9708C173.53 65.2479 173.849 66.4863 174.088 67.8021L174.159 68.1395L174.159 68.1399C174.414 69.3373 174.662 70.5079 174.845 71.7108C175.601 76.2 176 80.8053 176 85.5266V85.7201ZM116.257 207.817C119.014 207.817 120.828 210.74 119.619 213.277C118.882 214.835 118.145 216.383 117.408 217.931C116.672 219.478 115.935 221.025 115.199 222.582C110.364 232.887 99.9751 240 88 240C76.0249 240 65.6742 232.887 60.801 222.582L60.7863 222.551C59.3179 219.447 57.8496 216.343 56.3813 213.277C55.1724 210.74 56.9857 207.817 59.7434 207.817H116.257ZM108 73.6869C108 84.7326 99.0458 93.6869 88.0001 93.6869C76.9544 93.6869 68 84.7326 68 73.6869C68 62.6412 76.9544 53.6869 88.0001 53.6869C99.0458 53.6869 108 62.6412 108 73.6869Z" fill="white"/>
<path d="M935.483 96.1348L935.491 96.1387L935.499 96.1436C943.089 100.306 949.013 106.446 953.24 114.66V114.746L953.358 114.967C957.743 123.159 960 133.208 960 145.203V151.423H885.794L885.951 153.594C886.386 159.642 888.556 165.014 892.435 169.607L892.446 169.621L892.459 169.635C896.667 174.265 902.521 176.512 909.76 176.512H910.742L910.755 176.511C915.594 176.388 919.637 175.462 922.564 173.457L922.566 173.455C925.503 171.433 927.647 169.259 928.84 166.928L928.85 166.908L928.858 166.889C928.9 166.799 928.942 166.718 929.001 166.606C929.046 166.521 929.102 166.409 929.156 166.284C929.274 166.072 929.399 165.795 929.421 165.746L929.723 165.152H958.491L958.1 166.588V166.622C957.454 168.883 956.191 171.853 954.342 175.599C952.509 179.073 949.802 182.694 946.196 186.42C942.679 189.898 937.937 192.914 931.912 195.448C926.5 197.636 919.723 198.842 911.51 199H909.869C900.246 199 892.051 197.477 885.146 194.467C878.317 191.297 872.621 187.247 868.019 182.242V182.222L867.778 181.941C863.798 177.289 860.675 172.156 858.432 166.549L857.995 165.421L857.629 164.382V164.354L857.579 164.202C855.452 157.674 854.389 150.949 854.389 144.023C854.389 137.104 855.451 130.741 857.618 124.21L857.619 124.204C859.701 117.815 862.92 112.1 867.205 106.976H867.217L867.517 106.616C871.852 101.412 877.366 97.2817 884.146 94.2598L884.155 94.2559C899.789 87.0919 920.445 87.5361 935.483 96.1348ZM770.317 91.207V151.793L770.308 152.283C770.183 158.54 772.153 164.023 775.88 167.837C779.582 171.656 784.878 173.639 791.107 173.312H791.214C797.328 173.395 802.406 171.286 805.865 167.456L805.866 167.457C809.239 163.765 810.956 158.608 811.028 152.855V91.2373H842.738V150.853H842.658V152.897C842.883 168.204 836.513 179.6 826.821 187.193L826.82 187.194C817.068 194.851 803.897 198.74 790.647 198.74C777.398 198.74 764.227 194.84 754.474 187.193C745.094 179.834 738.796 168.909 738.606 154.312L738.607 91.207H770.317ZM278.774 45.8291C287.479 45.9294 294.852 47.0556 300.898 49.1924L301.06 49.249H301.104C307.47 51.3833 312.758 54.1544 316.934 57.5176L316.939 57.5225L316.945 57.5264C320.97 60.675 324.177 63.9945 326.621 67.5L326.624 67.5039L327.124 68.2139L327.131 68.2246C329.824 71.9495 331.706 75.4957 332.909 78.873L332.914 78.8857L332.918 78.8975C334.219 82.273 335.048 84.9365 335.463 86.9121L335.717 88.1572H304.032L303.691 87.1357V87.0898L303.659 86.9658C303.131 84.9266 301.915 82.8682 300.251 80.75V80.6963L300.064 80.4355C298.164 77.7778 295.321 75.556 291.72 73.6992C288.093 71.8228 283.415 70.9099 277.812 70.7881H276.671C268.203 70.7881 261.617 72.5768 257.583 76.7305C253.858 80.4552 251.811 84.606 251.811 89.127V89.584C251.94 94.3611 254.218 98.1103 258.404 100.568L258.416 100.575C262.271 102.771 267.017 104.421 272.489 105.546L272.499 105.548L272.509 105.549L273.589 105.749L273.596 105.751L273.603 105.752L295.383 109.461C303.152 110.852 310.269 113.137 316.812 116.271L318.112 116.909C324.927 120.351 330.356 124.946 334.424 130.721L334.428 130.726C338.452 136.361 340.502 143.455 340.502 152.053V152.864C340.345 161.374 338.047 169.041 333.562 175.947L333.401 176.195V176.27C328.924 183.042 322.387 188.486 313.638 192.6L312.832 192.958C304.453 196.599 294.257 198.474 282.231 198.59H281.001C270.77 198.59 262.125 197.449 255.075 195.214C248.475 192.951 242.974 190.117 238.484 186.714L237.657 186.062C233.667 182.79 230.369 179.381 227.725 175.866L226.88 174.647V174.585L226.718 174.336C224.36 170.716 222.537 167.272 221.257 164.032L220.82 162.862V162.803L220.771 162.651C219.549 158.917 218.762 155.995 218.39 153.788V153.682L218.377 153.601L218.178 152.393H250.622L250.82 153.175C250.894 153.47 250.953 153.707 251.021 154.002V154.06L251.058 154.191L251.178 154.622L251.181 154.636L251.186 154.648C251.888 156.915 253.22 159.382 255.104 162.041L255.122 162.064C257.276 164.922 260.322 167.413 264.149 169.628L264.156 169.631L264.163 169.635L264.934 170.065L264.954 170.076L264.976 170.087C269.526 172.352 275.418 173.392 282.521 173.392H283.346C291.74 173.27 298.221 171.514 302.389 167.678L302.388 167.677C306.444 164.023 308.679 159.755 308.851 154.898L308.852 154.881V154.433C308.852 149.893 307.151 146.119 303.729 143.355C300.562 140.708 295.616 138.861 289.165 137.583L289.152 137.58L289.139 137.578L268.559 134.068C260.102 132.581 252.15 130.233 244.698 126.997C237.508 123.822 231.707 119.346 227.217 113.61C223.215 108.341 221.027 101.499 220.796 92.9658L220.78 92.1348V91.2764C220.78 82.7664 222.747 75.378 226.603 69.0381L227.556 67.6426L227.558 67.6406C232.192 60.8215 238.719 55.4851 247.289 51.6523C255.857 47.8107 265.644 45.8594 277.501 45.8594H278.782L278.774 45.8291ZM650.376 91.2871L674.283 162.738L673.952 163.763H676.735L676.388 162.725L699.454 91.2871H730.465L691.817 196.74H657.816L619.354 91.2871H650.376ZM385.442 43.7598V135.734H386.935L422.335 91.2871H456.604L417.149 139.194L458.805 196.73H422.827L385.442 144.519V196.73H353.932V43.7598H385.442ZM503.244 91.2471V196.7H471.733V91.2471H503.244ZM555.795 43.7598V196.7H524.284V43.7598H555.795ZM607.575 43.7598V196.7H576.064V43.7598H607.575ZM908.26 111.396C902.395 111.396 897.302 113.212 893.022 116.843L893.006 116.856L892.991 116.87L892.601 117.23L892.595 117.236C888.628 120.959 886.427 126.278 885.872 132.881V132.893L885.714 135.074H930.109V132.978L930.108 132.952C929.749 126.102 927.599 120.646 923.365 116.859C919.336 113.162 914.257 111.396 908.34 111.396H908.26ZM488.006 41L488.457 41.0176C497.897 41.5116 505.374 49.3048 505.374 58.8291V59.2715C505.119 68.7608 497.489 76.3796 488.03 76.6572H487.533C477.695 76.657 469.694 68.6555 469.693 58.8291C469.693 49.0016 477.666 41.0002 487.533 41H488.006Z" fill="white"/>
</svg>
