<svg width="960" height="240" viewBox="0 0 960 240" fill="none" xmlns="http://www.w3.org/2000/svg">
<path d="M116.257 207.817C119.014 207.818 120.828 210.74 119.619 213.277C118.146 216.392 116.672 219.468 115.199 222.582C110.364 232.887 99.9751 240 88 240C76.0249 240 65.6739 232.887 60.8008 222.582C59.3275 219.468 57.8541 216.353 56.3809 213.277C55.1722 210.74 56.9857 207.818 59.7432 207.817H116.257ZM88.04 0C89.514 2.2129e-10 90.988 0.000115763 92.4619 0.116211C92.8602 0.116211 93.2191 0.115972 93.6572 0.193359C94.7327 0.270738 95.7683 0.309697 96.8438 0.425781C97.1624 0.425791 97.4419 0.50293 97.7207 0.50293C98.8358 0.580329 99.9511 0.734892 101.026 0.889648C102.341 1.08314 103.616 1.27698 104.891 1.54785C105.488 1.62525 106.126 1.77977 106.724 1.93457C108.158 2.20545 109.591 2.55444 111.025 2.94141C112.101 3.17361 113.177 3.48276 114.253 3.83105C115.488 4.218 116.722 4.60561 117.957 5.03125C120.507 5.92135 123.017 6.92751 125.447 8.0498C126.045 8.32064 126.642 8.59184 127.239 8.90137C128.036 9.28832 128.833 9.63589 129.59 10.0615C130.307 10.4485 131.064 10.8357 131.741 11.2227C131.821 11.2228 131.9 11.3001 131.979 11.3389C132.696 11.7645 133.414 12.1906 134.131 12.6162C135.326 13.3128 136.562 14.0867 137.757 14.8994C138.314 15.2476 138.832 15.5959 139.39 16.0215C140.346 16.718 141.302 17.3761 142.258 18.1113C142.537 18.3048 142.816 18.4986 143.135 18.7695L144.768 20.085C145.445 20.6267 146.082 21.1686 146.72 21.749C147.357 22.2908 147.955 22.8332 148.553 23.375C149.867 24.5746 151.142 25.8129 152.337 27.0898C152.895 27.709 153.532 28.3284 154.09 28.9863C154.687 29.6055 155.245 30.2637 155.763 30.8828C156.161 31.3084 156.479 31.734 156.838 32.1982C157.196 32.5852 157.555 33.0495 157.874 33.4365C158.272 33.9396 158.631 34.4429 158.989 34.9072C159.547 35.6037 160.025 36.2616 160.503 36.958C161.22 37.9642 161.898 38.9323 162.535 39.9385C162.694 40.1319 162.814 40.3255 162.934 40.5576C163.651 41.6023 164.288 42.7246 164.925 43.8467C164.925 43.8467 164.925 43.8726 164.925 43.9238C165.642 45.1622 166.28 46.3626 166.917 47.6396C167.594 48.9554 168.192 50.2321 168.75 51.5479C169.188 52.554 169.626 53.5606 170.064 54.6055C170.184 54.915 170.303 55.2246 170.423 55.5342C170.821 56.5017 171.14 57.4304 171.459 58.4365C171.857 59.4039 172.136 60.3328 172.415 61.3389C172.694 62.1903 172.973 63.0806 173.172 63.9707C173.53 65.2477 173.849 66.4861 174.088 67.8018C174.367 69.1176 174.646 70.3951 174.845 71.7109C175.602 76.2 176 80.8051 176 85.5264V85.7197C176 87.1903 175.999 88.6613 175.88 90.1318V90.3643C175.641 95.6274 174.844 100.813 173.569 105.806C171.817 112.926 169.148 119.699 165.643 126.007C164.209 128.638 160.264 128.367 159.029 125.62C159.029 125.62 159.029 125.594 159.029 125.542C158.671 124.691 158.272 123.801 157.834 122.911C157.436 122.099 156.998 121.324 156.56 120.512C156.56 120.434 156.479 120.395 156.479 120.356C156.001 119.505 155.524 118.653 155.006 117.841C154.926 117.647 154.767 117.454 154.688 117.299C154.409 116.873 154.129 116.448 153.811 115.983C153.452 115.442 153.094 114.938 152.695 114.396C151.221 112.346 149.628 110.411 147.915 108.592C147.357 107.973 146.76 107.392 146.162 106.851C146.003 106.696 145.843 106.502 145.684 106.386C143.333 104.103 140.824 102.013 138.155 100.155C136.92 99.3039 136.362 97.8332 136.681 96.4014C137.159 94.4277 137.518 92.3763 137.717 90.3252C137.796 89.6287 137.836 88.8934 137.876 88.1582C137.876 87.3068 137.955 86.494 137.955 85.6426C137.955 81.2309 137.358 76.9349 136.203 72.9102C136.044 72.3684 135.884 71.7882 135.685 71.2852C133.255 63.7387 128.992 56.9664 123.375 51.5098C121.702 49.8457 119.869 48.2975 117.957 46.9043C117.956 46.9031 117.947 46.8941 117.878 46.8271C115.966 45.434 113.973 44.1568 111.822 43.0732C108.755 41.4478 105.568 40.1316 102.182 39.1641C100.987 38.7772 99.8316 38.5066 98.6367 38.2744C95.2108 37.5391 91.6651 37.1514 88.04 37.1514C84.4149 37.1514 80.8693 37.5391 77.4434 38.2744C76.2483 38.5066 75.0527 38.8158 73.8975 39.1641C70.4318 40.1702 67.0857 41.5254 63.9785 43.1895C63.3411 43.4991 62.7431 43.847 62.1455 44.1953C58.7196 46.2464 55.5324 48.684 52.7041 51.4316C51.1505 52.9409 49.6769 54.5671 48.3623 56.3086C44.8965 60.7203 42.1874 65.7514 40.4346 71.208C40.2355 71.7497 40.0763 72.2914 39.917 72.833C38.7617 76.8578 38.1641 81.1536 38.1641 85.5654C38.1641 86.4168 38.1635 87.2297 38.2432 88.0811C38.2432 88.468 38.2436 88.8553 38.3232 89.2422V90.3643C38.4028 90.635 38.4029 90.9445 38.4824 91.2539C38.4824 91.4473 38.4829 91.641 38.5625 91.873C38.5625 91.9504 38.5622 92.0281 38.6416 92.1055C38.7213 92.5312 38.8815 92.9962 39.001 93.4219C39.0807 93.8473 39.2394 94.2728 39.4385 94.6982C39.7572 95.4722 40.1563 96.2077 40.5547 96.9043C40.5547 96.9816 40.6337 97.0974 40.7529 97.1748C40.9919 97.5231 41.1917 97.833 41.4307 98.1426C41.6697 98.4909 41.9489 98.8398 42.2676 99.1494C42.4268 99.3428 42.5859 99.5363 42.7451 99.6523C42.9044 99.8071 43.0245 99.9614 43.2236 100.116C43.861 100.774 44.538 101.316 45.2949 101.78C46.012 102.245 46.7687 102.671 47.5654 103.058C47.6451 103.058 47.725 103.135 47.8047 103.135C48.1631 103.328 48.5215 103.444 48.8799 103.561C50.553 104.18 52.4257 104.528 54.3379 104.528H102.501C112.699 104.528 121.822 107.663 129.191 112.888C140.664 120.976 147.835 134.095 148.034 148.104C148.154 154.451 146.839 160.991 143.771 167.338C140.067 175.155 134.131 181.541 126.96 185.991C119.789 190.442 111.345 192.919 102.501 192.919H47.7646C45.8127 192.919 44.06 191.835 43.1836 190.132L29.4395 163.004C27.7664 159.715 30.2362 155.844 34.0205 155.844H103.218C105.488 155.844 108.237 154.296 109.393 152.438C112.579 147.756 109.153 141.525 103.337 141.525H49.3584C46.6895 141.525 44.0602 141.293 41.5107 140.906C23.7833 138.081 8.84382 125.929 3.46582 109.211C2.94794 107.663 2.54994 106.076 2.19141 104.489C0.757312 98.4135 0 92.0666 0 85.5264C7.42375e-06 82.7015 0.119606 79.9539 0.398438 77.2451C0.478111 76.1615 0.637527 75.1162 0.796875 74.0713C0.916383 73.0652 1.07524 72.0589 1.27441 71.0527C1.43376 70.124 1.63383 69.1563 1.83301 68.2275C1.91258 67.8796 1.95169 67.5701 2.03125 67.2607C2.27026 66.1772 2.54927 65.1318 2.82812 64.0869C3.10696 62.926 3.46572 61.8038 3.82422 60.6816C4.14291 59.6367 4.50182 58.6299 4.86035 57.585C4.86049 57.4304 4.93969 57.3142 4.97949 57.1982C5.37785 56.1534 5.73661 55.1084 6.1748 54.0635C6.57314 53.0574 6.97199 52.1289 7.41016 51.2002C7.48981 50.968 7.60903 50.697 7.72852 50.4648C8.12686 49.5361 8.605 48.6459 9.08301 47.7559V47.6777C10.1187 45.6268 11.2737 43.6142 12.4688 41.6406C13.6638 39.667 14.9786 37.7319 16.333 35.9131C16.3334 35.9127 16.3395 35.9074 16.4131 35.8359C18.4446 33.0498 20.6754 30.4183 23.0654 27.8643C23.8622 27.0129 24.6595 26.1994 25.4961 25.3867C26.8504 24.071 28.2447 22.794 29.6787 21.5557C31.8298 19.6981 34.0608 17.957 36.4111 16.293C37.4468 15.5577 38.5622 14.8222 39.6377 14.0869C40.7531 13.3903 41.8691 12.694 43.0244 12.0361C44.1398 11.3782 45.2949 10.7201 46.4502 10.1396C48.7607 8.93995 51.191 7.81772 53.6211 6.81152C54.8559 6.30848 56.0904 5.80457 57.3252 5.37891C59.8348 4.48884 62.4244 3.67644 65.0137 3.01855C65.9698 2.78636 66.8865 2.5154 67.8027 2.2832C68.7587 2.05104 69.6749 1.85754 70.6309 1.66406H70.7109C73.3799 1.16099 76.1285 0.735733 78.917 0.464844C80.1519 0.348745 81.3871 0.23206 82.6221 0.193359C84.4147 0.0772599 86.2474 0 88.04 0ZM88 53.6865C99.0457 53.6865 108 62.6408 108 73.6865C108 84.7322 99.0457 93.6865 88 93.6865C76.9544 93.6865 68 84.7322 68 73.6865C68 62.6409 76.9544 53.6866 88 53.6865Z" fill="url(#paint0_linear_5763_25793)"/>
<path d="M934.483 96.1348L934.491 96.1387L934.499 96.1436C942.089 100.306 948.013 106.446 952.24 114.66V114.746L952.358 114.967C956.743 123.159 959 133.208 959 145.203V151.423H884.794L884.951 153.594C885.386 159.642 887.556 165.014 891.435 169.607L891.446 169.621L891.459 169.635C895.667 174.265 901.521 176.512 908.76 176.512H909.742L909.755 176.511C914.594 176.388 918.637 175.462 921.564 173.457L921.566 173.455C924.503 171.433 926.647 169.259 927.84 166.928L927.85 166.908L927.858 166.889C927.9 166.799 927.942 166.718 928.001 166.606C928.046 166.521 928.102 166.409 928.156 166.284C928.274 166.072 928.399 165.795 928.421 165.746L928.723 165.152H957.491L957.1 166.588V166.622C956.454 168.883 955.191 171.853 953.342 175.599C951.509 179.073 948.802 182.694 945.196 186.42C941.679 189.898 936.937 192.914 930.912 195.448C925.5 197.636 918.723 198.842 910.51 199H908.869C899.246 199 891.051 197.477 884.146 194.467C877.317 191.297 871.621 187.247 867.019 182.242V182.222L866.778 181.941C862.798 177.289 859.675 172.156 857.432 166.549L856.995 165.421L856.629 164.382V164.354L856.579 164.202C854.452 157.674 853.389 150.949 853.389 144.023C853.389 137.104 854.451 130.741 856.618 124.21L856.619 124.204C858.701 117.815 861.92 112.1 866.205 106.976H866.217L866.517 106.616C870.852 101.412 876.366 97.2817 883.146 94.2598L883.155 94.2559C898.789 87.0919 919.445 87.5361 934.483 96.1348ZM769.317 91.207V151.793L769.308 152.283C769.183 158.54 771.153 164.023 774.88 167.837C778.582 171.656 783.878 173.639 790.107 173.312H790.214C796.328 173.395 801.406 171.286 804.865 167.456L804.866 167.457C808.239 163.765 809.956 158.608 810.028 152.855V91.2373H841.738V150.853H841.658V152.897C841.883 168.204 835.513 179.6 825.821 187.193L825.82 187.194C816.068 194.851 802.897 198.74 789.647 198.74C776.398 198.74 763.227 194.84 753.474 187.193C744.094 179.834 737.796 168.909 737.606 154.312L737.607 91.207H769.317ZM277.774 45.8291C286.479 45.9294 293.852 47.0556 299.898 49.1924L300.06 49.249H300.104C306.47 51.3833 311.758 54.1544 315.934 57.5176L315.939 57.5225L315.945 57.5264C319.97 60.675 323.177 63.9945 325.621 67.5L325.624 67.5039L326.124 68.2139L326.131 68.2246C328.824 71.9495 330.706 75.4957 331.909 78.873L331.914 78.8857L331.918 78.8975C333.219 82.273 334.048 84.9365 334.463 86.9121L334.717 88.1572H303.032L302.691 87.1357V87.0898L302.659 86.9658C302.131 84.9266 300.915 82.8682 299.251 80.75V80.6963L299.064 80.4355C297.164 77.7778 294.321 75.556 290.72 73.6992C287.093 71.8228 282.415 70.9099 276.812 70.7881H275.671C267.203 70.7881 260.617 72.5768 256.583 76.7305C252.858 80.4552 250.811 84.606 250.811 89.127V89.584C250.94 94.3611 253.218 98.1103 257.404 100.568L257.416 100.575C261.271 102.771 266.017 104.421 271.489 105.546L271.499 105.548L271.509 105.549L272.589 105.749L272.596 105.751L272.603 105.752L294.383 109.461C302.152 110.852 309.269 113.137 315.812 116.271L317.112 116.909C323.927 120.351 329.356 124.946 333.424 130.721L333.428 130.726C337.452 136.361 339.502 143.455 339.502 152.053V152.864C339.345 161.374 337.047 169.041 332.562 175.947L332.401 176.195V176.27C327.924 183.042 321.387 188.486 312.638 192.6L311.832 192.958C303.453 196.599 293.257 198.474 281.231 198.59H280.001C269.77 198.59 261.125 197.449 254.075 195.214C247.475 192.951 241.974 190.117 237.484 186.714L236.657 186.062C232.667 182.79 229.369 179.381 226.725 175.866L225.88 174.647V174.585L225.718 174.336C223.36 170.716 221.537 167.272 220.257 164.032L219.82 162.862V162.803L219.771 162.651C218.549 158.917 217.762 155.995 217.39 153.788V153.682L217.377 153.601L217.178 152.393H249.622L249.82 153.175C249.894 153.47 249.953 153.707 250.021 154.002V154.06L250.058 154.191L250.178 154.622L250.181 154.636L250.186 154.648C250.888 156.915 252.22 159.382 254.104 162.041L254.122 162.064C256.276 164.922 259.322 167.413 263.149 169.628L263.156 169.631L263.163 169.635L263.934 170.065L263.954 170.076L263.976 170.087C268.526 172.352 274.418 173.392 281.521 173.392H282.346C290.74 173.27 297.221 171.514 301.389 167.678L301.388 167.677C305.444 164.023 307.679 159.755 307.851 154.898L307.852 154.881V154.433C307.852 149.893 306.151 146.119 302.729 143.355C299.562 140.708 294.616 138.861 288.165 137.583L288.152 137.58L288.139 137.578L267.559 134.068C259.102 132.581 251.15 130.233 243.698 126.997C236.508 123.822 230.707 119.346 226.217 113.61C222.215 108.341 220.027 101.499 219.796 92.9658L219.78 92.1348V91.2764C219.78 82.7664 221.747 75.378 225.603 69.0381L226.556 67.6426L226.558 67.6406C231.192 60.8215 237.719 55.4851 246.289 51.6523C254.857 47.8107 264.644 45.8594 276.501 45.8594H277.782L277.774 45.8291ZM649.376 91.2871L673.283 162.738L672.952 163.763H675.735L675.388 162.725L698.454 91.2871H729.465L690.817 196.74H656.816L618.354 91.2871H649.376ZM384.442 43.7598V135.734H385.935L421.335 91.2871H455.604L416.149 139.194L457.805 196.73H421.827L384.442 144.519V196.73H352.932V43.7598H384.442ZM502.244 91.2471V196.7H470.733V91.2471H502.244ZM554.795 43.7598V196.7H523.284V43.7598H554.795ZM606.575 43.7598V196.7H575.064V43.7598H606.575ZM907.26 111.396C901.395 111.396 896.302 113.212 892.022 116.843L892.006 116.856L891.991 116.87L891.601 117.23L891.595 117.236C887.628 120.959 885.427 126.278 884.872 132.881V132.893L884.714 135.074H929.109V132.978L929.108 132.952C928.749 126.102 926.599 120.646 922.365 116.859C918.336 113.162 913.257 111.396 907.34 111.396H907.26ZM487.006 41L487.457 41.0176C496.897 41.5116 504.374 49.3048 504.374 58.8291V59.2715C504.119 68.7608 496.489 76.3796 487.03 76.6572H486.533C476.695 76.657 468.694 68.6555 468.693 58.8291C468.693 49.0016 476.666 41.0002 486.533 41H487.006Z" fill="white"/>
<defs>
<linearGradient id="paint0_linear_5763_25793" x1="131.5" y1="14" x2="81.5" y2="238.5" gradientUnits="userSpaceOnUse">
<stop stop-color="#FFAF64"/>
<stop offset="0.5" stop-color="#FF5656"/>
<stop offset="1" stop-color="#4B4DF7"/>
</linearGradient>
</defs>
</svg>
