<svg width="960" height="240" viewBox="0 0 960 240" fill="none" xmlns="http://www.w3.org/2000/svg">
<path d="M116.257 207.817C119.014 207.818 120.828 210.74 119.619 213.277C118.146 216.392 116.672 219.468 115.199 222.582C110.364 232.887 99.9751 240 88 240C76.0249 240 65.6739 232.887 60.8008 222.582C59.3275 219.468 57.8541 216.353 56.3809 213.277C55.1722 210.74 56.9857 207.818 59.7432 207.817H116.257ZM88.04 0C89.514 2.2129e-10 90.988 0.000115763 92.4619 0.116211C92.8602 0.116211 93.2191 0.115972 93.6572 0.193359C94.7327 0.270738 95.7683 0.309697 96.8438 0.425781C97.1624 0.425791 97.4419 0.50293 97.7207 0.50293C98.8358 0.580329 99.9511 0.734892 101.026 0.889648C102.341 1.08314 103.616 1.27698 104.891 1.54785C105.488 1.62525 106.126 1.77977 106.724 1.93457C108.158 2.20545 109.591 2.55444 111.025 2.94141C112.101 3.17361 113.177 3.48276 114.253 3.83105C115.488 4.218 116.722 4.60561 117.957 5.03125C120.507 5.92135 123.017 6.92751 125.447 8.0498C126.045 8.32064 126.642 8.59184 127.239 8.90137C128.036 9.28832 128.833 9.63589 129.59 10.0615C130.307 10.4485 131.064 10.8357 131.741 11.2227C131.821 11.2228 131.9 11.3001 131.979 11.3389C132.696 11.7645 133.414 12.1906 134.131 12.6162C135.326 13.3128 136.562 14.0867 137.757 14.8994C138.314 15.2476 138.832 15.5959 139.39 16.0215C140.346 16.718 141.302 17.3761 142.258 18.1113C142.537 18.3048 142.816 18.4986 143.135 18.7695L144.768 20.085C145.445 20.6267 146.082 21.1686 146.72 21.749C147.357 22.2908 147.955 22.8332 148.553 23.375C149.867 24.5746 151.142 25.8129 152.337 27.0898C152.895 27.709 153.532 28.3284 154.09 28.9863C154.687 29.6055 155.245 30.2637 155.763 30.8828C156.161 31.3084 156.479 31.734 156.838 32.1982C157.196 32.5852 157.555 33.0495 157.874 33.4365C158.272 33.9396 158.631 34.4429 158.989 34.9072C159.547 35.6037 160.025 36.2616 160.503 36.958C161.22 37.9642 161.898 38.9323 162.535 39.9385C162.694 40.1319 162.814 40.3255 162.934 40.5576C163.651 41.6023 164.288 42.7246 164.925 43.8467C164.925 43.8467 164.925 43.8726 164.925 43.9238C165.642 45.1622 166.28 46.3626 166.917 47.6396C167.594 48.9554 168.192 50.2321 168.75 51.5479C169.188 52.554 169.626 53.5606 170.064 54.6055C170.184 54.915 170.303 55.2246 170.423 55.5342C170.821 56.5017 171.14 57.4304 171.459 58.4365C171.857 59.4039 172.136 60.3328 172.415 61.3389C172.694 62.1903 172.973 63.0806 173.172 63.9707C173.53 65.2477 173.849 66.4861 174.088 67.8018C174.367 69.1176 174.646 70.3951 174.845 71.7109C175.602 76.2 176 80.8051 176 85.5264V85.7197C176 87.1903 175.999 88.6613 175.88 90.1318V90.3643C175.641 95.6274 174.844 100.813 173.569 105.806C171.817 112.926 169.148 119.699 165.643 126.007C164.209 128.638 160.264 128.367 159.029 125.62C159.029 125.62 159.029 125.594 159.029 125.542C158.671 124.691 158.272 123.801 157.834 122.911C157.436 122.099 156.998 121.324 156.56 120.512C156.56 120.434 156.479 120.395 156.479 120.356C156.001 119.505 155.524 118.653 155.006 117.841C154.926 117.647 154.767 117.454 154.688 117.299C154.409 116.873 154.129 116.448 153.811 115.983C153.452 115.442 153.094 114.938 152.695 114.396C151.221 112.346 149.628 110.411 147.915 108.592C147.357 107.973 146.76 107.392 146.162 106.851C146.003 106.696 145.843 106.502 145.684 106.386C143.333 104.103 140.824 102.013 138.155 100.155C136.92 99.3039 136.362 97.8332 136.681 96.4014C137.159 94.4277 137.518 92.3763 137.717 90.3252C137.796 89.6287 137.836 88.8934 137.876 88.1582C137.876 87.3068 137.955 86.494 137.955 85.6426C137.955 81.2309 137.358 76.9349 136.203 72.9102C136.044 72.3684 135.884 71.7882 135.685 71.2852C133.255 63.7387 128.992 56.9664 123.375 51.5098C121.702 49.8457 119.869 48.2975 117.957 46.9043C117.956 46.9031 117.947 46.894 117.878 46.8271C115.966 45.434 113.973 44.1568 111.822 43.0732C108.755 41.4478 105.568 40.1316 102.182 39.1641C100.987 38.7772 99.8316 38.5066 98.6367 38.2744C95.2108 37.5391 91.6651 37.1514 88.04 37.1514C84.4149 37.1514 80.8693 37.5391 77.4434 38.2744C76.2482 38.5066 75.0527 38.8158 73.8975 39.1641C70.4318 40.1702 67.0857 41.5254 63.9785 43.1895C63.3411 43.4991 62.7431 43.847 62.1455 44.1953C58.7196 46.2464 55.5324 48.684 52.7041 51.4316C51.1505 52.9409 49.6769 54.5671 48.3623 56.3086C44.8965 60.7203 42.1874 65.7514 40.4346 71.208C40.2355 71.7497 40.0763 72.2914 39.917 72.833C38.7617 76.8578 38.1641 81.1536 38.1641 85.5654C38.1641 86.4168 38.1635 87.2297 38.2432 88.0811C38.2432 88.468 38.2436 88.8553 38.3232 89.2422V90.3643C38.4028 90.635 38.4028 90.9445 38.4824 91.2539C38.4824 91.4473 38.4829 91.641 38.5625 91.873C38.5625 91.9504 38.5622 92.0281 38.6416 92.1055C38.7213 92.5312 38.8815 92.9962 39.001 93.4219C39.0807 93.8473 39.2394 94.2728 39.4385 94.6982C39.7572 95.4722 40.1563 96.2077 40.5547 96.9043C40.5547 96.9816 40.6337 97.0974 40.7529 97.1748C40.9919 97.5231 41.1917 97.833 41.4307 98.1426C41.6697 98.4909 41.9489 98.8398 42.2676 99.1494C42.4268 99.3428 42.5859 99.5363 42.7451 99.6523C42.9044 99.8071 43.0245 99.9614 43.2236 100.116C43.861 100.774 44.538 101.316 45.2949 101.78C46.012 102.245 46.7687 102.671 47.5654 103.058C47.6451 103.058 47.725 103.135 47.8047 103.135C48.1631 103.328 48.5215 103.444 48.8799 103.561C50.553 104.18 52.4257 104.528 54.3379 104.528H102.501C112.699 104.528 121.822 107.663 129.191 112.888C140.664 120.976 147.835 134.095 148.034 148.104C148.154 154.451 146.839 160.991 143.771 167.338C140.067 175.155 134.131 181.541 126.96 185.991C119.789 190.442 111.345 192.919 102.501 192.919H47.7646C45.8127 192.919 44.06 191.835 43.1836 190.132L29.4395 163.004C27.7664 159.715 30.2362 155.844 34.0205 155.844H103.218C105.488 155.844 108.237 154.296 109.393 152.438C112.579 147.756 109.153 141.525 103.337 141.525H49.3584C46.6895 141.525 44.0602 141.293 41.5107 140.906C23.7833 138.081 8.84382 125.929 3.46582 109.211C2.94794 107.663 2.54994 106.076 2.19141 104.489C0.757312 98.4135 0 92.0666 0 85.5264C7.42375e-06 82.7015 0.119606 79.9539 0.398438 77.2451C0.478111 76.1615 0.637527 75.1162 0.796875 74.0713C0.916383 73.0652 1.07524 72.0589 1.27441 71.0527C1.43376 70.124 1.63383 69.1563 1.83301 68.2275C1.91258 67.8796 1.95169 67.5701 2.03125 67.2607C2.27026 66.1772 2.54927 65.1318 2.82812 64.0869C3.10696 62.926 3.46572 61.8038 3.82422 60.6816C4.14291 59.6367 4.50182 58.6299 4.86035 57.585C4.86049 57.4304 4.93969 57.3142 4.97949 57.1982C5.37785 56.1534 5.73661 55.1084 6.1748 54.0635C6.57314 53.0574 6.97199 52.1289 7.41016 51.2002C7.48981 50.968 7.60903 50.697 7.72852 50.4648C8.12686 49.5361 8.605 48.6459 9.08301 47.7559V47.6777C10.1187 45.6268 11.2737 43.6142 12.4688 41.6406C13.6638 39.667 14.9786 37.7319 16.333 35.9131C16.3334 35.9127 16.3395 35.9074 16.4131 35.8359C18.4446 33.0498 20.6754 30.4183 23.0654 27.8643C23.8622 27.0129 24.6595 26.1994 25.4961 25.3867C26.8504 24.071 28.2447 22.794 29.6787 21.5557C31.8298 19.6981 34.0608 17.957 36.4111 16.293C37.4468 15.5577 38.5622 14.8222 39.6377 14.0869C40.7531 13.3903 41.8691 12.694 43.0244 12.0361C44.1398 11.3782 45.2949 10.7201 46.4502 10.1396C48.7607 8.93995 51.191 7.81772 53.6211 6.81152C54.8559 6.30848 56.0904 5.80457 57.3252 5.37891C59.8348 4.48884 62.4244 3.67644 65.0137 3.01855C65.9698 2.78636 66.8865 2.5154 67.8027 2.2832C68.7587 2.05104 69.6749 1.85754 70.6309 1.66406H70.7109C73.3799 1.16099 76.1285 0.735733 78.917 0.464844C80.1519 0.348745 81.3871 0.23206 82.6221 0.193359C84.4147 0.0772599 86.2474 0 88.04 0ZM88 53.6865C99.0457 53.6865 108 62.6408 108 73.6865C108 84.7322 99.0457 93.6865 88 93.6865C76.9544 93.6865 68 84.7322 68 73.6865C68 62.6409 76.9544 53.6866 88 53.6865Z" fill="url(#paint0_linear_13793_4396)"/>
<path d="M908.839 88.637C918.799 88.757 927.53 91.0068 934.98 95.2665C942.82 99.5663 948.92 105.926 953.24 114.415V114.495C957.72 122.865 960 133.084 960 145.203V152.423H885.869L885.949 153.523C886.369 159.363 888.459 164.532 892.199 168.962C896.179 173.342 901.739 175.512 908.759 175.512H909.729C914.479 175.392 918.299 174.482 921 172.632C923.86 170.662 925.86 168.602 926.95 166.472C927.06 166.232 927.18 166.042 927.26 165.842C927.38 165.642 927.45 165.452 927.53 165.292L928.11 164.152H958.8L958.1 166.722V166.762C957.44 169.132 956.13 172.212 954.24 176.042C952.35 179.631 949.57 183.341 945.9 187.131C942.27 190.721 937.41 193.8 931.3 196.37C925.74 198.62 918.829 199.84 910.529 200H908.869C899.139 200 890.799 198.46 883.739 195.38C876.669 192.1 870.769 187.881 866.019 182.631V182.591C861.699 177.541 858.369 171.932 856.059 165.772L855.629 164.552V164.512C853.469 157.883 852.389 151.053 852.389 144.023C852.389 136.994 853.469 130.524 855.669 123.895C857.829 117.265 861.189 111.346 865.669 106.056V105.976H865.749C870.189 100.646 875.829 96.4265 882.739 93.3467C889.809 90.1069 898.179 88.447 907.909 88.447H908.869L908.829 88.647L908.839 88.637ZM276.491 44.8197C285.831 44.8197 293.751 45.9596 300.231 48.2495H300.271C306.791 50.4193 312.241 53.2592 316.561 56.739C320.651 59.9388 323.931 63.3285 326.442 66.9283L326.942 67.6383C329.682 71.428 331.612 75.0578 332.852 78.5376C334.162 81.9374 335.012 84.6572 335.442 86.7071L335.942 89.1569H302.311L301.691 87.297V87.2171C301.191 85.2872 299.991 83.2673 298.251 81.0974V81.0174C296.471 78.5276 293.771 76.3977 290.261 74.5878C286.821 72.8079 282.311 71.908 276.791 71.788H275.671C267.291 71.788 261.041 73.5679 257.291 77.4377C253.701 81.0274 251.81 84.9372 251.81 89.1269V89.5569C251.93 93.9766 254.011 97.4164 257.911 99.7063C261.651 101.836 266.291 103.456 271.691 104.566L272.771 104.766L294.551 108.476C302.931 109.976 310.571 112.505 317.561 116.015C324.511 119.525 330.072 124.225 334.242 130.144C338.412 135.984 340.502 143.294 340.502 152.053V152.883C340.342 161.572 337.992 169.422 333.402 176.491V176.571C328.802 183.641 322.051 189.281 313.051 193.51C304.361 197.46 293.751 199.47 281.241 199.59H280.001C269.691 199.59 260.931 198.44 253.751 196.16C247.07 193.87 241.47 190.991 236.88 187.511L236.03 186.841C231.98 183.521 228.62 180.051 225.92 176.461L224.88 174.962V174.882C222.49 171.212 220.63 167.702 219.32 164.382L218.82 163.042V162.962C217.58 159.173 216.77 156.173 216.39 153.883V153.763L216 151.393H250.4L250.79 152.933C250.87 153.253 250.94 153.523 251.02 153.883V153.923L251.14 154.353C251.8 156.483 253.07 158.853 254.921 161.462C256.971 164.182 259.901 166.592 263.651 168.762L264.421 169.192C268.781 171.362 274.501 172.392 281.521 172.392H282.331C290.631 172.272 296.811 170.532 300.711 166.942C304.611 163.432 306.691 159.403 306.851 154.863V154.433C306.851 150.173 305.271 146.693 302.101 144.133C299.131 141.644 294.381 139.834 287.971 138.564L267.391 135.054C258.861 133.554 250.83 131.184 243.3 127.915C235.96 124.675 230.02 120.095 225.42 114.215C221.13 108.566 218.89 101.226 218.78 92.1467V91.2768C218.78 82.5973 220.79 75.0178 224.76 68.4982L225.73 67.0783C230.48 60.0887 237.16 54.6391 245.88 50.7393C254.601 46.8296 264.531 44.8597 276.501 44.8597L276.491 44.8197ZM770.307 152.303C770.187 158.343 772.087 163.552 775.598 167.142C779.078 170.732 784.088 172.632 790.078 172.312H790.228C796.098 172.392 800.888 170.372 804.128 166.782C807.298 163.312 808.958 158.413 809.028 152.843V90.2369H842.738V151.853H842.658V152.883C842.888 168.512 836.368 180.201 826.438 187.981C816.478 195.8 803.078 199.74 789.648 199.74C776.218 199.74 762.817 195.79 752.857 187.981C743.247 180.441 736.797 169.232 736.607 154.313V90.2069H770.317V152.303H770.307ZM385.452 134.734L420.853 90.2869H457.723L417.413 139.234L459.763 197.73H421.313L385.442 147.633V197.73H351.932V42.7598H385.442V134.734H385.452ZM503.244 197.7H469.733V90.2469H503.244V197.7ZM555.795 197.7H522.284V42.7598H555.795V197.74V197.7ZM607.575 197.7H574.065V42.7598H607.575V197.74V197.7ZM674.326 162.762L697.726 90.2869H730.897L691.516 197.74H656.116L616.925 90.2869H650.096L674.346 162.762H674.326ZM907.259 112.395C901.619 112.395 896.759 114.135 892.669 117.605L892.279 117.965C888.539 121.475 886.409 126.535 885.869 132.964L885.789 134.074H928.11V133.004C927.76 126.335 925.68 121.165 921.7 117.605C917.879 114.095 913.049 112.395 907.339 112.395H907.259ZM487.034 40C497.224 40.28 505.374 48.6095 505.374 58.8288V59.2988C505.104 69.3282 497.034 77.3777 487.034 77.6576H486.534C476.144 77.6576 467.693 69.2082 467.693 58.8288C467.693 48.4495 476.114 40 486.534 40H487.034Z" fill="black"/>
<defs>
<linearGradient id="paint0_linear_13793_4396" x1="131.5" y1="14" x2="81.5" y2="238.5" gradientUnits="userSpaceOnUse">
<stop stop-color="#FFAF64"/>
<stop offset="0.5" stop-color="#FF5656"/>
<stop offset="1" stop-color="#4B4DF7"/>
</linearGradient>
</defs>
</svg>
