<?xml version="1.0" encoding="UTF-8" standalone="no"?>
<!-- Created with Inkscape (http://www.inkscape.org/) -->
<svg
   xmlns:svg="http://www.w3.org/2000/svg"
   xmlns="http://www.w3.org/2000/svg"
   xmlns:xlink="http://www.w3.org/1999/xlink"
   version="1.0"
   width="237.21001"
   height="36.009998"
   viewBox="-0.492 -0.11 208 65"
   id="svg2"
   xml:space="preserve">
<defs
   id="defs4"><clipPath
   id="clipPath2700"><path
     d="M 66.933,791.454 C 66.933,782.301 59.508,774.876 50.346,774.876 C 41.193,774.876 33.768,782.301 33.768,791.454 C 33.768,800.616 41.193,808.032 50.346,808.032 C 59.508,808.032 66.933,800.616 66.933,791.454"
     id="path2702" /></clipPath><clipPath
   id="clipPath2694"><path
     d="M 50.346,774.876 C 46.123,774.876 42.268,776.457 39.34,779.058 C 40.962,780.258 44.721,783.04 45.855,783.921 C 47.277,785.019 54.558,791.094 56.835,793.065 C 59.112,795.036 62.226,797.907 62.226,797.907 C 63.154,798.734 63.967,799.43 64.553,800.018 C 66.063,797.52 66.933,794.589 66.933,791.454 C 66.933,782.301 59.508,774.876 50.346,774.876"
     id="path2696" /></clipPath><clipPath
   id="clipPath2718"><path
     d="M 66.933,791.454 C 66.933,782.301 59.508,774.876 50.346,774.876 C 41.193,774.876 33.768,782.301 33.768,791.454 C 33.768,800.616 41.193,808.032 50.346,808.032 C 59.508,808.032 66.933,800.616 66.933,791.454"
     id="path2720" /></clipPath><clipPath
   id="clipPath2712"><path
     d="M 37.768,780.656 C 35.275,783.558 33.768,787.33 33.768,791.454 C 33.768,800.616 41.193,808.032 50.346,808.032 C 54.641,808.032 58.554,806.402 61.499,803.727 C 61.037,803.747 60.524,803.756 59.978,803.756 C 55.889,803.756 49.932,803.251 49.104,803.091 C 48.078,802.884 48.015,801.912 48.366,801.642 C 48.708,801.381 50.463,800.364 50.985,800.04 C 51.516,799.716 51.435,799.464 51.255,799.167 C 51.066,798.861 49.131,796.377 49.131,796.377 C 48.436,795.551 40.356,784.273 37.768,780.656"
     id="path2714" /></clipPath><clipPath
   id="clipPath2736"><path
     d="M 37.176,777.813 C 37.001,777.813 36.837,777.868 36.702,778.008 C 36.162,778.557 36.702,779.178 36.981,779.556 C 37.022,779.613 37.308,780.014 37.768,780.656 C 38.256,780.089 38.78,779.555 39.34,779.058 C 38.941,778.763 38.67,778.563 38.601,778.512 C 38.331,778.309 37.702,777.813 37.176,777.813 M 64.553,800.018 C 63.718,801.399 62.688,802.648 61.499,803.727 C 61.866,803.711 62.201,803.688 62.496,803.658 C 65.107,803.38 65.485,802.759 65.52,802.132 L 65.52,801.87 C 65.516,801.753 65.508,801.637 65.511,801.525 C 65.52,801.122 65.158,800.628 64.553,800.018"
     id="path2738" /></clipPath><clipPath
   id="clipPath2730"><path
     d="M 65.548,803.76 L 36.14,803.76 L 36.14,777.795 L 65.548,777.795 L 65.548,803.76 z"
     id="path2732" /></clipPath><clipPath
   id="clipPath2870"><path
     d="M 19.017,822.792 L 298.557,822.792 L 298.557,762.429 L 19.017,762.429 L 19.017,822.792 z"
     id="path2872" /></clipPath><clipPath
   id="clipPath2754"><path
     d="M 39.34,779.058 C 38.78,779.555 38.256,780.089 37.768,780.656 C 40.356,784.273 48.436,795.551 49.131,796.377 C 49.131,796.377 51.066,798.861 51.255,799.167 C 51.435,799.464 51.516,799.716 50.985,800.04 C 50.463,800.364 48.708,801.381 48.366,801.642 C 48.015,801.912 48.078,802.884 49.104,803.091 C 49.932,803.251 55.889,803.756 59.978,803.756 C 60.524,803.756 61.037,803.747 61.499,803.727 C 62.688,802.648 63.718,801.399 64.553,800.018 C 63.967,799.43 63.154,798.734 62.226,797.907 C 62.226,797.907 59.112,795.036 56.835,793.065 C 54.558,791.094 47.277,785.019 45.855,783.921 C 44.721,783.04 40.962,780.258 39.34,779.058"
     id="path2756" /></clipPath><clipPath
   id="clipPath2748"><path
     d="M 64.566,803.786 L 37.746,803.786 L 37.746,779.036 L 64.566,779.036 L 64.566,803.786 z"
     id="path2750" /></clipPath><linearGradient
   id="linearGradient5389"><stop
     id="stop5391"
     style="stop-color:#ffffff;stop-opacity:1"
     offset="0" /><stop
     id="stop3758"
     style="stop-color:#e70108;stop-opacity:1"
     offset="0.30322784" /><stop
     id="stop5397"
     style="stop-color:#e71c23;stop-opacity:1"
     offset="0.77187908" /><stop
     id="stop5393"
     style="stop-color:#c20006;stop-opacity:1"
     offset="1" /></linearGradient>

	<defs
   id="defs42">
		<path
   d="M 12.242,2.72 C 12.445,2.783 12.586,2.872 12.637,3 C 12.803,3.458 12.496,3.765 12.293,3.942 C 12.752,4.783 13.006,5.737 13.006,6.745 C 13.006,10.032 10.344,12.692 7.057,12.692 C 5.668,12.692 4.395,12.233 3.389,11.442 C 3.375,11.419 3.375,11.419 3.375,11.419 C 2.955,11.698 2.84,11.774 2.84,11.774 C 2.816,11.788 2.738,11.798 2.701,11.798 C 2.611,11.798 2.547,11.774 2.51,11.723 L 2.51,11.723 C 2.561,11.723 2.612,11.7 2.651,11.684 C 2.651,11.684 2.931,11.532 4.372,10.46 C 5.378,9.723 7.122,8.333 8.677,6.957 C 10.46,5.39 11.976,3.964 12.116,3.874 C 12.294,3.67 12.612,3.377 12.421,2.906 C 12.395,2.833 12.33,2.771 12.242,2.72 L 12.242,2.72 z M 11.273,2.542 C 10.839,2.518 10.332,2.518 10.024,2.518 C 9.298,2.518 7.222,2.606 6.636,2.772 C 6.445,2.823 6.356,2.938 6.356,3.065 C 6.356,3.167 6.394,3.244 6.459,3.282 C 6.459,3.282 7.4,3.842 7.438,3.881 C 7.515,3.933 7.553,4.021 7.438,4.161 C 7.35,4.288 7.336,4.3 7.336,4.3 C 7.336,4.3 6.127,5.904 5.578,6.58 C 5.222,7.115 3.451,9.639 2.662,10.783 C 1.707,9.727 1.108,8.326 1.108,6.746 C 1.108,3.459 3.77,0.822 7.056,0.822 C 8.674,0.821 10.166,1.483 11.273,2.542 L 11.273,2.542 z"
   id="SVGID_20_" />
	</defs>
	<clipPath
   id="SVGID_21_">
		<use
   id="use46"
   style="overflow:visible"
   x="0"
   y="0"
   width="208"
   height="65"
   xlink:href="#SVGID_20_" />
	</clipPath>
	

	

		
	<radialGradient
   cx="-80.380501"
   cy="28.792046"
   r="0.15542017"
   fx="-80.380501"
   fy="28.792046"
   id="radialGradient5395"
   xlink:href="#linearGradient5389"
   gradientUnits="userSpaceOnUse"
   gradientTransform="matrix(151.26331,190.9336,-234.03511,185.41062,18794.566,10023.21)"
   spreadMethod="pad" /><radialGradient
   cx="-80.380501"
   cy="28.792046"
   r="0.15542017"
   fx="-80.380501"
   fy="28.792046"
   id="radialGradient3797"
   xlink:href="#linearGradient5389"
   gradientUnits="userSpaceOnUse"
   gradientTransform="matrix(151.26331,190.9336,-234.03511,185.41062,18794.566,10023.21)"
   spreadMethod="pad" /></defs>

















<g
   transform="translate(10.222723,1.5123027)"
   id="g3760"><path
     d="M -62.205411,26.069168 C -62.191541,35.417466 -67.185091,44.061576 -75.301781,48.739723 C -83.418481,53.417872 -93.422671,53.417872 -101.53936,48.739723 C -109.65607,44.061576 -114.64962,35.417466 -114.63575,26.069168 C -114.64962,16.720864 -109.65607,8.0767489 -101.53936,3.3986039 C -93.422671,-1.2795411 -83.418481,-1.2795411 -75.301781,3.3986039 C -67.185091,8.0767489 -62.191541,16.720864 -62.205411,26.069168 L -62.205411,26.069168 z"
     id="path4577"
     style="opacity:1;fill:url(#radialGradient3797);fill-opacity:1;fill-rule:nonzero;stroke:none;stroke-width:0;stroke-miterlimit:0;stroke-dasharray:none;stroke-opacity:1" /><g
     transform="matrix(1.573463,0,0,-1.573463,-90.694669,12.258678)"
     id="g2766"><path
       d="M 0,0 C 0.345,-0.264 2.08,-1.28 2.6,-1.605 L 2.777,-1.731 L 2.864,-1.602 C 3.046,-1.298 3.118,-1.054 2.6,-0.729 C 2.08,-0.405 0.345,0.612 0,0.876 L -0.568,1.335 C -0.352,0.741 -0.209,0.16 0,0"
       id="path2768"
       style="fill:#454347;fill-opacity:1;fill-rule:nonzero;stroke:none" /></g><g
     transform="matrix(1.573463,0,0,-1.573463,-24.226864,4.7013319)"
     id="g2814"
     style="fill:#000000"><path
       d="M 0,0 L 0,-20.724 C 0,-25.292 -4.002,-28.765 -9.286,-28.765 C -14.571,-28.765 -18.573,-25.292 -18.573,-20.724 L -18.573,-4.87 C -18.573,-2.189 -16.421,0 -13.741,0 L -13.401,0 L -13.401,-20.687 C -13.401,-23.142 -11.211,-24.65 -9.097,-24.65 C -7.059,-24.65 -4.87,-23.253 -4.87,-20.687 L -4.87,-4.606 C -4.87,-2.076 -2.794,0 -0.265,0"
       id="path2816"
       style="fill:#000000;fill-opacity:1;fill-rule:nonzero;stroke:none" /></g><g
     transform="matrix(1.573463,0,0,-1.573463,-8.1948548,16.223805)"
     id="g2818"
     style="fill:#000000"><path
       d="M 0,0 C 7.059,0 8.191,-3.964 8.191,-6.342 L 8.191,-21.14 L 7.965,-21.14 C 5.36,-21.14 3.134,-18.95 3.134,-16.347 L 3.134,-6.419 C 3.134,-5.021 2.567,-3.36 -0.189,-3.36 C -1.472,-3.36 -2.227,-3.511 -3.058,-3.813 L -3.058,-21.14 L -8.116,-21.14 L -8.116,-1.548 C -5.964,-0.605 -2.491,0 0,0"
       id="path2820"
       style="fill:#000000;fill-opacity:1;fill-rule:nonzero;stroke:none" /></g><g
     transform="matrix(1.573463,0,0,-1.573463,16.067951,16.223805)"
     id="g2822"
     style="fill:#000000"><path
       d="M 0,0 L 0,-16.383 C 0,-18.988 -2.114,-21.14 -4.756,-21.14 L -4.983,-21.14 L -4.983,0 L 0,0 z M -2.492,7.323 C -0.982,7.323 0.226,6.19 0.226,4.794 C 0.226,3.435 -0.982,2.34 -2.492,2.34 C -4.001,2.34 -5.247,3.435 -5.247,4.794 C -5.247,6.19 -4.001,7.323 -2.492,7.323"
       id="path2824"
       style="fill:#000000;fill-opacity:1;fill-rule:nonzero;stroke:none" /></g><g
     transform="matrix(1.573463,0,0,-1.573463,38.681759,4.0499189)"
     id="g2826"
     style="fill:#000000"><path
       d="M 0,0 C 2.379,0 4.605,-0.528 6.456,-1.66 L 6.456,-6.643 C 5.324,-5.171 3.699,-4.152 1.096,-4.152 C -4.039,-4.152 -7.209,-9.21 -7.209,-14.457 C -7.209,-19.402 -3.887,-24.801 1.096,-24.801 C 3.285,-24.801 5.286,-24.159 6.456,-22.573 L 6.456,-27.48 C 4.983,-28.575 2.681,-29.179 -0.037,-29.179 C -8.191,-29.179 -12.493,-21.706 -12.493,-14.495 C -12.493,-7.398 -8.191,0 0,0"
       id="path2828"
       style="fill:#000000;fill-opacity:1;fill-rule:nonzero;stroke:none" /></g><g
     transform="matrix(1.573463,0,0,-1.573463,62.902076,16.223805)"
     id="g2830"
     style="fill:#000000"><path
       d="M 0,0 C 0.83,0 1.888,-0.076 2.831,-0.227 L 2.831,-4.266 C 1.095,-3.02 -1.207,-3.436 -2.227,-3.964 L -2.227,-16.383 C -2.227,-18.988 -4.378,-21.14 -6.984,-21.14 L -7.247,-21.14 L -7.247,-1.624 C -5.284,-0.68 -3.283,0 0,0"
       id="path2832"
       style="fill:#000000;fill-opacity:1;fill-rule:nonzero;stroke:none" /></g><g
     transform="matrix(1.573463,0,0,-1.573463,88.025552,28.698217)"
     id="g2834"
     style="fill:#000000"><path
       d="M 0,0 C -0.15,4.191 -2.755,4.643 -4.153,4.643 L -4.342,4.643 C -7.172,4.568 -8.493,2.567 -8.493,-1.17 L 0,0 z M 4.379,-2.869 L -8.192,-4.604 C -7.776,-8.04 -6.039,-9.852 -2.869,-9.852 C 0.641,-9.852 2.415,-8.72 3.699,-7.814 L 3.699,-12.004 C 2.415,-12.684 0.039,-13.514 -3.359,-13.514 C -9.512,-13.514 -13.174,-9.362 -13.174,-2.718 C -13.174,3.737 -9.777,7.928 -4.19,7.928 C 1.32,7.928 4.379,4.266 4.379,-2.076"
       id="path2836"
       style="fill:#000000;fill-opacity:1;fill-rule:nonzero;stroke:none" /></g><g
     transform="matrix(1.573463,0,0,-1.573463,115.65556,22.638815)"
     id="g2838"
     style="fill:#000000"><path
       d="M 0,0 C -0.528,0.15 -1.095,0.226 -1.736,0.226 C -5.889,0.226 -6.757,-3.776 -6.757,-7.097 C -6.757,-11.742 -5.209,-14.043 -2.076,-14.043 C -1.549,-14.043 -0.379,-13.929 0,-13.855 L 0,0 z M 4.945,11.4 L 4.945,-16.799 C 3.737,-17.063 -0.226,-17.365 -1.888,-17.365 L -2.227,-17.365 C -8.38,-17.29 -11.74,-13.741 -11.74,-7.361 C -11.74,-0.907 -8.229,3.246 -2.793,3.246 C -1.736,3.246 -0.831,3.132 -0.038,2.944 L -0.038,6.605 C -0.038,9.247 2.076,11.4 4.718,11.4"
       id="path2840"
       style="fill:#000000;fill-opacity:1;fill-rule:nonzero;stroke:none" /></g><g
     transform="matrix(1.573463,0,0,-1.573463,134.98556,16.223805)"
     id="g2842"
     style="fill:#000000"><path
       d="M 0,0 L 0,-16.383 C 0,-18.988 -2.115,-21.14 -4.757,-21.14 L -4.983,-21.14 L -4.983,0 L 0,0 z M -2.492,7.323 C -0.981,7.323 0.227,6.19 0.227,4.794 C 0.227,3.435 -0.981,2.34 -2.492,2.34 C -4.001,2.34 -5.246,3.435 -5.246,4.794 C -5.246,6.19 -4.001,7.323 -2.492,7.323"
       id="path2844"
       style="fill:#000000;fill-opacity:1;fill-rule:nonzero;stroke:none" /></g><g
     transform="matrix(1.573463,0,0,-1.573463,148.87293,4.7013319)"
     id="g2846"
     style="fill:#000000"><path
       d="M 0,0 L 0,-7.323 L 3.246,-7.323 L 3.246,-11.362 L 0,-11.362 L 0,-22.575 C 0,-23.933 0.453,-24.348 1.925,-24.348 C 2.302,-24.348 2.868,-24.235 3.246,-24.085 L 3.246,-28.274 C 3.02,-28.35 2.038,-28.765 0.717,-28.765 C -2.983,-28.765 -5.021,-26.953 -5.021,-23.67 L -5.021,-11.362 L -7.21,-11.362 L -7.21,-7.323 L -5.021,-7.323 L -5.021,-4.756 C -5.021,-2.152 -2.907,0 -0.303,0"
       id="path2848"
       style="fill:#000000;fill-opacity:1;fill-rule:nonzero;stroke:none" /></g><g
     transform="matrix(1.573463,0,0,-1.573463,197.71795,23.00071)"
     id="g2850"
     style="fill:#000000"><path
       d="M 0,0 L 0,-16.237 C -1.65,-16.538 -5.176,-16.8 -7.088,-16.8 L -7.876,-16.8 C -16.201,-16.8 -21.826,-11.4 -21.826,-2.063 C -21.826,6.375 -16.726,12.188 -8.888,12.188 C -6.075,12.188 -3.788,11.475 -1.913,10.425 L -1.913,5.55 C -3.187,6.9 -5.251,8.063 -8.251,8.063 C -13.576,8.063 -16.651,4.2 -16.651,-2.325 C -16.651,-9.6 -12.076,-12.15 -6.413,-12.15 L -4.913,-12.15 L -4.913,-4.237 L -9.526,-4.237 L -9.526,-4.012 C -9.526,-1.8 -7.763,0 -5.551,0"
       id="path2852"
       style="fill:#000000;fill-opacity:1;fill-rule:nonzero;stroke:none" /></g><g
     transform="matrix(1.573463,0,0,-1.573463,212.31338,15.920127)"
     id="g2854"
     style="fill:#000000"><path
       d="M 0,0 C 0.825,0 1.875,-0.075 2.813,-0.225 L 2.813,-4.238 C 1.088,-3 -1.2,-3.412 -2.212,-3.937 L -2.212,-16.275 C -2.212,-18.862 -4.35,-21 -6.937,-21 L -7.2,-21 L -7.2,-1.613 C -5.25,-0.675 -3.262,0 0,0"
       id="path2856"
       style="fill:#000000;fill-opacity:1;fill-rule:nonzero;stroke:none" /></g><g
     transform="matrix(1.573463,0,0,-1.573463,237.74371,32.617716)"
     id="g2858"
     style="fill:#000000"><path
       d="M 0,0 C 0,2.137 -0.525,7.275 -4.462,7.275 C -8.512,7.275 -8.85,1.65 -8.85,0 C -8.85,-1.65 -8.512,-7.125 -4.462,-7.125 C -0.3,-7.125 0,-1.65 0,0 M 4.65,-0.037 C 4.65,-6.525 1.163,-10.687 -4.462,-10.687 C -10.087,-10.687 -13.575,-6.525 -13.575,-0.037 C -13.575,6.525 -10.162,10.612 -4.462,10.612 C 1.238,10.612 4.65,6.525 4.65,-0.037"
       id="path2860"
       style="fill:#000000;fill-opacity:1;fill-rule:nonzero;stroke:none" /></g><g
     transform="matrix(1.573463,0,0,-1.573463,272.87284,15.920127)"
     id="g2862"
     style="fill:#000000"><path
       d="M 0,0 L 0,-20.737 C -1.838,-20.963 -4.95,-21.3 -6.788,-21.3 L -8.025,-21.3 C -13.351,-21.3 -16.088,-18.9 -16.088,-14.213 L -16.088,-4.838 C -16.088,-2.138 -13.988,0 -11.25,0 L -11.025,0 L -11.025,-14.475 C -11.025,-16.5 -9.863,-17.625 -7.875,-17.625 C -6.9,-17.625 -6,-17.55 -5.062,-17.438 L -5.062,-4.838 C -5.062,-2.138 -2.963,0 -0.263,0"
       id="path2864"
       style="fill:#000000;fill-opacity:1;fill-rule:nonzero;stroke:none" /></g><g
     transform="matrix(1.573463,0,0,-1.573463,-167.70468,1271.3926)"
     id="g2866"
     style="fill:#000000"><g
       clip-path="url(#clipPath2870)"
       id="g2868"
       style="fill:#000000"><g
         transform="translate(293.572,787.329)"
         id="g2874"
         style="fill:#000000"><path
           d="M 0,0 C 0,5.025 -1.425,7.387 -4.687,7.387 C -5.512,7.387 -6.149,7.275 -6.788,7.05 L -6.788,-7.238 C -6.3,-7.425 -5.737,-7.5 -5.024,-7.5 C -0.862,-7.5 0,-3.375 0,0 M 4.988,0.15 C 4.988,-6.375 1.425,-10.725 -4.012,-10.725 C -5.1,-10.725 -6.075,-10.575 -6.788,-10.388 L -6.788,-14.025 C -6.788,-16.613 -8.887,-18.75 -11.475,-18.75 L -11.737,-18.75 L -11.737,9.038 L -11.625,9.112 C -9.788,10.087 -7.425,10.575 -4.575,10.575 C 1.388,10.575 4.988,6.637 4.988,0.15"
           id="path2876"
           style="fill:#000000;fill-opacity:1;fill-rule:nonzero;stroke:none" /></g></g></g><g
     transform="matrix(1.5655848,0,0,-1.5655848,-90.188963,18.588955)"
     id="g2762"><path
       d="M 0,0 C 0,0 1.916,2.478 2.098,2.782 C 2.281,3.087 2.354,3.331 1.835,3.656 C 1.316,3.981 -0.42,4.996 -0.765,5.26 C -1.11,5.524 -1.05,6.499 -0.034,6.702 C 0.981,6.905 9.797,7.636 13.229,7.271 C 16.662,6.905 16.195,5.93 16.215,5.139 C 16.235,4.346 14.834,3.208 12.965,1.523 C 12.965,1.523 9.878,-1.341 7.623,-3.311 C 5.369,-5.281 -1.841,-11.354 -3.243,-12.451 C -4.645,-13.548 -10.078,-17.591 -10.431,-17.856 C -10.784,-18.12 -11.77,-18.914 -12.307,-18.361 C -12.844,-17.808 -12.307,-17.191 -12.034,-16.813 C -11.762,-16.437 -0.812,-0.976 0,0"
       id="path2764"
       style="fill:#ffffff;fill-opacity:1;fill-rule:nonzero;stroke:none" /></g></g></svg>