<svg width="624" height="250" viewBox="0 0 624 250" fill="none" xmlns="http://www.w3.org/2000/svg">
<path d="M530.3 186.9C484.9 186.9 479.1 154.8 479.1 126.8C479.1 98.8002 484.9 66.7002 530.3 66.7002C575.7 66.7002 581.5 98.8002 581.5 126.8C581.6 154.8 575.7 186.9 530.3 186.9ZM530.3 91.8002C511.5 91.8002 508.3 102.6 508.3 126.9C508.3 151.2 511.5 162 530.3 162C549.1 162 552.3 151.2 552.3 126.9C552.3 102.6 549.2 91.8002 530.3 91.8002Z" fill="#0F3250"/>
<path d="M265.7 66.7002C256.1 66.7002 246.5 69.0002 237.4 73.5002C235.4 67.0002 229.3 62.2002 222.1 62.2002H209.1V184.3H238.1V97.6002C242.9 95.1002 250.3 92.0002 261.4 92.0002C272.2 92.0002 276.8 96.3002 276.8 106.3V184.3H305.8V104.1C305.9 79.3002 292.4 66.7002 265.7 66.7002Z" fill="#0F3250"/>
<path d="M421.1 66.6996C410.7 66.6996 401.4 68.7996 392.8 73.1996C390.7 66.7996 384.7 62.0996 377.6 62.0996H364.6V249H393.6V179.8C401.9 184.3 411.7 186.8 421.1 186.8C452.3 186.8 467.5 167.1 467.5 126.7C467.5 86.3996 452.3 66.6996 421.1 66.6996ZM415.3 161.7C404.6 161.7 397.5 158.3 393.5 156.1V97.4996C397.5 95.3996 404.7 91.8996 415.3 91.8996C434.4 91.8996 438.2 105.2 438.2 126.7C438.2 148.3 434.4 161.7 415.3 161.7Z" fill="#0F3250"/>
<path d="M349.7 184.2V62.2002H320.7V168.2C320.7 177 327.9 184.2 336.7 184.2H349.7Z" fill="#0F3250"/>
<path d="M335.2 52.5004C345.3 52.5004 353.5 44.3004 353.5 34.2004C353.5 24.1004 345.3 15.9004 335.2 15.9004C325.1 15.9004 316.9 24.1004 316.9 34.2004C317 44.3004 325.2 52.5004 335.2 52.5004Z" fill="#0F3250"/>
<path d="M594.6 0V168.2C594.6 177 601.8 184.2 610.6 184.2H623.6V16C623.6 7.2 616.4 0 607.6 0H594.6Z" fill="#0F3250"/>
<path d="M181.4 0C172.6 0 165.4 7.2 165.4 16V127.6C165.4 139.5 165.4 155.6 149.4 169.8C127.5 189.2 98.7004 179.7 97.9004 179.4C111 185.9 125.2 186.8 132.1 186.8C146.7 186.8 194.4 182.7 194.4 129.8V0H181.4Z" fill="#0F3250"/>
<path d="M132 160.1C109.6 160.1 98.7002 149.5 98.7002 127.7V16C98.7002 7.2 91.5002 0 82.7002 0H69.7002V16V129.9C69.7002 152.4 78.4002 166.1 89.4002 174.4C96.4002 176.1 140.3 185.1 159.5 149.3C154.1 156.5 145 160.1 132 160.1Z" fill="#0F3250"/>
<path fill-rule="evenodd" clip-rule="evenodd" d="M336.6 237.8V249.1H97.8999C65.7999 249.1 32.7999 244 19.3999 238.6V215.3C29.5999 222.5 52.9999 237.8 107.7 237.8H336.6Z" fill="#BE0F19"/>
<path fill-rule="evenodd" clip-rule="evenodd" d="M134.2 215.3L336.6 215.2V226.5H119.5C77.0001 226.5 33.3001 200.9 9.6001 163.9V117.7C11.6001 123.2 38.0001 215.3 134.2 215.3Z" fill="#329646"/>
<path d="M119.5 226.5C78.2 226.3 37.1 215.2 0 163.8V189.8C37 225.7 66.5 236.1 107.5 237.8H336.5V226.5H119.5Z" fill="white"/>
<path d="M623.6 237.8H421.6V249.1H623.6V237.8Z" fill="#BE0F19"/>
<path fill-rule="evenodd" clip-rule="evenodd" d="M421.6 215.3H623.6V226.5H421.6V215.3Z" fill="#329646"/>
<path d="M623.6 226.5H421.6V237.8H623.6V226.5Z" fill="white"/>
</svg>