<svg id="ab119957-c0e3-4541-ae67-e37a03e692b2" data-name="Layer 1" xmlns="http://www.w3.org/2000/svg" viewBox="0 0 119.4 32.84"><defs><style>.f49f1de1-4878-42f0-9e6f-6caddea25dce{fill:#e52329;}</style></defs><title>webuild</title><path class="f49f1de1-4878-42f0-9e6f-6caddea25dce" d="M97.05,22.49s-2.54,4.06.36,5.42c0,0-4.26-.45-3.85-4.7,0,0,1.17-9.3,20.71-17.63a30.72,30.72,0,0,0-2-2.61L114,2.29a29,29,0,0,1,4.33,4.89S102.83,13,97.05,22.49"/><path class="f49f1de1-4878-42f0-9e6f-6caddea25dce" d="M103.39,26.16s-2.77,3.69-.44,5.46c0,0-4,.09-3.53-3.29,0,0,1.61-8.6,16.6-14.68a24,24,0,0,0-1.43-2.27l1.42-.52a23.83,23.83,0,0,1,3.39,4.72s-10.56,3.39-16,10.58"/><path class="f49f1de1-4878-42f0-9e6f-6caddea25dce" d="M93.56,15.57s-2.21,3.38-.42,6c0,0-2.08-1.12-2-5.13,0,0,0-7,13.83-13.61A13.13,13.13,0,0,0,103.4.62L104.79,0a24.52,24.52,0,0,1,3.7,4.44S98.51,8,93.56,15.57"/><path class="f49f1de1-4878-42f0-9e6f-6caddea25dce" d="M108.3,29.81s-1.38,2.1.14,3c0,0-2.74.1-2.58-2.19,0,0,.51-4.6,10.12-9.5a6.53,6.53,0,0,0-.78-1.31l.87-.38a14.46,14.46,0,0,1,2.19,2.76s-7.34,3.5-10,7.59"/><path class="f49f1de1-4878-42f0-9e6f-6caddea25dce" d="M92.94,8.54a5.74,5.74,0,0,0-.79,1.9A3.93,3.93,0,0,1,92,8.22s.87-3.32,6.19-6.3C98,1.57,97.78,1,97.78,1L98.4.65c.27.41.91,1.34,1.42,2.06,0,0-5.12,2.73-6.88,5.83"/><polygon class="f49f1de1-4878-42f0-9e6f-6caddea25dce" points="0 17.97 3.04 17.97 4.89 26.2 4.94 26.2 7.28 17.97 10.16 17.97 12.24 26.2 12.29 26.2 14.3 17.97 17.31 17.97 14.2 29.42 10.39 29.42 8.67 22.24 8.62 22.24 6.64 29.42 2.85 29.42 0 17.97"/><path class="f49f1de1-4878-42f0-9e6f-6caddea25dce" d="M28.9,23.55c0-3.49-1.54-5.86-5-5.86s-5.53,2.55-5.53,6c0,3.76,2.39,5.92,5.53,5.92a7.54,7.54,0,0,0,4.12-1.31l-.88-2a6,6,0,0,1-2.85.77,2.65,2.65,0,0,1-2.78-2.29h7.3a10,10,0,0,0,0-1.21m-5-3.47c1.49,0,2.13,1.11,2.16,2.45H21.47c.18-1.47.9-2.45,2.42-2.45"/><path class="f49f1de1-4878-42f0-9e6f-6caddea25dce" d="M37.68,17.69a5.5,5.5,0,0,0-3.11,1V12.83H31.64v16a13,13,0,0,0,4.37.8c3.68,0,6.17-2.44,6.17-6.33,0-3.55-1.67-5.63-4.5-5.63M36,27.08a5.68,5.68,0,0,1-1.42-.21V21.39a3.83,3.83,0,0,1,2.52-1.05c1.34,0,2,1.11,2,3,0,2.37-1.23,3.71-3.08,3.71"/><path class="f49f1de1-4878-42f0-9e6f-6caddea25dce" d="M55.1,18h-3v8.18a3.33,3.33,0,0,1-2.44,1c-1.31,0-1.85-.85-1.85-2.06V18h-3v7.26c0,2.65,1.36,4.5,4.14,4.5a5.34,5.34,0,0,0,3.32-1.08h0l.25.77h2.78a9.29,9.29,0,0,1-.33-2.5Z"/><path class="f49f1de1-4878-42f0-9e6f-6caddea25dce" d="M61.16,15.68a1.69,1.69,0,0,0,1.75-1.8,1.77,1.77,0,0,0-3.53,0,1.7,1.7,0,0,0,1.78,1.8M59.74,29.42h3V18H58v2.42h1.7Z"/><path class="f49f1de1-4878-42f0-9e6f-6caddea25dce" d="M69.62,25.74c0,.9.34,1.31,1,1.31a3.11,3.11,0,0,0,1.08-.26l.75,2.09a4.75,4.75,0,0,1-2.52.72c-2,0-3.24-1.21-3.24-3.63V12.83h3Z"/><path class="f49f1de1-4878-42f0-9e6f-6caddea25dce" d="M84,27.21V12.83H81.11v5a7.73,7.73,0,0,0-1.72-.18C76,17.69,73.5,20.21,73.5,24c0,3.54,1.67,5.63,4.5,5.63a6.19,6.19,0,0,0,3.21-1h.06l.2.83h2.91A7.37,7.37,0,0,1,84,27.21M78.59,27c-1.34,0-2-1.11-2-3,0-2.39,1.24-3.75,3.09-3.75a4.79,4.79,0,0,1,1.41.2v5.53A3.79,3.79,0,0,1,78.59,27"/></svg>