<?xml version="1.0" encoding="utf-8"?>
<!-- Generator: Adobe Illustrator 23.0.1, SVG Export Plug-In . SVG Version: 6.00 Build 0)  -->
<!DOCTYPE svg PUBLIC "-//W3C//DTD SVG 1.1//EN" "http://www.w3.org/Graphics/SVG/1.1/DTD/svg11.dtd" [
	<!ENTITY ns_extend "http://ns.adobe.com/Extensibility/1.0/">
	<!ENTITY ns_ai "http://ns.adobe.com/AdobeIllustrator/10.0/">
	<!ENTITY ns_graphs "http://ns.adobe.com/Graphs/1.0/">
	<!ENTITY ns_vars "http://ns.adobe.com/Variables/1.0/">
	<!ENTITY ns_imrep "http://ns.adobe.com/ImageReplacement/1.0/">
	<!ENTITY ns_sfw "http://ns.adobe.com/SaveForWeb/1.0/">
	<!ENTITY ns_custom "http://ns.adobe.com/GenericCustomNamespace/1.0/">
	<!ENTITY ns_adobe_xpath "http://ns.adobe.com/XPath/1.0/">
]>
<svg version="1.1" id="Livello_1" xmlns:x="&ns_extend;" xmlns:i="&ns_ai;" xmlns:graph="&ns_graphs;"
	 xmlns="http://www.w3.org/2000/svg" xmlns:xlink="http://www.w3.org/1999/xlink" x="0px" y="0px" viewBox="0 0 816.1 506.6"
	 enable-background="new 0 0 816.1 506.6" xml:space="preserve">
<metadata>
	<sfw  xmlns="&ns_sfw;">
		<slices></slices>
		<sliceSourceBounds  bottomLeftOrigin="true" height="506.6" width="816.1" x="-7635.4" y="255.9"></sliceSourceBounds>
	</sfw>
</metadata>
<g>
	<path fill="#FF6B00" d="M248.6,115.8c22.3-2.5,38.6-20.6,36.4-40.3c-0.6-5.2-2.5-10.1-5.3-14.3c0.3,3.1-0.2,6.1-1,8.8
		c-1,3.3-2.7,6.3-4.6,9c-1.9,2.7-4.1,5-6.4,7c-4.7,4.1-10,7.3-15.7,9.6c-5.7,2.2-11.9,3.6-18.3,3.6c0,0-2.3,0.1-4.5-0.2
		c-2.1-0.3-4.5-0.7-4.9-0.8c-3-0.7-6-1.5-8.9-2.9c-1.5-0.7-5-2.3-8.4-5.5c-0.9-0.9-1.8-1.9-2.5-2.9
		C207.9,105.5,227.1,118.3,248.6,115.8 M209.8,77.2c2.3,2.6,5.9,3.8,10.1,4.6c2.1,0.4,4.3,0.6,6.6,0.7c1.1,0.1,2.4,0.1,3.4,0.1
		l1.6,0l1.6-0.1c4.2-0.3,8.5-1.4,12.7-2.9c4.2-1.6,8.3-3.5,12-5.9c5.9-3.9,7.9-6.8,9-8.4c1-1.6,1.7-3.2,2-4.8
		c0.3-1.6,0.1-3.2-0.7-5.1c-0.7-1.6-1.9-3.2-4.2-5.2c-6.5-5.7-17.1-6.2-23.4-5.5c-14.5,1.7-26.8,10.2-31.3,19.2
		c-1.1,2.4-1.7,5.4-1.5,7.9C207.9,74,208.7,75.9,209.8,77.2 M241.8,244.9c-4.5-0.2-9.1,0.4-13.6,1.8c-4.5,1.4-8.8,3.6-13,6.2
		c-2.1,1.3-4.1,2.8-6.1,4.3c0,0-16,11.8-21,14.9c-10.2,5.9-16.5,10.3-28.1,13c-9.9,2.3-17.7,2.6-17.7,2.6c-5.9,0.4-15.3,0.7-26.8-1
		c-15.4-2.3-25.9-6.3-25.9-6.3c-4.8-1.6-9.5-3.5-14.1-5.6c8.7,12.6,18.2,25.3,30.1,34.5c10,7.8,22.1,13,34.8,14
		c20.9,1.7,35.5-8.4,51-21.7c11.1-9.5,20.6-21,30.2-32c6.7-7.7,13.5-17.8,21.9-24.5C242.9,245,242.3,244.9,241.8,244.9 M367,211
		c4.3,3.8,8.8,7.2,13.6,9.9c4.8,2.6,9.8,4.6,14.9,5.7c5.2,1.1,10.5,1.3,15.9,0.6c2.7-0.3,5.4-0.9,8.1-1.6c2.7-0.8,5.4-1.7,8-2.7
		c9.7-4,19.1-10.2,27.7-17.3c8.7-7.2,16.7-15.4,24.3-24.1c7.6-8.7,14.6-18,21.2-27.7c4.9-7.2,9.6-14.7,14.1-22.2
		c-3.5-2.7-8.1-4.1-13.3-3.8c-12.3,0.8-23,9-31.6,17.1c-9.2,8.7-17.4,18.4-27.1,26.7c-9.7,8.3-19.7,16.1-30.6,22.6
		c-14.4,8.6-30.5,14.8-46.9,15.2C365.3,209.3,367,211,367,211 M621.7,157.5c10.9-7.2,23-12.9,34.9-18.1c22.8-10,57.6-14.9,66.1-40.9
		c9-27.7-16.2-45.6-41.6-46.5c-69-2.3-137.1,41.5-140.5,54.1c2.4,0.4,5,0.8,7.7,1.1c11.6,1.2,25.7,1.3,41,1.3h2.7
		c23.4,0,40,0.6,50.6,2.2c5.3,0.8,9.1,1.8,11.5,3c2.4,1.2,3.1,2.4,3.2,3.7c0,0.9-0.6,1.8-2.1,3.2c-5.1,5.1-18.4,12.6-30.3,20.9
		c-6,4.2-11.7,8.5-15.9,13c-4.2,4.4-7,9-7.1,13.7v0.2c0,3.3,1,6.2,2.6,8.7c-0.2-2.1,2.6-5.8,3.8-7.4
		C611.7,164.8,616.7,160.9,621.7,157.5 M63.9,241.1c2,1.6,4.3,3.2,6.4,4.6c4.3,2.8,8.5,5.2,13,7.6c4.5,2.4,9.1,4.5,13.8,6.4
		c0,0,6.6,2.7,14.4,4.7c7.8,2,14.8,2.8,14.8,2.8c5,0.7,10,0.8,14.9,0.8c0,0,8.2-0.2,14.9-1.5c16.1-2.7,32.5-14.7,36.7-17.7l6.7-4.8
		c2.5-1.7,5-3.3,7.6-4.8c5.2-3,10.9-5.5,17-7.1c6.1-1.6,11.8-2.2,18.2-1.5c0.8,0.1,5.6,0.6,11.7,2.8c0,0,4.2,1.6,6.6,3.1
		c2.8,1.8,5.4,3.7,7.7,5.6c11.4,9.7,44.9,50,54.5,58.7c11.4,10.2,25.7,20.6,37.3,23.6c22.4,5.9,40.1,0.5,60.2-12.2
		c22.2-14,40.2-35,55.5-56c16.1-22.2,30.7-46.5,40.2-72.3c4.7-12.8,8.5-26.8,6-40.5c-0.3-1.4-0.7-2.7-1.1-4
		c-3.2,6.8-6.6,13.5-10.3,20.1c-5.9,10.6-12.3,20.8-19.5,30.7c-7.2,9.8-15.2,19.3-24.2,27.9c-9.1,8.6-19.3,16.4-31.2,22.2
		c-3.3,1.5-6.6,2.9-10.1,4.1c-3.5,1.1-7.1,2.1-10.8,2.7c-7.4,1.3-15.1,1.4-22.7,0.1c-7.6-1.2-14.8-3.8-21.4-7.1
		c-6.6-3.4-12.7-7.6-18.1-12.3c0,0-3.3-3-4-3.5l-3.6-3.4c-2.4-2.3-4.7-4.5-7.1-6.8c-4.7-4.6-13-14-13-14s-14.5-16.9-26.4-29.7
		c0,0-11.2-12.1-17.3-17.3c-20.8-17.7-46.3-13.8-68.8-1.5c-20.9,11.4-39.5,33.1-64.5,34.7c-19.5,1.2-37.3-6.1-51.6-19
		c-19-17.2-37.2-35.1-52.5-56c-6.8-9.3-22-23.1-37.2-11.2c-15.3,11.9-1,51.8,21.3,93.5C27.6,193.5,47.5,228.4,63.9,241.1 M642,265.9
		c-0.2-5.1-0.4-6.9-0.4-6.9c-0.3-2.2-0.7-4.4-1.3-6.5c-5.4-18.4-27.3-26.4-43.2-15.2c-13.1,9.3-18.3,27.2-13.6,42.3
		c12.1,38.3,56.4,46.3,91.3,41c17.2-2.6,34.1-8.8,47.8-19.8c13.2-10.6,23.3-27,20-44.1c-2.2-25.7-21.7-38.5-53.4-42.2
		c1.5,3.1,6.4,25.6-9.6,40.2c-9.8,8.9-20.2,11.2-34.3,11.3C644.9,266,642,265.9,642,265.9 M766.1,160.3c-3.1-2.3-6.8-5-8.5-6.7
		c0.9-1.5,2.5-3.9,3.9-5.9c8.3-12,23.8-34.7,23.8-67.1c0-18.6-6.8-38.8-23.2-54.3C745.8,10.8,719.9,0,681.9,0
		c-36,0-76.6,11.8-111.7,32.6c-15.7,9.3-28.7,19.4-37.8,29c-9,9.7-14.3,18.9-14.3,26.8c0,3.8,1.5,7.4,4.3,10.2
		c2.2,2.2,5.2,3.9,8.8,5.2c3.8-24.4,96.3-77.4,164.1-69.7c30.3,3.5,52.9,26,49.7,57.3c-3,29.9-33.4,46.1-59.6,54
		c-14.6,4.4-29.3,8.6-43.3,14.7c-6.9,3-13.8,6.4-19.9,10.9c-4.4,3.3-10.1,7.5-9.8,13.7c10.4,7.1,26.8,11.1,37.5,11.9
		c8.7,0.6,11.1,0.8,20.9,1.1c20,0.6,41,1.3,59.7,9.3c26.2,11.3,41.6,38.4,36,66.7c-7.2,36.5-44,58.5-78.2,64.9
		c-36.5,6.8-82.4,1.5-106.5-30.1c-9.9-12.9-16.1-30.2-13.4-46.4c3-18.1,15.7-35.4,34-40c11.6-2.9,23.7-0.2,32.9,6.6
		c-2.3-3.2-4.9-6.2-8-8.8c-10.6-9.2-25.5-14.4-42.8-14.4c-21.4,0-38.5,8.9-50.2,22c-11.8,13.2-18.1,30.6-18.2,47.7
		c0,27,12.5,54.1,36.7,74.4c24.3,20.3,60.3,33.9,107.5,33.9c37.4,0,75.2-12.4,103.7-33.8c23.7-17.8,52-50.3,51.9-103.6
		C816.2,197.1,783.4,173,766.1,160.3"/>
	<path fill="#575756" d="M105.8,419.6h38.4c9.8,0,17.5,2.7,22.4,7.6c3.8,3.8,5.8,8.4,5.8,14.2v0.2c0,10.3-5.9,15.8-12.2,19.1
		c10,3.4,17,9.2,17,20.8v0.2c0,15.3-12.6,23.5-31.7,23.5h-39.7V419.6z M157.4,443.8c0-6.7-5.4-10.9-15.1-10.9h-21.6v22.8h20.6
		c9.7,0,16.1-3.8,16.1-11.6V443.8z M144.5,468.4h-23.9v23.5h24.9c10.3,0,16.5-4,16.5-11.8v-0.2C162.1,472.7,156.4,468.4,144.5,468.4
		"/>
	<path fill="#575756" d="M192.9,468.9v-49.3h15.1v48.7c0,15.9,8.2,24.4,21.7,24.4c13.3,0,21.5-8,21.5-23.7v-49.3h15v48.6
		c0,25.6-14.4,38.4-36.8,38.4C207.1,506.6,192.9,493.8,192.9,468.9"/>
	<path fill="#575756" d="M281.1,492.8l9.1-10.8c8.2,7.1,16.5,11.1,27,11.1c9.3,0,15.2-4.4,15.2-10.8v-0.2c0-6.1-3.4-9.4-19.3-13.1
		c-18.2-4.4-28.5-9.8-28.5-25.6v-0.2c0-14.7,12.3-24.9,29.3-24.9c12.5,0,22.4,3.8,31.1,10.8l-8.1,11.4c-7.7-5.8-15.4-8.8-23.3-8.8
		c-8.8,0-14,4.5-14,10.2v0.2c0,6.6,3.9,9.5,20.4,13.5c18.1,4.4,27.4,10.9,27.4,25.1v0.2c0,16-12.6,25.6-30.6,25.6
		C303.8,506.5,291.4,502,281.1,492.8"/>
	<rect x="366.1" y="419.6" fill="#575756" width="15.1" height="85.7"/>
	<polygon fill="#575756" points="401.6,419.6 415.5,419.6 461.4,478.8 461.4,419.6 476.2,419.6 476.2,505.3 463.6,505.3 
		416.4,444.3 416.4,505.3 401.6,505.3 	"/>
	<polygon fill="#575756" points="495.8,419.6 559.3,419.6 559.3,433 510.9,433 510.9,455.3 553.8,455.3 553.8,468.8 510.9,468.8 
		510.9,491.8 559.9,491.8 559.9,505.3 495.8,505.3 	"/>
	<path fill="#575756" d="M571.3,492.8l9.1-10.8c8.2,7.1,16.5,11.1,27,11.1c9.3,0,15.2-4.4,15.2-10.8v-0.2c0-6.1-3.4-9.4-19.4-13.1
		c-18.2-4.4-28.5-9.8-28.5-25.6v-0.2c0-14.7,12.3-24.9,29.3-24.9c12.5,0,22.4,3.8,31.1,10.8l-8.1,11.4c-7.7-5.8-15.4-8.8-23.3-8.8
		c-8.8,0-14,4.5-14,10.2v0.2c0,6.6,3.9,9.5,20.4,13.5c18.1,4.4,27.4,10.9,27.4,25.1v0.2c0,16-12.6,25.6-30.6,25.6
		C594,506.5,581.6,502,571.3,492.8"/>
	<path fill="#575756" d="M647.7,492.8l9.1-10.8c8.2,7.1,16.5,11.1,27,11.1c9.3,0,15.2-4.4,15.2-10.8v-0.2c0-6.1-3.4-9.4-19.3-13.1
		c-18.3-4.4-28.5-9.8-28.5-25.6v-0.2c0-14.7,12.3-24.9,29.3-24.9c12.5,0,22.4,3.8,31.1,10.8l-8.1,11.4c-7.7-5.8-15.4-8.8-23.3-8.8
		c-8.8,0-14,4.5-14,10.2v0.2c0,6.6,3.9,9.5,20.4,13.5c18.1,4.4,27.4,10.9,27.4,25.1v0.2c0,16-12.6,25.6-30.6,25.6
		C670.3,506.5,658,502,647.7,492.8"/>
</g>
</svg>
